<?xml version="1.0" encoding="utf-8" standalone="no"?>
<!DOCTYPE svg PUBLIC "-//W3C//DTD SVG 1.1//EN"
  "http://www.w3.org/Graphics/SVG/1.1/DTD/svg11.dtd">
<!-- Created with matplotlib (http://matplotlib.org/) -->
<svg height="363.200096pt" version="1.1" viewBox="0 0 563.876377 363.200096" width="563.876377pt" xmlns="http://www.w3.org/2000/svg" xmlns:xlink="http://www.w3.org/1999/xlink">
 <defs>
  <style type="text/css">
*{stroke-linecap:butt;stroke-linejoin:round;}
  </style>
 </defs>
 <g id="figure_1">
  <g id="patch_1">
   <path d="M -0 363.200096 
L 563.876377 363.200096 
L 563.876377 0 
L -0 0 
z
" style="fill:#ffffff;"/>
  </g>
  <g id="axes_1">
   <g id="patch_2">
    <path d="M 50.976377 304.46 
L 553.176377 304.46 
L 553.176377 10.7 
L 50.976377 10.7 
z
" style="fill:#ffffff;"/>
   </g>
   <g id="matplotlib.axis_1">
    <g id="xtick_1">
     <g id="line2d_1">
      <path clip-path="url(#pa013d2fd0e)" d="M 50.976377 304.46 
L 50.976377 10.7 
" style="fill:none;stroke:#b0b0b0;stroke-linecap:square;stroke-width:0.8;"/>
     </g>
     <g id="line2d_2">
      <defs>
       <path d="M 0 0 
L 0 3.5 
" id="mf4d192d906" style="stroke:#000000;stroke-width:0.8;"/>
      </defs>
      <g>
       <use style="stroke:#000000;stroke-width:0.8;" x="50.976377" xlink:href="#mf4d192d906" y="304.46"/>
      </g>
     </g>
     <g id="text_1">
      <!-- 05-29 08 -->
      <defs>
       <path d="M 31.78125 66.40625 
Q 24.171875 66.40625 20.328125 58.90625 
Q 16.5 51.421875 16.5 36.375 
Q 16.5 21.390625 20.328125 13.890625 
Q 24.171875 6.390625 31.78125 6.390625 
Q 39.453125 6.390625 43.28125 13.890625 
Q 47.125 21.390625 47.125 36.375 
Q 47.125 51.421875 43.28125 58.90625 
Q 39.453125 66.40625 31.78125 66.40625 
z
M 31.78125 74.21875 
Q 44.046875 74.21875 50.515625 64.515625 
Q 56.984375 54.828125 56.984375 36.375 
Q 56.984375 17.96875 50.515625 8.265625 
Q 44.046875 -1.421875 31.78125 -1.421875 
Q 19.53125 -1.421875 13.0625 8.265625 
Q 6.59375 17.96875 6.59375 36.375 
Q 6.59375 54.828125 13.0625 64.515625 
Q 19.53125 74.21875 31.78125 74.21875 
z
" id="DejaVuSans-30"/>
       <path d="M 10.796875 72.90625 
L 49.515625 72.90625 
L 49.515625 64.59375 
L 19.828125 64.59375 
L 19.828125 46.734375 
Q 21.96875 47.46875 24.109375 47.828125 
Q 26.265625 48.1875 28.421875 48.1875 
Q 40.625 48.1875 47.75 41.5 
Q 54.890625 34.8125 54.890625 23.390625 
Q 54.890625 11.625 47.5625 5.09375 
Q 40.234375 -1.421875 26.90625 -1.421875 
Q 22.3125 -1.421875 17.546875 -0.640625 
Q 12.796875 0.140625 7.71875 1.703125 
L 7.71875 11.625 
Q 12.109375 9.234375 16.796875 8.0625 
Q 21.484375 6.890625 26.703125 6.890625 
Q 35.15625 6.890625 40.078125 11.328125 
Q 45.015625 15.765625 45.015625 23.390625 
Q 45.015625 31 40.078125 35.4375 
Q 35.15625 39.890625 26.703125 39.890625 
Q 22.75 39.890625 18.8125 39.015625 
Q 14.890625 38.140625 10.796875 36.28125 
z
" id="DejaVuSans-35"/>
       <path d="M 4.890625 31.390625 
L 31.203125 31.390625 
L 31.203125 23.390625 
L 4.890625 23.390625 
z
" id="DejaVuSans-2d"/>
       <path d="M 19.1875 8.296875 
L 53.609375 8.296875 
L 53.609375 0 
L 7.328125 0 
L 7.328125 8.296875 
Q 12.9375 14.109375 22.625 23.890625 
Q 32.328125 33.6875 34.8125 36.53125 
Q 39.546875 41.84375 41.421875 45.53125 
Q 43.3125 49.21875 43.3125 52.78125 
Q 43.3125 58.59375 39.234375 62.25 
Q 35.15625 65.921875 28.609375 65.921875 
Q 23.96875 65.921875 18.8125 64.3125 
Q 13.671875 62.703125 7.8125 59.421875 
L 7.8125 69.390625 
Q 13.765625 71.78125 18.9375 73 
Q 24.125 74.21875 28.421875 74.21875 
Q 39.75 74.21875 46.484375 68.546875 
Q 53.21875 62.890625 53.21875 53.421875 
Q 53.21875 48.921875 51.53125 44.890625 
Q 49.859375 40.875 45.40625 35.40625 
Q 44.1875 33.984375 37.640625 27.21875 
Q 31.109375 20.453125 19.1875 8.296875 
z
" id="DejaVuSans-32"/>
       <path d="M 10.984375 1.515625 
L 10.984375 10.5 
Q 14.703125 8.734375 18.5 7.8125 
Q 22.3125 6.890625 25.984375 6.890625 
Q 35.75 6.890625 40.890625 13.453125 
Q 46.046875 20.015625 46.78125 33.40625 
Q 43.953125 29.203125 39.59375 26.953125 
Q 35.25 24.703125 29.984375 24.703125 
Q 19.046875 24.703125 12.671875 31.3125 
Q 6.296875 37.9375 6.296875 49.421875 
Q 6.296875 60.640625 12.9375 67.421875 
Q 19.578125 74.21875 30.609375 74.21875 
Q 43.265625 74.21875 49.921875 64.515625 
Q 56.59375 54.828125 56.59375 36.375 
Q 56.59375 19.140625 48.40625 8.859375 
Q 40.234375 -1.421875 26.421875 -1.421875 
Q 22.703125 -1.421875 18.890625 -0.6875 
Q 15.09375 0.046875 10.984375 1.515625 
z
M 30.609375 32.421875 
Q 37.25 32.421875 41.125 36.953125 
Q 45.015625 41.5 45.015625 49.421875 
Q 45.015625 57.28125 41.125 61.84375 
Q 37.25 66.40625 30.609375 66.40625 
Q 23.96875 66.40625 20.09375 61.84375 
Q 16.21875 57.28125 16.21875 49.421875 
Q 16.21875 41.5 20.09375 36.953125 
Q 23.96875 32.421875 30.609375 32.421875 
z
" id="DejaVuSans-39"/>
       <path id="DejaVuSans-20"/>
       <path d="M 31.78125 34.625 
Q 24.75 34.625 20.71875 30.859375 
Q 16.703125 27.09375 16.703125 20.515625 
Q 16.703125 13.921875 20.71875 10.15625 
Q 24.75 6.390625 31.78125 6.390625 
Q 38.8125 6.390625 42.859375 10.171875 
Q 46.921875 13.96875 46.921875 20.515625 
Q 46.921875 27.09375 42.890625 30.859375 
Q 38.875 34.625 31.78125 34.625 
z
M 21.921875 38.8125 
Q 15.578125 40.375 12.03125 44.71875 
Q 8.5 49.078125 8.5 55.328125 
Q 8.5 64.0625 14.71875 69.140625 
Q 20.953125 74.21875 31.78125 74.21875 
Q 42.671875 74.21875 48.875 69.140625 
Q 55.078125 64.0625 55.078125 55.328125 
Q 55.078125 49.078125 51.53125 44.71875 
Q 48 40.375 41.703125 38.8125 
Q 48.828125 37.15625 52.796875 32.3125 
Q 56.78125 27.484375 56.78125 20.515625 
Q 56.78125 9.90625 50.3125 4.234375 
Q 43.84375 -1.421875 31.78125 -1.421875 
Q 19.734375 -1.421875 13.25 4.234375 
Q 6.78125 9.90625 6.78125 20.515625 
Q 6.78125 27.484375 10.78125 32.3125 
Q 14.796875 37.15625 21.921875 38.8125 
z
M 18.3125 54.390625 
Q 18.3125 48.734375 21.84375 45.5625 
Q 25.390625 42.390625 31.78125 42.390625 
Q 38.140625 42.390625 41.71875 45.5625 
Q 45.3125 48.734375 45.3125 54.390625 
Q 45.3125 60.0625 41.71875 63.234375 
Q 38.140625 66.40625 31.78125 66.40625 
Q 25.390625 66.40625 21.84375 63.234375 
Q 18.3125 60.0625 18.3125 54.390625 
z
" id="DejaVuSans-38"/>
      </defs>
      <g transform="translate(10.999219 340.520909)rotate(-30)scale(0.1 -0.1)">
       <use xlink:href="#DejaVuSans-30"/>
       <use x="63.623047" xlink:href="#DejaVuSans-35"/>
       <use x="127.246094" xlink:href="#DejaVuSans-2d"/>
       <use x="163.330078" xlink:href="#DejaVuSans-32"/>
       <use x="226.953125" xlink:href="#DejaVuSans-39"/>
       <use x="290.576172" xlink:href="#DejaVuSans-20"/>
       <use x="322.363281" xlink:href="#DejaVuSans-30"/>
       <use x="385.986328" xlink:href="#DejaVuSans-38"/>
      </g>
     </g>
    </g>
    <g id="xtick_2">
     <g id="line2d_3">
      <path clip-path="url(#pa013d2fd0e)" d="M 134.676376 304.46 
L 134.676376 10.7 
" style="fill:none;stroke:#b0b0b0;stroke-linecap:square;stroke-width:0.8;"/>
     </g>
     <g id="line2d_4">
      <g>
       <use style="stroke:#000000;stroke-width:0.8;" x="134.676376" xlink:href="#mf4d192d906" y="304.46"/>
      </g>
     </g>
     <g id="text_2">
      <!-- 05-29 10 -->
      <defs>
       <path d="M 12.40625 8.296875 
L 28.515625 8.296875 
L 28.515625 63.921875 
L 10.984375 60.40625 
L 10.984375 69.390625 
L 28.421875 72.90625 
L 38.28125 72.90625 
L 38.28125 8.296875 
L 54.390625 8.296875 
L 54.390625 0 
L 12.40625 0 
z
" id="DejaVuSans-31"/>
      </defs>
      <g transform="translate(94.699219 340.520909)rotate(-30)scale(0.1 -0.1)">
       <use xlink:href="#DejaVuSans-30"/>
       <use x="63.623047" xlink:href="#DejaVuSans-35"/>
       <use x="127.246094" xlink:href="#DejaVuSans-2d"/>
       <use x="163.330078" xlink:href="#DejaVuSans-32"/>
       <use x="226.953125" xlink:href="#DejaVuSans-39"/>
       <use x="290.576172" xlink:href="#DejaVuSans-20"/>
       <use x="322.363281" xlink:href="#DejaVuSans-31"/>
       <use x="385.986328" xlink:href="#DejaVuSans-30"/>
      </g>
     </g>
    </g>
    <g id="xtick_3">
     <g id="line2d_5">
      <path clip-path="url(#pa013d2fd0e)" d="M 218.376377 304.46 
L 218.376377 10.7 
" style="fill:none;stroke:#b0b0b0;stroke-linecap:square;stroke-width:0.8;"/>
     </g>
     <g id="line2d_6">
      <g>
       <use style="stroke:#000000;stroke-width:0.8;" x="218.376377" xlink:href="#mf4d192d906" y="304.46"/>
      </g>
     </g>
     <g id="text_3">
      <!-- 05-29 12 -->
      <g transform="translate(178.399219 340.520909)rotate(-30)scale(0.1 -0.1)">
       <use xlink:href="#DejaVuSans-30"/>
       <use x="63.623047" xlink:href="#DejaVuSans-35"/>
       <use x="127.246094" xlink:href="#DejaVuSans-2d"/>
       <use x="163.330078" xlink:href="#DejaVuSans-32"/>
       <use x="226.953125" xlink:href="#DejaVuSans-39"/>
       <use x="290.576172" xlink:href="#DejaVuSans-20"/>
       <use x="322.363281" xlink:href="#DejaVuSans-31"/>
       <use x="385.986328" xlink:href="#DejaVuSans-32"/>
      </g>
     </g>
    </g>
    <g id="xtick_4">
     <g id="line2d_7">
      <path clip-path="url(#pa013d2fd0e)" d="M 302.076377 304.46 
L 302.076377 10.7 
" style="fill:none;stroke:#b0b0b0;stroke-linecap:square;stroke-width:0.8;"/>
     </g>
     <g id="line2d_8">
      <g>
       <use style="stroke:#000000;stroke-width:0.8;" x="302.076377" xlink:href="#mf4d192d906" y="304.46"/>
      </g>
     </g>
     <g id="text_4">
      <!-- 05-29 14 -->
      <defs>
       <path d="M 37.796875 64.3125 
L 12.890625 25.390625 
L 37.796875 25.390625 
z
M 35.203125 72.90625 
L 47.609375 72.90625 
L 47.609375 25.390625 
L 58.015625 25.390625 
L 58.015625 17.1875 
L 47.609375 17.1875 
L 47.609375 0 
L 37.796875 0 
L 37.796875 17.1875 
L 4.890625 17.1875 
L 4.890625 26.703125 
z
" id="DejaVuSans-34"/>
      </defs>
      <g transform="translate(262.099219 340.520909)rotate(-30)scale(0.1 -0.1)">
       <use xlink:href="#DejaVuSans-30"/>
       <use x="63.623047" xlink:href="#DejaVuSans-35"/>
       <use x="127.246094" xlink:href="#DejaVuSans-2d"/>
       <use x="163.330078" xlink:href="#DejaVuSans-32"/>
       <use x="226.953125" xlink:href="#DejaVuSans-39"/>
       <use x="290.576172" xlink:href="#DejaVuSans-20"/>
       <use x="322.363281" xlink:href="#DejaVuSans-31"/>
       <use x="385.986328" xlink:href="#DejaVuSans-34"/>
      </g>
     </g>
    </g>
    <g id="xtick_5">
     <g id="line2d_9">
      <path clip-path="url(#pa013d2fd0e)" d="M 385.776376 304.46 
L 385.776376 10.7 
" style="fill:none;stroke:#b0b0b0;stroke-linecap:square;stroke-width:0.8;"/>
     </g>
     <g id="line2d_10">
      <g>
       <use style="stroke:#000000;stroke-width:0.8;" x="385.776376" xlink:href="#mf4d192d906" y="304.46"/>
      </g>
     </g>
     <g id="text_5">
      <!-- 05-29 16 -->
      <defs>
       <path d="M 33.015625 40.375 
Q 26.375 40.375 22.484375 35.828125 
Q 18.609375 31.296875 18.609375 23.390625 
Q 18.609375 15.53125 22.484375 10.953125 
Q 26.375 6.390625 33.015625 6.390625 
Q 39.65625 6.390625 43.53125 10.953125 
Q 47.40625 15.53125 47.40625 23.390625 
Q 47.40625 31.296875 43.53125 35.828125 
Q 39.65625 40.375 33.015625 40.375 
z
M 52.59375 71.296875 
L 52.59375 62.3125 
Q 48.875 64.0625 45.09375 64.984375 
Q 41.3125 65.921875 37.59375 65.921875 
Q 27.828125 65.921875 22.671875 59.328125 
Q 17.53125 52.734375 16.796875 39.40625 
Q 19.671875 43.65625 24.015625 45.921875 
Q 28.375 48.1875 33.59375 48.1875 
Q 44.578125 48.1875 50.953125 41.515625 
Q 57.328125 34.859375 57.328125 23.390625 
Q 57.328125 12.15625 50.6875 5.359375 
Q 44.046875 -1.421875 33.015625 -1.421875 
Q 20.359375 -1.421875 13.671875 8.265625 
Q 6.984375 17.96875 6.984375 36.375 
Q 6.984375 53.65625 15.1875 63.9375 
Q 23.390625 74.21875 37.203125 74.21875 
Q 40.921875 74.21875 44.703125 73.484375 
Q 48.484375 72.75 52.59375 71.296875 
z
" id="DejaVuSans-36"/>
      </defs>
      <g transform="translate(345.799219 340.520909)rotate(-30)scale(0.1 -0.1)">
       <use xlink:href="#DejaVuSans-30"/>
       <use x="63.623047" xlink:href="#DejaVuSans-35"/>
       <use x="127.246094" xlink:href="#DejaVuSans-2d"/>
       <use x="163.330078" xlink:href="#DejaVuSans-32"/>
       <use x="226.953125" xlink:href="#DejaVuSans-39"/>
       <use x="290.576172" xlink:href="#DejaVuSans-20"/>
       <use x="322.363281" xlink:href="#DejaVuSans-31"/>
       <use x="385.986328" xlink:href="#DejaVuSans-36"/>
      </g>
     </g>
    </g>
    <g id="xtick_6">
     <g id="line2d_11">
      <path clip-path="url(#pa013d2fd0e)" d="M 469.476377 304.46 
L 469.476377 10.7 
" style="fill:none;stroke:#b0b0b0;stroke-linecap:square;stroke-width:0.8;"/>
     </g>
     <g id="line2d_12">
      <g>
       <use style="stroke:#000000;stroke-width:0.8;" x="469.476377" xlink:href="#mf4d192d906" y="304.46"/>
      </g>
     </g>
     <g id="text_6">
      <!-- 05-29 18 -->
      <g transform="translate(429.499219 340.520909)rotate(-30)scale(0.1 -0.1)">
       <use xlink:href="#DejaVuSans-30"/>
       <use x="63.623047" xlink:href="#DejaVuSans-35"/>
       <use x="127.246094" xlink:href="#DejaVuSans-2d"/>
       <use x="163.330078" xlink:href="#DejaVuSans-32"/>
       <use x="226.953125" xlink:href="#DejaVuSans-39"/>
       <use x="290.576172" xlink:href="#DejaVuSans-20"/>
       <use x="322.363281" xlink:href="#DejaVuSans-31"/>
       <use x="385.986328" xlink:href="#DejaVuSans-38"/>
      </g>
     </g>
    </g>
    <g id="xtick_7">
     <g id="line2d_13">
      <path clip-path="url(#pa013d2fd0e)" d="M 553.176377 304.46 
L 553.176377 10.7 
" style="fill:none;stroke:#b0b0b0;stroke-linecap:square;stroke-width:0.8;"/>
     </g>
     <g id="line2d_14">
      <g>
       <use style="stroke:#000000;stroke-width:0.8;" x="553.176377" xlink:href="#mf4d192d906" y="304.46"/>
      </g>
     </g>
     <g id="text_7">
      <!-- 05-29 20 -->
      <g transform="translate(513.199219 340.520909)rotate(-30)scale(0.1 -0.1)">
       <use xlink:href="#DejaVuSans-30"/>
       <use x="63.623047" xlink:href="#DejaVuSans-35"/>
       <use x="127.246094" xlink:href="#DejaVuSans-2d"/>
       <use x="163.330078" xlink:href="#DejaVuSans-32"/>
       <use x="226.953125" xlink:href="#DejaVuSans-39"/>
       <use x="290.576172" xlink:href="#DejaVuSans-20"/>
       <use x="322.363281" xlink:href="#DejaVuSans-32"/>
       <use x="385.986328" xlink:href="#DejaVuSans-30"/>
      </g>
     </g>
    </g>
    <g id="text_8">
     <!-- Time -->
     <defs>
      <path d="M -0.296875 72.90625 
L 61.375 72.90625 
L 61.375 64.59375 
L 35.5 64.59375 
L 35.5 0 
L 25.59375 0 
L 25.59375 64.59375 
L -0.296875 64.59375 
z
" id="DejaVuSans-54"/>
      <path d="M 9.421875 54.6875 
L 18.40625 54.6875 
L 18.40625 0 
L 9.421875 0 
z
M 9.421875 75.984375 
L 18.40625 75.984375 
L 18.40625 64.59375 
L 9.421875 64.59375 
z
" id="DejaVuSans-69"/>
      <path d="M 52 44.1875 
Q 55.375 50.25 60.0625 53.125 
Q 64.75 56 71.09375 56 
Q 79.640625 56 84.28125 50.015625 
Q 88.921875 44.046875 88.921875 33.015625 
L 88.921875 0 
L 79.890625 0 
L 79.890625 32.71875 
Q 79.890625 40.578125 77.09375 44.375 
Q 74.3125 48.1875 68.609375 48.1875 
Q 61.625 48.1875 57.5625 43.546875 
Q 53.515625 38.921875 53.515625 30.90625 
L 53.515625 0 
L 44.484375 0 
L 44.484375 32.71875 
Q 44.484375 40.625 41.703125 44.40625 
Q 38.921875 48.1875 33.109375 48.1875 
Q 26.21875 48.1875 22.15625 43.53125 
Q 18.109375 38.875 18.109375 30.90625 
L 18.109375 0 
L 9.078125 0 
L 9.078125 54.6875 
L 18.109375 54.6875 
L 18.109375 46.1875 
Q 21.1875 51.21875 25.484375 53.609375 
Q 29.78125 56 35.6875 56 
Q 41.65625 56 45.828125 52.96875 
Q 50 49.953125 52 44.1875 
z
" id="DejaVuSans-6d"/>
      <path d="M 56.203125 29.59375 
L 56.203125 25.203125 
L 14.890625 25.203125 
Q 15.484375 15.921875 20.484375 11.0625 
Q 25.484375 6.203125 34.421875 6.203125 
Q 39.59375 6.203125 44.453125 7.46875 
Q 49.3125 8.734375 54.109375 11.28125 
L 54.109375 2.78125 
Q 49.265625 0.734375 44.1875 -0.34375 
Q 39.109375 -1.421875 33.890625 -1.421875 
Q 20.796875 -1.421875 13.15625 6.1875 
Q 5.515625 13.8125 5.515625 26.8125 
Q 5.515625 40.234375 12.765625 48.109375 
Q 20.015625 56 32.328125 56 
Q 43.359375 56 49.78125 48.890625 
Q 56.203125 41.796875 56.203125 29.59375 
z
M 47.21875 32.234375 
Q 47.125 39.59375 43.09375 43.984375 
Q 39.0625 48.390625 32.421875 48.390625 
Q 24.90625 48.390625 20.390625 44.140625 
Q 15.875 39.890625 15.1875 32.171875 
z
" id="DejaVuSans-65"/>
     </defs>
     <g transform="translate(289.688877 353.920408)scale(0.1 -0.1)">
      <use xlink:href="#DejaVuSans-54"/>
      <use x="61.037109" xlink:href="#DejaVuSans-69"/>
      <use x="88.820312" xlink:href="#DejaVuSans-6d"/>
      <use x="186.232422" xlink:href="#DejaVuSans-65"/>
     </g>
    </g>
   </g>
   <g id="matplotlib.axis_2">
    <g id="ytick_1">
     <g id="line2d_15">
      <path clip-path="url(#pa013d2fd0e)" d="M 50.976377 283.36919 
L 553.176377 283.36919 
" style="fill:none;stroke:#b0b0b0;stroke-linecap:square;stroke-width:0.8;"/>
     </g>
     <g id="line2d_16">
      <defs>
       <path d="M 0 0 
L -3.5 0 
" id="mc76531d16d" style="stroke:#000000;stroke-width:0.8;"/>
      </defs>
      <g>
       <use style="stroke:#000000;stroke-width:0.8;" x="50.976377" xlink:href="#mc76531d16d" y="283.36919"/>
      </g>
     </g>
     <g id="text_9">
      <!-- 100 -->
      <g transform="translate(24.888877 287.168408)scale(0.1 -0.1)">
       <use xlink:href="#DejaVuSans-31"/>
       <use x="63.623047" xlink:href="#DejaVuSans-30"/>
       <use x="127.246094" xlink:href="#DejaVuSans-30"/>
      </g>
     </g>
    </g>
    <g id="ytick_2">
     <g id="line2d_17">
      <path clip-path="url(#pa013d2fd0e)" d="M 50.976377 247.079802 
L 553.176377 247.079802 
" style="fill:none;stroke:#b0b0b0;stroke-linecap:square;stroke-width:0.8;"/>
     </g>
     <g id="line2d_18">
      <g>
       <use style="stroke:#000000;stroke-width:0.8;" x="50.976377" xlink:href="#mc76531d16d" y="247.079802"/>
      </g>
     </g>
     <g id="text_10">
      <!-- 102 -->
      <g transform="translate(24.888877 250.879021)scale(0.1 -0.1)">
       <use xlink:href="#DejaVuSans-31"/>
       <use x="63.623047" xlink:href="#DejaVuSans-30"/>
       <use x="127.246094" xlink:href="#DejaVuSans-32"/>
      </g>
     </g>
    </g>
    <g id="ytick_3">
     <g id="line2d_19">
      <path clip-path="url(#pa013d2fd0e)" d="M 50.976377 210.790415 
L 553.176377 210.790415 
" style="fill:none;stroke:#b0b0b0;stroke-linecap:square;stroke-width:0.8;"/>
     </g>
     <g id="line2d_20">
      <g>
       <use style="stroke:#000000;stroke-width:0.8;" x="50.976377" xlink:href="#mc76531d16d" y="210.790415"/>
      </g>
     </g>
     <g id="text_11">
      <!-- 104 -->
      <g transform="translate(24.888877 214.589633)scale(0.1 -0.1)">
       <use xlink:href="#DejaVuSans-31"/>
       <use x="63.623047" xlink:href="#DejaVuSans-30"/>
       <use x="127.246094" xlink:href="#DejaVuSans-34"/>
      </g>
     </g>
    </g>
    <g id="ytick_4">
     <g id="line2d_21">
      <path clip-path="url(#pa013d2fd0e)" d="M 50.976377 174.501027 
L 553.176377 174.501027 
" style="fill:none;stroke:#b0b0b0;stroke-linecap:square;stroke-width:0.8;"/>
     </g>
     <g id="line2d_22">
      <g>
       <use style="stroke:#000000;stroke-width:0.8;" x="50.976377" xlink:href="#mc76531d16d" y="174.501027"/>
      </g>
     </g>
     <g id="text_12">
      <!-- 106 -->
      <g transform="translate(24.888877 178.300246)scale(0.1 -0.1)">
       <use xlink:href="#DejaVuSans-31"/>
       <use x="63.623047" xlink:href="#DejaVuSans-30"/>
       <use x="127.246094" xlink:href="#DejaVuSans-36"/>
      </g>
     </g>
    </g>
    <g id="ytick_5">
     <g id="line2d_23">
      <path clip-path="url(#pa013d2fd0e)" d="M 50.976377 138.21164 
L 553.176377 138.21164 
" style="fill:none;stroke:#b0b0b0;stroke-linecap:square;stroke-width:0.8;"/>
     </g>
     <g id="line2d_24">
      <g>
       <use style="stroke:#000000;stroke-width:0.8;" x="50.976377" xlink:href="#mc76531d16d" y="138.21164"/>
      </g>
     </g>
     <g id="text_13">
      <!-- 108 -->
      <g transform="translate(24.888877 142.010858)scale(0.1 -0.1)">
       <use xlink:href="#DejaVuSans-31"/>
       <use x="63.623047" xlink:href="#DejaVuSans-30"/>
       <use x="127.246094" xlink:href="#DejaVuSans-38"/>
      </g>
     </g>
    </g>
    <g id="ytick_6">
     <g id="line2d_25">
      <path clip-path="url(#pa013d2fd0e)" d="M 50.976377 101.922252 
L 553.176377 101.922252 
" style="fill:none;stroke:#b0b0b0;stroke-linecap:square;stroke-width:0.8;"/>
     </g>
     <g id="line2d_26">
      <g>
       <use style="stroke:#000000;stroke-width:0.8;" x="50.976377" xlink:href="#mc76531d16d" y="101.922252"/>
      </g>
     </g>
     <g id="text_14">
      <!-- 110 -->
      <g transform="translate(24.888877 105.721471)scale(0.1 -0.1)">
       <use xlink:href="#DejaVuSans-31"/>
       <use x="63.623047" xlink:href="#DejaVuSans-31"/>
       <use x="127.246094" xlink:href="#DejaVuSans-30"/>
      </g>
     </g>
    </g>
    <g id="ytick_7">
     <g id="line2d_27">
      <path clip-path="url(#pa013d2fd0e)" d="M 50.976377 65.632864 
L 553.176377 65.632864 
" style="fill:none;stroke:#b0b0b0;stroke-linecap:square;stroke-width:0.8;"/>
     </g>
     <g id="line2d_28">
      <g>
       <use style="stroke:#000000;stroke-width:0.8;" x="50.976377" xlink:href="#mc76531d16d" y="65.632864"/>
      </g>
     </g>
     <g id="text_15">
      <!-- 112 -->
      <g transform="translate(24.888877 69.432083)scale(0.1 -0.1)">
       <use xlink:href="#DejaVuSans-31"/>
       <use x="63.623047" xlink:href="#DejaVuSans-31"/>
       <use x="127.246094" xlink:href="#DejaVuSans-32"/>
      </g>
     </g>
    </g>
    <g id="ytick_8">
     <g id="line2d_29">
      <path clip-path="url(#pa013d2fd0e)" d="M 50.976377 29.343477 
L 553.176377 29.343477 
" style="fill:none;stroke:#b0b0b0;stroke-linecap:square;stroke-width:0.8;"/>
     </g>
     <g id="line2d_30">
      <g>
       <use style="stroke:#000000;stroke-width:0.8;" x="50.976377" xlink:href="#mc76531d16d" y="29.343477"/>
      </g>
     </g>
     <g id="text_16">
      <!-- 114 -->
      <g transform="translate(24.888877 33.142696)scale(0.1 -0.1)">
       <use xlink:href="#DejaVuSans-31"/>
       <use x="63.623047" xlink:href="#DejaVuSans-31"/>
       <use x="127.246094" xlink:href="#DejaVuSans-34"/>
      </g>
     </g>
    </g>
   </g>
   <g id="line2d_31">
    <path clip-path="url(#pa013d2fd0e)" d="M 51.47932 291.107273 
L 52.659459 290.939287 
L 53.249528 290.759726 
L 55.609807 290.552108 
L 56.789946 290.178008 
L 57.380016 289.674982 
L 57.970085 289.588904 
L 58.560155 287.963212 
L 59.150225 287.524754 
L 59.740294 287.590809 
L 60.330364 286.442451 
L 60.920433 285.946499 
L 61.510503 285.784026 
L 62.100573 285.38132 
L 62.690642 285.786999 
L 63.280712 285.329709 
L 63.870781 285.286113 
L 64.460851 285.010378 
L 65.050921 285.0654 
L 65.64099 284.843437 
L 66.821129 284.741451 
L 67.411199 284.258739 
L 68.001269 284.047313 
L 68.591338 282.763392 
L 69.771477 282.975085 
L 70.361547 281.974777 
L 70.951617 280.587591 
L 71.541686 280.302368 
L 72.131756 279.654104 
L 72.721825 279.69518 
L 73.311895 279.494012 
L 74.492034 279.46786 
L 75.082104 279.16788 
L 75.672174 279.171729 
L 76.262243 279.008317 
L 76.852313 279.008828 
L 77.442382 278.705849 
L 78.622522 278.627384 
L 79.212591 278.264245 
L 79.802661 278.327523 
L 80.9828 278.044644 
L 81.57287 276.366521 
L 82.162939 276.618568 
L 82.753009 273.932112 
L 83.933148 274.033389 
L 84.523218 273.716297 
L 86.293426 273.339965 
L 86.883496 273.364616 
L 88.063635 272.690532 
L 88.653705 272.887127 
L 89.833844 271.677274 
L 90.423914 271.778153 
L 91.013983 271.507699 
L 91.604053 271.479229 
L 92.194123 271.116288 
L 92.784192 270.094029 
L 93.374262 270.107019 
L 93.964331 269.67732 
L 94.554401 269.807021 
L 95.144471 269.134831 
L 95.73454 268.998824 
L 96.32461 268.403009 
L 96.914679 268.21675 
L 97.504749 268.405291 
L 98.094819 267.755521 
L 99.274958 267.562487 
L 99.865027 267.185201 
L 100.455097 266.236196 
L 101.045167 266.408217 
L 101.635236 265.96804 
L 102.225306 265.720964 
L 103.405445 264.711 
L 103.995515 264.956469 
L 104.585584 264.738085 
L 105.175654 263.84039 
L 105.765723 263.778608 
L 106.355793 263.525849 
L 106.945863 262.827928 
L 107.535932 262.941736 
L 108.126002 262.424072 
L 108.716071 262.386953 
L 109.306141 262.146406 
L 110.48628 261.449511 
L 111.07635 261.229296 
L 111.66642 260.753286 
L 112.256489 260.489754 
L 112.846559 260.369168 
L 113.436628 259.858939 
L 114.026698 259.528568 
L 114.616768 258.837709 
L 115.796907 258.565949 
L 116.386976 258.009459 
L 117.567116 257.840554 
L 118.157185 256.880537 
L 119.337324 256.703859 
L 119.927394 256.254239 
L 120.517464 256.19737 
L 121.697603 255.552518 
L 122.287673 254.898386 
L 122.877742 254.93291 
L 123.467812 254.608977 
L 124.057881 254.748478 
L 124.647951 253.565607 
L 125.23802 253.597645 
L 125.82809 253.489521 
L 126.41816 253.259634 
L 127.008229 252.707506 
L 127.598299 252.320466 
L 128.188369 252.125299 
L 128.778438 251.626115 
L 129.368508 251.5944 
L 130.548647 250.377055 
L 131.138717 250.260187 
L 132.318856 249.588167 
L 132.908925 249.559002 
L 133.498995 248.750354 
L 134.089065 248.660752 
L 134.679134 248.16172 
L 135.269204 248.257316 
L 135.859273 247.672134 
L 136.449343 247.895703 
L 137.039413 247.152924 
L 137.629482 246.908768 
L 138.219552 246.384152 
L 138.809621 246.463368 
L 139.989761 245.639393 
L 141.1699 244.708686 
L 141.759969 244.875173 
L 142.350039 244.172418 
L 142.940109 243.999879 
L 143.530178 243.30171 
L 144.120248 243.55574 
L 145.300387 242.730407 
L 145.890457 242.81548 
L 146.480526 242.453826 
L 147.070596 242.376561 
L 147.660666 241.614246 
L 148.250735 241.11537 
L 148.840805 241.250053 
L 149.430874 240.555431 
L 150.020944 240.619703 
L 150.611014 239.983586 
L 152.971292 238.807278 
L 153.561362 237.915909 
L 154.741501 238.280162 
L 155.331571 237.611819 
L 156.51171 237.038218 
L 157.691849 236.041828 
L 158.281919 236.503364 
L 158.871988 235.586726 
L 159.462058 235.302467 
L 160.052127 235.664587 
L 160.642197 234.874896 
L 161.232267 234.88346 
L 161.822336 233.952312 
L 162.412406 234.014378 
L 163.592545 233.093196 
L 164.182615 232.512163 
L 164.772684 232.168124 
L 165.362754 231.29787 
L 165.952823 230.769206 
L 166.542893 230.484844 
L 167.132963 230.386874 
L 167.723032 230.04058 
L 168.313102 229.419384 
L 168.903171 229.539129 
L 169.493241 229.030497 
L 170.083311 228.700633 
L 170.67338 228.758729 
L 171.26345 228.484284 
L 171.85352 227.923665 
L 172.443589 227.70768 
L 173.033659 227.660451 
L 173.623728 228.100419 
L 174.213798 227.012268 
L 174.803867 226.786008 
L 175.393937 226.352304 
L 175.984007 226.188876 
L 176.574076 225.60581 
L 177.164146 225.601932 
L 177.754216 225.410071 
L 178.344285 224.852438 
L 178.934355 224.798403 
L 179.524424 224.130828 
L 180.114494 223.929706 
L 180.704563 224.171492 
L 181.294633 223.729367 
L 182.474772 223.041616 
L 183.654912 222.276991 
L 184.244981 222.180436 
L 184.835051 221.407836 
L 185.42512 221.729802 
L 186.01519 221.105206 
L 186.60526 220.911507 
L 187.195329 220.920638 
L 187.785399 220.248648 
L 188.375468 220.10749 
L 188.965538 219.779882 
L 189.555608 219.780454 
L 190.145677 218.894187 
L 191.325817 218.50024 
L 191.915886 218.67407 
L 192.505956 217.883829 
L 193.096025 217.840507 
L 193.686095 217.534958 
L 194.276165 216.865604 
L 194.866234 216.781646 
L 195.456304 216.257607 
L 196.046373 216.555753 
L 197.226513 215.600484 
L 197.816582 215.835812 
L 198.996721 215.008652 
L 199.586791 214.391483 
L 200.176861 214.021188 
L 200.76693 213.927881 
L 201.357 213.549934 
L 201.947069 213.010939 
L 203.127209 212.513016 
L 203.717278 211.861452 
L 204.307348 212.058003 
L 205.487487 211.804983 
L 206.077557 210.817933 
L 206.667626 210.704703 
L 207.257696 210.757381 
L 207.847765 210.441914 
L 208.437835 209.95185 
L 209.617974 209.415893 
L 210.798114 208.48814 
L 211.388183 208.554005 
L 211.978253 208.301172 
L 212.568322 208.226438 
L 213.158392 207.654883 
L 213.748461 207.437236 
L 214.338531 206.66776 
L 214.928601 206.572512 
L 215.51867 206.283987 
L 216.10874 206.272243 
L 218.469018 204.708226 
L 219.059088 204.500068 
L 219.649158 204.126435 
L 220.239227 203.581209 
L 222.599506 202.496529 
L 223.189575 202.542412 
L 223.779645 202.049272 
L 224.369714 201.407915 
L 224.959784 201.604397 
L 226.139923 200.781853 
L 226.729993 200.632826 
L 227.320063 199.994243 
L 227.910132 200.084916 
L 229.090271 198.800792 
L 229.680341 198.899497 
L 230.86048 198.543541 
L 232.040619 197.66098 
L 233.220759 197.177661 
L 236.171107 195.367301 
L 236.761176 195.45498 
L 237.941315 194.246726 
L 238.531385 194.451649 
L 239.121455 193.754598 
L 239.711524 193.666683 
L 240.301594 194.036906 
L 240.891663 193.173232 
L 241.481733 192.888019 
L 242.071803 192.01458 
L 242.661872 192.544718 
L 243.251942 191.653836 
L 243.842012 191.484606 
L 244.432081 190.854864 
L 245.61222 190.942147 
L 246.20229 190.260453 
L 246.792359 189.890927 
L 247.382429 189.683929 
L 247.972499 189.312836 
L 248.562568 188.666629 
L 249.152638 188.616053 
L 250.332777 187.90766 
L 250.922847 187.655027 
L 252.102986 187.30322 
L 253.283125 186.091427 
L 253.873195 186.261898 
L 254.463264 185.722031 
L 255.053334 185.426562 
L 255.643404 184.546272 
L 256.233473 184.517064 
L 256.823543 184.692549 
L 257.413612 184.246627 
L 258.003682 184.059901 
L 260.95403 182.20341 
L 261.5441 182.138829 
L 262.134169 181.422241 
L 262.724239 181.349854 
L 263.314309 181.113079 
L 263.904378 180.623189 
L 266.264657 179.181712 
L 266.854726 178.730458 
L 267.444796 178.694996 
L 268.034865 178.18927 
L 268.624935 178.465493 
L 269.805074 177.661688 
L 270.395144 176.919955 
L 270.985213 177.245675 
L 271.575283 176.442494 
L 272.165353 176.49303 
L 272.755422 176.368575 
L 273.345492 175.974851 
L 273.935561 176.251395 
L 274.525631 175.14574 
L 275.115701 175.033838 
L 275.70577 174.224716 
L 276.29584 174.082083 
L 276.88591 173.556621 
L 277.475979 173.786583 
L 278.066049 173.012001 
L 278.656118 172.679626 
L 279.246188 172.519767 
L 279.836257 171.936416 
L 280.426327 171.525561 
L 281.606466 171.75042 
L 282.196536 170.946586 
L 282.786606 170.490911 
L 283.376675 170.596668 
L 283.966745 169.874496 
L 284.556814 169.59027 
L 285.146884 168.942275 
L 285.736953 168.856944 
L 286.327023 168.315779 
L 286.917093 168.681702 
L 287.507162 167.85362 
L 288.097232 167.808541 
L 288.687302 167.503938 
L 289.867441 166.363886 
L 290.45751 166.411538 
L 291.04758 165.812649 
L 291.63765 165.602273 
L 292.227719 165.597782 
L 292.817789 165.339679 
L 293.407858 164.578692 
L 293.997928 164.803855 
L 294.587998 163.929237 
L 295.178067 164.111472 
L 295.768137 163.469189 
L 296.358207 163.624579 
L 296.948276 163.375328 
L 299.308555 161.758103 
L 299.898624 161.87523 
L 300.488694 161.120774 
L 301.078763 161.405707 
L 301.668833 160.519136 
L 302.258903 160.490184 
L 302.848972 159.769148 
L 303.439042 159.520673 
L 304.619181 158.591842 
L 305.209251 158.872022 
L 305.79932 158.694591 
L 306.38939 157.927628 
L 307.569529 157.755605 
L 308.159599 157.259052 
L 308.749668 157.389147 
L 309.339738 156.722073 
L 309.929807 156.931807 
L 310.519877 156.599475 
L 311.109947 155.757394 
L 311.700016 155.440695 
L 312.290086 154.970751 
L 312.880156 155.232412 
L 313.470225 154.621438 
L 314.060295 154.236886 
L 314.650364 154.148634 
L 315.240434 153.693131 
L 315.830504 153.506938 
L 316.420573 153.711369 
L 317.010643 152.818836 
L 317.600712 152.619037 
L 318.190782 152.549311 
L 318.780852 151.809276 
L 319.370921 151.672575 
L 319.960991 151.412071 
L 321.14113 151.210901 
L 321.7312 150.911847 
L 322.321269 150.803133 
L 322.911339 150.366385 
L 324.091478 149.803448 
L 325.271617 148.801728 
L 325.861687 149.240585 
L 326.451756 148.529433 
L 327.041826 148.189793 
L 327.631896 148.152227 
L 328.221965 147.879057 
L 328.812035 147.875894 
L 329.402104 146.501175 
L 329.992174 146.784863 
L 330.582244 146.24224 
L 331.172313 145.852137 
L 331.762383 146.08771 
L 332.352453 145.225022 
L 332.942522 145.176251 
L 333.532592 144.689924 
L 334.122661 144.722521 
L 334.712731 144.209279 
L 335.89287 143.82921 
L 336.48294 143.900288 
L 337.073009 142.995583 
L 338.253149 142.684609 
L 338.843218 142.457475 
L 339.433288 141.906567 
L 340.023358 141.655966 
L 340.613427 141.633173 
L 341.203497 140.66199 
L 342.973705 140.393542 
L 343.563775 139.585221 
L 344.153845 139.076297 
L 344.743914 139.110606 
L 345.333984 138.498208 
L 346.514123 137.763414 
L 347.694262 137.572193 
L 348.284332 137.331249 
L 348.874402 136.926644 
L 349.464471 136.385711 
L 350.054541 136.544507 
L 350.64461 135.839939 
L 351.23468 135.599622 
L 352.414819 134.80487 
L 353.004889 134.547354 
L 353.594958 134.592278 
L 354.185028 134.142277 
L 354.775098 133.934641 
L 355.365167 133.287389 
L 355.955237 133.09596 
L 357.135376 132.471852 
L 358.315515 132.112922 
L 358.905585 131.256671 
L 359.495654 131.098614 
L 360.085724 130.543336 
L 361.265863 130.131147 
L 361.855933 130.180656 
L 362.446002 129.344719 
L 363.036072 129.491432 
L 363.626142 128.97304 
L 364.216211 129.058454 
L 364.806281 128.28443 
L 365.396351 128.2739 
L 366.57649 127.001442 
L 367.166559 126.858779 
L 367.756629 126.853047 
L 368.346699 126.338051 
L 368.936768 126.292384 
L 369.526838 125.915736 
L 370.116907 126.236353 
L 370.706977 125.63409 
L 371.297047 125.54527 
L 371.887116 124.809165 
L 373.067255 124.024462 
L 373.657325 123.767967 
L 374.247395 123.025253 
L 374.837464 122.818637 
L 376.017603 122.971686 
L 377.197743 121.307071 
L 377.787812 121.592082 
L 378.967952 120.485596 
L 379.558021 120.228315 
L 380.148091 119.771192 
L 380.73816 119.679225 
L 381.32823 119.918808 
L 381.9183 119.180122 
L 383.688508 118.003011 
L 384.278578 117.913058 
L 384.868648 117.203701 
L 386.048787 117.051496 
L 386.638856 116.531373 
L 387.228926 116.280245 
L 387.818996 115.723667 
L 388.409065 115.816996 
L 388.999135 115.4661 
L 389.589204 115.288306 
L 390.179274 114.916977 
L 390.769344 114.711107 
L 391.359413 113.943795 
L 391.949483 113.593902 
L 393.129622 113.593862 
L 393.719692 112.787648 
L 394.309761 112.603545 
L 394.899831 112.023725 
L 395.4899 111.744751 
L 396.07997 111.949732 
L 396.67004 111.126436 
L 397.260109 111.116048 
L 398.440248 110.919145 
L 399.620388 110.049925 
L 400.210457 109.447741 
L 401.980666 108.670784 
L 402.570736 108.71182 
L 403.160805 107.853068 
L 404.340945 107.405068 
L 404.931014 107.61996 
L 405.521084 106.636844 
L 406.111153 106.301652 
L 406.701223 105.811302 
L 407.881362 105.568353 
L 408.471432 105.121821 
L 409.061501 104.422697 
L 409.651571 104.544839 
L 410.241641 104.253242 
L 410.83171 103.526892 
L 411.42178 103.635067 
L 412.601919 102.946526 
L 413.191989 102.433087 
L 413.782058 102.089829 
L 414.372128 102.085467 
L 414.962197 101.547651 
L 415.552267 101.650427 
L 416.142337 101.086874 
L 416.732406 101.560576 
L 417.322476 101.340014 
L 417.912546 100.828943 
L 419.682754 99.871675 
L 420.272824 99.839907 
L 420.862894 98.967605 
L 421.452963 99.181416 
L 422.043033 98.731165 
L 422.633103 98.769508 
L 423.813242 97.888943 
L 424.403311 97.4928 
L 424.993381 97.626678 
L 425.58345 97.116452 
L 426.17352 96.962652 
L 426.76359 96.33404 
L 427.353659 96.133646 
L 428.533799 95.193074 
L 429.123868 95.393286 
L 429.713938 94.574085 
L 430.304007 94.390249 
L 430.894077 94.346915 
L 432.074216 93.626188 
L 432.664286 93.302703 
L 433.254355 92.357398 
L 433.844425 92.290754 
L 434.434495 92.485461 
L 435.024564 91.956884 
L 436.794773 91.034335 
L 437.384843 90.806295 
L 439.155051 89.663354 
L 439.745121 89.661228 
L 440.92526 88.651307 
L 441.51533 89.120078 
L 442.105399 87.732089 
L 442.695469 87.808304 
L 443.285539 87.204465 
L 444.465678 86.733059 
L 445.055748 86.670236 
L 445.645817 85.805283 
L 446.235887 85.356805 
L 446.825956 85.987224 
L 447.416026 85.042289 
L 448.006096 84.358374 
L 448.596165 83.911711 
L 449.186235 83.715299 
L 449.776304 83.76474 
L 450.956444 82.799216 
L 453.316722 81.404221 
L 453.906792 81.504854 
L 454.496861 81.047231 
L 455.086931 80.899096 
L 455.677 80.367299 
L 456.85714 79.503414 
L 457.447209 78.926006 
L 458.037279 78.999827 
L 459.217418 78.148449 
L 459.807488 78.169609 
L 460.397557 77.339245 
L 461.577697 76.500085 
L 462.167766 76.557197 
L 463.347905 75.650546 
L 463.937975 75.666894 
L 464.528044 75.080795 
L 465.118114 74.812326 
L 465.708184 74.156595 
L 466.298253 73.768044 
L 466.888323 73.942841 
L 467.478393 73.047676 
L 468.658532 72.830298 
L 469.248601 72.392478 
L 469.838671 71.58146 
L 470.428741 71.854524 
L 471.01881 71.217384 
L 471.60888 71.002795 
L 472.198949 70.4662 
L 472.789019 70.792079 
L 473.379089 69.502513 
L 473.969158 69.904254 
L 474.559228 69.002945 
L 475.149297 68.955532 
L 475.739367 68.230785 
L 476.329437 68.005165 
L 476.919506 67.335934 
L 477.509576 67.444851 
L 478.099645 66.977618 
L 478.689715 66.854254 
L 479.279785 66.025755 
L 481.049994 65.24403 
L 481.640063 64.692421 
L 483.410272 64.061849 
L 484.000342 63.259718 
L 484.590411 63.173917 
L 485.180481 62.822076 
L 485.77055 62.624728 
L 486.36062 61.987472 
L 486.95069 61.889714 
L 487.540759 61.361989 
L 488.130829 61.315547 
L 488.720898 61.119242 
L 489.310968 60.405484 
L 489.901038 59.898387 
L 490.491107 59.976866 
L 491.081177 59.423545 
L 491.671246 59.195983 
L 492.261316 57.898028 
L 492.851386 58.310523 
L 493.441455 57.694705 
L 494.031525 57.745548 
L 495.801734 57.038129 
L 496.391803 56.292054 
L 496.981873 55.86871 
L 497.571942 55.751969 
L 498.162012 54.955543 
L 498.752082 55.135769 
L 499.342151 54.568728 
L 499.932221 54.577136 
L 500.522291 53.613183 
L 501.11236 53.832115 
L 501.70243 52.861538 
L 502.292499 53.033113 
L 502.882569 52.531464 
L 503.472638 52.210128 
L 504.062708 52.127213 
L 504.652778 51.436609 
L 505.242847 51.067996 
L 505.832917 50.900929 
L 506.422987 50.346053 
L 507.013056 50.126744 
L 507.603126 49.761218 
L 508.193195 49.712918 
L 508.783265 48.902165 
L 509.373335 49.166578 
L 509.963404 48.64097 
L 510.553474 48.471436 
L 511.733613 47.369417 
L 512.323683 47.273535 
L 512.913752 46.533297 
L 513.503822 46.34726 
L 514.093892 45.487385 
L 514.683961 45.577752 
L 515.274031 45.439833 
L 515.8641 45.068905 
L 516.45417 44.364645 
L 517.04424 44.312523 
L 517.634309 43.872821 
L 518.224379 43.279171 
L 518.814448 43.468303 
L 519.404518 43.073558 
L 519.994588 42.998881 
L 521.174727 41.807185 
L 521.764796 41.683524 
L 522.944936 40.583394 
L 523.535005 40.696633 
L 524.125075 40.330379 
L 524.715144 39.734271 
L 525.305214 39.298803 
L 526.485353 38.8166 
L 527.075423 38.215969 
L 528.255562 37.905394 
L 528.845632 37.381042 
L 529.435701 37.07412 
L 530.025771 36.936096 
L 530.61584 36.321585 
L 531.20591 36.098087 
L 531.79598 35.462073 
L 532.386049 35.467644 
L 533.566189 34.478999 
L 534.746328 33.745911 
L 535.336397 33.413167 
L 535.926467 33.680346 
L 536.516536 32.919743 
L 537.696676 32.03197 
L 539.466885 31.301987 
L 540.056954 30.99699 
L 540.647024 31.106134 
L 541.827163 30.277514 
L 542.417233 29.375118 
L 543.007302 29.622108 
L 544.187441 28.294481 
L 544.777511 28.375898 
L 545.95765 28.20621 
L 546.54772 27.578209 
L 547.137789 27.239226 
L 547.727859 26.488065 
L 548.317929 26.300933 
L 548.907998 26.280399 
L 549.498068 25.866361 
L 550.088138 25.871935 
L 550.678207 25.053757 
L 551.268277 25.179391 
L 551.858346 24.881852 
L 552.448416 24.832142 
L 553.038486 24.052727 
L 553.038486 24.052727 
" style="fill:none;stroke:#1f77b4;stroke-linecap:square;stroke-width:1.5;"/>
   </g>
   <g id="patch_3">
    <path d="M 50.976377 304.46 
L 50.976377 10.7 
" style="fill:none;stroke:#000000;stroke-linecap:square;stroke-linejoin:miter;stroke-width:0.8;"/>
   </g>
   <g id="patch_4">
    <path d="M 553.176377 304.46 
L 553.176377 10.7 
" style="fill:none;stroke:#000000;stroke-linecap:square;stroke-linejoin:miter;stroke-width:0.8;"/>
   </g>
   <g id="patch_5">
    <path d="M 50.976377 304.46 
L 553.176377 304.46 
" style="fill:none;stroke:#000000;stroke-linecap:square;stroke-linejoin:miter;stroke-width:0.8;"/>
   </g>
   <g id="patch_6">
    <path d="M 50.976377 10.7 
L 553.176377 10.7 
" style="fill:none;stroke:#000000;stroke-linecap:square;stroke-linejoin:miter;stroke-width:0.8;"/>
   </g>
   <g id="legend_1">
    <g id="patch_7">
     <path d="M 57.976377 33.378125 
L 106.734189 33.378125 
Q 108.734189 33.378125 108.734189 31.378125 
L 108.734189 17.7 
Q 108.734189 15.7 106.734189 15.7 
L 57.976377 15.7 
Q 55.976377 15.7 55.976377 17.7 
L 55.976377 31.378125 
Q 55.976377 33.378125 57.976377 33.378125 
z
" style="fill:#ffffff;opacity:0.8;stroke:#cccccc;stroke-linejoin:miter;"/>
    </g>
    <g id="line2d_32">
     <path d="M 59.976377 23.798437 
L 79.976377 23.798437 
" style="fill:none;stroke:#1f77b4;stroke-linecap:square;stroke-width:1.5;"/>
    </g>
    <g id="line2d_33"/>
    <g id="text_17">
     <!-- TID -->
     <defs>
      <path d="M 9.8125 72.90625 
L 19.671875 72.90625 
L 19.671875 0 
L 9.8125 0 
z
" id="DejaVuSans-49"/>
      <path d="M 19.671875 64.796875 
L 19.671875 8.109375 
L 31.59375 8.109375 
Q 46.6875 8.109375 53.6875 14.9375 
Q 60.6875 21.78125 60.6875 36.53125 
Q 60.6875 51.171875 53.6875 57.984375 
Q 46.6875 64.796875 31.59375 64.796875 
z
M 9.8125 72.90625 
L 30.078125 72.90625 
Q 51.265625 72.90625 61.171875 64.09375 
Q 71.09375 55.28125 71.09375 36.53125 
Q 71.09375 17.671875 61.125 8.828125 
Q 51.171875 0 30.078125 0 
L 9.8125 0 
z
" id="DejaVuSans-44"/>
     </defs>
     <g transform="translate(87.976377 27.298437)scale(0.1 -0.1)">
      <use xlink:href="#DejaVuSans-54"/>
      <use x="61.083984" xlink:href="#DejaVuSans-49"/>
      <use x="90.576172" xlink:href="#DejaVuSans-44"/>
     </g>
    </g>
   </g>
  </g>
 </g>
 <defs>
  <clipPath id="pa013d2fd0e">
   <rect height="293.76" width="502.2" x="50.976377" y="10.7"/>
  </clipPath>
 </defs>
</svg>
