<?xml version="1.0" encoding="utf-8" standalone="no"?>
<!DOCTYPE svg PUBLIC "-//W3C//DTD SVG 1.1//EN"
  "http://www.w3.org/Graphics/SVG/1.1/DTD/svg11.dtd">
<!-- Created with matplotlib (http://matplotlib.org/) -->
<svg height="363.200096pt" version="1.1" viewBox="0 0 563.876377 363.200096" width="563.876377pt" xmlns="http://www.w3.org/2000/svg" xmlns:xlink="http://www.w3.org/1999/xlink">
 <defs>
  <style type="text/css">
*{stroke-linecap:butt;stroke-linejoin:round;}
  </style>
 </defs>
 <g id="figure_1">
  <g id="patch_1">
   <path d="M -0 363.200096 
L 563.876377 363.200096 
L 563.876377 0 
L -0 0 
z
" style="fill:#ffffff;"/>
  </g>
  <g id="axes_1">
   <g id="patch_2">
    <path d="M 50.976377 304.46 
L 553.176377 304.46 
L 553.176377 10.7 
L 50.976377 10.7 
z
" style="fill:#ffffff;"/>
   </g>
   <g id="matplotlib.axis_1">
    <g id="xtick_1">
     <g id="line2d_1">
      <path clip-path="url(#p7c57323e7d)" d="M 50.976377 304.46 
L 50.976377 10.7 
" style="fill:none;stroke:#b0b0b0;stroke-linecap:square;stroke-width:0.8;"/>
     </g>
     <g id="line2d_2">
      <defs>
       <path d="M 0 0 
L 0 3.5 
" id="m24e78fd827" style="stroke:#000000;stroke-width:0.8;"/>
      </defs>
      <g>
       <use style="stroke:#000000;stroke-width:0.8;" x="50.976377" xlink:href="#m24e78fd827" y="304.46"/>
      </g>
     </g>
     <g id="text_1">
      <!-- 05-27 08 -->
      <defs>
       <path d="M 31.78125 66.40625 
Q 24.171875 66.40625 20.328125 58.90625 
Q 16.5 51.421875 16.5 36.375 
Q 16.5 21.390625 20.328125 13.890625 
Q 24.171875 6.390625 31.78125 6.390625 
Q 39.453125 6.390625 43.28125 13.890625 
Q 47.125 21.390625 47.125 36.375 
Q 47.125 51.421875 43.28125 58.90625 
Q 39.453125 66.40625 31.78125 66.40625 
z
M 31.78125 74.21875 
Q 44.046875 74.21875 50.515625 64.515625 
Q 56.984375 54.828125 56.984375 36.375 
Q 56.984375 17.96875 50.515625 8.265625 
Q 44.046875 -1.421875 31.78125 -1.421875 
Q 19.53125 -1.421875 13.0625 8.265625 
Q 6.59375 17.96875 6.59375 36.375 
Q 6.59375 54.828125 13.0625 64.515625 
Q 19.53125 74.21875 31.78125 74.21875 
z
" id="DejaVuSans-30"/>
       <path d="M 10.796875 72.90625 
L 49.515625 72.90625 
L 49.515625 64.59375 
L 19.828125 64.59375 
L 19.828125 46.734375 
Q 21.96875 47.46875 24.109375 47.828125 
Q 26.265625 48.1875 28.421875 48.1875 
Q 40.625 48.1875 47.75 41.5 
Q 54.890625 34.8125 54.890625 23.390625 
Q 54.890625 11.625 47.5625 5.09375 
Q 40.234375 -1.421875 26.90625 -1.421875 
Q 22.3125 -1.421875 17.546875 -0.640625 
Q 12.796875 0.140625 7.71875 1.703125 
L 7.71875 11.625 
Q 12.109375 9.234375 16.796875 8.0625 
Q 21.484375 6.890625 26.703125 6.890625 
Q 35.15625 6.890625 40.078125 11.328125 
Q 45.015625 15.765625 45.015625 23.390625 
Q 45.015625 31 40.078125 35.4375 
Q 35.15625 39.890625 26.703125 39.890625 
Q 22.75 39.890625 18.8125 39.015625 
Q 14.890625 38.140625 10.796875 36.28125 
z
" id="DejaVuSans-35"/>
       <path d="M 4.890625 31.390625 
L 31.203125 31.390625 
L 31.203125 23.390625 
L 4.890625 23.390625 
z
" id="DejaVuSans-2d"/>
       <path d="M 19.1875 8.296875 
L 53.609375 8.296875 
L 53.609375 0 
L 7.328125 0 
L 7.328125 8.296875 
Q 12.9375 14.109375 22.625 23.890625 
Q 32.328125 33.6875 34.8125 36.53125 
Q 39.546875 41.84375 41.421875 45.53125 
Q 43.3125 49.21875 43.3125 52.78125 
Q 43.3125 58.59375 39.234375 62.25 
Q 35.15625 65.921875 28.609375 65.921875 
Q 23.96875 65.921875 18.8125 64.3125 
Q 13.671875 62.703125 7.8125 59.421875 
L 7.8125 69.390625 
Q 13.765625 71.78125 18.9375 73 
Q 24.125 74.21875 28.421875 74.21875 
Q 39.75 74.21875 46.484375 68.546875 
Q 53.21875 62.890625 53.21875 53.421875 
Q 53.21875 48.921875 51.53125 44.890625 
Q 49.859375 40.875 45.40625 35.40625 
Q 44.1875 33.984375 37.640625 27.21875 
Q 31.109375 20.453125 19.1875 8.296875 
z
" id="DejaVuSans-32"/>
       <path d="M 8.203125 72.90625 
L 55.078125 72.90625 
L 55.078125 68.703125 
L 28.609375 0 
L 18.3125 0 
L 43.21875 64.59375 
L 8.203125 64.59375 
z
" id="DejaVuSans-37"/>
       <path id="DejaVuSans-20"/>
       <path d="M 31.78125 34.625 
Q 24.75 34.625 20.71875 30.859375 
Q 16.703125 27.09375 16.703125 20.515625 
Q 16.703125 13.921875 20.71875 10.15625 
Q 24.75 6.390625 31.78125 6.390625 
Q 38.8125 6.390625 42.859375 10.171875 
Q 46.921875 13.96875 46.921875 20.515625 
Q 46.921875 27.09375 42.890625 30.859375 
Q 38.875 34.625 31.78125 34.625 
z
M 21.921875 38.8125 
Q 15.578125 40.375 12.03125 44.71875 
Q 8.5 49.078125 8.5 55.328125 
Q 8.5 64.0625 14.71875 69.140625 
Q 20.953125 74.21875 31.78125 74.21875 
Q 42.671875 74.21875 48.875 69.140625 
Q 55.078125 64.0625 55.078125 55.328125 
Q 55.078125 49.078125 51.53125 44.71875 
Q 48 40.375 41.703125 38.8125 
Q 48.828125 37.15625 52.796875 32.3125 
Q 56.78125 27.484375 56.78125 20.515625 
Q 56.78125 9.90625 50.3125 4.234375 
Q 43.84375 -1.421875 31.78125 -1.421875 
Q 19.734375 -1.421875 13.25 4.234375 
Q 6.78125 9.90625 6.78125 20.515625 
Q 6.78125 27.484375 10.78125 32.3125 
Q 14.796875 37.15625 21.921875 38.8125 
z
M 18.3125 54.390625 
Q 18.3125 48.734375 21.84375 45.5625 
Q 25.390625 42.390625 31.78125 42.390625 
Q 38.140625 42.390625 41.71875 45.5625 
Q 45.3125 48.734375 45.3125 54.390625 
Q 45.3125 60.0625 41.71875 63.234375 
Q 38.140625 66.40625 31.78125 66.40625 
Q 25.390625 66.40625 21.84375 63.234375 
Q 18.3125 60.0625 18.3125 54.390625 
z
" id="DejaVuSans-38"/>
      </defs>
      <g transform="translate(10.999219 340.520909)rotate(-30)scale(0.1 -0.1)">
       <use xlink:href="#DejaVuSans-30"/>
       <use x="63.623047" xlink:href="#DejaVuSans-35"/>
       <use x="127.246094" xlink:href="#DejaVuSans-2d"/>
       <use x="163.330078" xlink:href="#DejaVuSans-32"/>
       <use x="226.953125" xlink:href="#DejaVuSans-37"/>
       <use x="290.576172" xlink:href="#DejaVuSans-20"/>
       <use x="322.363281" xlink:href="#DejaVuSans-30"/>
       <use x="385.986328" xlink:href="#DejaVuSans-38"/>
      </g>
     </g>
    </g>
    <g id="xtick_2">
     <g id="line2d_3">
      <path clip-path="url(#p7c57323e7d)" d="M 134.676376 304.46 
L 134.676376 10.7 
" style="fill:none;stroke:#b0b0b0;stroke-linecap:square;stroke-width:0.8;"/>
     </g>
     <g id="line2d_4">
      <g>
       <use style="stroke:#000000;stroke-width:0.8;" x="134.676376" xlink:href="#m24e78fd827" y="304.46"/>
      </g>
     </g>
     <g id="text_2">
      <!-- 05-27 10 -->
      <defs>
       <path d="M 12.40625 8.296875 
L 28.515625 8.296875 
L 28.515625 63.921875 
L 10.984375 60.40625 
L 10.984375 69.390625 
L 28.421875 72.90625 
L 38.28125 72.90625 
L 38.28125 8.296875 
L 54.390625 8.296875 
L 54.390625 0 
L 12.40625 0 
z
" id="DejaVuSans-31"/>
      </defs>
      <g transform="translate(94.699219 340.520909)rotate(-30)scale(0.1 -0.1)">
       <use xlink:href="#DejaVuSans-30"/>
       <use x="63.623047" xlink:href="#DejaVuSans-35"/>
       <use x="127.246094" xlink:href="#DejaVuSans-2d"/>
       <use x="163.330078" xlink:href="#DejaVuSans-32"/>
       <use x="226.953125" xlink:href="#DejaVuSans-37"/>
       <use x="290.576172" xlink:href="#DejaVuSans-20"/>
       <use x="322.363281" xlink:href="#DejaVuSans-31"/>
       <use x="385.986328" xlink:href="#DejaVuSans-30"/>
      </g>
     </g>
    </g>
    <g id="xtick_3">
     <g id="line2d_5">
      <path clip-path="url(#p7c57323e7d)" d="M 218.376377 304.46 
L 218.376377 10.7 
" style="fill:none;stroke:#b0b0b0;stroke-linecap:square;stroke-width:0.8;"/>
     </g>
     <g id="line2d_6">
      <g>
       <use style="stroke:#000000;stroke-width:0.8;" x="218.376377" xlink:href="#m24e78fd827" y="304.46"/>
      </g>
     </g>
     <g id="text_3">
      <!-- 05-27 12 -->
      <g transform="translate(178.399219 340.520909)rotate(-30)scale(0.1 -0.1)">
       <use xlink:href="#DejaVuSans-30"/>
       <use x="63.623047" xlink:href="#DejaVuSans-35"/>
       <use x="127.246094" xlink:href="#DejaVuSans-2d"/>
       <use x="163.330078" xlink:href="#DejaVuSans-32"/>
       <use x="226.953125" xlink:href="#DejaVuSans-37"/>
       <use x="290.576172" xlink:href="#DejaVuSans-20"/>
       <use x="322.363281" xlink:href="#DejaVuSans-31"/>
       <use x="385.986328" xlink:href="#DejaVuSans-32"/>
      </g>
     </g>
    </g>
    <g id="xtick_4">
     <g id="line2d_7">
      <path clip-path="url(#p7c57323e7d)" d="M 302.076376 304.46 
L 302.076376 10.7 
" style="fill:none;stroke:#b0b0b0;stroke-linecap:square;stroke-width:0.8;"/>
     </g>
     <g id="line2d_8">
      <g>
       <use style="stroke:#000000;stroke-width:0.8;" x="302.076376" xlink:href="#m24e78fd827" y="304.46"/>
      </g>
     </g>
     <g id="text_4">
      <!-- 05-27 14 -->
      <defs>
       <path d="M 37.796875 64.3125 
L 12.890625 25.390625 
L 37.796875 25.390625 
z
M 35.203125 72.90625 
L 47.609375 72.90625 
L 47.609375 25.390625 
L 58.015625 25.390625 
L 58.015625 17.1875 
L 47.609375 17.1875 
L 47.609375 0 
L 37.796875 0 
L 37.796875 17.1875 
L 4.890625 17.1875 
L 4.890625 26.703125 
z
" id="DejaVuSans-34"/>
      </defs>
      <g transform="translate(262.099219 340.520909)rotate(-30)scale(0.1 -0.1)">
       <use xlink:href="#DejaVuSans-30"/>
       <use x="63.623047" xlink:href="#DejaVuSans-35"/>
       <use x="127.246094" xlink:href="#DejaVuSans-2d"/>
       <use x="163.330078" xlink:href="#DejaVuSans-32"/>
       <use x="226.953125" xlink:href="#DejaVuSans-37"/>
       <use x="290.576172" xlink:href="#DejaVuSans-20"/>
       <use x="322.363281" xlink:href="#DejaVuSans-31"/>
       <use x="385.986328" xlink:href="#DejaVuSans-34"/>
      </g>
     </g>
    </g>
    <g id="xtick_5">
     <g id="line2d_9">
      <path clip-path="url(#p7c57323e7d)" d="M 385.776376 304.46 
L 385.776376 10.7 
" style="fill:none;stroke:#b0b0b0;stroke-linecap:square;stroke-width:0.8;"/>
     </g>
     <g id="line2d_10">
      <g>
       <use style="stroke:#000000;stroke-width:0.8;" x="385.776376" xlink:href="#m24e78fd827" y="304.46"/>
      </g>
     </g>
     <g id="text_5">
      <!-- 05-27 16 -->
      <defs>
       <path d="M 33.015625 40.375 
Q 26.375 40.375 22.484375 35.828125 
Q 18.609375 31.296875 18.609375 23.390625 
Q 18.609375 15.53125 22.484375 10.953125 
Q 26.375 6.390625 33.015625 6.390625 
Q 39.65625 6.390625 43.53125 10.953125 
Q 47.40625 15.53125 47.40625 23.390625 
Q 47.40625 31.296875 43.53125 35.828125 
Q 39.65625 40.375 33.015625 40.375 
z
M 52.59375 71.296875 
L 52.59375 62.3125 
Q 48.875 64.0625 45.09375 64.984375 
Q 41.3125 65.921875 37.59375 65.921875 
Q 27.828125 65.921875 22.671875 59.328125 
Q 17.53125 52.734375 16.796875 39.40625 
Q 19.671875 43.65625 24.015625 45.921875 
Q 28.375 48.1875 33.59375 48.1875 
Q 44.578125 48.1875 50.953125 41.515625 
Q 57.328125 34.859375 57.328125 23.390625 
Q 57.328125 12.15625 50.6875 5.359375 
Q 44.046875 -1.421875 33.015625 -1.421875 
Q 20.359375 -1.421875 13.671875 8.265625 
Q 6.984375 17.96875 6.984375 36.375 
Q 6.984375 53.65625 15.1875 63.9375 
Q 23.390625 74.21875 37.203125 74.21875 
Q 40.921875 74.21875 44.703125 73.484375 
Q 48.484375 72.75 52.59375 71.296875 
z
" id="DejaVuSans-36"/>
      </defs>
      <g transform="translate(345.799219 340.520909)rotate(-30)scale(0.1 -0.1)">
       <use xlink:href="#DejaVuSans-30"/>
       <use x="63.623047" xlink:href="#DejaVuSans-35"/>
       <use x="127.246094" xlink:href="#DejaVuSans-2d"/>
       <use x="163.330078" xlink:href="#DejaVuSans-32"/>
       <use x="226.953125" xlink:href="#DejaVuSans-37"/>
       <use x="290.576172" xlink:href="#DejaVuSans-20"/>
       <use x="322.363281" xlink:href="#DejaVuSans-31"/>
       <use x="385.986328" xlink:href="#DejaVuSans-36"/>
      </g>
     </g>
    </g>
    <g id="xtick_6">
     <g id="line2d_11">
      <path clip-path="url(#p7c57323e7d)" d="M 469.476376 304.46 
L 469.476376 10.7 
" style="fill:none;stroke:#b0b0b0;stroke-linecap:square;stroke-width:0.8;"/>
     </g>
     <g id="line2d_12">
      <g>
       <use style="stroke:#000000;stroke-width:0.8;" x="469.476376" xlink:href="#m24e78fd827" y="304.46"/>
      </g>
     </g>
     <g id="text_6">
      <!-- 05-27 18 -->
      <g transform="translate(429.499219 340.520909)rotate(-30)scale(0.1 -0.1)">
       <use xlink:href="#DejaVuSans-30"/>
       <use x="63.623047" xlink:href="#DejaVuSans-35"/>
       <use x="127.246094" xlink:href="#DejaVuSans-2d"/>
       <use x="163.330078" xlink:href="#DejaVuSans-32"/>
       <use x="226.953125" xlink:href="#DejaVuSans-37"/>
       <use x="290.576172" xlink:href="#DejaVuSans-20"/>
       <use x="322.363281" xlink:href="#DejaVuSans-31"/>
       <use x="385.986328" xlink:href="#DejaVuSans-38"/>
      </g>
     </g>
    </g>
    <g id="xtick_7">
     <g id="line2d_13">
      <path clip-path="url(#p7c57323e7d)" d="M 553.176376 304.46 
L 553.176376 10.7 
" style="fill:none;stroke:#b0b0b0;stroke-linecap:square;stroke-width:0.8;"/>
     </g>
     <g id="line2d_14">
      <g>
       <use style="stroke:#000000;stroke-width:0.8;" x="553.176376" xlink:href="#m24e78fd827" y="304.46"/>
      </g>
     </g>
     <g id="text_7">
      <!-- 05-27 20 -->
      <g transform="translate(513.199219 340.520909)rotate(-30)scale(0.1 -0.1)">
       <use xlink:href="#DejaVuSans-30"/>
       <use x="63.623047" xlink:href="#DejaVuSans-35"/>
       <use x="127.246094" xlink:href="#DejaVuSans-2d"/>
       <use x="163.330078" xlink:href="#DejaVuSans-32"/>
       <use x="226.953125" xlink:href="#DejaVuSans-37"/>
       <use x="290.576172" xlink:href="#DejaVuSans-20"/>
       <use x="322.363281" xlink:href="#DejaVuSans-32"/>
       <use x="385.986328" xlink:href="#DejaVuSans-30"/>
      </g>
     </g>
    </g>
    <g id="text_8">
     <!-- Time -->
     <defs>
      <path d="M -0.296875 72.90625 
L 61.375 72.90625 
L 61.375 64.59375 
L 35.5 64.59375 
L 35.5 0 
L 25.59375 0 
L 25.59375 64.59375 
L -0.296875 64.59375 
z
" id="DejaVuSans-54"/>
      <path d="M 9.421875 54.6875 
L 18.40625 54.6875 
L 18.40625 0 
L 9.421875 0 
z
M 9.421875 75.984375 
L 18.40625 75.984375 
L 18.40625 64.59375 
L 9.421875 64.59375 
z
" id="DejaVuSans-69"/>
      <path d="M 52 44.1875 
Q 55.375 50.25 60.0625 53.125 
Q 64.75 56 71.09375 56 
Q 79.640625 56 84.28125 50.015625 
Q 88.921875 44.046875 88.921875 33.015625 
L 88.921875 0 
L 79.890625 0 
L 79.890625 32.71875 
Q 79.890625 40.578125 77.09375 44.375 
Q 74.3125 48.1875 68.609375 48.1875 
Q 61.625 48.1875 57.5625 43.546875 
Q 53.515625 38.921875 53.515625 30.90625 
L 53.515625 0 
L 44.484375 0 
L 44.484375 32.71875 
Q 44.484375 40.625 41.703125 44.40625 
Q 38.921875 48.1875 33.109375 48.1875 
Q 26.21875 48.1875 22.15625 43.53125 
Q 18.109375 38.875 18.109375 30.90625 
L 18.109375 0 
L 9.078125 0 
L 9.078125 54.6875 
L 18.109375 54.6875 
L 18.109375 46.1875 
Q 21.1875 51.21875 25.484375 53.609375 
Q 29.78125 56 35.6875 56 
Q 41.65625 56 45.828125 52.96875 
Q 50 49.953125 52 44.1875 
z
" id="DejaVuSans-6d"/>
      <path d="M 56.203125 29.59375 
L 56.203125 25.203125 
L 14.890625 25.203125 
Q 15.484375 15.921875 20.484375 11.0625 
Q 25.484375 6.203125 34.421875 6.203125 
Q 39.59375 6.203125 44.453125 7.46875 
Q 49.3125 8.734375 54.109375 11.28125 
L 54.109375 2.78125 
Q 49.265625 0.734375 44.1875 -0.34375 
Q 39.109375 -1.421875 33.890625 -1.421875 
Q 20.796875 -1.421875 13.15625 6.1875 
Q 5.515625 13.8125 5.515625 26.8125 
Q 5.515625 40.234375 12.765625 48.109375 
Q 20.015625 56 32.328125 56 
Q 43.359375 56 49.78125 48.890625 
Q 56.203125 41.796875 56.203125 29.59375 
z
M 47.21875 32.234375 
Q 47.125 39.59375 43.09375 43.984375 
Q 39.0625 48.390625 32.421875 48.390625 
Q 24.90625 48.390625 20.390625 44.140625 
Q 15.875 39.890625 15.1875 32.171875 
z
" id="DejaVuSans-65"/>
     </defs>
     <g transform="translate(289.688877 353.920408)scale(0.1 -0.1)">
      <use xlink:href="#DejaVuSans-54"/>
      <use x="61.037109" xlink:href="#DejaVuSans-69"/>
      <use x="88.820312" xlink:href="#DejaVuSans-6d"/>
      <use x="186.232422" xlink:href="#DejaVuSans-65"/>
     </g>
    </g>
   </g>
   <g id="matplotlib.axis_2">
    <g id="ytick_1">
     <g id="line2d_15">
      <path clip-path="url(#p7c57323e7d)" d="M 50.976377 275.541878 
L 553.176377 275.541878 
" style="fill:none;stroke:#b0b0b0;stroke-linecap:square;stroke-width:0.8;"/>
     </g>
     <g id="line2d_16">
      <defs>
       <path d="M 0 0 
L -3.5 0 
" id="mf81ad03c71" style="stroke:#000000;stroke-width:0.8;"/>
      </defs>
      <g>
       <use style="stroke:#000000;stroke-width:0.8;" x="50.976377" xlink:href="#mf81ad03c71" y="275.541878"/>
      </g>
     </g>
     <g id="text_9">
      <!-- 46 -->
      <g transform="translate(31.251377 279.341096)scale(0.1 -0.1)">
       <use xlink:href="#DejaVuSans-34"/>
       <use x="63.623047" xlink:href="#DejaVuSans-36"/>
      </g>
     </g>
    </g>
    <g id="ytick_2">
     <g id="line2d_17">
      <path clip-path="url(#p7c57323e7d)" d="M 50.976377 235.296316 
L 553.176377 235.296316 
" style="fill:none;stroke:#b0b0b0;stroke-linecap:square;stroke-width:0.8;"/>
     </g>
     <g id="line2d_18">
      <g>
       <use style="stroke:#000000;stroke-width:0.8;" x="50.976377" xlink:href="#mf81ad03c71" y="235.296316"/>
      </g>
     </g>
     <g id="text_10">
      <!-- 48 -->
      <g transform="translate(31.251377 239.095535)scale(0.1 -0.1)">
       <use xlink:href="#DejaVuSans-34"/>
       <use x="63.623047" xlink:href="#DejaVuSans-38"/>
      </g>
     </g>
    </g>
    <g id="ytick_3">
     <g id="line2d_19">
      <path clip-path="url(#p7c57323e7d)" d="M 50.976377 195.050754 
L 553.176377 195.050754 
" style="fill:none;stroke:#b0b0b0;stroke-linecap:square;stroke-width:0.8;"/>
     </g>
     <g id="line2d_20">
      <g>
       <use style="stroke:#000000;stroke-width:0.8;" x="50.976377" xlink:href="#mf81ad03c71" y="195.050754"/>
      </g>
     </g>
     <g id="text_11">
      <!-- 50 -->
      <g transform="translate(31.251377 198.849973)scale(0.1 -0.1)">
       <use xlink:href="#DejaVuSans-35"/>
       <use x="63.623047" xlink:href="#DejaVuSans-30"/>
      </g>
     </g>
    </g>
    <g id="ytick_4">
     <g id="line2d_21">
      <path clip-path="url(#p7c57323e7d)" d="M 50.976377 154.805192 
L 553.176377 154.805192 
" style="fill:none;stroke:#b0b0b0;stroke-linecap:square;stroke-width:0.8;"/>
     </g>
     <g id="line2d_22">
      <g>
       <use style="stroke:#000000;stroke-width:0.8;" x="50.976377" xlink:href="#mf81ad03c71" y="154.805192"/>
      </g>
     </g>
     <g id="text_12">
      <!-- 52 -->
      <g transform="translate(31.251377 158.604411)scale(0.1 -0.1)">
       <use xlink:href="#DejaVuSans-35"/>
       <use x="63.623047" xlink:href="#DejaVuSans-32"/>
      </g>
     </g>
    </g>
    <g id="ytick_5">
     <g id="line2d_23">
      <path clip-path="url(#p7c57323e7d)" d="M 50.976377 114.559631 
L 553.176377 114.559631 
" style="fill:none;stroke:#b0b0b0;stroke-linecap:square;stroke-width:0.8;"/>
     </g>
     <g id="line2d_24">
      <g>
       <use style="stroke:#000000;stroke-width:0.8;" x="50.976377" xlink:href="#mf81ad03c71" y="114.559631"/>
      </g>
     </g>
     <g id="text_13">
      <!-- 54 -->
      <g transform="translate(31.251377 118.358849)scale(0.1 -0.1)">
       <use xlink:href="#DejaVuSans-35"/>
       <use x="63.623047" xlink:href="#DejaVuSans-34"/>
      </g>
     </g>
    </g>
    <g id="ytick_6">
     <g id="line2d_25">
      <path clip-path="url(#p7c57323e7d)" d="M 50.976377 74.314069 
L 553.176377 74.314069 
" style="fill:none;stroke:#b0b0b0;stroke-linecap:square;stroke-width:0.8;"/>
     </g>
     <g id="line2d_26">
      <g>
       <use style="stroke:#000000;stroke-width:0.8;" x="50.976377" xlink:href="#mf81ad03c71" y="74.314069"/>
      </g>
     </g>
     <g id="text_14">
      <!-- 56 -->
      <g transform="translate(31.251377 78.113288)scale(0.1 -0.1)">
       <use xlink:href="#DejaVuSans-35"/>
       <use x="63.623047" xlink:href="#DejaVuSans-36"/>
      </g>
     </g>
    </g>
    <g id="ytick_7">
     <g id="line2d_27">
      <path clip-path="url(#p7c57323e7d)" d="M 50.976377 34.068507 
L 553.176377 34.068507 
" style="fill:none;stroke:#b0b0b0;stroke-linecap:square;stroke-width:0.8;"/>
     </g>
     <g id="line2d_28">
      <g>
       <use style="stroke:#000000;stroke-width:0.8;" x="50.976377" xlink:href="#mf81ad03c71" y="34.068507"/>
      </g>
     </g>
     <g id="text_15">
      <!-- 58 -->
      <g transform="translate(31.251377 37.867726)scale(0.1 -0.1)">
       <use xlink:href="#DejaVuSans-35"/>
       <use x="63.623047" xlink:href="#DejaVuSans-38"/>
      </g>
     </g>
    </g>
   </g>
   <g id="line2d_29">
    <path clip-path="url(#p7c57323e7d)" d="M 51.092308 291.107273 
L 51.682378 290.709486 
L 52.272447 290.490647 
L 52.862517 290.872822 
L 53.452586 290.01282 
L 54.042656 290.383716 
L 55.222795 290.498696 
L 55.812865 290.360622 
L 56.402934 290.375384 
L 57.583074 290.19959 
L 58.173143 290.18728 
L 58.763213 290.468799 
L 59.353282 290.388273 
L 59.943352 289.767656 
L 60.533422 289.465083 
L 61.123491 289.462691 
L 61.713561 289.197986 
L 62.30363 289.357329 
L 62.8937 288.307536 
L 65.844048 287.128219 
L 66.434118 286.997348 
L 67.024187 287.278522 
L 67.614257 286.866595 
L 68.204326 286.169599 
L 68.794396 285.881496 
L 69.384466 285.407035 
L 70.564605 285.22195 
L 71.154675 284.901889 
L 71.744744 284.303661 
L 72.334814 284.466 
L 72.924883 283.871458 
L 73.514953 283.961607 
L 74.105023 284.413244 
L 74.695092 284.514915 
L 75.875231 284.41302 
L 76.465301 284.483667 
L 77.055371 284.2819 
L 78.825579 284.020628 
L 80.005719 283.380658 
L 81.775927 282.024342 
L 82.365997 281.747141 
L 82.956067 281.271673 
L 84.136206 280.595434 
L 84.726275 280.741892 
L 85.316345 280.508332 
L 85.906415 279.707901 
L 86.496484 280.17924 
L 87.086554 280.498505 
L 87.676623 280.537205 
L 88.266693 279.803822 
L 88.856763 280.104538 
L 89.446832 279.630251 
L 90.036902 280.32137 
L 90.626972 279.439736 
L 91.217041 279.418866 
L 91.807111 278.710389 
L 92.39718 278.266073 
L 92.98725 278.830691 
L 93.57732 278.313703 
L 94.167389 278.551512 
L 94.757459 278.564855 
L 95.347528 278.246863 
L 95.937598 278.288988 
L 96.527668 278.526691 
L 97.117737 278.140707 
L 97.707807 277.512797 
L 98.297876 277.20649 
L 98.887946 276.69877 
L 100.068085 276.605178 
L 100.658155 275.822627 
L 101.248224 276.136282 
L 102.428364 275.717407 
L 103.018433 275.889286 
L 103.608503 275.887203 
L 104.198573 275.577473 
L 104.788642 276.251052 
L 105.968781 275.656422 
L 106.558851 275.637395 
L 107.148921 276.107418 
L 108.919129 274.8522 
L 109.509199 274.666373 
L 110.099269 274.915869 
L 110.689338 274.847424 
L 111.869477 274.171244 
L 112.459547 273.872611 
L 113.049617 273.913544 
L 114.229756 273.172114 
L 114.819826 273.365258 
L 115.409895 273.19055 
L 115.999965 272.701381 
L 117.180104 272.660543 
L 117.770173 273.253588 
L 118.360243 272.621818 
L 119.540382 271.879309 
L 120.130452 272.067078 
L 120.720522 271.553876 
L 121.310591 270.845055 
L 121.900661 270.48532 
L 122.49073 270.338107 
L 123.0808 270.354884 
L 123.67087 269.732667 
L 124.260939 269.504038 
L 124.851009 269.023384 
L 125.441078 268.991613 
L 126.031148 268.308603 
L 127.211287 267.953601 
L 127.801357 267.607564 
L 128.391426 266.885841 
L 128.981496 267.280807 
L 129.571566 266.299119 
L 130.161635 267.024186 
L 130.751705 266.130549 
L 131.341774 266.798711 
L 131.931844 266.373459 
L 132.521914 266.598023 
L 133.702053 265.505215 
L 134.882192 264.753474 
L 135.472262 264.728758 
L 136.062331 264.301446 
L 136.652401 264.027285 
L 137.242471 263.461124 
L 137.83254 263.568749 
L 139.602749 262.504464 
L 140.192819 261.715516 
L 140.782888 262.648071 
L 141.372958 261.950424 
L 141.963027 261.852657 
L 144.323306 260.677781 
L 144.913375 260.105052 
L 145.503445 260.339764 
L 146.093515 259.679946 
L 147.273654 260.446025 
L 147.863724 260.0846 
L 148.453793 259.88901 
L 149.043863 259.541499 
L 149.633932 259.508241 
L 150.224002 258.484704 
L 150.814071 258.836316 
L 151.404141 258.224196 
L 151.994211 258.184644 
L 152.58428 257.625616 
L 153.17435 257.656414 
L 153.76442 257.129711 
L 154.944559 256.790581 
L 156.124698 255.393786 
L 156.714768 255.428168 
L 157.304837 254.83501 
L 157.894907 254.562798 
L 158.484976 254.044165 
L 159.075046 253.756405 
L 159.665116 253.774195 
L 160.255185 253.196225 
L 161.435324 252.786716 
L 162.025394 252.120351 
L 163.205533 252.221257 
L 163.795603 251.725493 
L 164.385672 251.633666 
L 164.975742 250.797559 
L 165.565812 250.330692 
L 166.155881 250.483857 
L 166.745951 249.960749 
L 167.33602 250.049896 
L 167.92609 249.615863 
L 168.51616 248.787224 
L 169.696299 248.872666 
L 170.286368 247.8287 
L 170.876438 247.919738 
L 172.056577 247.284997 
L 172.646647 246.668342 
L 173.826786 246.022898 
L 174.416856 246.206685 
L 175.006925 245.15377 
L 175.596995 245.285749 
L 176.187065 244.818912 
L 176.777134 244.695663 
L 177.367204 243.944911 
L 177.957273 243.994952 
L 178.547343 243.729809 
L 179.137413 242.998367 
L 179.727482 243.088015 
L 181.497691 241.833042 
L 182.087761 242.098056 
L 182.67783 241.302731 
L 183.2679 241.048116 
L 183.857969 240.922686 
L 184.448039 240.382302 
L 185.628178 239.563312 
L 186.218248 239.804313 
L 186.808318 239.139362 
L 187.398387 238.949532 
L 188.578526 238.290826 
L 189.168596 237.630655 
L 189.758665 237.629864 
L 192.118944 236.428779 
L 192.709014 236.155415 
L 193.299083 235.601415 
L 193.889153 235.363942 
L 195.069292 234.681377 
L 196.249431 234.112592 
L 196.839501 233.583465 
L 197.42957 233.818948 
L 198.01964 233.220573 
L 198.60971 232.410052 
L 199.199779 232.627279 
L 199.789849 231.771209 
L 200.379918 231.695148 
L 200.969988 231.386104 
L 201.560058 230.777139 
L 202.740197 230.229692 
L 203.330266 229.753699 
L 203.920336 230.028074 
L 204.510406 229.319418 
L 205.690545 229.412476 
L 206.280614 229.246014 
L 206.870684 228.226141 
L 207.460754 228.441165 
L 208.050823 227.881966 
L 208.640893 227.688799 
L 209.230963 227.083428 
L 209.821032 226.903316 
L 210.411102 226.918254 
L 211.001171 226.662258 
L 211.591241 225.735202 
L 212.181311 225.598023 
L 212.77138 225.768243 
L 213.36145 224.995274 
L 213.951519 224.432397 
L 214.541589 224.524743 
L 215.131659 223.7961 
L 215.721728 223.657673 
L 216.311798 223.036009 
L 217.491937 223.10408 
L 218.082007 222.703598 
L 218.672076 221.722908 
L 219.262146 221.768811 
L 220.442285 221.522485 
L 221.032355 220.956997 
L 221.622424 220.862143 
L 222.212494 219.7454 
L 222.802563 219.820101 
L 223.392633 219.392302 
L 223.982703 219.309335 
L 224.572772 218.859244 
L 225.162842 218.801064 
L 225.752912 218.115065 
L 226.933051 217.65126 
L 228.70326 216.321441 
L 229.293329 216.388713 
L 229.883399 215.664689 
L 230.473468 215.8084 
L 231.653608 214.960877 
L 232.243677 214.298933 
L 232.833747 214.306239 
L 233.423816 214.053545 
L 234.013886 213.546863 
L 234.603956 213.407802 
L 235.194025 213.068027 
L 235.784095 213.105963 
L 236.374165 212.386154 
L 237.554304 212.10927 
L 238.734443 211.37163 
L 239.324512 210.396577 
L 239.914582 210.504949 
L 240.504652 209.903906 
L 241.094721 210.115486 
L 242.274861 209.431124 
L 242.86493 208.873622 
L 243.455 208.488505 
L 244.045069 208.357678 
L 244.635139 208.055713 
L 245.225209 207.330774 
L 245.815278 206.953768 
L 246.995417 206.805465 
L 247.585487 206.232636 
L 248.175557 205.934123 
L 248.765626 205.970749 
L 249.355696 205.396853 
L 249.945765 205.242861 
L 251.715974 204.427857 
L 252.306044 203.625963 
L 252.896114 203.887043 
L 253.486183 203.073706 
L 254.076253 203.035595 
L 254.666322 202.705285 
L 255.846462 201.367408 
L 256.436531 201.916199 
L 257.026601 201.341925 
L 257.61667 201.249802 
L 258.20674 200.621867 
L 258.79681 200.690548 
L 259.386879 199.836471 
L 259.976949 200.118182 
L 260.567018 199.14541 
L 261.157088 198.766247 
L 262.337227 198.383705 
L 262.927297 197.920152 
L 264.697506 197.38657 
L 265.877645 196.483455 
L 266.467714 196.460031 
L 267.057784 195.766264 
L 267.647854 195.923147 
L 268.827993 194.483104 
L 269.418063 194.742231 
L 270.008132 194.711908 
L 270.598202 193.720357 
L 271.778341 193.811143 
L 272.36841 192.880385 
L 274.138619 191.818873 
L 274.728689 191.461516 
L 275.318759 191.386513 
L 277.088967 190.524567 
L 277.679037 190.337961 
L 278.269107 189.763646 
L 278.859176 189.709192 
L 280.039315 188.757159 
L 281.219455 188.01116 
L 281.809524 188.224247 
L 284.169803 186.584372 
L 284.759872 186.438759 
L 285.349942 185.84317 
L 285.940011 185.751317 
L 286.530081 185.451017 
L 287.120151 185.418322 
L 287.71022 184.688768 
L 288.30029 184.869919 
L 288.89036 184.198513 
L 290.070499 183.910259 
L 290.660568 183.513517 
L 291.250638 183.278564 
L 291.840708 182.732401 
L 292.430777 182.919073 
L 293.610916 182.281702 
L 294.791056 181.3152 
L 295.381125 181.292896 
L 295.971195 181.03026 
L 296.561264 179.963327 
L 297.151334 180.252865 
L 298.331473 179.907711 
L 298.921543 178.819658 
L 299.511612 178.837695 
L 300.101682 179.106109 
L 300.691752 179.889889 
L 301.281821 178.222474 
L 302.46196 177.419749 
L 303.05203 176.917682 
L 303.6421 177.157818 
L 304.232169 176.427877 
L 304.822239 176.759393 
L 306.002378 175.972401 
L 306.592448 175.434759 
L 307.182517 175.26895 
L 307.772587 174.962434 
L 308.362657 174.309894 
L 308.952726 173.924823 
L 309.542796 173.939036 
L 311.903074 172.413591 
L 312.493144 172.507474 
L 313.673283 171.664069 
L 314.263353 170.85716 
L 314.853422 170.98248 
L 316.623631 169.857087 
L 317.213701 169.88788 
L 318.39384 169.257361 
L 318.983909 168.582907 
L 319.573979 168.746536 
L 320.164049 168.370302 
L 320.754118 167.80499 
L 321.344188 167.475012 
L 321.934258 167.424196 
L 323.704466 166.561599 
L 324.294536 165.959178 
L 324.884606 166.14286 
L 325.474675 165.511555 
L 326.064745 165.419362 
L 327.244884 164.525478 
L 327.834954 165.022996 
L 328.425023 163.984328 
L 329.605162 163.465934 
L 330.195232 163.347241 
L 330.785302 163.088631 
L 331.375371 162.46032 
L 331.965441 162.353616 
L 332.55551 161.890059 
L 333.14558 161.843472 
L 333.73565 160.912527 
L 334.325719 160.994157 
L 334.915789 160.270039 
L 335.505858 160.462856 
L 336.685998 159.483655 
L 337.276067 159.325307 
L 337.866137 158.756362 
L 338.456206 158.383235 
L 339.046276 158.491434 
L 339.636346 157.892932 
L 340.226415 157.765512 
L 341.406555 157.166801 
L 341.996624 157.260334 
L 342.586694 156.476566 
L 343.176763 155.882686 
L 344.356902 155.338068 
L 344.946972 155.265307 
L 345.537042 154.86286 
L 346.127111 154.844896 
L 346.717181 154.181991 
L 347.307251 153.918139 
L 347.89732 154.199013 
L 348.48739 153.846532 
L 349.077459 153.227562 
L 350.257599 153.151939 
L 350.847668 152.284436 
L 351.437738 152.217447 
L 352.027807 151.983872 
L 352.617877 151.364019 
L 353.207947 151.587434 
L 353.798016 151.2106 
L 354.388086 150.496622 
L 354.978155 150.903483 
L 355.568225 150.103794 
L 356.158295 149.545387 
L 356.748364 149.470885 
L 358.518573 148.229738 
L 359.108643 148.261454 
L 359.698712 147.594357 
L 360.288782 147.547403 
L 360.878852 147.157563 
L 361.468921 147.291303 
L 362.058991 146.558653 
L 362.64906 146.89173 
L 363.23913 145.67135 
L 363.8292 145.605217 
L 365.009339 144.917031 
L 365.599409 144.78342 
L 366.189478 144.821411 
L 366.779548 144.195295 
L 367.369617 143.939022 
L 369.139826 142.721965 
L 369.729896 142.859083 
L 370.319965 142.647031 
L 370.910035 141.749517 
L 372.090174 141.137141 
L 372.680244 141.19079 
L 373.270313 140.811269 
L 373.860383 140.293002 
L 374.450453 140.059575 
L 375.040522 139.624239 
L 375.630592 139.655334 
L 376.220661 139.411289 
L 376.810731 138.69715 
L 377.4008 138.457592 
L 377.99087 138.007081 
L 378.58094 137.985752 
L 379.171009 137.787905 
L 379.761079 136.888945 
L 380.351149 137.010241 
L 380.941218 136.521889 
L 381.531288 136.455768 
L 382.121357 136.242007 
L 383.301497 135.038991 
L 383.891566 135.22271 
L 384.481636 134.132772 
L 385.071705 134.628719 
L 385.661775 133.93092 
L 386.251845 133.979393 
L 386.841914 133.162265 
L 387.431984 133.221561 
L 388.022053 132.53159 
L 388.612123 132.367663 
L 389.202193 132.559283 
L 389.792262 131.828476 
L 390.972401 131.626526 
L 391.562471 131.796418 
L 392.152541 130.597931 
L 393.33268 130.216896 
L 394.512819 128.908989 
L 395.102889 129.132422 
L 395.692958 128.883653 
L 396.283028 128.818264 
L 397.463167 127.90669 
L 398.053237 128.024024 
L 398.643306 127.677075 
L 399.233376 126.919002 
L 399.823446 126.634446 
L 400.413515 126.064413 
L 401.003585 125.946356 
L 401.593654 125.370061 
L 402.773794 125.099259 
L 404.544003 123.559418 
L 405.724142 123.563634 
L 406.314211 123.296702 
L 406.904281 122.860026 
L 407.49435 122.061501 
L 408.08442 122.161741 
L 408.67449 121.645909 
L 409.264559 121.801685 
L 409.854629 121.456334 
L 410.444699 120.715837 
L 411.034768 120.489757 
L 411.624838 120.583435 
L 412.804977 119.367114 
L 413.395047 119.258803 
L 414.575186 118.004269 
L 415.165255 118.011987 
L 415.755325 117.211504 
L 419.295743 114.836723 
L 419.885812 114.689712 
L 420.475882 114.216686 
L 421.065951 113.999525 
L 421.656021 112.964181 
L 422.246091 113.419901 
L 422.83616 113.05336 
L 423.42623 112.197337 
L 424.016299 111.952839 
L 424.606369 111.541138 
L 426.376578 110.936289 
L 426.966648 109.929669 
L 427.556717 109.693529 
L 428.146787 109.80971 
L 428.736856 108.913503 
L 429.326926 109.348765 
L 429.916996 108.109856 
L 430.507065 107.83022 
L 431.097135 107.413704 
L 431.687204 107.257443 
L 432.277274 106.865301 
L 433.457413 105.404193 
L 434.047483 105.395101 
L 435.817692 103.834176 
L 436.407761 103.627334 
L 436.997831 103.576172 
L 437.587901 102.840402 
L 438.76804 102.455249 
L 439.358109 101.5978 
L 439.948179 101.265337 
L 440.538248 101.065505 
L 441.128318 100.45396 
L 441.718388 100.243929 
L 442.308457 99.480869 
L 443.488597 98.519938 
L 444.078666 98.406399 
L 444.668736 98.149876 
L 445.258805 97.32331 
L 446.438945 97.093126 
L 447.029014 96.737406 
L 448.209153 95.314866 
L 448.799223 94.763943 
L 449.979362 94.647392 
L 450.569432 93.575964 
L 451.159501 93.588658 
L 452.339641 92.714994 
L 452.92971 92.015255 
L 456.470128 89.805297 
L 457.650267 88.983719 
L 458.240337 88.222219 
L 458.830406 88.409863 
L 459.420476 87.80303 
L 460.010545 87.643464 
L 460.600615 86.801368 
L 461.190685 86.785049 
L 461.780754 86.40557 
L 462.370824 86.206422 
L 462.960894 85.592778 
L 463.550963 85.139601 
L 464.141033 84.974726 
L 465.911242 83.021919 
L 466.501311 82.878566 
L 467.091381 83.108042 
L 467.68145 82.118992 
L 468.27152 82.167388 
L 468.86159 81.705113 
L 469.451659 81.961361 
L 470.631799 79.894639 
L 471.221868 79.802462 
L 471.811938 79.927145 
L 472.992077 78.287128 
L 474.762286 77.161075 
L 475.942425 76.471967 
L 477.122564 75.288508 
L 477.712634 75.311189 
L 478.892773 74.640545 
L 479.482843 73.514166 
L 480.662982 72.886854 
L 481.843121 72.030432 
L 482.433191 71.855939 
L 483.02326 71.066256 
L 483.61333 71.006593 
L 484.203399 70.478404 
L 485.383539 69.961482 
L 485.973608 69.491694 
L 486.563678 68.784721 
L 487.153747 68.6886 
L 487.743817 68.305297 
L 488.333887 67.745417 
L 488.923956 67.63461 
L 489.514026 66.961918 
L 490.104095 66.620275 
L 491.284235 65.639562 
L 491.874304 65.810097 
L 492.464374 64.750511 
L 493.054443 64.435879 
L 493.644513 64.425357 
L 494.234583 63.636548 
L 494.824652 63.46497 
L 495.414722 62.58055 
L 496.004791 62.781054 
L 497.775 61.747569 
L 498.36507 60.499344 
L 498.95514 60.219248 
L 499.545209 59.787262 
L 500.725348 59.299785 
L 501.315418 58.697508 
L 502.495557 57.91226 
L 503.085627 57.748809 
L 503.675696 56.980495 
L 504.265766 56.416618 
L 504.855836 56.391974 
L 506.035975 55.170342 
L 506.626045 55.078188 
L 507.216114 54.597385 
L 507.806184 54.963968 
L 508.986323 53.028889 
L 510.166462 53.016387 
L 512.52674 50.839162 
L 513.11681 51.236079 
L 513.70688 50.275781 
L 514.887019 49.599412 
L 515.477089 49.606795 
L 516.067158 48.678846 
L 516.657228 48.586654 
L 517.247297 48.071766 
L 517.837367 47.80057 
L 518.427437 47.249625 
L 519.017506 46.977028 
L 519.607576 46.185031 
L 520.197645 45.971325 
L 520.787715 46.063591 
L 521.377785 44.94919 
L 521.967854 45.061264 
L 522.557924 42.84173 
L 523.147993 41.925192 
L 523.738063 41.823317 
L 524.328133 41.189467 
L 525.508272 40.321195 
L 526.098342 40.31021 
L 526.688411 39.587033 
L 527.278481 39.42568 
L 527.86855 39.101705 
L 528.45862 38.496165 
L 529.048689 38.514044 
L 530.228829 37.937521 
L 531.408968 36.663175 
L 531.999038 36.197177 
L 532.589107 36.414206 
L 533.179177 35.737935 
L 533.769246 35.383398 
L 534.949386 34.24606 
L 535.539455 34.459654 
L 536.129525 33.629164 
L 536.719594 33.61255 
L 537.309664 32.933708 
L 537.899734 32.644358 
L 538.489803 32.491178 
L 539.079873 31.723677 
L 539.669942 31.511266 
L 540.260012 31.480306 
L 540.850082 30.875143 
L 541.440151 30.597058 
L 542.030221 29.808153 
L 542.620291 29.904001 
L 543.80043 28.530432 
L 544.390499 28.501326 
L 544.980569 28.338998 
L 545.570639 27.490005 
L 546.160708 27.287804 
L 547.340847 26.061915 
L 547.930917 26.198272 
L 548.520987 25.370289 
L 549.111056 25.315096 
L 549.701126 24.884473 
L 550.291195 24.151801 
L 550.881265 24.968416 
L 551.471335 25.198731 
L 552.061404 24.535431 
L 552.651474 24.052727 
L 552.651474 24.052727 
" style="fill:none;stroke:#1f77b4;stroke-linecap:square;stroke-width:1.5;"/>
   </g>
   <g id="patch_3">
    <path d="M 50.976377 304.46 
L 50.976377 10.7 
" style="fill:none;stroke:#000000;stroke-linecap:square;stroke-linejoin:miter;stroke-width:0.8;"/>
   </g>
   <g id="patch_4">
    <path d="M 553.176377 304.46 
L 553.176377 10.7 
" style="fill:none;stroke:#000000;stroke-linecap:square;stroke-linejoin:miter;stroke-width:0.8;"/>
   </g>
   <g id="patch_5">
    <path d="M 50.976377 304.46 
L 553.176376 304.46 
" style="fill:none;stroke:#000000;stroke-linecap:square;stroke-linejoin:miter;stroke-width:0.8;"/>
   </g>
   <g id="patch_6">
    <path d="M 50.976377 10.7 
L 553.176376 10.7 
" style="fill:none;stroke:#000000;stroke-linecap:square;stroke-linejoin:miter;stroke-width:0.8;"/>
   </g>
   <g id="legend_1">
    <g id="patch_7">
     <path d="M 57.976377 33.378125 
L 106.734189 33.378125 
Q 108.734189 33.378125 108.734189 31.378125 
L 108.734189 17.7 
Q 108.734189 15.7 106.734189 15.7 
L 57.976377 15.7 
Q 55.976377 15.7 55.976377 17.7 
L 55.976377 31.378125 
Q 55.976377 33.378125 57.976377 33.378125 
z
" style="fill:#ffffff;opacity:0.8;stroke:#cccccc;stroke-linejoin:miter;"/>
    </g>
    <g id="line2d_30">
     <path d="M 59.976377 23.798437 
L 79.976377 23.798437 
" style="fill:none;stroke:#1f77b4;stroke-linecap:square;stroke-width:1.5;"/>
    </g>
    <g id="line2d_31"/>
    <g id="text_16">
     <!-- TID -->
     <defs>
      <path d="M 9.8125 72.90625 
L 19.671875 72.90625 
L 19.671875 0 
L 9.8125 0 
z
" id="DejaVuSans-49"/>
      <path d="M 19.671875 64.796875 
L 19.671875 8.109375 
L 31.59375 8.109375 
Q 46.6875 8.109375 53.6875 14.9375 
Q 60.6875 21.78125 60.6875 36.53125 
Q 60.6875 51.171875 53.6875 57.984375 
Q 46.6875 64.796875 31.59375 64.796875 
z
M 9.8125 72.90625 
L 30.078125 72.90625 
Q 51.265625 72.90625 61.171875 64.09375 
Q 71.09375 55.28125 71.09375 36.53125 
Q 71.09375 17.671875 61.125 8.828125 
Q 51.171875 0 30.078125 0 
L 9.8125 0 
z
" id="DejaVuSans-44"/>
     </defs>
     <g transform="translate(87.976377 27.298437)scale(0.1 -0.1)">
      <use xlink:href="#DejaVuSans-54"/>
      <use x="61.083984" xlink:href="#DejaVuSans-49"/>
      <use x="90.576172" xlink:href="#DejaVuSans-44"/>
     </g>
    </g>
   </g>
  </g>
 </g>
 <defs>
  <clipPath id="p7c57323e7d">
   <rect height="293.76" width="502.2" x="50.976377" y="10.7"/>
  </clipPath>
 </defs>
</svg>
