<?xml version="1.0" encoding="utf-8" standalone="no"?>
<!DOCTYPE svg PUBLIC "-//W3C//DTD SVG 1.1//EN"
  "http://www.w3.org/Graphics/SVG/1.1/DTD/svg11.dtd">
<!-- Created with matplotlib (http://matplotlib.org/) -->
<svg height="363.200096pt" version="1.1" viewBox="0 0 563.876377 363.200096" width="563.876377pt" xmlns="http://www.w3.org/2000/svg" xmlns:xlink="http://www.w3.org/1999/xlink">
 <defs>
  <style type="text/css">
*{stroke-linecap:butt;stroke-linejoin:round;}
  </style>
 </defs>
 <g id="figure_1">
  <g id="patch_1">
   <path d="M -0 363.200096 
L 563.876377 363.200096 
L 563.876377 0 
L -0 0 
z
" style="fill:#ffffff;"/>
  </g>
  <g id="axes_1">
   <g id="patch_2">
    <path d="M 50.976377 304.46 
L 553.176377 304.46 
L 553.176377 10.7 
L 50.976377 10.7 
z
" style="fill:#ffffff;"/>
   </g>
   <g id="matplotlib.axis_1">
    <g id="xtick_1">
     <g id="line2d_1">
      <path clip-path="url(#p06e36aaca7)" d="M 50.976377 304.46 
L 50.976377 10.7 
" style="fill:none;stroke:#b0b0b0;stroke-linecap:square;stroke-width:0.8;"/>
     </g>
     <g id="line2d_2">
      <defs>
       <path d="M 0 0 
L 0 3.5 
" id="m74c4cfaa66" style="stroke:#000000;stroke-width:0.8;"/>
      </defs>
      <g>
       <use style="stroke:#000000;stroke-width:0.8;" x="50.976377" xlink:href="#m74c4cfaa66" y="304.46"/>
      </g>
     </g>
     <g id="text_1">
      <!-- 05-28 20 -->
      <defs>
       <path d="M 31.78125 66.40625 
Q 24.171875 66.40625 20.328125 58.90625 
Q 16.5 51.421875 16.5 36.375 
Q 16.5 21.390625 20.328125 13.890625 
Q 24.171875 6.390625 31.78125 6.390625 
Q 39.453125 6.390625 43.28125 13.890625 
Q 47.125 21.390625 47.125 36.375 
Q 47.125 51.421875 43.28125 58.90625 
Q 39.453125 66.40625 31.78125 66.40625 
z
M 31.78125 74.21875 
Q 44.046875 74.21875 50.515625 64.515625 
Q 56.984375 54.828125 56.984375 36.375 
Q 56.984375 17.96875 50.515625 8.265625 
Q 44.046875 -1.421875 31.78125 -1.421875 
Q 19.53125 -1.421875 13.0625 8.265625 
Q 6.59375 17.96875 6.59375 36.375 
Q 6.59375 54.828125 13.0625 64.515625 
Q 19.53125 74.21875 31.78125 74.21875 
z
" id="DejaVuSans-30"/>
       <path d="M 10.796875 72.90625 
L 49.515625 72.90625 
L 49.515625 64.59375 
L 19.828125 64.59375 
L 19.828125 46.734375 
Q 21.96875 47.46875 24.109375 47.828125 
Q 26.265625 48.1875 28.421875 48.1875 
Q 40.625 48.1875 47.75 41.5 
Q 54.890625 34.8125 54.890625 23.390625 
Q 54.890625 11.625 47.5625 5.09375 
Q 40.234375 -1.421875 26.90625 -1.421875 
Q 22.3125 -1.421875 17.546875 -0.640625 
Q 12.796875 0.140625 7.71875 1.703125 
L 7.71875 11.625 
Q 12.109375 9.234375 16.796875 8.0625 
Q 21.484375 6.890625 26.703125 6.890625 
Q 35.15625 6.890625 40.078125 11.328125 
Q 45.015625 15.765625 45.015625 23.390625 
Q 45.015625 31 40.078125 35.4375 
Q 35.15625 39.890625 26.703125 39.890625 
Q 22.75 39.890625 18.8125 39.015625 
Q 14.890625 38.140625 10.796875 36.28125 
z
" id="DejaVuSans-35"/>
       <path d="M 4.890625 31.390625 
L 31.203125 31.390625 
L 31.203125 23.390625 
L 4.890625 23.390625 
z
" id="DejaVuSans-2d"/>
       <path d="M 19.1875 8.296875 
L 53.609375 8.296875 
L 53.609375 0 
L 7.328125 0 
L 7.328125 8.296875 
Q 12.9375 14.109375 22.625 23.890625 
Q 32.328125 33.6875 34.8125 36.53125 
Q 39.546875 41.84375 41.421875 45.53125 
Q 43.3125 49.21875 43.3125 52.78125 
Q 43.3125 58.59375 39.234375 62.25 
Q 35.15625 65.921875 28.609375 65.921875 
Q 23.96875 65.921875 18.8125 64.3125 
Q 13.671875 62.703125 7.8125 59.421875 
L 7.8125 69.390625 
Q 13.765625 71.78125 18.9375 73 
Q 24.125 74.21875 28.421875 74.21875 
Q 39.75 74.21875 46.484375 68.546875 
Q 53.21875 62.890625 53.21875 53.421875 
Q 53.21875 48.921875 51.53125 44.890625 
Q 49.859375 40.875 45.40625 35.40625 
Q 44.1875 33.984375 37.640625 27.21875 
Q 31.109375 20.453125 19.1875 8.296875 
z
" id="DejaVuSans-32"/>
       <path d="M 31.78125 34.625 
Q 24.75 34.625 20.71875 30.859375 
Q 16.703125 27.09375 16.703125 20.515625 
Q 16.703125 13.921875 20.71875 10.15625 
Q 24.75 6.390625 31.78125 6.390625 
Q 38.8125 6.390625 42.859375 10.171875 
Q 46.921875 13.96875 46.921875 20.515625 
Q 46.921875 27.09375 42.890625 30.859375 
Q 38.875 34.625 31.78125 34.625 
z
M 21.921875 38.8125 
Q 15.578125 40.375 12.03125 44.71875 
Q 8.5 49.078125 8.5 55.328125 
Q 8.5 64.0625 14.71875 69.140625 
Q 20.953125 74.21875 31.78125 74.21875 
Q 42.671875 74.21875 48.875 69.140625 
Q 55.078125 64.0625 55.078125 55.328125 
Q 55.078125 49.078125 51.53125 44.71875 
Q 48 40.375 41.703125 38.8125 
Q 48.828125 37.15625 52.796875 32.3125 
Q 56.78125 27.484375 56.78125 20.515625 
Q 56.78125 9.90625 50.3125 4.234375 
Q 43.84375 -1.421875 31.78125 -1.421875 
Q 19.734375 -1.421875 13.25 4.234375 
Q 6.78125 9.90625 6.78125 20.515625 
Q 6.78125 27.484375 10.78125 32.3125 
Q 14.796875 37.15625 21.921875 38.8125 
z
M 18.3125 54.390625 
Q 18.3125 48.734375 21.84375 45.5625 
Q 25.390625 42.390625 31.78125 42.390625 
Q 38.140625 42.390625 41.71875 45.5625 
Q 45.3125 48.734375 45.3125 54.390625 
Q 45.3125 60.0625 41.71875 63.234375 
Q 38.140625 66.40625 31.78125 66.40625 
Q 25.390625 66.40625 21.84375 63.234375 
Q 18.3125 60.0625 18.3125 54.390625 
z
" id="DejaVuSans-38"/>
       <path id="DejaVuSans-20"/>
      </defs>
      <g transform="translate(10.999219 340.520909)rotate(-30)scale(0.1 -0.1)">
       <use xlink:href="#DejaVuSans-30"/>
       <use x="63.623047" xlink:href="#DejaVuSans-35"/>
       <use x="127.246094" xlink:href="#DejaVuSans-2d"/>
       <use x="163.330078" xlink:href="#DejaVuSans-32"/>
       <use x="226.953125" xlink:href="#DejaVuSans-38"/>
       <use x="290.576172" xlink:href="#DejaVuSans-20"/>
       <use x="322.363281" xlink:href="#DejaVuSans-32"/>
       <use x="385.986328" xlink:href="#DejaVuSans-30"/>
      </g>
     </g>
    </g>
    <g id="xtick_2">
     <g id="line2d_3">
      <path clip-path="url(#p06e36aaca7)" d="M 134.676376 304.46 
L 134.676376 10.7 
" style="fill:none;stroke:#b0b0b0;stroke-linecap:square;stroke-width:0.8;"/>
     </g>
     <g id="line2d_4">
      <g>
       <use style="stroke:#000000;stroke-width:0.8;" x="134.676376" xlink:href="#m74c4cfaa66" y="304.46"/>
      </g>
     </g>
     <g id="text_2">
      <!-- 05-28 22 -->
      <g transform="translate(94.699219 340.520909)rotate(-30)scale(0.1 -0.1)">
       <use xlink:href="#DejaVuSans-30"/>
       <use x="63.623047" xlink:href="#DejaVuSans-35"/>
       <use x="127.246094" xlink:href="#DejaVuSans-2d"/>
       <use x="163.330078" xlink:href="#DejaVuSans-32"/>
       <use x="226.953125" xlink:href="#DejaVuSans-38"/>
       <use x="290.576172" xlink:href="#DejaVuSans-20"/>
       <use x="322.363281" xlink:href="#DejaVuSans-32"/>
       <use x="385.986328" xlink:href="#DejaVuSans-32"/>
      </g>
     </g>
    </g>
    <g id="xtick_3">
     <g id="line2d_5">
      <path clip-path="url(#p06e36aaca7)" d="M 218.376377 304.46 
L 218.376377 10.7 
" style="fill:none;stroke:#b0b0b0;stroke-linecap:square;stroke-width:0.8;"/>
     </g>
     <g id="line2d_6">
      <g>
       <use style="stroke:#000000;stroke-width:0.8;" x="218.376377" xlink:href="#m74c4cfaa66" y="304.46"/>
      </g>
     </g>
     <g id="text_3">
      <!-- 05-29 00 -->
      <defs>
       <path d="M 10.984375 1.515625 
L 10.984375 10.5 
Q 14.703125 8.734375 18.5 7.8125 
Q 22.3125 6.890625 25.984375 6.890625 
Q 35.75 6.890625 40.890625 13.453125 
Q 46.046875 20.015625 46.78125 33.40625 
Q 43.953125 29.203125 39.59375 26.953125 
Q 35.25 24.703125 29.984375 24.703125 
Q 19.046875 24.703125 12.671875 31.3125 
Q 6.296875 37.9375 6.296875 49.421875 
Q 6.296875 60.640625 12.9375 67.421875 
Q 19.578125 74.21875 30.609375 74.21875 
Q 43.265625 74.21875 49.921875 64.515625 
Q 56.59375 54.828125 56.59375 36.375 
Q 56.59375 19.140625 48.40625 8.859375 
Q 40.234375 -1.421875 26.421875 -1.421875 
Q 22.703125 -1.421875 18.890625 -0.6875 
Q 15.09375 0.046875 10.984375 1.515625 
z
M 30.609375 32.421875 
Q 37.25 32.421875 41.125 36.953125 
Q 45.015625 41.5 45.015625 49.421875 
Q 45.015625 57.28125 41.125 61.84375 
Q 37.25 66.40625 30.609375 66.40625 
Q 23.96875 66.40625 20.09375 61.84375 
Q 16.21875 57.28125 16.21875 49.421875 
Q 16.21875 41.5 20.09375 36.953125 
Q 23.96875 32.421875 30.609375 32.421875 
z
" id="DejaVuSans-39"/>
      </defs>
      <g transform="translate(178.399219 340.520909)rotate(-30)scale(0.1 -0.1)">
       <use xlink:href="#DejaVuSans-30"/>
       <use x="63.623047" xlink:href="#DejaVuSans-35"/>
       <use x="127.246094" xlink:href="#DejaVuSans-2d"/>
       <use x="163.330078" xlink:href="#DejaVuSans-32"/>
       <use x="226.953125" xlink:href="#DejaVuSans-39"/>
       <use x="290.576172" xlink:href="#DejaVuSans-20"/>
       <use x="322.363281" xlink:href="#DejaVuSans-30"/>
       <use x="385.986328" xlink:href="#DejaVuSans-30"/>
      </g>
     </g>
    </g>
    <g id="xtick_4">
     <g id="line2d_7">
      <path clip-path="url(#p06e36aaca7)" d="M 302.076377 304.46 
L 302.076377 10.7 
" style="fill:none;stroke:#b0b0b0;stroke-linecap:square;stroke-width:0.8;"/>
     </g>
     <g id="line2d_8">
      <g>
       <use style="stroke:#000000;stroke-width:0.8;" x="302.076377" xlink:href="#m74c4cfaa66" y="304.46"/>
      </g>
     </g>
     <g id="text_4">
      <!-- 05-29 02 -->
      <g transform="translate(262.099219 340.520909)rotate(-30)scale(0.1 -0.1)">
       <use xlink:href="#DejaVuSans-30"/>
       <use x="63.623047" xlink:href="#DejaVuSans-35"/>
       <use x="127.246094" xlink:href="#DejaVuSans-2d"/>
       <use x="163.330078" xlink:href="#DejaVuSans-32"/>
       <use x="226.953125" xlink:href="#DejaVuSans-39"/>
       <use x="290.576172" xlink:href="#DejaVuSans-20"/>
       <use x="322.363281" xlink:href="#DejaVuSans-30"/>
       <use x="385.986328" xlink:href="#DejaVuSans-32"/>
      </g>
     </g>
    </g>
    <g id="xtick_5">
     <g id="line2d_9">
      <path clip-path="url(#p06e36aaca7)" d="M 385.776376 304.46 
L 385.776376 10.7 
" style="fill:none;stroke:#b0b0b0;stroke-linecap:square;stroke-width:0.8;"/>
     </g>
     <g id="line2d_10">
      <g>
       <use style="stroke:#000000;stroke-width:0.8;" x="385.776376" xlink:href="#m74c4cfaa66" y="304.46"/>
      </g>
     </g>
     <g id="text_5">
      <!-- 05-29 04 -->
      <defs>
       <path d="M 37.796875 64.3125 
L 12.890625 25.390625 
L 37.796875 25.390625 
z
M 35.203125 72.90625 
L 47.609375 72.90625 
L 47.609375 25.390625 
L 58.015625 25.390625 
L 58.015625 17.1875 
L 47.609375 17.1875 
L 47.609375 0 
L 37.796875 0 
L 37.796875 17.1875 
L 4.890625 17.1875 
L 4.890625 26.703125 
z
" id="DejaVuSans-34"/>
      </defs>
      <g transform="translate(345.799219 340.520909)rotate(-30)scale(0.1 -0.1)">
       <use xlink:href="#DejaVuSans-30"/>
       <use x="63.623047" xlink:href="#DejaVuSans-35"/>
       <use x="127.246094" xlink:href="#DejaVuSans-2d"/>
       <use x="163.330078" xlink:href="#DejaVuSans-32"/>
       <use x="226.953125" xlink:href="#DejaVuSans-39"/>
       <use x="290.576172" xlink:href="#DejaVuSans-20"/>
       <use x="322.363281" xlink:href="#DejaVuSans-30"/>
       <use x="385.986328" xlink:href="#DejaVuSans-34"/>
      </g>
     </g>
    </g>
    <g id="xtick_6">
     <g id="line2d_11">
      <path clip-path="url(#p06e36aaca7)" d="M 469.476377 304.46 
L 469.476377 10.7 
" style="fill:none;stroke:#b0b0b0;stroke-linecap:square;stroke-width:0.8;"/>
     </g>
     <g id="line2d_12">
      <g>
       <use style="stroke:#000000;stroke-width:0.8;" x="469.476377" xlink:href="#m74c4cfaa66" y="304.46"/>
      </g>
     </g>
     <g id="text_6">
      <!-- 05-29 06 -->
      <defs>
       <path d="M 33.015625 40.375 
Q 26.375 40.375 22.484375 35.828125 
Q 18.609375 31.296875 18.609375 23.390625 
Q 18.609375 15.53125 22.484375 10.953125 
Q 26.375 6.390625 33.015625 6.390625 
Q 39.65625 6.390625 43.53125 10.953125 
Q 47.40625 15.53125 47.40625 23.390625 
Q 47.40625 31.296875 43.53125 35.828125 
Q 39.65625 40.375 33.015625 40.375 
z
M 52.59375 71.296875 
L 52.59375 62.3125 
Q 48.875 64.0625 45.09375 64.984375 
Q 41.3125 65.921875 37.59375 65.921875 
Q 27.828125 65.921875 22.671875 59.328125 
Q 17.53125 52.734375 16.796875 39.40625 
Q 19.671875 43.65625 24.015625 45.921875 
Q 28.375 48.1875 33.59375 48.1875 
Q 44.578125 48.1875 50.953125 41.515625 
Q 57.328125 34.859375 57.328125 23.390625 
Q 57.328125 12.15625 50.6875 5.359375 
Q 44.046875 -1.421875 33.015625 -1.421875 
Q 20.359375 -1.421875 13.671875 8.265625 
Q 6.984375 17.96875 6.984375 36.375 
Q 6.984375 53.65625 15.1875 63.9375 
Q 23.390625 74.21875 37.203125 74.21875 
Q 40.921875 74.21875 44.703125 73.484375 
Q 48.484375 72.75 52.59375 71.296875 
z
" id="DejaVuSans-36"/>
      </defs>
      <g transform="translate(429.499219 340.520909)rotate(-30)scale(0.1 -0.1)">
       <use xlink:href="#DejaVuSans-30"/>
       <use x="63.623047" xlink:href="#DejaVuSans-35"/>
       <use x="127.246094" xlink:href="#DejaVuSans-2d"/>
       <use x="163.330078" xlink:href="#DejaVuSans-32"/>
       <use x="226.953125" xlink:href="#DejaVuSans-39"/>
       <use x="290.576172" xlink:href="#DejaVuSans-20"/>
       <use x="322.363281" xlink:href="#DejaVuSans-30"/>
       <use x="385.986328" xlink:href="#DejaVuSans-36"/>
      </g>
     </g>
    </g>
    <g id="xtick_7">
     <g id="line2d_13">
      <path clip-path="url(#p06e36aaca7)" d="M 553.176377 304.46 
L 553.176377 10.7 
" style="fill:none;stroke:#b0b0b0;stroke-linecap:square;stroke-width:0.8;"/>
     </g>
     <g id="line2d_14">
      <g>
       <use style="stroke:#000000;stroke-width:0.8;" x="553.176377" xlink:href="#m74c4cfaa66" y="304.46"/>
      </g>
     </g>
     <g id="text_7">
      <!-- 05-29 08 -->
      <g transform="translate(513.199219 340.520909)rotate(-30)scale(0.1 -0.1)">
       <use xlink:href="#DejaVuSans-30"/>
       <use x="63.623047" xlink:href="#DejaVuSans-35"/>
       <use x="127.246094" xlink:href="#DejaVuSans-2d"/>
       <use x="163.330078" xlink:href="#DejaVuSans-32"/>
       <use x="226.953125" xlink:href="#DejaVuSans-39"/>
       <use x="290.576172" xlink:href="#DejaVuSans-20"/>
       <use x="322.363281" xlink:href="#DejaVuSans-30"/>
       <use x="385.986328" xlink:href="#DejaVuSans-38"/>
      </g>
     </g>
    </g>
    <g id="text_8">
     <!-- Time -->
     <defs>
      <path d="M -0.296875 72.90625 
L 61.375 72.90625 
L 61.375 64.59375 
L 35.5 64.59375 
L 35.5 0 
L 25.59375 0 
L 25.59375 64.59375 
L -0.296875 64.59375 
z
" id="DejaVuSans-54"/>
      <path d="M 9.421875 54.6875 
L 18.40625 54.6875 
L 18.40625 0 
L 9.421875 0 
z
M 9.421875 75.984375 
L 18.40625 75.984375 
L 18.40625 64.59375 
L 9.421875 64.59375 
z
" id="DejaVuSans-69"/>
      <path d="M 52 44.1875 
Q 55.375 50.25 60.0625 53.125 
Q 64.75 56 71.09375 56 
Q 79.640625 56 84.28125 50.015625 
Q 88.921875 44.046875 88.921875 33.015625 
L 88.921875 0 
L 79.890625 0 
L 79.890625 32.71875 
Q 79.890625 40.578125 77.09375 44.375 
Q 74.3125 48.1875 68.609375 48.1875 
Q 61.625 48.1875 57.5625 43.546875 
Q 53.515625 38.921875 53.515625 30.90625 
L 53.515625 0 
L 44.484375 0 
L 44.484375 32.71875 
Q 44.484375 40.625 41.703125 44.40625 
Q 38.921875 48.1875 33.109375 48.1875 
Q 26.21875 48.1875 22.15625 43.53125 
Q 18.109375 38.875 18.109375 30.90625 
L 18.109375 0 
L 9.078125 0 
L 9.078125 54.6875 
L 18.109375 54.6875 
L 18.109375 46.1875 
Q 21.1875 51.21875 25.484375 53.609375 
Q 29.78125 56 35.6875 56 
Q 41.65625 56 45.828125 52.96875 
Q 50 49.953125 52 44.1875 
z
" id="DejaVuSans-6d"/>
      <path d="M 56.203125 29.59375 
L 56.203125 25.203125 
L 14.890625 25.203125 
Q 15.484375 15.921875 20.484375 11.0625 
Q 25.484375 6.203125 34.421875 6.203125 
Q 39.59375 6.203125 44.453125 7.46875 
Q 49.3125 8.734375 54.109375 11.28125 
L 54.109375 2.78125 
Q 49.265625 0.734375 44.1875 -0.34375 
Q 39.109375 -1.421875 33.890625 -1.421875 
Q 20.796875 -1.421875 13.15625 6.1875 
Q 5.515625 13.8125 5.515625 26.8125 
Q 5.515625 40.234375 12.765625 48.109375 
Q 20.015625 56 32.328125 56 
Q 43.359375 56 49.78125 48.890625 
Q 56.203125 41.796875 56.203125 29.59375 
z
M 47.21875 32.234375 
Q 47.125 39.59375 43.09375 43.984375 
Q 39.0625 48.390625 32.421875 48.390625 
Q 24.90625 48.390625 20.390625 44.140625 
Q 15.875 39.890625 15.1875 32.171875 
z
" id="DejaVuSans-65"/>
     </defs>
     <g transform="translate(289.688877 353.920408)scale(0.1 -0.1)">
      <use xlink:href="#DejaVuSans-54"/>
      <use x="61.037109" xlink:href="#DejaVuSans-69"/>
      <use x="88.820312" xlink:href="#DejaVuSans-6d"/>
      <use x="186.232422" xlink:href="#DejaVuSans-65"/>
     </g>
    </g>
   </g>
   <g id="matplotlib.axis_2">
    <g id="ytick_1">
     <g id="line2d_15">
      <path clip-path="url(#p06e36aaca7)" d="M 50.976377 278.345049 
L 553.176377 278.345049 
" style="fill:none;stroke:#b0b0b0;stroke-linecap:square;stroke-width:0.8;"/>
     </g>
     <g id="line2d_16">
      <defs>
       <path d="M 0 0 
L -3.5 0 
" id="mf6bacd0996" style="stroke:#000000;stroke-width:0.8;"/>
      </defs>
      <g>
       <use style="stroke:#000000;stroke-width:0.8;" x="50.976377" xlink:href="#mf6bacd0996" y="278.345049"/>
      </g>
     </g>
     <g id="text_9">
      <!-- 86 -->
      <g transform="translate(31.251377 282.144268)scale(0.1 -0.1)">
       <use xlink:href="#DejaVuSans-38"/>
       <use x="63.623047" xlink:href="#DejaVuSans-36"/>
      </g>
     </g>
    </g>
    <g id="ytick_2">
     <g id="line2d_17">
      <path clip-path="url(#p06e36aaca7)" d="M 50.976377 240.870091 
L 553.176377 240.870091 
" style="fill:none;stroke:#b0b0b0;stroke-linecap:square;stroke-width:0.8;"/>
     </g>
     <g id="line2d_18">
      <g>
       <use style="stroke:#000000;stroke-width:0.8;" x="50.976377" xlink:href="#mf6bacd0996" y="240.870091"/>
      </g>
     </g>
     <g id="text_10">
      <!-- 88 -->
      <g transform="translate(31.251377 244.669309)scale(0.1 -0.1)">
       <use xlink:href="#DejaVuSans-38"/>
       <use x="63.623047" xlink:href="#DejaVuSans-38"/>
      </g>
     </g>
    </g>
    <g id="ytick_3">
     <g id="line2d_19">
      <path clip-path="url(#p06e36aaca7)" d="M 50.976377 203.395132 
L 553.176377 203.395132 
" style="fill:none;stroke:#b0b0b0;stroke-linecap:square;stroke-width:0.8;"/>
     </g>
     <g id="line2d_20">
      <g>
       <use style="stroke:#000000;stroke-width:0.8;" x="50.976377" xlink:href="#mf6bacd0996" y="203.395132"/>
      </g>
     </g>
     <g id="text_11">
      <!-- 90 -->
      <g transform="translate(31.251377 207.194351)scale(0.1 -0.1)">
       <use xlink:href="#DejaVuSans-39"/>
       <use x="63.623047" xlink:href="#DejaVuSans-30"/>
      </g>
     </g>
    </g>
    <g id="ytick_4">
     <g id="line2d_21">
      <path clip-path="url(#p06e36aaca7)" d="M 50.976377 165.920173 
L 553.176377 165.920173 
" style="fill:none;stroke:#b0b0b0;stroke-linecap:square;stroke-width:0.8;"/>
     </g>
     <g id="line2d_22">
      <g>
       <use style="stroke:#000000;stroke-width:0.8;" x="50.976377" xlink:href="#mf6bacd0996" y="165.920173"/>
      </g>
     </g>
     <g id="text_12">
      <!-- 92 -->
      <g transform="translate(31.251377 169.719392)scale(0.1 -0.1)">
       <use xlink:href="#DejaVuSans-39"/>
       <use x="63.623047" xlink:href="#DejaVuSans-32"/>
      </g>
     </g>
    </g>
    <g id="ytick_5">
     <g id="line2d_23">
      <path clip-path="url(#p06e36aaca7)" d="M 50.976377 128.445214 
L 553.176377 128.445214 
" style="fill:none;stroke:#b0b0b0;stroke-linecap:square;stroke-width:0.8;"/>
     </g>
     <g id="line2d_24">
      <g>
       <use style="stroke:#000000;stroke-width:0.8;" x="50.976377" xlink:href="#mf6bacd0996" y="128.445214"/>
      </g>
     </g>
     <g id="text_13">
      <!-- 94 -->
      <g transform="translate(31.251377 132.244433)scale(0.1 -0.1)">
       <use xlink:href="#DejaVuSans-39"/>
       <use x="63.623047" xlink:href="#DejaVuSans-34"/>
      </g>
     </g>
    </g>
    <g id="ytick_6">
     <g id="line2d_25">
      <path clip-path="url(#p06e36aaca7)" d="M 50.976377 90.970256 
L 553.176377 90.970256 
" style="fill:none;stroke:#b0b0b0;stroke-linecap:square;stroke-width:0.8;"/>
     </g>
     <g id="line2d_26">
      <g>
       <use style="stroke:#000000;stroke-width:0.8;" x="50.976377" xlink:href="#mf6bacd0996" y="90.970256"/>
      </g>
     </g>
     <g id="text_14">
      <!-- 96 -->
      <g transform="translate(31.251377 94.769474)scale(0.1 -0.1)">
       <use xlink:href="#DejaVuSans-39"/>
       <use x="63.623047" xlink:href="#DejaVuSans-36"/>
      </g>
     </g>
    </g>
    <g id="ytick_7">
     <g id="line2d_27">
      <path clip-path="url(#p06e36aaca7)" d="M 50.976377 53.495297 
L 553.176377 53.495297 
" style="fill:none;stroke:#b0b0b0;stroke-linecap:square;stroke-width:0.8;"/>
     </g>
     <g id="line2d_28">
      <g>
       <use style="stroke:#000000;stroke-width:0.8;" x="50.976377" xlink:href="#mf6bacd0996" y="53.495297"/>
      </g>
     </g>
     <g id="text_15">
      <!-- 98 -->
      <g transform="translate(31.251377 57.294516)scale(0.1 -0.1)">
       <use xlink:href="#DejaVuSans-39"/>
       <use x="63.623047" xlink:href="#DejaVuSans-38"/>
      </g>
     </g>
    </g>
    <g id="ytick_8">
     <g id="line2d_29">
      <path clip-path="url(#p06e36aaca7)" d="M 50.976377 16.020338 
L 553.176377 16.020338 
" style="fill:none;stroke:#b0b0b0;stroke-linecap:square;stroke-width:0.8;"/>
     </g>
     <g id="line2d_30">
      <g>
       <use style="stroke:#000000;stroke-width:0.8;" x="50.976377" xlink:href="#mf6bacd0996" y="16.020338"/>
      </g>
     </g>
     <g id="text_16">
      <!-- 100 -->
      <defs>
       <path d="M 12.40625 8.296875 
L 28.515625 8.296875 
L 28.515625 63.921875 
L 10.984375 60.40625 
L 10.984375 69.390625 
L 28.421875 72.90625 
L 38.28125 72.90625 
L 38.28125 8.296875 
L 54.390625 8.296875 
L 54.390625 0 
L 12.40625 0 
z
" id="DejaVuSans-31"/>
      </defs>
      <g transform="translate(24.888877 19.819557)scale(0.1 -0.1)">
       <use xlink:href="#DejaVuSans-31"/>
       <use x="63.623047" xlink:href="#DejaVuSans-30"/>
       <use x="127.246094" xlink:href="#DejaVuSans-30"/>
      </g>
     </g>
    </g>
   </g>
   <g id="line2d_31">
    <path clip-path="url(#p06e36aaca7)" d="M 51.530084 291.107273 
L 53.890363 289.702633 
L 54.480432 289.772735 
L 55.070502 288.853846 
L 55.660571 289.26855 
L 56.250641 288.477345 
L 56.840711 289.374973 
L 57.43078 288.363702 
L 58.610919 287.348315 
L 59.200989 287.311106 
L 59.791059 286.841819 
L 60.381128 286.197061 
L 60.971198 286.384939 
L 61.561267 285.692081 
L 62.151337 285.415029 
L 62.741407 285.392349 
L 63.331476 284.4914 
L 65.101685 284.031855 
L 65.691755 283.347182 
L 66.281824 283.028268 
L 67.461964 282.933331 
L 68.052033 282.281345 
L 68.642103 282.14356 
L 69.822242 281.165357 
L 70.412312 281.167699 
L 71.002381 281.029483 
L 71.592451 279.959212 
L 72.18252 280.238929 
L 72.77259 279.812814 
L 73.36266 279.524482 
L 74.542799 278.602231 
L 75.132868 278.24108 
L 75.722938 278.2574 
L 76.313008 277.992872 
L 76.903077 277.465131 
L 77.493147 277.18539 
L 78.083216 277.27298 
L 78.673286 276.141022 
L 79.263356 276.040221 
L 79.853425 276.165221 
L 80.443495 275.730426 
L 81.033564 275.155187 
L 82.803773 274.59777 
L 83.393843 273.644925 
L 83.983913 273.596409 
L 84.573982 273.416816 
L 85.164052 273.085334 
L 86.93426 271.684017 
L 89.294539 270.406426 
L 89.884609 270.476527 
L 90.474678 269.777219 
L 91.064748 269.367267 
L 91.654817 269.395593 
L 92.244887 268.977248 
L 92.834957 268.880678 
L 93.425026 268.202471 
L 94.015096 268.50777 
L 94.605165 267.956581 
L 95.195235 267.785974 
L 95.785305 267.175115 
L 96.375374 266.82637 
L 96.965444 266.917681 
L 97.555514 266.299111 
L 99.325722 265.620084 
L 100.505862 264.827562 
L 101.686001 264.288211 
L 102.27607 263.481909 
L 102.86614 263.140339 
L 103.45621 263.482475 
L 104.046279 262.475307 
L 104.636349 262.49917 
L 105.226418 262.635829 
L 105.816488 262.262405 
L 107.586697 260.412284 
L 108.176767 260.454768 
L 109.356906 259.914633 
L 109.946975 260.336911 
L 110.537045 259.352797 
L 111.717184 258.411943 
L 112.307254 257.47933 
L 112.897323 257.759196 
L 113.487393 257.551755 
L 114.077463 257.210921 
L 114.667532 257.050117 
L 115.847671 256.006806 
L 116.437741 255.75964 
L 117.027811 255.324662 
L 117.61788 255.520556 
L 118.20795 254.920286 
L 119.388089 254.443847 
L 119.978159 254.241192 
L 120.568228 254.962109 
L 121.158298 253.869789 
L 121.748367 253.350569 
L 122.338437 253.137047 
L 122.928507 252.727654 
L 123.518576 252.018513 
L 124.108646 252.104723 
L 124.698715 251.953673 
L 125.288785 250.726529 
L 125.878855 251.213016 
L 126.468924 250.519798 
L 127.058994 250.433493 
L 128.239133 249.732274 
L 128.829203 249.102489 
L 129.419272 249.872964 
L 130.009342 248.907816 
L 130.599411 248.832555 
L 131.779551 248.084603 
L 132.36962 247.432167 
L 133.54976 246.690549 
L 135.319968 246.13286 
L 135.910038 245.465323 
L 136.500108 245.21345 
L 137.090177 245.146894 
L 139.450456 244.038635 
L 140.040525 243.632952 
L 140.630595 242.861008 
L 141.220665 242.71976 
L 141.810734 242.951315 
L 142.990873 242.028465 
L 143.580943 241.99238 
L 144.171012 241.470605 
L 144.761082 241.152948 
L 145.351152 240.540128 
L 145.941221 240.586625 
L 146.531291 240.308629 
L 147.121361 239.658445 
L 147.71143 239.403947 
L 148.3015 239.465239 
L 149.481639 238.096872 
L 150.071709 238.300613 
L 150.661778 237.371464 
L 151.841917 237.304895 
L 152.431987 236.79141 
L 153.022057 236.739299 
L 154.202196 236.039127 
L 154.792265 235.333848 
L 155.382335 235.222149 
L 155.972405 235.41787 
L 156.562474 234.725702 
L 157.152544 234.58534 
L 157.742613 235.134731 
L 158.332683 233.882288 
L 158.922753 233.513291 
L 159.512822 233.539588 
L 160.102892 232.805466 
L 160.692961 232.851199 
L 161.283031 232.161385 
L 161.873101 232.237759 
L 162.46317 232.102055 
L 163.05324 231.221324 
L 163.643309 230.945391 
L 164.233379 231.082545 
L 164.823449 230.548799 
L 165.413518 230.224004 
L 166.003588 230.216591 
L 166.593658 229.822175 
L 167.183727 229.564294 
L 167.773797 228.761083 
L 168.363866 228.20888 
L 168.953936 228.856661 
L 169.544006 227.841167 
L 170.134075 228.030453 
L 170.724145 227.12461 
L 171.314214 226.709008 
L 171.904284 226.433479 
L 172.494354 226.913747 
L 173.084423 225.705536 
L 174.264562 225.467955 
L 174.854632 225.061021 
L 175.444702 224.825951 
L 176.034771 223.78369 
L 177.21491 224.138159 
L 177.80498 223.059056 
L 178.39505 223.289686 
L 180.755328 221.481488 
L 181.345398 221.220249 
L 181.935467 221.36113 
L 182.525537 220.849166 
L 183.115606 220.544288 
L 183.705676 220.013378 
L 184.295746 220.076153 
L 185.475885 219.590734 
L 186.656024 218.799357 
L 187.246094 218.778874 
L 189.606372 217.201181 
L 190.196442 217.236257 
L 190.786511 216.39178 
L 191.376581 216.612239 
L 191.966651 216.243617 
L 193.14679 215.964339 
L 193.736859 214.745907 
L 194.326929 214.940703 
L 195.507068 214.401352 
L 196.687207 213.458981 
L 197.277277 213.572492 
L 197.867347 213.361105 
L 198.457416 212.34719 
L 199.047486 212.528539 
L 200.817695 211.844458 
L 201.407764 211.459611 
L 202.587903 210.466844 
L 203.177973 210.51138 
L 203.768043 210.232906 
L 204.358112 209.460832 
L 204.948182 209.690468 
L 205.538252 209.040476 
L 206.128321 208.827846 
L 206.718391 208.339204 
L 207.89853 207.869273 
L 208.4886 207.685479 
L 209.078669 207.30999 
L 209.668739 206.470316 
L 210.258808 206.458034 
L 211.438948 205.813281 
L 212.619087 204.929418 
L 213.209157 205.05517 
L 213.799226 204.26443 
L 214.389296 204.104067 
L 214.979365 204.246435 
L 215.569435 203.406221 
L 216.159504 203.113527 
L 216.749574 203.149129 
L 217.339644 202.561108 
L 217.929713 202.291692 
L 218.519783 201.442957 
L 219.109853 202.01246 
L 219.699922 201.760302 
L 220.289992 201.278426 
L 220.880061 200.956916 
L 221.470131 200.406788 
L 222.060201 199.61198 
L 222.65027 199.70911 
L 223.24034 199.453551 
L 223.830409 199.435162 
L 224.420479 198.126764 
L 225.600618 198.198223 
L 226.190688 197.468695 
L 227.370827 197.103566 
L 228.550966 196.92217 
L 230.321175 195.350397 
L 230.911245 195.803583 
L 231.501314 195.410706 
L 232.091384 194.805174 
L 232.681453 194.568702 
L 233.861593 193.800529 
L 234.451662 193.98897 
L 235.041732 192.894046 
L 235.631802 193.189269 
L 236.811941 192.486519 
L 237.99208 191.339768 
L 238.58215 191.198877 
L 239.172219 190.80955 
L 240.352358 190.947387 
L 240.942428 190.124831 
L 241.532498 189.816136 
L 242.122567 189.282289 
L 242.712637 189.422368 
L 243.302706 188.264905 
L 243.892776 188.449774 
L 244.482846 187.948204 
L 245.072915 187.926593 
L 245.662985 187.537996 
L 246.253054 186.694324 
L 247.433194 186.497555 
L 248.023263 186.11917 
L 248.613333 186.106265 
L 249.203403 185.660466 
L 249.793472 185.449531 
L 250.973611 184.378439 
L 251.563681 184.33239 
L 252.153751 183.646153 
L 253.33389 183.507026 
L 254.514029 182.234068 
L 255.104099 182.45711 
L 255.694168 181.665637 
L 256.284238 181.331161 
L 256.874307 180.622039 
L 257.464377 180.788907 
L 258.054447 180.476325 
L 258.644516 179.881346 
L 259.234586 179.673459 
L 259.824655 179.73838 
L 261.004795 179.11246 
L 261.594864 178.471299 
L 262.184934 178.173644 
L 262.775004 178.194013 
L 263.955143 177.789845 
L 264.545212 177.130785 
L 265.135282 177.057348 
L 265.725351 176.432006 
L 266.315421 176.425988 
L 266.905491 175.937556 
L 267.49556 175.169939 
L 268.08563 174.985023 
L 269.265769 175.080214 
L 269.855839 174.790105 
L 270.445908 174.081843 
L 271.035978 174.306915 
L 271.626047 174.024213 
L 272.806187 173.723392 
L 273.396256 173.250583 
L 274.576396 172.741655 
L 275.166465 172.466984 
L 275.756535 171.623621 
L 276.346604 171.53028 
L 276.936674 171.051035 
L 277.526744 171.093422 
L 278.116813 170.176121 
L 278.706883 170.143253 
L 279.887022 169.681075 
L 280.477092 169.041782 
L 281.067161 168.950835 
L 281.657231 168.480853 
L 282.247301 168.366263 
L 282.83737 167.917201 
L 283.42744 168.231445 
L 284.017509 167.475803 
L 284.607579 166.923055 
L 285.197649 167.096639 
L 286.967857 165.969926 
L 287.557927 165.403503 
L 288.738066 164.693525 
L 289.328136 164.879666 
L 289.918205 164.047822 
L 290.508275 164.203078 
L 291.098345 163.699262 
L 291.688414 163.651023 
L 292.278484 162.866107 
L 292.868553 162.444612 
L 293.458623 162.224932 
L 294.048693 161.861959 
L 294.638762 162.117823 
L 295.228832 161.21048 
L 295.818901 161.124732 
L 296.408971 160.645888 
L 296.999041 160.444886 
L 297.58911 160.438789 
L 298.17918 159.325552 
L 298.769249 159.470557 
L 299.359319 159.053442 
L 299.949389 158.154738 
L 300.539458 158.815503 
L 301.129528 157.504776 
L 301.719598 157.478395 
L 302.309667 157.095349 
L 302.899737 157.004985 
L 303.489806 157.53892 
L 304.079876 156.537007 
L 304.669945 155.986839 
L 305.260015 156.015917 
L 305.850085 155.176791 
L 306.440154 157.322967 
L 307.030224 154.462242 
L 307.620294 154.582692 
L 308.210363 154.277154 
L 309.390502 153.451469 
L 309.980572 153.657715 
L 310.570642 153.029137 
L 311.160711 152.794848 
L 311.750781 152.841422 
L 312.34085 152.562525 
L 312.93092 151.626008 
L 314.111059 151.549812 
L 314.701129 151.420638 
L 315.291198 150.774049 
L 315.881268 150.588601 
L 316.471338 150.094312 
L 317.061407 149.948528 
L 317.651477 149.285648 
L 318.241547 149.147311 
L 318.831616 148.642801 
L 319.421686 148.870055 
L 320.011755 148.252474 
L 320.601825 148.44501 
L 321.191895 147.588209 
L 321.781964 147.281952 
L 322.372034 147.381413 
L 323.552173 146.366653 
L 324.142243 145.557749 
L 324.732312 145.506271 
L 325.322382 145.751782 
L 325.912451 145.169166 
L 326.502521 145.081973 
L 327.092591 144.374621 
L 327.68266 144.116343 
L 328.862799 143.322659 
L 329.452869 143.611312 
L 330.042939 142.637621 
L 330.633008 142.763186 
L 331.813147 141.378115 
L 332.403217 141.647978 
L 334.173426 140.66788 
L 334.763496 140.726386 
L 335.353565 140.013107 
L 335.943635 140.045876 
L 336.533704 139.251079 
L 337.713843 138.909141 
L 338.893983 138.668855 
L 339.484052 138.254696 
L 340.074122 138.023264 
L 340.664192 137.58301 
L 341.254261 136.768812 
L 341.844331 136.647494 
L 342.4344 136.349054 
L 343.02447 136.451937 
L 343.61454 135.556281 
L 344.204609 135.524485 
L 345.384748 135.014395 
L 345.974818 134.529361 
L 346.564888 134.384584 
L 347.745027 133.864268 
L 348.335096 133.35297 
L 348.925166 133.257583 
L 349.515236 132.514022 
L 350.105305 132.676648 
L 350.695375 131.817003 
L 351.285444 131.730468 
L 351.875514 131.05844 
L 352.465584 131.675487 
L 353.055653 130.703615 
L 354.235793 130.045562 
L 354.825862 129.992053 
L 355.415932 129.307752 
L 356.006001 129.402002 
L 356.596071 129.280498 
L 357.186141 128.818235 
L 357.77621 128.047074 
L 358.36628 128.082355 
L 359.546419 127.255435 
L 360.136489 127.031576 
L 360.726558 126.381216 
L 361.316628 126.570288 
L 361.906697 125.960144 
L 362.496767 125.956584 
L 363.086837 125.085098 
L 363.676906 124.814334 
L 364.857046 124.562838 
L 365.447115 124.173661 
L 366.037185 124.463626 
L 366.627254 123.386598 
L 367.217324 123.901196 
L 367.807394 122.48094 
L 368.397463 122.5813 
L 368.987533 122.070275 
L 370.167672 121.56422 
L 370.757742 121.58861 
L 371.347811 120.960746 
L 372.52795 120.440027 
L 374.298159 119.23198 
L 374.888229 118.969589 
L 375.478298 118.979001 
L 376.068368 118.444756 
L 377.248507 117.896997 
L 377.838577 117.594041 
L 378.428646 116.947101 
L 379.608786 116.756895 
L 380.788925 115.98409 
L 381.378994 115.750453 
L 381.969064 115.224155 
L 382.559134 115.14178 
L 383.739273 114.644246 
L 384.329343 113.77025 
L 384.919412 113.653404 
L 385.509482 113.363854 
L 386.099551 113.238144 
L 386.689621 112.852613 
L 387.279691 112.252405 
L 388.45983 112.094742 
L 389.639969 111.021177 
L 390.820108 110.955942 
L 393.180387 109.431602 
L 393.770456 109.468259 
L 394.360526 108.885869 
L 394.950595 108.593754 
L 395.540665 108.040305 
L 396.130735 107.70877 
L 396.720804 108.148158 
L 397.310874 108.432048 
L 398.491013 106.621145 
L 399.081083 106.371538 
L 400.261222 105.657127 
L 400.851291 105.88649 
L 401.441361 105.25207 
L 402.031431 105.063287 
L 403.21157 104.04295 
L 403.80164 103.961892 
L 405.571848 102.827038 
L 406.161918 102.821494 
L 406.751988 102.054233 
L 407.342057 102.263757 
L 407.932127 101.38512 
L 408.522196 101.425745 
L 409.702336 100.472503 
L 410.882475 100.020864 
L 411.472544 99.510661 
L 412.062614 99.721355 
L 412.652684 98.956963 
L 413.242753 98.810255 
L 413.832823 98.349393 
L 414.422892 98.218095 
L 415.012962 97.491792 
L 415.603032 97.41443 
L 416.193101 97.038499 
L 417.37324 96.053762 
L 417.96331 95.722098 
L 418.55338 95.954206 
L 419.143449 95.281555 
L 419.733519 94.252744 
L 420.323588 94.881039 
L 420.913658 94.324266 
L 421.503728 93.987104 
L 422.093797 93.831927 
L 422.683867 93.351033 
L 423.273937 93.392743 
L 423.864006 92.817738 
L 425.044145 92.538744 
L 425.634215 92.342197 
L 426.224285 91.349509 
L 426.814354 91.572174 
L 427.404424 90.568695 
L 427.994493 90.862795 
L 428.584563 90.744896 
L 429.174633 90.478503 
L 429.764702 89.683812 
L 430.354772 89.528375 
L 430.944842 89.783546 
L 431.534911 89.287729 
L 432.124981 88.464455 
L 432.71505 88.429414 
L 433.30512 88.52317 
L 433.895189 87.723622 
L 434.485259 87.728877 
L 435.075329 87.443355 
L 435.665398 87.611903 
L 436.255468 86.441364 
L 436.845538 86.610273 
L 438.025677 85.986465 
L 439.205816 84.932789 
L 439.795886 85.000685 
L 440.385955 84.710331 
L 440.976025 84.209041 
L 442.156164 83.501705 
L 442.746234 83.11424 
L 443.336303 83.133043 
L 443.926373 82.54496 
L 444.516442 82.211547 
L 445.106512 82.124845 
L 445.696582 81.457464 
L 446.286651 81.404998 
L 447.46679 80.658038 
L 448.05686 80.721801 
L 448.64693 79.709086 
L 449.236999 80.008709 
L 449.827069 79.375181 
L 450.417138 79.574078 
L 451.007208 79.252708 
L 451.597278 78.412324 
L 452.187347 78.06962 
L 452.777417 78.237606 
L 453.367486 77.848006 
L 453.957556 77.724253 
L 454.547626 77.226963 
L 455.137695 77.477532 
L 455.727765 76.592448 
L 456.317835 77.122451 
L 456.907904 76.204062 
L 457.497974 75.86192 
L 458.088043 75.88244 
L 458.678113 75.515288 
L 459.268183 74.994294 
L 459.858252 75.179816 
L 460.448322 74.616541 
L 461.038391 74.325733 
L 461.628461 74.323272 
L 462.218531 73.591114 
L 462.8086 73.688167 
L 463.39867 73.040936 
L 463.988739 73.308023 
L 464.578809 72.988972 
L 465.168879 72.269133 
L 465.758948 72.308916 
L 466.939087 71.788331 
L 467.529157 71.277761 
L 468.119227 71.043943 
L 468.709296 70.689918 
L 469.299366 70.736424 
L 470.479505 70.055309 
L 471.659644 69.497707 
L 472.839784 68.637116 
L 473.429853 69.334763 
L 474.019923 68.548158 
L 474.609992 67.98646 
L 475.200062 67.625296 
L 475.790132 67.682596 
L 476.380201 67.430895 
L 476.970271 66.7788 
L 477.56034 66.638806 
L 478.15041 66.696279 
L 478.74048 65.803667 
L 479.330549 65.776749 
L 479.920619 65.450616 
L 480.510688 64.474805 
L 481.100758 64.877767 
L 481.690828 64.416761 
L 482.280897 63.624429 
L 482.870967 64.08753 
L 483.461036 63.383517 
L 485.821315 62.417757 
L 487.001454 60.978336 
L 487.591524 59.985309 
L 488.181593 60.359317 
L 488.771663 60.115499 
L 489.361732 59.686049 
L 489.951802 59.545453 
L 490.541872 59.042873 
L 491.722011 58.254989 
L 492.312081 58.225617 
L 492.90215 57.778822 
L 493.49222 57.621129 
L 494.082289 57.164985 
L 494.672359 57.333763 
L 495.262429 56.954714 
L 495.852498 56.040946 
L 497.622707 55.524961 
L 498.212777 55.836699 
L 498.802846 54.847396 
L 499.982985 54.095016 
L 500.573055 53.386935 
L 501.163125 53.39612 
L 501.753194 52.988553 
L 502.343264 53.335694 
L 504.113473 51.794612 
L 505.293612 51.229599 
L 505.883682 51.21096 
L 506.473751 50.893716 
L 507.063821 49.912349 
L 507.65389 50.066569 
L 508.83403 49.425857 
L 509.424099 49.147868 
L 510.014169 49.374665 
L 510.604238 48.186219 
L 511.194308 47.814115 
L 511.784378 47.294893 
L 512.964517 47.440979 
L 514.144656 45.869863 
L 514.734726 45.949084 
L 515.324795 45.410902 
L 515.914865 45.593116 
L 516.504934 44.683907 
L 517.095004 44.952465 
L 517.685074 44.401142 
L 518.865213 43.95567 
L 520.045352 43.03727 
L 520.635422 42.946829 
L 521.225491 42.105676 
L 521.815561 42.264569 
L 522.9957 41.46453 
L 523.58577 40.807981 
L 525.355979 40.338927 
L 526.536118 39.141 
L 527.126187 39.376671 
L 528.306327 38.362692 
L 529.486466 38.106479 
L 530.076535 37.581178 
L 531.256675 37.063164 
L 531.846744 37.25184 
L 533.616953 35.59503 
L 535.387162 34.744994 
L 535.977232 33.754085 
L 536.567301 34.112715 
L 537.157371 33.257016 
L 537.74744 33.441907 
L 538.33751 33.32014 
L 538.92758 32.728118 
L 540.107719 32.235888 
L 540.697788 31.626299 
L 541.287858 31.186492 
L 541.877928 30.948089 
L 542.467997 31.120283 
L 544.238206 30.49558 
L 544.828276 30.549795 
L 545.418345 30.071817 
L 546.008415 29.989351 
L 547.778624 29.111172 
L 548.368693 29.002704 
L 548.958763 27.430981 
L 549.548832 26.708322 
L 550.138902 25.790108 
L 550.728972 25.76246 
L 551.319041 24.913806 
L 551.909111 24.708529 
L 552.499181 24.146538 
L 553.08925 24.052727 
L 553.08925 24.052727 
" style="fill:none;stroke:#1f77b4;stroke-linecap:square;stroke-width:1.5;"/>
   </g>
   <g id="patch_3">
    <path d="M 50.976377 304.46 
L 50.976377 10.7 
" style="fill:none;stroke:#000000;stroke-linecap:square;stroke-linejoin:miter;stroke-width:0.8;"/>
   </g>
   <g id="patch_4">
    <path d="M 553.176377 304.46 
L 553.176377 10.7 
" style="fill:none;stroke:#000000;stroke-linecap:square;stroke-linejoin:miter;stroke-width:0.8;"/>
   </g>
   <g id="patch_5">
    <path d="M 50.976377 304.46 
L 553.176377 304.46 
" style="fill:none;stroke:#000000;stroke-linecap:square;stroke-linejoin:miter;stroke-width:0.8;"/>
   </g>
   <g id="patch_6">
    <path d="M 50.976377 10.7 
L 553.176377 10.7 
" style="fill:none;stroke:#000000;stroke-linecap:square;stroke-linejoin:miter;stroke-width:0.8;"/>
   </g>
   <g id="legend_1">
    <g id="patch_7">
     <path d="M 57.976377 33.378125 
L 106.734189 33.378125 
Q 108.734189 33.378125 108.734189 31.378125 
L 108.734189 17.7 
Q 108.734189 15.7 106.734189 15.7 
L 57.976377 15.7 
Q 55.976377 15.7 55.976377 17.7 
L 55.976377 31.378125 
Q 55.976377 33.378125 57.976377 33.378125 
z
" style="fill:#ffffff;opacity:0.8;stroke:#cccccc;stroke-linejoin:miter;"/>
    </g>
    <g id="line2d_32">
     <path d="M 59.976377 23.798437 
L 79.976377 23.798437 
" style="fill:none;stroke:#1f77b4;stroke-linecap:square;stroke-width:1.5;"/>
    </g>
    <g id="line2d_33"/>
    <g id="text_17">
     <!-- TID -->
     <defs>
      <path d="M 9.8125 72.90625 
L 19.671875 72.90625 
L 19.671875 0 
L 9.8125 0 
z
" id="DejaVuSans-49"/>
      <path d="M 19.671875 64.796875 
L 19.671875 8.109375 
L 31.59375 8.109375 
Q 46.6875 8.109375 53.6875 14.9375 
Q 60.6875 21.78125 60.6875 36.53125 
Q 60.6875 51.171875 53.6875 57.984375 
Q 46.6875 64.796875 31.59375 64.796875 
z
M 9.8125 72.90625 
L 30.078125 72.90625 
Q 51.265625 72.90625 61.171875 64.09375 
Q 71.09375 55.28125 71.09375 36.53125 
Q 71.09375 17.671875 61.125 8.828125 
Q 51.171875 0 30.078125 0 
L 9.8125 0 
z
" id="DejaVuSans-44"/>
     </defs>
     <g transform="translate(87.976377 27.298437)scale(0.1 -0.1)">
      <use xlink:href="#DejaVuSans-54"/>
      <use x="61.083984" xlink:href="#DejaVuSans-49"/>
      <use x="90.576172" xlink:href="#DejaVuSans-44"/>
     </g>
    </g>
   </g>
  </g>
 </g>
 <defs>
  <clipPath id="p06e36aaca7">
   <rect height="293.76" width="502.2" x="50.976377" y="10.7"/>
  </clipPath>
 </defs>
</svg>
