<?xml version="1.0" encoding="utf-8" standalone="no"?>
<!DOCTYPE svg PUBLIC "-//W3C//DTD SVG 1.1//EN"
  "http://www.w3.org/Graphics/SVG/1.1/DTD/svg11.dtd">
<!-- Created with matplotlib (http://matplotlib.org/) -->
<svg height="363.200096pt" version="1.1" viewBox="0 0 563.876377 363.200096" width="563.876377pt" xmlns="http://www.w3.org/2000/svg" xmlns:xlink="http://www.w3.org/1999/xlink">
 <defs>
  <style type="text/css">
*{stroke-linecap:butt;stroke-linejoin:round;}
  </style>
 </defs>
 <g id="figure_1">
  <g id="patch_1">
   <path d="M -0 363.200096 
L 563.876377 363.200096 
L 563.876377 0 
L -0 0 
z
" style="fill:#ffffff;"/>
  </g>
  <g id="axes_1">
   <g id="patch_2">
    <path d="M 50.976377 304.46 
L 553.176377 304.46 
L 553.176377 10.7 
L 50.976377 10.7 
z
" style="fill:#ffffff;"/>
   </g>
   <g id="matplotlib.axis_1">
    <g id="xtick_1">
     <g id="line2d_1">
      <path clip-path="url(#pea8ab88db8)" d="M 50.976377 304.46 
L 50.976377 10.7 
" style="fill:none;stroke:#b0b0b0;stroke-linecap:square;stroke-width:0.8;"/>
     </g>
     <g id="line2d_2">
      <defs>
       <path d="M 0 0 
L 0 3.5 
" id="me00bdb37f7" style="stroke:#000000;stroke-width:0.8;"/>
      </defs>
      <g>
       <use style="stroke:#000000;stroke-width:0.8;" x="50.976377" xlink:href="#me00bdb37f7" y="304.46"/>
      </g>
     </g>
     <g id="text_1">
      <!-- 05-25 08 -->
      <defs>
       <path d="M 31.78125 66.40625 
Q 24.171875 66.40625 20.328125 58.90625 
Q 16.5 51.421875 16.5 36.375 
Q 16.5 21.390625 20.328125 13.890625 
Q 24.171875 6.390625 31.78125 6.390625 
Q 39.453125 6.390625 43.28125 13.890625 
Q 47.125 21.390625 47.125 36.375 
Q 47.125 51.421875 43.28125 58.90625 
Q 39.453125 66.40625 31.78125 66.40625 
z
M 31.78125 74.21875 
Q 44.046875 74.21875 50.515625 64.515625 
Q 56.984375 54.828125 56.984375 36.375 
Q 56.984375 17.96875 50.515625 8.265625 
Q 44.046875 -1.421875 31.78125 -1.421875 
Q 19.53125 -1.421875 13.0625 8.265625 
Q 6.59375 17.96875 6.59375 36.375 
Q 6.59375 54.828125 13.0625 64.515625 
Q 19.53125 74.21875 31.78125 74.21875 
z
" id="DejaVuSans-30"/>
       <path d="M 10.796875 72.90625 
L 49.515625 72.90625 
L 49.515625 64.59375 
L 19.828125 64.59375 
L 19.828125 46.734375 
Q 21.96875 47.46875 24.109375 47.828125 
Q 26.265625 48.1875 28.421875 48.1875 
Q 40.625 48.1875 47.75 41.5 
Q 54.890625 34.8125 54.890625 23.390625 
Q 54.890625 11.625 47.5625 5.09375 
Q 40.234375 -1.421875 26.90625 -1.421875 
Q 22.3125 -1.421875 17.546875 -0.640625 
Q 12.796875 0.140625 7.71875 1.703125 
L 7.71875 11.625 
Q 12.109375 9.234375 16.796875 8.0625 
Q 21.484375 6.890625 26.703125 6.890625 
Q 35.15625 6.890625 40.078125 11.328125 
Q 45.015625 15.765625 45.015625 23.390625 
Q 45.015625 31 40.078125 35.4375 
Q 35.15625 39.890625 26.703125 39.890625 
Q 22.75 39.890625 18.8125 39.015625 
Q 14.890625 38.140625 10.796875 36.28125 
z
" id="DejaVuSans-35"/>
       <path d="M 4.890625 31.390625 
L 31.203125 31.390625 
L 31.203125 23.390625 
L 4.890625 23.390625 
z
" id="DejaVuSans-2d"/>
       <path d="M 19.1875 8.296875 
L 53.609375 8.296875 
L 53.609375 0 
L 7.328125 0 
L 7.328125 8.296875 
Q 12.9375 14.109375 22.625 23.890625 
Q 32.328125 33.6875 34.8125 36.53125 
Q 39.546875 41.84375 41.421875 45.53125 
Q 43.3125 49.21875 43.3125 52.78125 
Q 43.3125 58.59375 39.234375 62.25 
Q 35.15625 65.921875 28.609375 65.921875 
Q 23.96875 65.921875 18.8125 64.3125 
Q 13.671875 62.703125 7.8125 59.421875 
L 7.8125 69.390625 
Q 13.765625 71.78125 18.9375 73 
Q 24.125 74.21875 28.421875 74.21875 
Q 39.75 74.21875 46.484375 68.546875 
Q 53.21875 62.890625 53.21875 53.421875 
Q 53.21875 48.921875 51.53125 44.890625 
Q 49.859375 40.875 45.40625 35.40625 
Q 44.1875 33.984375 37.640625 27.21875 
Q 31.109375 20.453125 19.1875 8.296875 
z
" id="DejaVuSans-32"/>
       <path id="DejaVuSans-20"/>
       <path d="M 31.78125 34.625 
Q 24.75 34.625 20.71875 30.859375 
Q 16.703125 27.09375 16.703125 20.515625 
Q 16.703125 13.921875 20.71875 10.15625 
Q 24.75 6.390625 31.78125 6.390625 
Q 38.8125 6.390625 42.859375 10.171875 
Q 46.921875 13.96875 46.921875 20.515625 
Q 46.921875 27.09375 42.890625 30.859375 
Q 38.875 34.625 31.78125 34.625 
z
M 21.921875 38.8125 
Q 15.578125 40.375 12.03125 44.71875 
Q 8.5 49.078125 8.5 55.328125 
Q 8.5 64.0625 14.71875 69.140625 
Q 20.953125 74.21875 31.78125 74.21875 
Q 42.671875 74.21875 48.875 69.140625 
Q 55.078125 64.0625 55.078125 55.328125 
Q 55.078125 49.078125 51.53125 44.71875 
Q 48 40.375 41.703125 38.8125 
Q 48.828125 37.15625 52.796875 32.3125 
Q 56.78125 27.484375 56.78125 20.515625 
Q 56.78125 9.90625 50.3125 4.234375 
Q 43.84375 -1.421875 31.78125 -1.421875 
Q 19.734375 -1.421875 13.25 4.234375 
Q 6.78125 9.90625 6.78125 20.515625 
Q 6.78125 27.484375 10.78125 32.3125 
Q 14.796875 37.15625 21.921875 38.8125 
z
M 18.3125 54.390625 
Q 18.3125 48.734375 21.84375 45.5625 
Q 25.390625 42.390625 31.78125 42.390625 
Q 38.140625 42.390625 41.71875 45.5625 
Q 45.3125 48.734375 45.3125 54.390625 
Q 45.3125 60.0625 41.71875 63.234375 
Q 38.140625 66.40625 31.78125 66.40625 
Q 25.390625 66.40625 21.84375 63.234375 
Q 18.3125 60.0625 18.3125 54.390625 
z
" id="DejaVuSans-38"/>
      </defs>
      <g transform="translate(10.999219 340.520909)rotate(-30)scale(0.1 -0.1)">
       <use xlink:href="#DejaVuSans-30"/>
       <use x="63.623047" xlink:href="#DejaVuSans-35"/>
       <use x="127.246094" xlink:href="#DejaVuSans-2d"/>
       <use x="163.330078" xlink:href="#DejaVuSans-32"/>
       <use x="226.953125" xlink:href="#DejaVuSans-35"/>
       <use x="290.576172" xlink:href="#DejaVuSans-20"/>
       <use x="322.363281" xlink:href="#DejaVuSans-30"/>
       <use x="385.986328" xlink:href="#DejaVuSans-38"/>
      </g>
     </g>
    </g>
    <g id="xtick_2">
     <g id="line2d_3">
      <path clip-path="url(#pea8ab88db8)" d="M 134.676376 304.46 
L 134.676376 10.7 
" style="fill:none;stroke:#b0b0b0;stroke-linecap:square;stroke-width:0.8;"/>
     </g>
     <g id="line2d_4">
      <g>
       <use style="stroke:#000000;stroke-width:0.8;" x="134.676376" xlink:href="#me00bdb37f7" y="304.46"/>
      </g>
     </g>
     <g id="text_2">
      <!-- 05-25 10 -->
      <defs>
       <path d="M 12.40625 8.296875 
L 28.515625 8.296875 
L 28.515625 63.921875 
L 10.984375 60.40625 
L 10.984375 69.390625 
L 28.421875 72.90625 
L 38.28125 72.90625 
L 38.28125 8.296875 
L 54.390625 8.296875 
L 54.390625 0 
L 12.40625 0 
z
" id="DejaVuSans-31"/>
      </defs>
      <g transform="translate(94.699219 340.520909)rotate(-30)scale(0.1 -0.1)">
       <use xlink:href="#DejaVuSans-30"/>
       <use x="63.623047" xlink:href="#DejaVuSans-35"/>
       <use x="127.246094" xlink:href="#DejaVuSans-2d"/>
       <use x="163.330078" xlink:href="#DejaVuSans-32"/>
       <use x="226.953125" xlink:href="#DejaVuSans-35"/>
       <use x="290.576172" xlink:href="#DejaVuSans-20"/>
       <use x="322.363281" xlink:href="#DejaVuSans-31"/>
       <use x="385.986328" xlink:href="#DejaVuSans-30"/>
      </g>
     </g>
    </g>
    <g id="xtick_3">
     <g id="line2d_5">
      <path clip-path="url(#pea8ab88db8)" d="M 218.376377 304.46 
L 218.376377 10.7 
" style="fill:none;stroke:#b0b0b0;stroke-linecap:square;stroke-width:0.8;"/>
     </g>
     <g id="line2d_6">
      <g>
       <use style="stroke:#000000;stroke-width:0.8;" x="218.376377" xlink:href="#me00bdb37f7" y="304.46"/>
      </g>
     </g>
     <g id="text_3">
      <!-- 05-25 12 -->
      <g transform="translate(178.399219 340.520909)rotate(-30)scale(0.1 -0.1)">
       <use xlink:href="#DejaVuSans-30"/>
       <use x="63.623047" xlink:href="#DejaVuSans-35"/>
       <use x="127.246094" xlink:href="#DejaVuSans-2d"/>
       <use x="163.330078" xlink:href="#DejaVuSans-32"/>
       <use x="226.953125" xlink:href="#DejaVuSans-35"/>
       <use x="290.576172" xlink:href="#DejaVuSans-20"/>
       <use x="322.363281" xlink:href="#DejaVuSans-31"/>
       <use x="385.986328" xlink:href="#DejaVuSans-32"/>
      </g>
     </g>
    </g>
    <g id="xtick_4">
     <g id="line2d_7">
      <path clip-path="url(#pea8ab88db8)" d="M 302.076377 304.46 
L 302.076377 10.7 
" style="fill:none;stroke:#b0b0b0;stroke-linecap:square;stroke-width:0.8;"/>
     </g>
     <g id="line2d_8">
      <g>
       <use style="stroke:#000000;stroke-width:0.8;" x="302.076377" xlink:href="#me00bdb37f7" y="304.46"/>
      </g>
     </g>
     <g id="text_4">
      <!-- 05-25 14 -->
      <defs>
       <path d="M 37.796875 64.3125 
L 12.890625 25.390625 
L 37.796875 25.390625 
z
M 35.203125 72.90625 
L 47.609375 72.90625 
L 47.609375 25.390625 
L 58.015625 25.390625 
L 58.015625 17.1875 
L 47.609375 17.1875 
L 47.609375 0 
L 37.796875 0 
L 37.796875 17.1875 
L 4.890625 17.1875 
L 4.890625 26.703125 
z
" id="DejaVuSans-34"/>
      </defs>
      <g transform="translate(262.099219 340.520909)rotate(-30)scale(0.1 -0.1)">
       <use xlink:href="#DejaVuSans-30"/>
       <use x="63.623047" xlink:href="#DejaVuSans-35"/>
       <use x="127.246094" xlink:href="#DejaVuSans-2d"/>
       <use x="163.330078" xlink:href="#DejaVuSans-32"/>
       <use x="226.953125" xlink:href="#DejaVuSans-35"/>
       <use x="290.576172" xlink:href="#DejaVuSans-20"/>
       <use x="322.363281" xlink:href="#DejaVuSans-31"/>
       <use x="385.986328" xlink:href="#DejaVuSans-34"/>
      </g>
     </g>
    </g>
    <g id="xtick_5">
     <g id="line2d_9">
      <path clip-path="url(#pea8ab88db8)" d="M 385.776376 304.46 
L 385.776376 10.7 
" style="fill:none;stroke:#b0b0b0;stroke-linecap:square;stroke-width:0.8;"/>
     </g>
     <g id="line2d_10">
      <g>
       <use style="stroke:#000000;stroke-width:0.8;" x="385.776376" xlink:href="#me00bdb37f7" y="304.46"/>
      </g>
     </g>
     <g id="text_5">
      <!-- 05-25 16 -->
      <defs>
       <path d="M 33.015625 40.375 
Q 26.375 40.375 22.484375 35.828125 
Q 18.609375 31.296875 18.609375 23.390625 
Q 18.609375 15.53125 22.484375 10.953125 
Q 26.375 6.390625 33.015625 6.390625 
Q 39.65625 6.390625 43.53125 10.953125 
Q 47.40625 15.53125 47.40625 23.390625 
Q 47.40625 31.296875 43.53125 35.828125 
Q 39.65625 40.375 33.015625 40.375 
z
M 52.59375 71.296875 
L 52.59375 62.3125 
Q 48.875 64.0625 45.09375 64.984375 
Q 41.3125 65.921875 37.59375 65.921875 
Q 27.828125 65.921875 22.671875 59.328125 
Q 17.53125 52.734375 16.796875 39.40625 
Q 19.671875 43.65625 24.015625 45.921875 
Q 28.375 48.1875 33.59375 48.1875 
Q 44.578125 48.1875 50.953125 41.515625 
Q 57.328125 34.859375 57.328125 23.390625 
Q 57.328125 12.15625 50.6875 5.359375 
Q 44.046875 -1.421875 33.015625 -1.421875 
Q 20.359375 -1.421875 13.671875 8.265625 
Q 6.984375 17.96875 6.984375 36.375 
Q 6.984375 53.65625 15.1875 63.9375 
Q 23.390625 74.21875 37.203125 74.21875 
Q 40.921875 74.21875 44.703125 73.484375 
Q 48.484375 72.75 52.59375 71.296875 
z
" id="DejaVuSans-36"/>
      </defs>
      <g transform="translate(345.799219 340.520909)rotate(-30)scale(0.1 -0.1)">
       <use xlink:href="#DejaVuSans-30"/>
       <use x="63.623047" xlink:href="#DejaVuSans-35"/>
       <use x="127.246094" xlink:href="#DejaVuSans-2d"/>
       <use x="163.330078" xlink:href="#DejaVuSans-32"/>
       <use x="226.953125" xlink:href="#DejaVuSans-35"/>
       <use x="290.576172" xlink:href="#DejaVuSans-20"/>
       <use x="322.363281" xlink:href="#DejaVuSans-31"/>
       <use x="385.986328" xlink:href="#DejaVuSans-36"/>
      </g>
     </g>
    </g>
    <g id="xtick_6">
     <g id="line2d_11">
      <path clip-path="url(#pea8ab88db8)" d="M 469.476377 304.46 
L 469.476377 10.7 
" style="fill:none;stroke:#b0b0b0;stroke-linecap:square;stroke-width:0.8;"/>
     </g>
     <g id="line2d_12">
      <g>
       <use style="stroke:#000000;stroke-width:0.8;" x="469.476377" xlink:href="#me00bdb37f7" y="304.46"/>
      </g>
     </g>
     <g id="text_6">
      <!-- 05-25 18 -->
      <g transform="translate(429.499219 340.520909)rotate(-30)scale(0.1 -0.1)">
       <use xlink:href="#DejaVuSans-30"/>
       <use x="63.623047" xlink:href="#DejaVuSans-35"/>
       <use x="127.246094" xlink:href="#DejaVuSans-2d"/>
       <use x="163.330078" xlink:href="#DejaVuSans-32"/>
       <use x="226.953125" xlink:href="#DejaVuSans-35"/>
       <use x="290.576172" xlink:href="#DejaVuSans-20"/>
       <use x="322.363281" xlink:href="#DejaVuSans-31"/>
       <use x="385.986328" xlink:href="#DejaVuSans-38"/>
      </g>
     </g>
    </g>
    <g id="xtick_7">
     <g id="line2d_13">
      <path clip-path="url(#pea8ab88db8)" d="M 553.176377 304.46 
L 553.176377 10.7 
" style="fill:none;stroke:#b0b0b0;stroke-linecap:square;stroke-width:0.8;"/>
     </g>
     <g id="line2d_14">
      <g>
       <use style="stroke:#000000;stroke-width:0.8;" x="553.176377" xlink:href="#me00bdb37f7" y="304.46"/>
      </g>
     </g>
     <g id="text_7">
      <!-- 05-25 20 -->
      <g transform="translate(513.199219 340.520909)rotate(-30)scale(0.1 -0.1)">
       <use xlink:href="#DejaVuSans-30"/>
       <use x="63.623047" xlink:href="#DejaVuSans-35"/>
       <use x="127.246094" xlink:href="#DejaVuSans-2d"/>
       <use x="163.330078" xlink:href="#DejaVuSans-32"/>
       <use x="226.953125" xlink:href="#DejaVuSans-35"/>
       <use x="290.576172" xlink:href="#DejaVuSans-20"/>
       <use x="322.363281" xlink:href="#DejaVuSans-32"/>
       <use x="385.986328" xlink:href="#DejaVuSans-30"/>
      </g>
     </g>
    </g>
    <g id="text_8">
     <!-- Time -->
     <defs>
      <path d="M -0.296875 72.90625 
L 61.375 72.90625 
L 61.375 64.59375 
L 35.5 64.59375 
L 35.5 0 
L 25.59375 0 
L 25.59375 64.59375 
L -0.296875 64.59375 
z
" id="DejaVuSans-54"/>
      <path d="M 9.421875 54.6875 
L 18.40625 54.6875 
L 18.40625 0 
L 9.421875 0 
z
M 9.421875 75.984375 
L 18.40625 75.984375 
L 18.40625 64.59375 
L 9.421875 64.59375 
z
" id="DejaVuSans-69"/>
      <path d="M 52 44.1875 
Q 55.375 50.25 60.0625 53.125 
Q 64.75 56 71.09375 56 
Q 79.640625 56 84.28125 50.015625 
Q 88.921875 44.046875 88.921875 33.015625 
L 88.921875 0 
L 79.890625 0 
L 79.890625 32.71875 
Q 79.890625 40.578125 77.09375 44.375 
Q 74.3125 48.1875 68.609375 48.1875 
Q 61.625 48.1875 57.5625 43.546875 
Q 53.515625 38.921875 53.515625 30.90625 
L 53.515625 0 
L 44.484375 0 
L 44.484375 32.71875 
Q 44.484375 40.625 41.703125 44.40625 
Q 38.921875 48.1875 33.109375 48.1875 
Q 26.21875 48.1875 22.15625 43.53125 
Q 18.109375 38.875 18.109375 30.90625 
L 18.109375 0 
L 9.078125 0 
L 9.078125 54.6875 
L 18.109375 54.6875 
L 18.109375 46.1875 
Q 21.1875 51.21875 25.484375 53.609375 
Q 29.78125 56 35.6875 56 
Q 41.65625 56 45.828125 52.96875 
Q 50 49.953125 52 44.1875 
z
" id="DejaVuSans-6d"/>
      <path d="M 56.203125 29.59375 
L 56.203125 25.203125 
L 14.890625 25.203125 
Q 15.484375 15.921875 20.484375 11.0625 
Q 25.484375 6.203125 34.421875 6.203125 
Q 39.59375 6.203125 44.453125 7.46875 
Q 49.3125 8.734375 54.109375 11.28125 
L 54.109375 2.78125 
Q 49.265625 0.734375 44.1875 -0.34375 
Q 39.109375 -1.421875 33.890625 -1.421875 
Q 20.796875 -1.421875 13.15625 6.1875 
Q 5.515625 13.8125 5.515625 26.8125 
Q 5.515625 40.234375 12.765625 48.109375 
Q 20.015625 56 32.328125 56 
Q 43.359375 56 49.78125 48.890625 
Q 56.203125 41.796875 56.203125 29.59375 
z
M 47.21875 32.234375 
Q 47.125 39.59375 43.09375 43.984375 
Q 39.0625 48.390625 32.421875 48.390625 
Q 24.90625 48.390625 20.390625 44.140625 
Q 15.875 39.890625 15.1875 32.171875 
z
" id="DejaVuSans-65"/>
     </defs>
     <g transform="translate(289.688877 353.920408)scale(0.1 -0.1)">
      <use xlink:href="#DejaVuSans-54"/>
      <use x="61.037109" xlink:href="#DejaVuSans-69"/>
      <use x="88.820312" xlink:href="#DejaVuSans-6d"/>
      <use x="186.232422" xlink:href="#DejaVuSans-65"/>
     </g>
    </g>
   </g>
   <g id="matplotlib.axis_2">
    <g id="ytick_1">
     <g id="line2d_15">
      <path clip-path="url(#pea8ab88db8)" d="M 50.976377 290.183121 
L 553.176377 290.183121 
" style="fill:none;stroke:#b0b0b0;stroke-linecap:square;stroke-width:0.8;"/>
     </g>
     <g id="line2d_16">
      <defs>
       <path d="M 0 0 
L -3.5 0 
" id="mb0c967dfdd" style="stroke:#000000;stroke-width:0.8;"/>
      </defs>
      <g>
       <use style="stroke:#000000;stroke-width:0.8;" x="50.976377" xlink:href="#mb0c967dfdd" y="290.183121"/>
      </g>
     </g>
     <g id="text_9">
      <!-- 0 -->
      <g transform="translate(37.613877 293.98234)scale(0.1 -0.1)">
       <use xlink:href="#DejaVuSans-30"/>
      </g>
     </g>
    </g>
    <g id="ytick_2">
     <g id="line2d_17">
      <path clip-path="url(#pea8ab88db8)" d="M 50.976377 255.31409 
L 553.176377 255.31409 
" style="fill:none;stroke:#b0b0b0;stroke-linecap:square;stroke-width:0.8;"/>
     </g>
     <g id="line2d_18">
      <g>
       <use style="stroke:#000000;stroke-width:0.8;" x="50.976377" xlink:href="#mb0c967dfdd" y="255.31409"/>
      </g>
     </g>
     <g id="text_10">
      <!-- 1 -->
      <g transform="translate(37.613877 259.113309)scale(0.1 -0.1)">
       <use xlink:href="#DejaVuSans-31"/>
      </g>
     </g>
    </g>
    <g id="ytick_3">
     <g id="line2d_19">
      <path clip-path="url(#pea8ab88db8)" d="M 50.976377 220.44506 
L 553.176377 220.44506 
" style="fill:none;stroke:#b0b0b0;stroke-linecap:square;stroke-width:0.8;"/>
     </g>
     <g id="line2d_20">
      <g>
       <use style="stroke:#000000;stroke-width:0.8;" x="50.976377" xlink:href="#mb0c967dfdd" y="220.44506"/>
      </g>
     </g>
     <g id="text_11">
      <!-- 2 -->
      <g transform="translate(37.613877 224.244278)scale(0.1 -0.1)">
       <use xlink:href="#DejaVuSans-32"/>
      </g>
     </g>
    </g>
    <g id="ytick_4">
     <g id="line2d_21">
      <path clip-path="url(#pea8ab88db8)" d="M 50.976377 185.576029 
L 553.176377 185.576029 
" style="fill:none;stroke:#b0b0b0;stroke-linecap:square;stroke-width:0.8;"/>
     </g>
     <g id="line2d_22">
      <g>
       <use style="stroke:#000000;stroke-width:0.8;" x="50.976377" xlink:href="#mb0c967dfdd" y="185.576029"/>
      </g>
     </g>
     <g id="text_12">
      <!-- 3 -->
      <defs>
       <path d="M 40.578125 39.3125 
Q 47.65625 37.796875 51.625 33 
Q 55.609375 28.21875 55.609375 21.1875 
Q 55.609375 10.40625 48.1875 4.484375 
Q 40.765625 -1.421875 27.09375 -1.421875 
Q 22.515625 -1.421875 17.65625 -0.515625 
Q 12.796875 0.390625 7.625 2.203125 
L 7.625 11.71875 
Q 11.71875 9.328125 16.59375 8.109375 
Q 21.484375 6.890625 26.8125 6.890625 
Q 36.078125 6.890625 40.9375 10.546875 
Q 45.796875 14.203125 45.796875 21.1875 
Q 45.796875 27.640625 41.28125 31.265625 
Q 36.765625 34.90625 28.71875 34.90625 
L 20.21875 34.90625 
L 20.21875 43.015625 
L 29.109375 43.015625 
Q 36.375 43.015625 40.234375 45.921875 
Q 44.09375 48.828125 44.09375 54.296875 
Q 44.09375 59.90625 40.109375 62.90625 
Q 36.140625 65.921875 28.71875 65.921875 
Q 24.65625 65.921875 20.015625 65.03125 
Q 15.375 64.15625 9.8125 62.3125 
L 9.8125 71.09375 
Q 15.4375 72.65625 20.34375 73.4375 
Q 25.25 74.21875 29.59375 74.21875 
Q 40.828125 74.21875 47.359375 69.109375 
Q 53.90625 64.015625 53.90625 55.328125 
Q 53.90625 49.265625 50.4375 45.09375 
Q 46.96875 40.921875 40.578125 39.3125 
z
" id="DejaVuSans-33"/>
      </defs>
      <g transform="translate(37.613877 189.375247)scale(0.1 -0.1)">
       <use xlink:href="#DejaVuSans-33"/>
      </g>
     </g>
    </g>
    <g id="ytick_5">
     <g id="line2d_23">
      <path clip-path="url(#pea8ab88db8)" d="M 50.976377 150.706998 
L 553.176377 150.706998 
" style="fill:none;stroke:#b0b0b0;stroke-linecap:square;stroke-width:0.8;"/>
     </g>
     <g id="line2d_24">
      <g>
       <use style="stroke:#000000;stroke-width:0.8;" x="50.976377" xlink:href="#mb0c967dfdd" y="150.706998"/>
      </g>
     </g>
     <g id="text_13">
      <!-- 4 -->
      <g transform="translate(37.613877 154.506217)scale(0.1 -0.1)">
       <use xlink:href="#DejaVuSans-34"/>
      </g>
     </g>
    </g>
    <g id="ytick_6">
     <g id="line2d_25">
      <path clip-path="url(#pea8ab88db8)" d="M 50.976377 115.837967 
L 553.176377 115.837967 
" style="fill:none;stroke:#b0b0b0;stroke-linecap:square;stroke-width:0.8;"/>
     </g>
     <g id="line2d_26">
      <g>
       <use style="stroke:#000000;stroke-width:0.8;" x="50.976377" xlink:href="#mb0c967dfdd" y="115.837967"/>
      </g>
     </g>
     <g id="text_14">
      <!-- 5 -->
      <g transform="translate(37.613877 119.637186)scale(0.1 -0.1)">
       <use xlink:href="#DejaVuSans-35"/>
      </g>
     </g>
    </g>
    <g id="ytick_7">
     <g id="line2d_27">
      <path clip-path="url(#pea8ab88db8)" d="M 50.976377 80.968936 
L 553.176377 80.968936 
" style="fill:none;stroke:#b0b0b0;stroke-linecap:square;stroke-width:0.8;"/>
     </g>
     <g id="line2d_28">
      <g>
       <use style="stroke:#000000;stroke-width:0.8;" x="50.976377" xlink:href="#mb0c967dfdd" y="80.968936"/>
      </g>
     </g>
     <g id="text_15">
      <!-- 6 -->
      <g transform="translate(37.613877 84.768155)scale(0.1 -0.1)">
       <use xlink:href="#DejaVuSans-36"/>
      </g>
     </g>
    </g>
    <g id="ytick_8">
     <g id="line2d_29">
      <path clip-path="url(#pea8ab88db8)" d="M 50.976377 46.099905 
L 553.176377 46.099905 
" style="fill:none;stroke:#b0b0b0;stroke-linecap:square;stroke-width:0.8;"/>
     </g>
     <g id="line2d_30">
      <g>
       <use style="stroke:#000000;stroke-width:0.8;" x="50.976377" xlink:href="#mb0c967dfdd" y="46.099905"/>
      </g>
     </g>
     <g id="text_16">
      <!-- 7 -->
      <defs>
       <path d="M 8.203125 72.90625 
L 55.078125 72.90625 
L 55.078125 68.703125 
L 28.609375 0 
L 18.3125 0 
L 43.21875 64.59375 
L 8.203125 64.59375 
z
" id="DejaVuSans-37"/>
      </defs>
      <g transform="translate(37.613877 49.899124)scale(0.1 -0.1)">
       <use xlink:href="#DejaVuSans-37"/>
      </g>
     </g>
    </g>
    <g id="ytick_9">
     <g id="line2d_31">
      <path clip-path="url(#pea8ab88db8)" d="M 50.976377 11.230875 
L 553.176377 11.230875 
" style="fill:none;stroke:#b0b0b0;stroke-linecap:square;stroke-width:0.8;"/>
     </g>
     <g id="line2d_32">
      <g>
       <use style="stroke:#000000;stroke-width:0.8;" x="50.976377" xlink:href="#mb0c967dfdd" y="11.230875"/>
      </g>
     </g>
     <g id="text_17">
      <!-- 8 -->
      <g transform="translate(37.613877 15.030093)scale(0.1 -0.1)">
       <use xlink:href="#DejaVuSans-38"/>
      </g>
     </g>
    </g>
   </g>
   <g id="line2d_33">
    <path clip-path="url(#pea8ab88db8)" d="M 141.576016 290.183121 
L 142.166085 290.012641 
L 142.756155 290.081754 
L 143.346225 289.809831 
L 143.936294 290.369308 
L 144.526364 289.993324 
L 145.116433 290.05314 
L 145.706503 289.730719 
L 146.296573 289.941474 
L 146.886642 289.954682 
L 147.476712 290.540923 
L 148.066781 290.19017 
L 148.656851 290.524316 
L 149.246921 289.39832 
L 149.83699 289.956512 
L 150.42706 289.433364 
L 151.017129 290.103681 
L 151.607199 288.838858 
L 152.197269 289.940265 
L 152.787338 289.619492 
L 153.377408 289.805889 
L 154.557547 289.509258 
L 155.147617 290.41608 
L 155.737686 289.655941 
L 156.917826 289.969636 
L 157.507895 289.735196 
L 158.097965 289.183713 
L 159.278104 291.107273 
L 159.868173 289.413017 
L 161.048313 289.823591 
L 163.408591 288.515396 
L 163.998661 288.893765 
L 164.58873 288.632207 
L 165.1788 287.667311 
L 165.76887 288.137394 
L 166.949009 286.791495 
L 167.539078 286.646809 
L 168.129148 285.909687 
L 168.719218 285.621068 
L 169.309287 285.805231 
L 169.899357 285.572884 
L 170.489426 284.943038 
L 171.079496 284.95797 
L 171.669566 282.95461 
L 172.259635 283.599861 
L 172.849705 283.529061 
L 173.439775 283.107707 
L 174.029844 282.036564 
L 174.619914 281.50792 
L 175.209983 281.716885 
L 175.800053 279.804407 
L 176.390123 280.390499 
L 177.570262 280.472415 
L 178.160331 279.144915 
L 178.750401 278.958397 
L 179.340471 278.617049 
L 179.93054 278.641291 
L 180.52061 278.196429 
L 181.110679 277.258938 
L 181.700749 277.700776 
L 182.290819 277.387373 
L 182.880888 276.406486 
L 183.470958 276.317706 
L 184.061027 275.622782 
L 184.651097 275.472664 
L 185.241167 275.121744 
L 185.831236 274.026004 
L 186.421306 273.518325 
L 187.601445 273.991688 
L 188.781584 272.819879 
L 189.371654 272.130138 
L 189.961723 271.261963 
L 190.551793 272.092164 
L 191.141863 270.415204 
L 191.731932 270.696344 
L 192.912072 269.384252 
L 193.502141 269.708602 
L 194.092211 268.935492 
L 194.68228 268.4367 
L 195.27235 268.159442 
L 195.86242 267.286265 
L 196.452489 267.396766 
L 197.042559 266.521495 
L 197.632628 267.092805 
L 198.222698 266.668272 
L 198.812768 265.609454 
L 199.402837 265.026514 
L 199.992907 265.089482 
L 200.582976 264.614648 
L 201.173046 264.797381 
L 201.763116 264.024457 
L 202.353185 263.81595 
L 202.943255 263.19477 
L 203.533324 262.736612 
L 204.123394 261.913657 
L 204.713464 261.371745 
L 205.303533 261.681962 
L 205.893603 261.662299 
L 206.483672 260.744801 
L 207.073742 260.268979 
L 207.663812 260.423752 
L 208.253881 259.939649 
L 208.843951 258.901567 
L 209.434021 258.268068 
L 210.61416 258.149928 
L 211.204229 257.448578 
L 211.794299 257.08596 
L 212.384369 257.070373 
L 212.974438 256.513287 
L 213.564508 256.450708 
L 214.154577 256.610454 
L 214.744647 255.164821 
L 215.334717 255.624166 
L 215.924786 255.619632 
L 217.104925 253.56162 
L 217.694995 254.341631 
L 218.285065 253.14718 
L 218.875134 252.897861 
L 219.465204 253.542337 
L 220.055274 252.526085 
L 220.645343 252.085303 
L 221.235413 252.293274 
L 221.825482 251.763464 
L 222.415552 251.857518 
L 223.005621 251.116121 
L 223.595691 251.063975 
L 224.185761 250.44247 
L 224.77583 249.625754 
L 225.3659 249.143272 
L 225.95597 249.23405 
L 226.546039 248.018326 
L 227.136109 248.297597 
L 227.726178 248.224081 
L 228.316248 247.064243 
L 228.906318 247.865012 
L 230.086457 246.919195 
L 230.676526 246.78235 
L 231.856666 245.504089 
L 232.446735 245.204872 
L 233.036805 244.589782 
L 233.626874 244.880895 
L 234.807014 243.277836 
L 235.397083 242.757699 
L 235.987153 243.438283 
L 236.577222 243.701418 
L 237.757362 242.507637 
L 238.347431 241.534377 
L 238.937501 241.598446 
L 239.52757 241.29237 
L 240.11764 240.112848 
L 240.70771 240.21613 
L 241.297779 240.600687 
L 241.887849 240.050814 
L 242.477919 239.739367 
L 243.067988 239.233212 
L 243.658058 238.36932 
L 244.248127 238.273096 
L 244.838197 237.195073 
L 245.428267 237.323162 
L 246.018336 237.986089 
L 246.608406 236.86635 
L 247.198475 236.356928 
L 247.788545 236.182796 
L 248.378615 236.597694 
L 248.968684 235.187576 
L 249.558754 235.137987 
L 250.148823 234.826036 
L 250.738893 234.220893 
L 251.328963 234.445773 
L 251.919032 232.672372 
L 252.509102 232.903286 
L 253.689241 232.374765 
L 254.279311 232.673286 
L 255.45945 231.043149 
L 256.049519 231.586551 
L 256.639589 231.346303 
L 257.229659 230.649651 
L 257.819728 229.5609 
L 258.409798 230.339387 
L 258.999868 228.954371 
L 259.589937 228.818507 
L 260.180007 228.397344 
L 260.770076 229.280112 
L 261.360146 228.358396 
L 261.950216 228.415533 
L 262.540285 227.749353 
L 263.130355 228.149027 
L 264.310494 227.025411 
L 264.900564 226.120757 
L 265.490633 227.063818 
L 266.080703 226.801842 
L 266.670772 225.426252 
L 267.260842 225.536401 
L 267.850912 224.59985 
L 268.440981 224.635404 
L 269.031051 223.970394 
L 269.62112 223.748457 
L 270.21119 223.663341 
L 270.80126 223.055264 
L 271.391329 223.220472 
L 272.571468 221.631053 
L 273.161538 220.747424 
L 273.751608 221.467 
L 274.341677 220.329456 
L 274.931747 221.404816 
L 275.521816 220.269182 
L 276.111886 220.704468 
L 276.701956 219.642248 
L 277.292025 219.501637 
L 277.882095 218.791105 
L 279.062234 220.034651 
L 279.652304 218.023207 
L 280.242373 218.048024 
L 280.832443 217.722434 
L 281.422513 216.8785 
L 282.012582 217.018242 
L 282.602652 216.339391 
L 283.192721 215.903066 
L 283.782791 215.932603 
L 284.372861 215.516149 
L 284.96293 214.940572 
L 286.14307 214.290041 
L 286.733139 213.875794 
L 287.913278 213.331943 
L 288.503348 213.46904 
L 289.683487 212.838844 
L 290.273557 211.711192 
L 290.863626 211.316422 
L 291.453696 211.483278 
L 292.043766 210.752059 
L 292.633835 210.970811 
L 294.404044 209.562923 
L 295.584183 209.195121 
L 296.174253 208.4349 
L 296.764322 208.544464 
L 297.354392 207.714027 
L 297.944462 207.923113 
L 298.534531 207.538355 
L 299.124601 206.57292 
L 299.71467 206.51259 
L 300.30474 206.874539 
L 300.89481 206.176509 
L 301.484879 205.688151 
L 302.074949 205.700832 
L 302.665018 204.474231 
L 303.255088 203.784568 
L 303.845158 204.716557 
L 304.435227 203.434662 
L 305.025297 203.491785 
L 305.615366 202.495364 
L 306.795506 202.813329 
L 307.385575 202.318535 
L 307.975645 201.201217 
L 308.565714 201.635716 
L 309.155784 200.880847 
L 309.745854 201.10889 
L 310.335923 201.1624 
L 310.925993 199.816583 
L 311.516062 199.764631 
L 312.106132 199.168433 
L 312.696202 198.767229 
L 313.286271 198.878558 
L 313.876341 198.245467 
L 315.05648 197.576192 
L 315.64655 197.38811 
L 316.236619 196.574358 
L 316.826689 196.250198 
L 317.416759 195.275464 
L 318.006828 196.141037 
L 318.596898 195.288746 
L 319.186967 195.488839 
L 319.777037 194.472093 
L 320.367107 193.214186 
L 320.957176 193.596275 
L 321.547246 194.331182 
L 322.137316 193.240277 
L 323.317455 192.80026 
L 323.907524 191.974612 
L 324.497594 192.424545 
L 325.087664 191.923213 
L 325.677733 190.218699 
L 326.267803 191.029475 
L 326.857872 191.043048 
L 327.447942 191.247912 
L 328.038012 189.912029 
L 328.628081 189.718026 
L 329.218151 189.264139 
L 329.80822 189.345582 
L 330.39829 189.066234 
L 330.98836 188.49902 
L 331.578429 188.563126 
L 332.168499 188.027993 
L 332.758568 186.789164 
L 333.348638 186.977476 
L 333.938708 186.249469 
L 334.528777 186.115781 
L 335.118847 185.266452 
L 335.708916 185.516947 
L 336.889056 184.065007 
L 337.479125 184.221155 
L 338.069195 184.569294 
L 339.249334 183.197825 
L 339.839404 183.495975 
L 340.429473 182.380826 
L 341.019543 182.503878 
L 341.609613 181.053501 
L 342.199682 182.099481 
L 342.789752 181.185768 
L 343.969891 179.855133 
L 345.15003 180.275487 
L 345.7401 178.805846 
L 346.330169 179.575438 
L 346.920239 179.723782 
L 347.510309 178.780475 
L 348.100378 178.603949 
L 348.690448 179.062809 
L 349.870587 178.632681 
L 350.460657 178.023635 
L 351.050726 178.098932 
L 351.640796 176.720037 
L 352.230865 178.383876 
L 352.820935 177.001032 
L 353.411005 177.191614 
L 354.001074 175.951155 
L 354.591144 176.591938 
L 355.181213 175.514638 
L 355.771283 175.016698 
L 356.361353 175.851429 
L 356.951422 175.315854 
L 357.541492 174.359967 
L 358.721631 174.237166 
L 359.311701 173.731553 
L 359.90177 172.74469 
L 360.49184 172.832876 
L 361.671979 171.736406 
L 362.852118 171.112575 
L 363.442188 170.359378 
L 364.622327 169.218715 
L 365.212397 169.956552 
L 365.802466 169.701988 
L 366.392536 170.76926 
L 366.982606 167.965141 
L 367.572675 168.333232 
L 368.162745 168.121395 
L 368.752814 167.271025 
L 369.342884 167.388019 
L 369.932954 166.728245 
L 370.523023 166.420107 
L 371.113093 167.217063 
L 371.703162 165.790306 
L 372.293232 165.107571 
L 373.473371 164.749755 
L 374.063441 165.340541 
L 374.653511 163.868509 
L 375.24358 163.988784 
L 375.83365 163.470652 
L 376.423719 163.309302 
L 377.013789 162.013471 
L 378.193928 162.167658 
L 378.783998 161.893875 
L 379.374067 161.396404 
L 379.964137 161.448675 
L 380.554207 160.420302 
L 381.144276 160.388565 
L 381.734346 159.579892 
L 382.324415 159.531999 
L 382.914485 158.701273 
L 383.504555 158.546964 
L 384.094624 158.77008 
L 385.274763 157.640367 
L 385.864833 157.932725 
L 386.454903 157.186398 
L 387.635042 156.437866 
L 388.225111 156.697155 
L 388.815181 155.690031 
L 389.99532 154.868341 
L 390.58539 153.625082 
L 391.175459 154.444869 
L 391.765529 153.70017 
L 392.355599 154.146112 
L 392.945668 153.308005 
L 393.535738 153.402071 
L 394.715877 151.993464 
L 395.305947 151.847171 
L 395.896016 151.825842 
L 396.486086 151.659213 
L 397.076156 151.058691 
L 397.666225 150.001222 
L 398.256295 150.518915 
L 398.846364 149.518701 
L 399.436434 149.600904 
L 400.026504 150.311666 
L 401.206643 148.608581 
L 401.796712 148.404322 
L 402.976852 147.473134 
L 403.566921 147.313179 
L 404.156991 146.390194 
L 404.74706 146.524458 
L 405.33713 146.839067 
L 405.9272 145.894603 
L 407.107339 145.439131 
L 407.697408 144.704688 
L 408.287478 144.504828 
L 408.877548 144.806511 
L 409.467617 144.112948 
L 410.057687 144.103112 
L 410.647756 142.949151 
L 411.237826 142.614516 
L 411.827896 143.01188 
L 412.417965 141.692598 
L 413.008035 141.325894 
L 414.188174 140.121858 
L 414.778244 140.202535 
L 415.368313 140.000595 
L 415.958383 138.529037 
L 416.548452 138.526413 
L 417.728592 136.938607 
L 418.318661 136.499747 
L 418.908731 135.81138 
L 420.08887 135.032027 
L 420.67894 134.267836 
L 421.269009 134.130001 
L 421.859079 133.606224 
L 422.449149 133.236934 
L 423.039218 131.77482 
L 423.629288 131.321617 
L 424.219357 131.480637 
L 424.809427 129.98912 
L 425.399497 129.510643 
L 425.989566 129.740825 
L 427.169706 128.184379 
L 427.759775 128.221362 
L 428.349845 127.391935 
L 428.939914 126.969301 
L 429.529984 126.209254 
L 430.120054 125.172439 
L 430.710123 125.078214 
L 431.300193 124.593502 
L 431.890262 123.830179 
L 433.070402 123.624063 
L 433.660471 122.294378 
L 434.250541 121.406693 
L 434.84061 120.726719 
L 435.43068 121.2114 
L 436.02075 120.581308 
L 436.610819 119.519913 
L 437.200889 119.694453 
L 437.790958 119.275903 
L 438.381028 118.554713 
L 438.971098 118.570783 
L 439.561167 116.949758 
L 440.151237 117.078383 
L 440.741306 116.189442 
L 441.331376 115.753343 
L 441.921446 115.508192 
L 442.511515 115.523142 
L 443.691654 114.146665 
L 444.281724 113.877396 
L 444.871794 113.249826 
L 445.461863 112.150978 
L 446.051933 111.873218 
L 446.642003 111.102843 
L 447.232072 110.920281 
L 447.822142 110.049925 
L 448.412211 109.738802 
L 449.002281 109.169783 
L 449.59235 110.132972 
L 450.18242 107.960817 
L 451.362559 107.741357 
L 451.952629 106.648801 
L 452.542699 106.281898 
L 453.132768 105.702484 
L 453.722838 105.591886 
L 454.312907 105.209523 
L 454.902977 103.521375 
L 455.493047 104.383687 
L 456.083116 103.977024 
L 456.673186 103.35562 
L 457.263255 102.988581 
L 457.853325 101.844671 
L 458.443395 101.423277 
L 459.033464 100.55319 
L 459.623534 100.698418 
L 460.213603 100.081941 
L 460.803673 99.714251 
L 461.393743 99.187407 
L 461.983812 98.19883 
L 462.573882 98.204655 
L 463.163952 97.719285 
L 463.754021 97.055382 
L 464.344091 97.131673 
L 464.93416 95.538385 
L 465.52423 95.091913 
L 466.1143 95.350175 
L 466.704369 94.353452 
L 467.294439 94.021405 
L 467.884508 94.014329 
L 468.474578 92.677011 
L 469.064648 92.517049 
L 469.654717 92.902308 
L 470.834857 91.200981 
L 471.424926 91.025714 
L 472.014996 90.029805 
L 472.605065 90.183816 
L 473.195135 89.180218 
L 473.785204 89.121484 
L 474.375274 88.569594 
L 474.965344 88.297793 
L 475.555413 87.876196 
L 476.145483 86.806262 
L 477.325622 85.6605 
L 477.915692 85.720801 
L 478.505761 85.144194 
L 479.095831 85.094843 
L 479.685901 84.236455 
L 480.27597 84.234083 
L 480.86604 83.676792 
L 481.456109 82.897856 
L 482.046179 82.726749 
L 482.636249 82.016439 
L 483.226318 81.791328 
L 483.816388 80.788783 
L 484.406457 80.447993 
L 484.996527 80.522118 
L 485.586597 79.404702 
L 486.176666 79.179193 
L 486.766736 78.244951 
L 487.356805 77.717192 
L 487.946875 78.089722 
L 488.536945 77.480771 
L 489.127014 76.669094 
L 490.897223 75.933472 
L 491.487293 74.246556 
L 492.077362 74.259493 
L 492.667432 73.40954 
L 493.257501 72.892449 
L 493.847571 73.14889 
L 494.437641 72.078128 
L 495.02771 71.714397 
L 495.61778 71.933774 
L 496.20785 70.503114 
L 496.797919 71.668426 
L 497.387989 69.61658 
L 497.978058 68.848418 
L 498.568128 69.002996 
L 499.158198 68.740071 
L 499.748267 69.286357 
L 500.338337 67.571836 
L 500.928406 66.680534 
L 502.108546 66.2679 
L 502.698615 65.447323 
L 503.878754 64.618971 
L 504.468824 63.014831 
L 505.058894 63.379051 
L 505.648963 63.212975 
L 506.239033 62.477266 
L 506.829102 62.143226 
L 507.419172 61.649045 
L 508.009242 60.580787 
L 508.599311 60.118155 
L 509.189381 59.180627 
L 509.779451 58.96234 
L 510.36952 60.223543 
L 510.95959 57.998175 
L 511.549659 58.213973 
L 512.139729 56.055936 
L 512.729798 55.932443 
L 513.319868 56.10419 
L 513.909938 54.940699 
L 514.500007 54.787916 
L 515.680147 53.441312 
L 516.270216 53.860871 
L 516.860286 53.053924 
L 517.450355 54.022071 
L 518.040425 51.653067 
L 519.220564 52.490022 
L 519.810634 50.993254 
L 520.400703 50.838374 
L 520.990773 49.993225 
L 521.580843 50.241611 
L 522.170912 49.107255 
L 522.760982 48.72878 
L 523.351051 47.944605 
L 524.531191 47.219183 
L 525.12126 48.162259 
L 525.71133 46.48015 
L 526.301399 45.775145 
L 527.481539 45.088249 
L 528.071608 44.638478 
L 528.661678 43.552742 
L 529.251747 43.558819 
L 529.841817 42.964209 
L 530.431887 42.841889 
L 531.021956 42.126612 
L 531.612026 41.198877 
L 532.202096 41.399245 
L 532.792165 40.978416 
L 533.382235 40.732211 
L 534.562374 38.583559 
L 535.742513 38.365233 
L 536.332583 37.485876 
L 536.922652 36.861034 
L 537.512722 37.800111 
L 538.102792 36.382176 
L 538.692861 36.986082 
L 539.282931 34.876637 
L 539.873 34.650987 
L 540.46307 34.73067 
L 541.05314 33.412268 
L 541.643209 33.986526 
L 542.233279 32.548739 
L 542.823349 32.33097 
L 543.413418 32.303783 
L 544.003488 30.750222 
L 544.593557 32.822702 
L 545.183627 29.60894 
L 545.773696 29.723821 
L 546.363766 29.402513 
L 548.133975 27.876943 
L 548.724045 28.061176 
L 549.314114 27.017469 
L 549.904184 26.770403 
L 551.084323 25.085169 
L 551.674393 24.759077 
L 552.264462 24.287062 
L 552.854532 24.052727 
L 552.854532 24.052727 
" style="fill:none;stroke:#1f77b4;stroke-linecap:square;stroke-width:1.5;"/>
   </g>
   <g id="patch_3">
    <path d="M 50.976377 304.46 
L 50.976377 10.7 
" style="fill:none;stroke:#000000;stroke-linecap:square;stroke-linejoin:miter;stroke-width:0.8;"/>
   </g>
   <g id="patch_4">
    <path d="M 553.176377 304.46 
L 553.176377 10.7 
" style="fill:none;stroke:#000000;stroke-linecap:square;stroke-linejoin:miter;stroke-width:0.8;"/>
   </g>
   <g id="patch_5">
    <path d="M 50.976377 304.46 
L 553.176377 304.46 
" style="fill:none;stroke:#000000;stroke-linecap:square;stroke-linejoin:miter;stroke-width:0.8;"/>
   </g>
   <g id="patch_6">
    <path d="M 50.976377 10.7 
L 553.176377 10.7 
" style="fill:none;stroke:#000000;stroke-linecap:square;stroke-linejoin:miter;stroke-width:0.8;"/>
   </g>
   <g id="legend_1">
    <g id="patch_7">
     <path d="M 57.976377 33.378125 
L 106.734189 33.378125 
Q 108.734189 33.378125 108.734189 31.378125 
L 108.734189 17.7 
Q 108.734189 15.7 106.734189 15.7 
L 57.976377 15.7 
Q 55.976377 15.7 55.976377 17.7 
L 55.976377 31.378125 
Q 55.976377 33.378125 57.976377 33.378125 
z
" style="fill:#ffffff;opacity:0.8;stroke:#cccccc;stroke-linejoin:miter;"/>
    </g>
    <g id="line2d_34">
     <path d="M 59.976377 23.798437 
L 79.976377 23.798437 
" style="fill:none;stroke:#1f77b4;stroke-linecap:square;stroke-width:1.5;"/>
    </g>
    <g id="line2d_35"/>
    <g id="text_18">
     <!-- TID -->
     <defs>
      <path d="M 9.8125 72.90625 
L 19.671875 72.90625 
L 19.671875 0 
L 9.8125 0 
z
" id="DejaVuSans-49"/>
      <path d="M 19.671875 64.796875 
L 19.671875 8.109375 
L 31.59375 8.109375 
Q 46.6875 8.109375 53.6875 14.9375 
Q 60.6875 21.78125 60.6875 36.53125 
Q 60.6875 51.171875 53.6875 57.984375 
Q 46.6875 64.796875 31.59375 64.796875 
z
M 9.8125 72.90625 
L 30.078125 72.90625 
Q 51.265625 72.90625 61.171875 64.09375 
Q 71.09375 55.28125 71.09375 36.53125 
Q 71.09375 17.671875 61.125 8.828125 
Q 51.171875 0 30.078125 0 
L 9.8125 0 
z
" id="DejaVuSans-44"/>
     </defs>
     <g transform="translate(87.976377 27.298437)scale(0.1 -0.1)">
      <use xlink:href="#DejaVuSans-54"/>
      <use x="61.083984" xlink:href="#DejaVuSans-49"/>
      <use x="90.576172" xlink:href="#DejaVuSans-44"/>
     </g>
    </g>
   </g>
  </g>
 </g>
 <defs>
  <clipPath id="pea8ab88db8">
   <rect height="293.76" width="502.2" x="50.976377" y="10.7"/>
  </clipPath>
 </defs>
</svg>
