<?xml version="1.0" encoding="utf-8" standalone="no"?>
<!DOCTYPE svg PUBLIC "-//W3C//DTD SVG 1.1//EN"
  "http://www.w3.org/Graphics/SVG/1.1/DTD/svg11.dtd">
<!-- Created with matplotlib (http://matplotlib.org/) -->
<svg height="363.369325pt" version="1.1" viewBox="0 0 563.876377 363.369325" width="563.876377pt" xmlns="http://www.w3.org/2000/svg" xmlns:xlink="http://www.w3.org/1999/xlink">
 <defs>
  <style type="text/css">
*{stroke-linecap:butt;stroke-linejoin:round;}
  </style>
 </defs>
 <g id="figure_1">
  <g id="patch_1">
   <path d="M -0 363.369325 
L 563.876377 363.369325 
L 563.876377 0 
L -0 0 
z
" style="fill:#ffffff;"/>
  </g>
  <g id="axes_1">
   <g id="patch_2">
    <path d="M 50.976377 304.629229 
L 553.176377 304.629229 
L 553.176377 10.869229 
L 50.976377 10.869229 
z
" style="fill:#ffffff;"/>
   </g>
   <g id="matplotlib.axis_1">
    <g id="xtick_1">
     <g id="line2d_1">
      <path clip-path="url(#pdec56e37a9)" d="M 50.976377 304.629229 
L 50.976377 10.869229 
" style="fill:none;stroke:#b0b0b0;stroke-linecap:square;stroke-width:0.8;"/>
     </g>
     <g id="line2d_2">
      <defs>
       <path d="M 0 0 
L 0 3.5 
" id="m0825ba035e" style="stroke:#000000;stroke-width:0.8;"/>
      </defs>
      <g>
       <use style="stroke:#000000;stroke-width:0.8;" x="50.976377" xlink:href="#m0825ba035e" y="304.629229"/>
      </g>
     </g>
     <g id="text_1">
      <!-- 05-28 08 -->
      <defs>
       <path d="M 31.78125 66.40625 
Q 24.171875 66.40625 20.328125 58.90625 
Q 16.5 51.421875 16.5 36.375 
Q 16.5 21.390625 20.328125 13.890625 
Q 24.171875 6.390625 31.78125 6.390625 
Q 39.453125 6.390625 43.28125 13.890625 
Q 47.125 21.390625 47.125 36.375 
Q 47.125 51.421875 43.28125 58.90625 
Q 39.453125 66.40625 31.78125 66.40625 
z
M 31.78125 74.21875 
Q 44.046875 74.21875 50.515625 64.515625 
Q 56.984375 54.828125 56.984375 36.375 
Q 56.984375 17.96875 50.515625 8.265625 
Q 44.046875 -1.421875 31.78125 -1.421875 
Q 19.53125 -1.421875 13.0625 8.265625 
Q 6.59375 17.96875 6.59375 36.375 
Q 6.59375 54.828125 13.0625 64.515625 
Q 19.53125 74.21875 31.78125 74.21875 
z
" id="DejaVuSans-30"/>
       <path d="M 10.796875 72.90625 
L 49.515625 72.90625 
L 49.515625 64.59375 
L 19.828125 64.59375 
L 19.828125 46.734375 
Q 21.96875 47.46875 24.109375 47.828125 
Q 26.265625 48.1875 28.421875 48.1875 
Q 40.625 48.1875 47.75 41.5 
Q 54.890625 34.8125 54.890625 23.390625 
Q 54.890625 11.625 47.5625 5.09375 
Q 40.234375 -1.421875 26.90625 -1.421875 
Q 22.3125 -1.421875 17.546875 -0.640625 
Q 12.796875 0.140625 7.71875 1.703125 
L 7.71875 11.625 
Q 12.109375 9.234375 16.796875 8.0625 
Q 21.484375 6.890625 26.703125 6.890625 
Q 35.15625 6.890625 40.078125 11.328125 
Q 45.015625 15.765625 45.015625 23.390625 
Q 45.015625 31 40.078125 35.4375 
Q 35.15625 39.890625 26.703125 39.890625 
Q 22.75 39.890625 18.8125 39.015625 
Q 14.890625 38.140625 10.796875 36.28125 
z
" id="DejaVuSans-35"/>
       <path d="M 4.890625 31.390625 
L 31.203125 31.390625 
L 31.203125 23.390625 
L 4.890625 23.390625 
z
" id="DejaVuSans-2d"/>
       <path d="M 19.1875 8.296875 
L 53.609375 8.296875 
L 53.609375 0 
L 7.328125 0 
L 7.328125 8.296875 
Q 12.9375 14.109375 22.625 23.890625 
Q 32.328125 33.6875 34.8125 36.53125 
Q 39.546875 41.84375 41.421875 45.53125 
Q 43.3125 49.21875 43.3125 52.78125 
Q 43.3125 58.59375 39.234375 62.25 
Q 35.15625 65.921875 28.609375 65.921875 
Q 23.96875 65.921875 18.8125 64.3125 
Q 13.671875 62.703125 7.8125 59.421875 
L 7.8125 69.390625 
Q 13.765625 71.78125 18.9375 73 
Q 24.125 74.21875 28.421875 74.21875 
Q 39.75 74.21875 46.484375 68.546875 
Q 53.21875 62.890625 53.21875 53.421875 
Q 53.21875 48.921875 51.53125 44.890625 
Q 49.859375 40.875 45.40625 35.40625 
Q 44.1875 33.984375 37.640625 27.21875 
Q 31.109375 20.453125 19.1875 8.296875 
z
" id="DejaVuSans-32"/>
       <path d="M 31.78125 34.625 
Q 24.75 34.625 20.71875 30.859375 
Q 16.703125 27.09375 16.703125 20.515625 
Q 16.703125 13.921875 20.71875 10.15625 
Q 24.75 6.390625 31.78125 6.390625 
Q 38.8125 6.390625 42.859375 10.171875 
Q 46.921875 13.96875 46.921875 20.515625 
Q 46.921875 27.09375 42.890625 30.859375 
Q 38.875 34.625 31.78125 34.625 
z
M 21.921875 38.8125 
Q 15.578125 40.375 12.03125 44.71875 
Q 8.5 49.078125 8.5 55.328125 
Q 8.5 64.0625 14.71875 69.140625 
Q 20.953125 74.21875 31.78125 74.21875 
Q 42.671875 74.21875 48.875 69.140625 
Q 55.078125 64.0625 55.078125 55.328125 
Q 55.078125 49.078125 51.53125 44.71875 
Q 48 40.375 41.703125 38.8125 
Q 48.828125 37.15625 52.796875 32.3125 
Q 56.78125 27.484375 56.78125 20.515625 
Q 56.78125 9.90625 50.3125 4.234375 
Q 43.84375 -1.421875 31.78125 -1.421875 
Q 19.734375 -1.421875 13.25 4.234375 
Q 6.78125 9.90625 6.78125 20.515625 
Q 6.78125 27.484375 10.78125 32.3125 
Q 14.796875 37.15625 21.921875 38.8125 
z
M 18.3125 54.390625 
Q 18.3125 48.734375 21.84375 45.5625 
Q 25.390625 42.390625 31.78125 42.390625 
Q 38.140625 42.390625 41.71875 45.5625 
Q 45.3125 48.734375 45.3125 54.390625 
Q 45.3125 60.0625 41.71875 63.234375 
Q 38.140625 66.40625 31.78125 66.40625 
Q 25.390625 66.40625 21.84375 63.234375 
Q 18.3125 60.0625 18.3125 54.390625 
z
" id="DejaVuSans-38"/>
       <path id="DejaVuSans-20"/>
      </defs>
      <g transform="translate(10.999219 340.690137)rotate(-30)scale(0.1 -0.1)">
       <use xlink:href="#DejaVuSans-30"/>
       <use x="63.623047" xlink:href="#DejaVuSans-35"/>
       <use x="127.246094" xlink:href="#DejaVuSans-2d"/>
       <use x="163.330078" xlink:href="#DejaVuSans-32"/>
       <use x="226.953125" xlink:href="#DejaVuSans-38"/>
       <use x="290.576172" xlink:href="#DejaVuSans-20"/>
       <use x="322.363281" xlink:href="#DejaVuSans-30"/>
       <use x="385.986328" xlink:href="#DejaVuSans-38"/>
      </g>
     </g>
    </g>
    <g id="xtick_2">
     <g id="line2d_3">
      <path clip-path="url(#pdec56e37a9)" d="M 134.676376 304.629229 
L 134.676376 10.869229 
" style="fill:none;stroke:#b0b0b0;stroke-linecap:square;stroke-width:0.8;"/>
     </g>
     <g id="line2d_4">
      <g>
       <use style="stroke:#000000;stroke-width:0.8;" x="134.676376" xlink:href="#m0825ba035e" y="304.629229"/>
      </g>
     </g>
     <g id="text_2">
      <!-- 05-28 10 -->
      <defs>
       <path d="M 12.40625 8.296875 
L 28.515625 8.296875 
L 28.515625 63.921875 
L 10.984375 60.40625 
L 10.984375 69.390625 
L 28.421875 72.90625 
L 38.28125 72.90625 
L 38.28125 8.296875 
L 54.390625 8.296875 
L 54.390625 0 
L 12.40625 0 
z
" id="DejaVuSans-31"/>
      </defs>
      <g transform="translate(94.699219 340.690137)rotate(-30)scale(0.1 -0.1)">
       <use xlink:href="#DejaVuSans-30"/>
       <use x="63.623047" xlink:href="#DejaVuSans-35"/>
       <use x="127.246094" xlink:href="#DejaVuSans-2d"/>
       <use x="163.330078" xlink:href="#DejaVuSans-32"/>
       <use x="226.953125" xlink:href="#DejaVuSans-38"/>
       <use x="290.576172" xlink:href="#DejaVuSans-20"/>
       <use x="322.363281" xlink:href="#DejaVuSans-31"/>
       <use x="385.986328" xlink:href="#DejaVuSans-30"/>
      </g>
     </g>
    </g>
    <g id="xtick_3">
     <g id="line2d_5">
      <path clip-path="url(#pdec56e37a9)" d="M 218.376377 304.629229 
L 218.376377 10.869229 
" style="fill:none;stroke:#b0b0b0;stroke-linecap:square;stroke-width:0.8;"/>
     </g>
     <g id="line2d_6">
      <g>
       <use style="stroke:#000000;stroke-width:0.8;" x="218.376377" xlink:href="#m0825ba035e" y="304.629229"/>
      </g>
     </g>
     <g id="text_3">
      <!-- 05-28 12 -->
      <g transform="translate(178.399219 340.690137)rotate(-30)scale(0.1 -0.1)">
       <use xlink:href="#DejaVuSans-30"/>
       <use x="63.623047" xlink:href="#DejaVuSans-35"/>
       <use x="127.246094" xlink:href="#DejaVuSans-2d"/>
       <use x="163.330078" xlink:href="#DejaVuSans-32"/>
       <use x="226.953125" xlink:href="#DejaVuSans-38"/>
       <use x="290.576172" xlink:href="#DejaVuSans-20"/>
       <use x="322.363281" xlink:href="#DejaVuSans-31"/>
       <use x="385.986328" xlink:href="#DejaVuSans-32"/>
      </g>
     </g>
    </g>
    <g id="xtick_4">
     <g id="line2d_7">
      <path clip-path="url(#pdec56e37a9)" d="M 302.076377 304.629229 
L 302.076377 10.869229 
" style="fill:none;stroke:#b0b0b0;stroke-linecap:square;stroke-width:0.8;"/>
     </g>
     <g id="line2d_8">
      <g>
       <use style="stroke:#000000;stroke-width:0.8;" x="302.076377" xlink:href="#m0825ba035e" y="304.629229"/>
      </g>
     </g>
     <g id="text_4">
      <!-- 05-28 14 -->
      <defs>
       <path d="M 37.796875 64.3125 
L 12.890625 25.390625 
L 37.796875 25.390625 
z
M 35.203125 72.90625 
L 47.609375 72.90625 
L 47.609375 25.390625 
L 58.015625 25.390625 
L 58.015625 17.1875 
L 47.609375 17.1875 
L 47.609375 0 
L 37.796875 0 
L 37.796875 17.1875 
L 4.890625 17.1875 
L 4.890625 26.703125 
z
" id="DejaVuSans-34"/>
      </defs>
      <g transform="translate(262.099219 340.690137)rotate(-30)scale(0.1 -0.1)">
       <use xlink:href="#DejaVuSans-30"/>
       <use x="63.623047" xlink:href="#DejaVuSans-35"/>
       <use x="127.246094" xlink:href="#DejaVuSans-2d"/>
       <use x="163.330078" xlink:href="#DejaVuSans-32"/>
       <use x="226.953125" xlink:href="#DejaVuSans-38"/>
       <use x="290.576172" xlink:href="#DejaVuSans-20"/>
       <use x="322.363281" xlink:href="#DejaVuSans-31"/>
       <use x="385.986328" xlink:href="#DejaVuSans-34"/>
      </g>
     </g>
    </g>
    <g id="xtick_5">
     <g id="line2d_9">
      <path clip-path="url(#pdec56e37a9)" d="M 385.776376 304.629229 
L 385.776376 10.869229 
" style="fill:none;stroke:#b0b0b0;stroke-linecap:square;stroke-width:0.8;"/>
     </g>
     <g id="line2d_10">
      <g>
       <use style="stroke:#000000;stroke-width:0.8;" x="385.776376" xlink:href="#m0825ba035e" y="304.629229"/>
      </g>
     </g>
     <g id="text_5">
      <!-- 05-28 16 -->
      <defs>
       <path d="M 33.015625 40.375 
Q 26.375 40.375 22.484375 35.828125 
Q 18.609375 31.296875 18.609375 23.390625 
Q 18.609375 15.53125 22.484375 10.953125 
Q 26.375 6.390625 33.015625 6.390625 
Q 39.65625 6.390625 43.53125 10.953125 
Q 47.40625 15.53125 47.40625 23.390625 
Q 47.40625 31.296875 43.53125 35.828125 
Q 39.65625 40.375 33.015625 40.375 
z
M 52.59375 71.296875 
L 52.59375 62.3125 
Q 48.875 64.0625 45.09375 64.984375 
Q 41.3125 65.921875 37.59375 65.921875 
Q 27.828125 65.921875 22.671875 59.328125 
Q 17.53125 52.734375 16.796875 39.40625 
Q 19.671875 43.65625 24.015625 45.921875 
Q 28.375 48.1875 33.59375 48.1875 
Q 44.578125 48.1875 50.953125 41.515625 
Q 57.328125 34.859375 57.328125 23.390625 
Q 57.328125 12.15625 50.6875 5.359375 
Q 44.046875 -1.421875 33.015625 -1.421875 
Q 20.359375 -1.421875 13.671875 8.265625 
Q 6.984375 17.96875 6.984375 36.375 
Q 6.984375 53.65625 15.1875 63.9375 
Q 23.390625 74.21875 37.203125 74.21875 
Q 40.921875 74.21875 44.703125 73.484375 
Q 48.484375 72.75 52.59375 71.296875 
z
" id="DejaVuSans-36"/>
      </defs>
      <g transform="translate(345.799219 340.690137)rotate(-30)scale(0.1 -0.1)">
       <use xlink:href="#DejaVuSans-30"/>
       <use x="63.623047" xlink:href="#DejaVuSans-35"/>
       <use x="127.246094" xlink:href="#DejaVuSans-2d"/>
       <use x="163.330078" xlink:href="#DejaVuSans-32"/>
       <use x="226.953125" xlink:href="#DejaVuSans-38"/>
       <use x="290.576172" xlink:href="#DejaVuSans-20"/>
       <use x="322.363281" xlink:href="#DejaVuSans-31"/>
       <use x="385.986328" xlink:href="#DejaVuSans-36"/>
      </g>
     </g>
    </g>
    <g id="xtick_6">
     <g id="line2d_11">
      <path clip-path="url(#pdec56e37a9)" d="M 469.476377 304.629229 
L 469.476377 10.869229 
" style="fill:none;stroke:#b0b0b0;stroke-linecap:square;stroke-width:0.8;"/>
     </g>
     <g id="line2d_12">
      <g>
       <use style="stroke:#000000;stroke-width:0.8;" x="469.476377" xlink:href="#m0825ba035e" y="304.629229"/>
      </g>
     </g>
     <g id="text_6">
      <!-- 05-28 18 -->
      <g transform="translate(429.499219 340.690137)rotate(-30)scale(0.1 -0.1)">
       <use xlink:href="#DejaVuSans-30"/>
       <use x="63.623047" xlink:href="#DejaVuSans-35"/>
       <use x="127.246094" xlink:href="#DejaVuSans-2d"/>
       <use x="163.330078" xlink:href="#DejaVuSans-32"/>
       <use x="226.953125" xlink:href="#DejaVuSans-38"/>
       <use x="290.576172" xlink:href="#DejaVuSans-20"/>
       <use x="322.363281" xlink:href="#DejaVuSans-31"/>
       <use x="385.986328" xlink:href="#DejaVuSans-38"/>
      </g>
     </g>
    </g>
    <g id="xtick_7">
     <g id="line2d_13">
      <path clip-path="url(#pdec56e37a9)" d="M 553.176376 304.629229 
L 553.176376 10.869229 
" style="fill:none;stroke:#b0b0b0;stroke-linecap:square;stroke-width:0.8;"/>
     </g>
     <g id="line2d_14">
      <g>
       <use style="stroke:#000000;stroke-width:0.8;" x="553.176376" xlink:href="#m0825ba035e" y="304.629229"/>
      </g>
     </g>
     <g id="text_7">
      <!-- 05-28 20 -->
      <g transform="translate(513.199219 340.690137)rotate(-30)scale(0.1 -0.1)">
       <use xlink:href="#DejaVuSans-30"/>
       <use x="63.623047" xlink:href="#DejaVuSans-35"/>
       <use x="127.246094" xlink:href="#DejaVuSans-2d"/>
       <use x="163.330078" xlink:href="#DejaVuSans-32"/>
       <use x="226.953125" xlink:href="#DejaVuSans-38"/>
       <use x="290.576172" xlink:href="#DejaVuSans-20"/>
       <use x="322.363281" xlink:href="#DejaVuSans-32"/>
       <use x="385.986328" xlink:href="#DejaVuSans-30"/>
      </g>
     </g>
    </g>
    <g id="text_8">
     <!-- Time -->
     <defs>
      <path d="M -0.296875 72.90625 
L 61.375 72.90625 
L 61.375 64.59375 
L 35.5 64.59375 
L 35.5 0 
L 25.59375 0 
L 25.59375 64.59375 
L -0.296875 64.59375 
z
" id="DejaVuSans-54"/>
      <path d="M 9.421875 54.6875 
L 18.40625 54.6875 
L 18.40625 0 
L 9.421875 0 
z
M 9.421875 75.984375 
L 18.40625 75.984375 
L 18.40625 64.59375 
L 9.421875 64.59375 
z
" id="DejaVuSans-69"/>
      <path d="M 52 44.1875 
Q 55.375 50.25 60.0625 53.125 
Q 64.75 56 71.09375 56 
Q 79.640625 56 84.28125 50.015625 
Q 88.921875 44.046875 88.921875 33.015625 
L 88.921875 0 
L 79.890625 0 
L 79.890625 32.71875 
Q 79.890625 40.578125 77.09375 44.375 
Q 74.3125 48.1875 68.609375 48.1875 
Q 61.625 48.1875 57.5625 43.546875 
Q 53.515625 38.921875 53.515625 30.90625 
L 53.515625 0 
L 44.484375 0 
L 44.484375 32.71875 
Q 44.484375 40.625 41.703125 44.40625 
Q 38.921875 48.1875 33.109375 48.1875 
Q 26.21875 48.1875 22.15625 43.53125 
Q 18.109375 38.875 18.109375 30.90625 
L 18.109375 0 
L 9.078125 0 
L 9.078125 54.6875 
L 18.109375 54.6875 
L 18.109375 46.1875 
Q 21.1875 51.21875 25.484375 53.609375 
Q 29.78125 56 35.6875 56 
Q 41.65625 56 45.828125 52.96875 
Q 50 49.953125 52 44.1875 
z
" id="DejaVuSans-6d"/>
      <path d="M 56.203125 29.59375 
L 56.203125 25.203125 
L 14.890625 25.203125 
Q 15.484375 15.921875 20.484375 11.0625 
Q 25.484375 6.203125 34.421875 6.203125 
Q 39.59375 6.203125 44.453125 7.46875 
Q 49.3125 8.734375 54.109375 11.28125 
L 54.109375 2.78125 
Q 49.265625 0.734375 44.1875 -0.34375 
Q 39.109375 -1.421875 33.890625 -1.421875 
Q 20.796875 -1.421875 13.15625 6.1875 
Q 5.515625 13.8125 5.515625 26.8125 
Q 5.515625 40.234375 12.765625 48.109375 
Q 20.015625 56 32.328125 56 
Q 43.359375 56 49.78125 48.890625 
Q 56.203125 41.796875 56.203125 29.59375 
z
M 47.21875 32.234375 
Q 47.125 39.59375 43.09375 43.984375 
Q 39.0625 48.390625 32.421875 48.390625 
Q 24.90625 48.390625 20.390625 44.140625 
Q 15.875 39.890625 15.1875 32.171875 
z
" id="DejaVuSans-65"/>
     </defs>
     <g transform="translate(289.688877 354.089637)scale(0.1 -0.1)">
      <use xlink:href="#DejaVuSans-54"/>
      <use x="61.037109" xlink:href="#DejaVuSans-69"/>
      <use x="88.820312" xlink:href="#DejaVuSans-6d"/>
      <use x="186.232422" xlink:href="#DejaVuSans-65"/>
     </g>
    </g>
   </g>
   <g id="matplotlib.axis_2">
    <g id="ytick_1">
     <g id="line2d_15">
      <path clip-path="url(#pdec56e37a9)" d="M 50.976377 284.103621 
L 553.176377 284.103621 
" style="fill:none;stroke:#b0b0b0;stroke-linecap:square;stroke-width:0.8;"/>
     </g>
     <g id="line2d_16">
      <defs>
       <path d="M 0 0 
L -3.5 0 
" id="m9123c767c2" style="stroke:#000000;stroke-width:0.8;"/>
      </defs>
      <g>
       <use style="stroke:#000000;stroke-width:0.8;" x="50.976377" xlink:href="#m9123c767c2" y="284.103621"/>
      </g>
     </g>
     <g id="text_9">
      <!-- 72 -->
      <defs>
       <path d="M 8.203125 72.90625 
L 55.078125 72.90625 
L 55.078125 68.703125 
L 28.609375 0 
L 18.3125 0 
L 43.21875 64.59375 
L 8.203125 64.59375 
z
" id="DejaVuSans-37"/>
      </defs>
      <g transform="translate(31.251377 287.90284)scale(0.1 -0.1)">
       <use xlink:href="#DejaVuSans-37"/>
       <use x="63.623047" xlink:href="#DejaVuSans-32"/>
      </g>
     </g>
    </g>
    <g id="ytick_2">
     <g id="line2d_17">
      <path clip-path="url(#pdec56e37a9)" d="M 50.976377 245.088707 
L 553.176377 245.088707 
" style="fill:none;stroke:#b0b0b0;stroke-linecap:square;stroke-width:0.8;"/>
     </g>
     <g id="line2d_18">
      <g>
       <use style="stroke:#000000;stroke-width:0.8;" x="50.976377" xlink:href="#m9123c767c2" y="245.088707"/>
      </g>
     </g>
     <g id="text_10">
      <!-- 74 -->
      <g transform="translate(31.251377 248.887925)scale(0.1 -0.1)">
       <use xlink:href="#DejaVuSans-37"/>
       <use x="63.623047" xlink:href="#DejaVuSans-34"/>
      </g>
     </g>
    </g>
    <g id="ytick_3">
     <g id="line2d_19">
      <path clip-path="url(#pdec56e37a9)" d="M 50.976377 206.073792 
L 553.176377 206.073792 
" style="fill:none;stroke:#b0b0b0;stroke-linecap:square;stroke-width:0.8;"/>
     </g>
     <g id="line2d_20">
      <g>
       <use style="stroke:#000000;stroke-width:0.8;" x="50.976377" xlink:href="#m9123c767c2" y="206.073792"/>
      </g>
     </g>
     <g id="text_11">
      <!-- 76 -->
      <g transform="translate(31.251377 209.873011)scale(0.1 -0.1)">
       <use xlink:href="#DejaVuSans-37"/>
       <use x="63.623047" xlink:href="#DejaVuSans-36"/>
      </g>
     </g>
    </g>
    <g id="ytick_4">
     <g id="line2d_21">
      <path clip-path="url(#pdec56e37a9)" d="M 50.976377 167.058877 
L 553.176377 167.058877 
" style="fill:none;stroke:#b0b0b0;stroke-linecap:square;stroke-width:0.8;"/>
     </g>
     <g id="line2d_22">
      <g>
       <use style="stroke:#000000;stroke-width:0.8;" x="50.976377" xlink:href="#m9123c767c2" y="167.058877"/>
      </g>
     </g>
     <g id="text_12">
      <!-- 78 -->
      <g transform="translate(31.251377 170.858096)scale(0.1 -0.1)">
       <use xlink:href="#DejaVuSans-37"/>
       <use x="63.623047" xlink:href="#DejaVuSans-38"/>
      </g>
     </g>
    </g>
    <g id="ytick_5">
     <g id="line2d_23">
      <path clip-path="url(#pdec56e37a9)" d="M 50.976377 128.043963 
L 553.176377 128.043963 
" style="fill:none;stroke:#b0b0b0;stroke-linecap:square;stroke-width:0.8;"/>
     </g>
     <g id="line2d_24">
      <g>
       <use style="stroke:#000000;stroke-width:0.8;" x="50.976377" xlink:href="#m9123c767c2" y="128.043963"/>
      </g>
     </g>
     <g id="text_13">
      <!-- 80 -->
      <g transform="translate(31.251377 131.843181)scale(0.1 -0.1)">
       <use xlink:href="#DejaVuSans-38"/>
       <use x="63.623047" xlink:href="#DejaVuSans-30"/>
      </g>
     </g>
    </g>
    <g id="ytick_6">
     <g id="line2d_25">
      <path clip-path="url(#pdec56e37a9)" d="M 50.976377 89.029048 
L 553.176377 89.029048 
" style="fill:none;stroke:#b0b0b0;stroke-linecap:square;stroke-width:0.8;"/>
     </g>
     <g id="line2d_26">
      <g>
       <use style="stroke:#000000;stroke-width:0.8;" x="50.976377" xlink:href="#m9123c767c2" y="89.029048"/>
      </g>
     </g>
     <g id="text_14">
      <!-- 82 -->
      <g transform="translate(31.251377 92.828267)scale(0.1 -0.1)">
       <use xlink:href="#DejaVuSans-38"/>
       <use x="63.623047" xlink:href="#DejaVuSans-32"/>
      </g>
     </g>
    </g>
    <g id="ytick_7">
     <g id="line2d_27">
      <path clip-path="url(#pdec56e37a9)" d="M 50.976377 50.014133 
L 553.176377 50.014133 
" style="fill:none;stroke:#b0b0b0;stroke-linecap:square;stroke-width:0.8;"/>
     </g>
     <g id="line2d_28">
      <g>
       <use style="stroke:#000000;stroke-width:0.8;" x="50.976377" xlink:href="#m9123c767c2" y="50.014133"/>
      </g>
     </g>
     <g id="text_15">
      <!-- 84 -->
      <g transform="translate(31.251377 53.813352)scale(0.1 -0.1)">
       <use xlink:href="#DejaVuSans-38"/>
       <use x="63.623047" xlink:href="#DejaVuSans-34"/>
      </g>
     </g>
    </g>
    <g id="ytick_8">
     <g id="line2d_29">
      <path clip-path="url(#pdec56e37a9)" d="M 50.976377 10.999219 
L 553.176377 10.999219 
" style="fill:none;stroke:#b0b0b0;stroke-linecap:square;stroke-width:0.8;"/>
     </g>
     <g id="line2d_30">
      <g>
       <use style="stroke:#000000;stroke-width:0.8;" x="50.976377" xlink:href="#m9123c767c2" y="10.999219"/>
      </g>
     </g>
     <g id="text_16">
      <!-- 86 -->
      <g transform="translate(31.251377 14.798438)scale(0.1 -0.1)">
       <use xlink:href="#DejaVuSans-38"/>
       <use x="63.623047" xlink:href="#DejaVuSans-36"/>
      </g>
     </g>
    </g>
   </g>
   <g id="line2d_31">
    <path clip-path="url(#pdec56e37a9)" d="M 50.990779 291.276502 
L 52.760988 289.965327 
L 53.351057 290.106894 
L 53.941127 289.700006 
L 54.531197 289.545066 
L 55.121266 289.127392 
L 55.711336 288.896007 
L 56.301405 288.308134 
L 56.891475 288.38319 
L 57.481545 287.497322 
L 58.071614 286.826509 
L 58.661684 287.162743 
L 59.841823 285.743453 
L 60.431893 285.767767 
L 61.021962 285.956916 
L 61.612032 285.143238 
L 62.202102 285.014024 
L 63.97231 283.963458 
L 64.56238 284.032437 
L 65.152449 283.622065 
L 65.742519 283.452916 
L 66.922658 282.740841 
L 67.512728 282.709184 
L 68.102798 281.456615 
L 68.692867 281.724042 
L 69.282937 280.447999 
L 69.873006 280.493219 
L 70.463076 280.034412 
L 71.053146 280.172581 
L 72.233285 279.585853 
L 72.823354 279.498144 
L 73.413424 278.85487 
L 74.003494 278.397332 
L 74.593563 278.290254 
L 75.183633 277.774696 
L 75.773703 277.581554 
L 76.953842 276.636585 
L 77.543911 276.575687 
L 78.133981 275.654086 
L 78.724051 275.80916 
L 79.31412 275.457464 
L 79.90419 275.302297 
L 80.494259 274.727597 
L 81.084329 275.053579 
L 82.264468 273.759051 
L 82.854538 273.602434 
L 84.034677 272.600307 
L 85.214816 271.8971 
L 85.804886 271.39976 
L 86.394955 271.150553 
L 86.985025 271.351116 
L 87.575095 270.997193 
L 88.165164 270.438025 
L 88.755234 270.307484 
L 89.935373 269.466759 
L 90.525443 269.134829 
L 91.115512 269.176922 
L 91.705582 268.132351 
L 92.295651 267.868103 
L 92.885721 267.986554 
L 93.475791 267.351749 
L 94.65593 266.711853 
L 95.246 266.499515 
L 95.836069 265.871411 
L 96.426139 265.539534 
L 97.606278 265.343728 
L 98.196347 264.409432 
L 98.786417 264.693592 
L 99.376487 264.197825 
L 99.966556 263.450291 
L 100.556626 263.247808 
L 101.736765 262.54264 
L 102.326835 262.212035 
L 102.916904 261.632498 
L 103.506974 261.979073 
L 104.097044 261.4389 
L 104.687113 260.463358 
L 105.277183 260.767124 
L 105.867252 260.208909 
L 107.637461 259.734307 
L 108.227531 258.865134 
L 108.8176 258.929097 
L 109.40767 258.387639 
L 109.99774 257.246998 
L 110.587809 257.538348 
L 111.767949 257.087634 
L 112.358018 256.501397 
L 112.948088 256.209527 
L 113.538157 255.705031 
L 114.128227 255.404131 
L 114.718297 254.750674 
L 115.308366 254.955966 
L 115.898436 254.814679 
L 116.488505 254.526863 
L 118.258714 253.289036 
L 118.848784 253.276422 
L 119.438853 252.893853 
L 120.028923 252.71128 
L 121.209062 251.87374 
L 121.799132 251.933967 
L 122.389201 251.077308 
L 123.569341 250.350398 
L 124.74948 250.035534 
L 125.339549 249.494486 
L 125.929619 249.119155 
L 127.699828 248.423381 
L 128.289897 247.495915 
L 128.879967 247.277908 
L 130.060106 247.465983 
L 130.650176 246.368998 
L 131.240245 246.535669 
L 131.830315 246.233535 
L 132.420385 245.446676 
L 133.010454 245.65729 
L 133.600524 244.957546 
L 134.780663 244.050497 
L 135.370733 243.808056 
L 135.960802 243.959092 
L 136.550872 243.410676 
L 137.140942 242.585845 
L 137.731011 242.972429 
L 138.321081 242.370184 
L 139.50122 241.726984 
L 140.09129 241.133918 
L 140.681359 240.922843 
L 141.861498 240.869587 
L 142.451568 239.945963 
L 143.041638 239.662424 
L 143.631707 239.223894 
L 144.221777 239.000055 
L 144.811846 238.049431 
L 145.401916 238.498798 
L 145.991986 237.744278 
L 146.582055 237.606095 
L 147.172125 237.28901 
L 147.762195 236.808454 
L 150.122473 236.057486 
L 150.712543 235.091331 
L 151.302612 235.09953 
L 151.892682 234.593047 
L 152.482751 234.37153 
L 153.072821 233.934553 
L 153.662891 234.150362 
L 154.25296 233.416664 
L 154.84303 233.047044 
L 156.023169 232.93588 
L 156.613239 232.188802 
L 157.203308 231.651187 
L 157.793378 231.325561 
L 158.383447 231.360174 
L 158.973517 230.836535 
L 159.563587 230.799879 
L 160.743726 229.807936 
L 161.333795 229.7633 
L 161.923865 229.340993 
L 162.513935 229.213736 
L 163.104004 229.262379 
L 163.694074 229.096627 
L 164.284143 228.454011 
L 164.874213 227.53872 
L 165.464283 227.504907 
L 166.054352 228.318392 
L 167.234492 226.466957 
L 167.824561 226.204163 
L 168.414631 225.377575 
L 169.0047 225.044713 
L 170.184839 224.762772 
L 170.774909 224.271994 
L 171.364979 224.750237 
L 171.955048 223.780112 
L 173.135188 222.989242 
L 173.725257 223.185802 
L 174.315327 222.66215 
L 174.905396 221.909666 
L 175.495466 222.028575 
L 176.085536 221.399271 
L 176.675605 221.406929 
L 177.265675 220.678688 
L 178.445814 219.946546 
L 179.035884 219.79891 
L 179.625953 219.324358 
L 180.216023 219.372035 
L 180.806093 218.926454 
L 181.396162 217.922912 
L 181.986232 217.649857 
L 182.576301 217.644055 
L 183.166371 217.494223 
L 183.756441 216.903006 
L 184.34651 216.88805 
L 184.93658 216.320461 
L 185.526649 216.373264 
L 186.116719 215.920877 
L 186.706789 214.807513 
L 187.296858 214.994068 
L 187.886928 214.571796 
L 188.476997 214.517499 
L 189.067067 213.819869 
L 189.657137 213.863547 
L 190.247206 213.697096 
L 190.837276 213.274139 
L 191.427346 213.146578 
L 192.017415 212.459193 
L 192.607485 212.553914 
L 193.197554 212.258164 
L 193.787624 211.581719 
L 194.377693 211.293697 
L 196.737972 209.665484 
L 197.328042 209.554586 
L 197.918111 209.091907 
L 198.508181 208.833431 
L 199.09825 208.112821 
L 200.27839 207.881929 
L 200.868459 207.349582 
L 201.458529 207.309068 
L 202.048598 206.415138 
L 202.638668 205.978326 
L 203.228738 205.854382 
L 203.818807 205.924633 
L 204.408877 205.232647 
L 204.998946 204.863606 
L 205.589016 205.052073 
L 206.769155 204.011701 
L 207.359225 204.272913 
L 207.949294 203.758317 
L 208.539364 204.160604 
L 209.129434 202.873461 
L 212.669851 201.139045 
L 213.259921 200.601605 
L 213.84999 200.79361 
L 214.44006 199.907627 
L 215.03013 199.632022 
L 215.620199 199.681941 
L 216.210269 198.884524 
L 217.390408 198.320354 
L 217.980478 198.383324 
L 218.570547 197.744069 
L 219.160617 197.31926 
L 220.340756 197.091563 
L 220.930826 196.371895 
L 221.520895 196.131694 
L 222.110965 195.722645 
L 222.701035 195.547357 
L 223.291104 194.897092 
L 223.881174 195.098954 
L 225.061313 194.106998 
L 226.241452 193.653739 
L 226.831522 192.797684 
L 227.421591 193.004378 
L 228.011661 192.082179 
L 228.601731 192.403789 
L 229.1918 191.595205 
L 229.78187 191.653742 
L 230.37194 191.225075 
L 230.962009 191.419745 
L 231.552079 190.773515 
L 232.142148 190.505331 
L 233.322287 189.784297 
L 233.912357 189.175564 
L 234.502427 189.009045 
L 235.092496 189.23298 
L 236.272636 188.208414 
L 236.862705 187.496569 
L 237.452775 187.532023 
L 238.042844 186.595113 
L 238.632914 186.878703 
L 239.222984 186.5004 
L 239.813053 187.27299 
L 240.403123 185.450182 
L 240.993192 185.130912 
L 241.583262 185.338122 
L 242.173332 185.035169 
L 244.53361 183.319876 
L 245.12368 182.993138 
L 246.303819 182.680321 
L 246.893888 182.011544 
L 247.483958 182.102981 
L 248.664097 180.946342 
L 249.254167 180.934371 
L 249.844236 180.062489 
L 250.434306 179.989308 
L 251.024376 179.504585 
L 252.204515 179.032022 
L 252.794585 178.34958 
L 253.384654 178.187021 
L 253.974724 177.870311 
L 254.564793 176.834477 
L 255.154863 177.212819 
L 255.744933 177.376393 
L 256.335002 177.023548 
L 256.925072 176.003226 
L 257.515141 176.21104 
L 258.105211 175.434504 
L 258.695281 175.673449 
L 259.28535 174.964411 
L 259.87542 174.752469 
L 260.465489 174.147105 
L 261.645629 173.575034 
L 262.825768 173.283386 
L 265.186046 171.638122 
L 265.776116 171.560617 
L 266.366185 170.816214 
L 266.956255 171.061077 
L 267.546325 170.395659 
L 268.136394 170.470071 
L 268.726464 169.251078 
L 269.316534 169.531194 
L 269.906603 168.876306 
L 270.496673 169.156604 
L 271.086742 168.674357 
L 271.676812 168.427357 
L 272.266882 167.761331 
L 272.856951 168.027764 
L 273.447021 167.431861 
L 274.03709 167.597602 
L 274.62716 166.33572 
L 275.21723 166.136191 
L 276.397369 166.204023 
L 276.987438 165.175878 
L 277.577508 165.326489 
L 278.167578 165.038028 
L 278.757647 164.353183 
L 279.347717 164.447887 
L 280.527856 163.192894 
L 281.117926 163.544698 
L 281.707995 162.50173 
L 282.298065 162.746729 
L 284.068274 161.456999 
L 284.658343 161.634304 
L 285.248413 161.022681 
L 289.3789 158.514674 
L 289.96897 158.011689 
L 290.559039 157.901098 
L 291.149109 157.618698 
L 291.739179 156.87392 
L 292.919318 156.717968 
L 294.099457 155.889725 
L 294.689527 155.963184 
L 295.279596 155.815545 
L 295.869666 154.527358 
L 296.459736 154.792122 
L 297.049805 154.334408 
L 297.639875 153.509939 
L 298.229944 153.763583 
L 300.590223 152.572028 
L 301.180292 151.841406 
L 302.360432 151.620839 
L 302.950501 151.284185 
L 303.540571 150.817775 
L 304.13064 150.86929 
L 304.72071 150.188198 
L 305.31078 149.905653 
L 305.900849 149.905333 
L 306.490919 149.107651 
L 307.080988 148.61456 
L 307.671058 148.785162 
L 308.261128 148.089157 
L 309.441267 147.809219 
L 310.031336 147.851047 
L 310.621406 147.040845 
L 311.211476 147.263117 
L 311.801545 146.798466 
L 312.391615 146.626449 
L 312.981684 145.826276 
L 313.571754 146.066535 
L 314.161824 145.709351 
L 314.751893 144.847902 
L 315.341963 145.099473 
L 316.522102 144.581328 
L 317.112172 144.15052 
L 317.702241 143.207637 
L 318.292311 143.402283 
L 318.88238 143.308282 
L 319.47245 143.023702 
L 320.06252 143.117386 
L 321.242659 142.079037 
L 322.422798 141.605432 
L 323.012868 141.016867 
L 323.602937 141.083822 
L 324.783077 140.228308 
L 325.373146 140.504312 
L 325.963216 140.23763 
L 327.143355 138.985867 
L 327.733425 138.781477 
L 328.323494 138.199349 
L 328.913564 138.437678 
L 329.503633 137.839253 
L 330.093703 137.812092 
L 331.273842 137.352793 
L 331.863912 136.6956 
L 332.453982 136.986619 
L 333.044051 136.509596 
L 333.634121 135.815743 
L 334.22419 135.843271 
L 334.81426 135.686121 
L 335.40433 134.992974 
L 335.994399 135.002809 
L 336.584469 134.435106 
L 337.174538 134.259373 
L 337.764608 133.873207 
L 338.354678 133.910692 
L 338.944747 133.041136 
L 339.534817 133.541215 
L 340.714956 132.767663 
L 341.305026 132.201656 
L 341.895095 131.916697 
L 342.485165 131.962148 
L 344.255374 130.574969 
L 344.845443 130.903657 
L 345.435513 130.835446 
L 346.025582 130.380997 
L 346.615652 130.083926 
L 348.385861 128.723601 
L 348.97593 128.878519 
L 349.566 128.568687 
L 350.15607 127.987437 
L 350.746139 128.136841 
L 351.336209 127.784616 
L 351.926279 127.68377 
L 353.106418 126.230661 
L 354.286557 126.249495 
L 354.876626 125.203312 
L 355.466696 125.390492 
L 356.056766 125.444308 
L 357.236905 124.474225 
L 357.826975 124.233502 
L 358.417044 124.216764 
L 359.007114 123.991233 
L 359.597183 123.31118 
L 360.187253 122.857909 
L 360.777323 122.718203 
L 361.957462 122.162176 
L 362.547531 121.398579 
L 363.137601 121.551812 
L 363.727671 120.541479 
L 364.31774 120.543286 
L 365.49788 119.911408 
L 366.087949 119.488396 
L 366.678019 119.393086 
L 368.448228 118.64545 
L 369.038297 118.550883 
L 370.218436 117.562706 
L 370.808506 117.789934 
L 373.168784 116.201842 
L 373.758854 116.078988 
L 374.348924 115.301287 
L 378.479411 113.15487 
L 379.06948 113.502346 
L 379.65955 112.65326 
L 380.24962 112.168552 
L 380.839689 111.276837 
L 381.429759 111.479879 
L 382.609898 111.226682 
L 383.199968 110.680777 
L 383.790037 110.447937 
L 384.380107 109.485138 
L 384.970177 109.837718 
L 385.560246 109.767929 
L 386.150316 109.450003 
L 386.740385 108.694569 
L 387.330455 108.858551 
L 387.920524 108.266624 
L 388.510594 108.115111 
L 389.690733 107.19326 
L 390.280803 106.67659 
L 390.870873 106.360276 
L 391.460942 105.879034 
L 392.051012 106.137033 
L 392.641081 106.122017 
L 393.821221 105.360164 
L 394.41129 104.525495 
L 395.00136 104.151999 
L 395.591429 105.087687 
L 396.181499 104.255889 
L 396.771569 104.1156 
L 397.361638 103.276 
L 397.951708 102.832334 
L 398.541777 103.516914 
L 399.721917 102.133662 
L 400.311986 102.275509 
L 400.902056 101.330679 
L 401.492126 101.516836 
L 402.672265 100.333013 
L 403.262334 100.174859 
L 403.852404 99.828444 
L 405.032543 99.384779 
L 405.622613 98.996212 
L 406.212682 98.471007 
L 407.392822 98.263962 
L 407.982891 97.504656 
L 409.16303 97.215476 
L 409.7531 97.151826 
L 410.34317 95.990869 
L 410.933239 96.304486 
L 411.523309 95.261394 
L 412.113378 95.358884 
L 412.703448 94.931139 
L 413.293518 94.715466 
L 413.883587 94.770493 
L 414.473657 93.547536 
L 415.063726 93.513507 
L 415.653796 93.032017 
L 416.243866 92.953501 
L 416.833935 92.67738 
L 417.424005 92.175123 
L 419.194214 91.554514 
L 419.784283 90.345577 
L 420.374353 91.015702 
L 420.964422 90.379194 
L 421.554492 90.231043 
L 422.734631 89.179471 
L 423.324701 89.304621 
L 423.914771 88.481132 
L 424.50484 88.448973 
L 425.09491 87.677394 
L 425.684979 87.84323 
L 426.275049 87.482536 
L 426.865119 86.900313 
L 428.635327 85.869129 
L 429.225397 85.764817 
L 429.815467 85.065195 
L 430.405536 85.297814 
L 431.585675 84.428494 
L 432.175745 84.17084 
L 432.765815 84.144007 
L 433.355884 83.330193 
L 433.945954 83.421273 
L 434.536023 82.383046 
L 435.126093 82.39485 
L 435.716163 82.011595 
L 436.306232 81.941433 
L 436.896302 81.707821 
L 437.486372 81.295177 
L 438.076441 81.030085 
L 439.25658 80.101725 
L 439.84665 80.066465 
L 440.43672 79.397889 
L 441.026789 79.823874 
L 441.616859 78.95465 
L 442.206928 78.606609 
L 443.387068 78.28962 
L 443.977137 77.453402 
L 444.567207 77.573284 
L 445.157276 77.139429 
L 445.747346 76.395131 
L 446.927485 76.13488 
L 447.517555 75.686146 
L 448.697694 75.167773 
L 449.287764 74.361162 
L 449.877833 74.211235 
L 450.467903 73.663704 
L 451.057973 73.53753 
L 451.648042 73.934181 
L 452.238112 73.096635 
L 452.828181 73.099862 
L 453.418251 72.375744 
L 454.00832 72.422324 
L 454.59839 72.251159 
L 455.18846 71.4703 
L 455.778529 71.176123 
L 456.368599 71.268064 
L 456.958669 70.982294 
L 458.728877 69.530875 
L 459.909016 68.79352 
L 460.499086 68.947864 
L 461.089156 68.572139 
L 462.859365 68.469025 
L 463.449434 68.892616 
L 464.039504 68.918635 
L 464.629573 68.365915 
L 465.809713 68.524338 
L 466.399782 68.585008 
L 466.989852 68.116266 
L 467.579921 68.445622 
L 468.760061 68.415974 
L 469.35013 68.477541 
L 469.9402 68.42057 
L 471.120339 67.84936 
L 471.710409 67.326785 
L 472.300478 67.423944 
L 472.890548 66.447867 
L 474.070687 66.067246 
L 474.660757 65.84854 
L 475.250826 65.193319 
L 475.840896 64.79375 
L 476.430966 64.8473 
L 477.611105 64.521104 
L 478.791244 63.504797 
L 480.561453 62.793387 
L 481.151523 61.925074 
L 481.741592 61.809496 
L 482.331662 61.395804 
L 483.511801 60.976312 
L 485.28201 60.093247 
L 485.872079 59.497673 
L 486.462149 59.266416 
L 487.052219 58.794236 
L 487.642288 59.085812 
L 488.232358 57.83689 
L 488.822427 58.193346 
L 489.412497 57.282286 
L 490.002567 57.151175 
L 490.592636 56.731888 
L 491.182706 56.635933 
L 491.772775 56.359905 
L 492.362845 55.836782 
L 492.952915 55.588948 
L 493.542984 55.500483 
L 494.723123 54.52527 
L 495.903263 54.317226 
L 496.493332 53.520474 
L 497.083402 53.532607 
L 497.673471 52.607191 
L 498.263541 52.593528 
L 498.853611 51.888376 
L 499.44368 51.950371 
L 500.03375 51.765851 
L 500.623819 51.368282 
L 501.213889 50.754057 
L 502.984098 50.161653 
L 504.164237 49.27289 
L 504.754307 48.430208 
L 505.344376 48.341799 
L 505.934446 47.995788 
L 506.524516 48.05445 
L 507.114585 47.188397 
L 507.704655 46.859825 
L 508.294724 47.004325 
L 508.884794 46.637712 
L 509.474864 46.555866 
L 510.655003 45.511048 
L 511.245072 45.041849 
L 511.835142 45.087488 
L 512.425212 44.834601 
L 513.015281 44.833318 
L 514.195421 43.375576 
L 514.78549 43.670184 
L 515.37556 43.113765 
L 515.965629 42.840077 
L 516.555699 42.290755 
L 517.145768 42.195446 
L 517.735838 41.400414 
L 518.325908 41.622154 
L 518.915977 40.686351 
L 519.506047 40.802709 
L 521.276256 39.643476 
L 521.866325 39.786771 
L 522.456395 38.822472 
L 523.046465 38.499703 
L 523.636534 38.466596 
L 524.816673 38.05693 
L 525.406743 37.288723 
L 525.996813 37.357913 
L 526.586882 37.186101 
L 527.176952 36.87639 
L 527.767021 36.051771 
L 528.357091 36.003714 
L 528.947161 35.19442 
L 529.53723 34.955139 
L 530.1273 34.417818 
L 530.717369 34.606148 
L 531.307439 34.454114 
L 531.897509 35.266813 
L 532.487578 34.545964 
L 533.077648 34.801609 
L 533.667717 34.3893 
L 534.257787 34.860311 
L 536.027996 34.257632 
L 536.618065 33.38579 
L 537.208135 33.530087 
L 537.798205 33.108205 
L 538.388274 32.858775 
L 539.568414 32.014067 
L 540.158483 31.776002 
L 540.748553 31.757646 
L 541.338622 30.839346 
L 541.928692 30.808024 
L 542.518762 30.604336 
L 543.108831 30.237105 
L 543.698901 30.305814 
L 544.28897 29.152137 
L 544.87904 29.433021 
L 545.46911 28.932292 
L 546.059179 29.0356 
L 546.649249 28.182891 
L 547.239318 28.064004 
L 547.829388 27.335857 
L 548.419458 26.958646 
L 549.009527 26.397306 
L 549.599597 26.261486 
L 550.189666 25.843617 
L 550.779736 25.752 
L 551.369806 25.282198 
L 551.959875 25.11112 
L 553.140015 24.221956 
L 553.140015 24.221956 
" style="fill:none;stroke:#1f77b4;stroke-linecap:square;stroke-width:1.5;"/>
   </g>
   <g id="patch_3">
    <path d="M 50.976377 304.629229 
L 50.976377 10.869229 
" style="fill:none;stroke:#000000;stroke-linecap:square;stroke-linejoin:miter;stroke-width:0.8;"/>
   </g>
   <g id="patch_4">
    <path d="M 553.176377 304.629229 
L 553.176377 10.869229 
" style="fill:none;stroke:#000000;stroke-linecap:square;stroke-linejoin:miter;stroke-width:0.8;"/>
   </g>
   <g id="patch_5">
    <path d="M 50.976377 304.629229 
L 553.176376 304.629229 
" style="fill:none;stroke:#000000;stroke-linecap:square;stroke-linejoin:miter;stroke-width:0.8;"/>
   </g>
   <g id="patch_6">
    <path d="M 50.976377 10.869229 
L 553.176376 10.869229 
" style="fill:none;stroke:#000000;stroke-linecap:square;stroke-linejoin:miter;stroke-width:0.8;"/>
   </g>
   <g id="legend_1">
    <g id="patch_7">
     <path d="M 57.976377 33.547354 
L 106.734189 33.547354 
Q 108.734189 33.547354 108.734189 31.547354 
L 108.734189 17.869229 
Q 108.734189 15.869229 106.734189 15.869229 
L 57.976377 15.869229 
Q 55.976377 15.869229 55.976377 17.869229 
L 55.976377 31.547354 
Q 55.976377 33.547354 57.976377 33.547354 
z
" style="fill:#ffffff;opacity:0.8;stroke:#cccccc;stroke-linejoin:miter;"/>
    </g>
    <g id="line2d_32">
     <path d="M 59.976377 23.967666 
L 79.976377 23.967666 
" style="fill:none;stroke:#1f77b4;stroke-linecap:square;stroke-width:1.5;"/>
    </g>
    <g id="line2d_33"/>
    <g id="text_17">
     <!-- TID -->
     <defs>
      <path d="M 9.8125 72.90625 
L 19.671875 72.90625 
L 19.671875 0 
L 9.8125 0 
z
" id="DejaVuSans-49"/>
      <path d="M 19.671875 64.796875 
L 19.671875 8.109375 
L 31.59375 8.109375 
Q 46.6875 8.109375 53.6875 14.9375 
Q 60.6875 21.78125 60.6875 36.53125 
Q 60.6875 51.171875 53.6875 57.984375 
Q 46.6875 64.796875 31.59375 64.796875 
z
M 9.8125 72.90625 
L 30.078125 72.90625 
Q 51.265625 72.90625 61.171875 64.09375 
Q 71.09375 55.28125 71.09375 36.53125 
Q 71.09375 17.671875 61.125 8.828125 
Q 51.171875 0 30.078125 0 
L 9.8125 0 
z
" id="DejaVuSans-44"/>
     </defs>
     <g transform="translate(87.976377 27.467666)scale(0.1 -0.1)">
      <use xlink:href="#DejaVuSans-54"/>
      <use x="61.083984" xlink:href="#DejaVuSans-49"/>
      <use x="90.576172" xlink:href="#DejaVuSans-44"/>
     </g>
    </g>
   </g>
  </g>
 </g>
 <defs>
  <clipPath id="pdec56e37a9">
   <rect height="293.76" width="502.2" x="50.976377" y="10.869229"/>
  </clipPath>
 </defs>
</svg>
