<?xml version="1.0" encoding="utf-8" standalone="no"?>
<!DOCTYPE svg PUBLIC "-//W3C//DTD SVG 1.1//EN"
  "http://www.w3.org/Graphics/SVG/1.1/DTD/svg11.dtd">
<!-- Created with matplotlib (http://matplotlib.org/) -->
<svg height="363.200096pt" version="1.1" viewBox="0 0 563.876377 363.200096" width="563.876377pt" xmlns="http://www.w3.org/2000/svg" xmlns:xlink="http://www.w3.org/1999/xlink">
 <defs>
  <style type="text/css">
*{stroke-linecap:butt;stroke-linejoin:round;}
  </style>
 </defs>
 <g id="figure_1">
  <g id="patch_1">
   <path d="M -0 363.200096 
L 563.876377 363.200096 
L 563.876377 0 
L -0 0 
z
" style="fill:#ffffff;"/>
  </g>
  <g id="axes_1">
   <g id="patch_2">
    <path d="M 50.976377 304.46 
L 553.176377 304.46 
L 553.176377 10.7 
L 50.976377 10.7 
z
" style="fill:#ffffff;"/>
   </g>
   <g id="matplotlib.axis_1">
    <g id="xtick_1">
     <g id="line2d_1">
      <path clip-path="url(#p45ffa77d4b)" d="M 50.976377 304.46 
L 50.976377 10.7 
" style="fill:none;stroke:#b0b0b0;stroke-linecap:square;stroke-width:0.8;"/>
     </g>
     <g id="line2d_2">
      <defs>
       <path d="M 0 0 
L 0 3.5 
" id="m5e8cb6683d" style="stroke:#000000;stroke-width:0.8;"/>
      </defs>
      <g>
       <use style="stroke:#000000;stroke-width:0.8;" x="50.976377" xlink:href="#m5e8cb6683d" y="304.46"/>
      </g>
     </g>
     <g id="text_1">
      <!-- 05-26 08 -->
      <defs>
       <path d="M 31.78125 66.40625 
Q 24.171875 66.40625 20.328125 58.90625 
Q 16.5 51.421875 16.5 36.375 
Q 16.5 21.390625 20.328125 13.890625 
Q 24.171875 6.390625 31.78125 6.390625 
Q 39.453125 6.390625 43.28125 13.890625 
Q 47.125 21.390625 47.125 36.375 
Q 47.125 51.421875 43.28125 58.90625 
Q 39.453125 66.40625 31.78125 66.40625 
z
M 31.78125 74.21875 
Q 44.046875 74.21875 50.515625 64.515625 
Q 56.984375 54.828125 56.984375 36.375 
Q 56.984375 17.96875 50.515625 8.265625 
Q 44.046875 -1.421875 31.78125 -1.421875 
Q 19.53125 -1.421875 13.0625 8.265625 
Q 6.59375 17.96875 6.59375 36.375 
Q 6.59375 54.828125 13.0625 64.515625 
Q 19.53125 74.21875 31.78125 74.21875 
z
" id="DejaVuSans-30"/>
       <path d="M 10.796875 72.90625 
L 49.515625 72.90625 
L 49.515625 64.59375 
L 19.828125 64.59375 
L 19.828125 46.734375 
Q 21.96875 47.46875 24.109375 47.828125 
Q 26.265625 48.1875 28.421875 48.1875 
Q 40.625 48.1875 47.75 41.5 
Q 54.890625 34.8125 54.890625 23.390625 
Q 54.890625 11.625 47.5625 5.09375 
Q 40.234375 -1.421875 26.90625 -1.421875 
Q 22.3125 -1.421875 17.546875 -0.640625 
Q 12.796875 0.140625 7.71875 1.703125 
L 7.71875 11.625 
Q 12.109375 9.234375 16.796875 8.0625 
Q 21.484375 6.890625 26.703125 6.890625 
Q 35.15625 6.890625 40.078125 11.328125 
Q 45.015625 15.765625 45.015625 23.390625 
Q 45.015625 31 40.078125 35.4375 
Q 35.15625 39.890625 26.703125 39.890625 
Q 22.75 39.890625 18.8125 39.015625 
Q 14.890625 38.140625 10.796875 36.28125 
z
" id="DejaVuSans-35"/>
       <path d="M 4.890625 31.390625 
L 31.203125 31.390625 
L 31.203125 23.390625 
L 4.890625 23.390625 
z
" id="DejaVuSans-2d"/>
       <path d="M 19.1875 8.296875 
L 53.609375 8.296875 
L 53.609375 0 
L 7.328125 0 
L 7.328125 8.296875 
Q 12.9375 14.109375 22.625 23.890625 
Q 32.328125 33.6875 34.8125 36.53125 
Q 39.546875 41.84375 41.421875 45.53125 
Q 43.3125 49.21875 43.3125 52.78125 
Q 43.3125 58.59375 39.234375 62.25 
Q 35.15625 65.921875 28.609375 65.921875 
Q 23.96875 65.921875 18.8125 64.3125 
Q 13.671875 62.703125 7.8125 59.421875 
L 7.8125 69.390625 
Q 13.765625 71.78125 18.9375 73 
Q 24.125 74.21875 28.421875 74.21875 
Q 39.75 74.21875 46.484375 68.546875 
Q 53.21875 62.890625 53.21875 53.421875 
Q 53.21875 48.921875 51.53125 44.890625 
Q 49.859375 40.875 45.40625 35.40625 
Q 44.1875 33.984375 37.640625 27.21875 
Q 31.109375 20.453125 19.1875 8.296875 
z
" id="DejaVuSans-32"/>
       <path d="M 33.015625 40.375 
Q 26.375 40.375 22.484375 35.828125 
Q 18.609375 31.296875 18.609375 23.390625 
Q 18.609375 15.53125 22.484375 10.953125 
Q 26.375 6.390625 33.015625 6.390625 
Q 39.65625 6.390625 43.53125 10.953125 
Q 47.40625 15.53125 47.40625 23.390625 
Q 47.40625 31.296875 43.53125 35.828125 
Q 39.65625 40.375 33.015625 40.375 
z
M 52.59375 71.296875 
L 52.59375 62.3125 
Q 48.875 64.0625 45.09375 64.984375 
Q 41.3125 65.921875 37.59375 65.921875 
Q 27.828125 65.921875 22.671875 59.328125 
Q 17.53125 52.734375 16.796875 39.40625 
Q 19.671875 43.65625 24.015625 45.921875 
Q 28.375 48.1875 33.59375 48.1875 
Q 44.578125 48.1875 50.953125 41.515625 
Q 57.328125 34.859375 57.328125 23.390625 
Q 57.328125 12.15625 50.6875 5.359375 
Q 44.046875 -1.421875 33.015625 -1.421875 
Q 20.359375 -1.421875 13.671875 8.265625 
Q 6.984375 17.96875 6.984375 36.375 
Q 6.984375 53.65625 15.1875 63.9375 
Q 23.390625 74.21875 37.203125 74.21875 
Q 40.921875 74.21875 44.703125 73.484375 
Q 48.484375 72.75 52.59375 71.296875 
z
" id="DejaVuSans-36"/>
       <path id="DejaVuSans-20"/>
       <path d="M 31.78125 34.625 
Q 24.75 34.625 20.71875 30.859375 
Q 16.703125 27.09375 16.703125 20.515625 
Q 16.703125 13.921875 20.71875 10.15625 
Q 24.75 6.390625 31.78125 6.390625 
Q 38.8125 6.390625 42.859375 10.171875 
Q 46.921875 13.96875 46.921875 20.515625 
Q 46.921875 27.09375 42.890625 30.859375 
Q 38.875 34.625 31.78125 34.625 
z
M 21.921875 38.8125 
Q 15.578125 40.375 12.03125 44.71875 
Q 8.5 49.078125 8.5 55.328125 
Q 8.5 64.0625 14.71875 69.140625 
Q 20.953125 74.21875 31.78125 74.21875 
Q 42.671875 74.21875 48.875 69.140625 
Q 55.078125 64.0625 55.078125 55.328125 
Q 55.078125 49.078125 51.53125 44.71875 
Q 48 40.375 41.703125 38.8125 
Q 48.828125 37.15625 52.796875 32.3125 
Q 56.78125 27.484375 56.78125 20.515625 
Q 56.78125 9.90625 50.3125 4.234375 
Q 43.84375 -1.421875 31.78125 -1.421875 
Q 19.734375 -1.421875 13.25 4.234375 
Q 6.78125 9.90625 6.78125 20.515625 
Q 6.78125 27.484375 10.78125 32.3125 
Q 14.796875 37.15625 21.921875 38.8125 
z
M 18.3125 54.390625 
Q 18.3125 48.734375 21.84375 45.5625 
Q 25.390625 42.390625 31.78125 42.390625 
Q 38.140625 42.390625 41.71875 45.5625 
Q 45.3125 48.734375 45.3125 54.390625 
Q 45.3125 60.0625 41.71875 63.234375 
Q 38.140625 66.40625 31.78125 66.40625 
Q 25.390625 66.40625 21.84375 63.234375 
Q 18.3125 60.0625 18.3125 54.390625 
z
" id="DejaVuSans-38"/>
      </defs>
      <g transform="translate(10.999219 340.520909)rotate(-30)scale(0.1 -0.1)">
       <use xlink:href="#DejaVuSans-30"/>
       <use x="63.623047" xlink:href="#DejaVuSans-35"/>
       <use x="127.246094" xlink:href="#DejaVuSans-2d"/>
       <use x="163.330078" xlink:href="#DejaVuSans-32"/>
       <use x="226.953125" xlink:href="#DejaVuSans-36"/>
       <use x="290.576172" xlink:href="#DejaVuSans-20"/>
       <use x="322.363281" xlink:href="#DejaVuSans-30"/>
       <use x="385.986328" xlink:href="#DejaVuSans-38"/>
      </g>
     </g>
    </g>
    <g id="xtick_2">
     <g id="line2d_3">
      <path clip-path="url(#p45ffa77d4b)" d="M 134.676376 304.46 
L 134.676376 10.7 
" style="fill:none;stroke:#b0b0b0;stroke-linecap:square;stroke-width:0.8;"/>
     </g>
     <g id="line2d_4">
      <g>
       <use style="stroke:#000000;stroke-width:0.8;" x="134.676376" xlink:href="#m5e8cb6683d" y="304.46"/>
      </g>
     </g>
     <g id="text_2">
      <!-- 05-26 10 -->
      <defs>
       <path d="M 12.40625 8.296875 
L 28.515625 8.296875 
L 28.515625 63.921875 
L 10.984375 60.40625 
L 10.984375 69.390625 
L 28.421875 72.90625 
L 38.28125 72.90625 
L 38.28125 8.296875 
L 54.390625 8.296875 
L 54.390625 0 
L 12.40625 0 
z
" id="DejaVuSans-31"/>
      </defs>
      <g transform="translate(94.699219 340.520909)rotate(-30)scale(0.1 -0.1)">
       <use xlink:href="#DejaVuSans-30"/>
       <use x="63.623047" xlink:href="#DejaVuSans-35"/>
       <use x="127.246094" xlink:href="#DejaVuSans-2d"/>
       <use x="163.330078" xlink:href="#DejaVuSans-32"/>
       <use x="226.953125" xlink:href="#DejaVuSans-36"/>
       <use x="290.576172" xlink:href="#DejaVuSans-20"/>
       <use x="322.363281" xlink:href="#DejaVuSans-31"/>
       <use x="385.986328" xlink:href="#DejaVuSans-30"/>
      </g>
     </g>
    </g>
    <g id="xtick_3">
     <g id="line2d_5">
      <path clip-path="url(#p45ffa77d4b)" d="M 218.376377 304.46 
L 218.376377 10.7 
" style="fill:none;stroke:#b0b0b0;stroke-linecap:square;stroke-width:0.8;"/>
     </g>
     <g id="line2d_6">
      <g>
       <use style="stroke:#000000;stroke-width:0.8;" x="218.376377" xlink:href="#m5e8cb6683d" y="304.46"/>
      </g>
     </g>
     <g id="text_3">
      <!-- 05-26 12 -->
      <g transform="translate(178.399219 340.520909)rotate(-30)scale(0.1 -0.1)">
       <use xlink:href="#DejaVuSans-30"/>
       <use x="63.623047" xlink:href="#DejaVuSans-35"/>
       <use x="127.246094" xlink:href="#DejaVuSans-2d"/>
       <use x="163.330078" xlink:href="#DejaVuSans-32"/>
       <use x="226.953125" xlink:href="#DejaVuSans-36"/>
       <use x="290.576172" xlink:href="#DejaVuSans-20"/>
       <use x="322.363281" xlink:href="#DejaVuSans-31"/>
       <use x="385.986328" xlink:href="#DejaVuSans-32"/>
      </g>
     </g>
    </g>
    <g id="xtick_4">
     <g id="line2d_7">
      <path clip-path="url(#p45ffa77d4b)" d="M 302.076377 304.46 
L 302.076377 10.7 
" style="fill:none;stroke:#b0b0b0;stroke-linecap:square;stroke-width:0.8;"/>
     </g>
     <g id="line2d_8">
      <g>
       <use style="stroke:#000000;stroke-width:0.8;" x="302.076377" xlink:href="#m5e8cb6683d" y="304.46"/>
      </g>
     </g>
     <g id="text_4">
      <!-- 05-26 14 -->
      <defs>
       <path d="M 37.796875 64.3125 
L 12.890625 25.390625 
L 37.796875 25.390625 
z
M 35.203125 72.90625 
L 47.609375 72.90625 
L 47.609375 25.390625 
L 58.015625 25.390625 
L 58.015625 17.1875 
L 47.609375 17.1875 
L 47.609375 0 
L 37.796875 0 
L 37.796875 17.1875 
L 4.890625 17.1875 
L 4.890625 26.703125 
z
" id="DejaVuSans-34"/>
      </defs>
      <g transform="translate(262.099219 340.520909)rotate(-30)scale(0.1 -0.1)">
       <use xlink:href="#DejaVuSans-30"/>
       <use x="63.623047" xlink:href="#DejaVuSans-35"/>
       <use x="127.246094" xlink:href="#DejaVuSans-2d"/>
       <use x="163.330078" xlink:href="#DejaVuSans-32"/>
       <use x="226.953125" xlink:href="#DejaVuSans-36"/>
       <use x="290.576172" xlink:href="#DejaVuSans-20"/>
       <use x="322.363281" xlink:href="#DejaVuSans-31"/>
       <use x="385.986328" xlink:href="#DejaVuSans-34"/>
      </g>
     </g>
    </g>
    <g id="xtick_5">
     <g id="line2d_9">
      <path clip-path="url(#p45ffa77d4b)" d="M 385.776376 304.46 
L 385.776376 10.7 
" style="fill:none;stroke:#b0b0b0;stroke-linecap:square;stroke-width:0.8;"/>
     </g>
     <g id="line2d_10">
      <g>
       <use style="stroke:#000000;stroke-width:0.8;" x="385.776376" xlink:href="#m5e8cb6683d" y="304.46"/>
      </g>
     </g>
     <g id="text_5">
      <!-- 05-26 16 -->
      <g transform="translate(345.799219 340.520909)rotate(-30)scale(0.1 -0.1)">
       <use xlink:href="#DejaVuSans-30"/>
       <use x="63.623047" xlink:href="#DejaVuSans-35"/>
       <use x="127.246094" xlink:href="#DejaVuSans-2d"/>
       <use x="163.330078" xlink:href="#DejaVuSans-32"/>
       <use x="226.953125" xlink:href="#DejaVuSans-36"/>
       <use x="290.576172" xlink:href="#DejaVuSans-20"/>
       <use x="322.363281" xlink:href="#DejaVuSans-31"/>
       <use x="385.986328" xlink:href="#DejaVuSans-36"/>
      </g>
     </g>
    </g>
    <g id="xtick_6">
     <g id="line2d_11">
      <path clip-path="url(#p45ffa77d4b)" d="M 469.476377 304.46 
L 469.476377 10.7 
" style="fill:none;stroke:#b0b0b0;stroke-linecap:square;stroke-width:0.8;"/>
     </g>
     <g id="line2d_12">
      <g>
       <use style="stroke:#000000;stroke-width:0.8;" x="469.476377" xlink:href="#m5e8cb6683d" y="304.46"/>
      </g>
     </g>
     <g id="text_6">
      <!-- 05-26 18 -->
      <g transform="translate(429.499219 340.520909)rotate(-30)scale(0.1 -0.1)">
       <use xlink:href="#DejaVuSans-30"/>
       <use x="63.623047" xlink:href="#DejaVuSans-35"/>
       <use x="127.246094" xlink:href="#DejaVuSans-2d"/>
       <use x="163.330078" xlink:href="#DejaVuSans-32"/>
       <use x="226.953125" xlink:href="#DejaVuSans-36"/>
       <use x="290.576172" xlink:href="#DejaVuSans-20"/>
       <use x="322.363281" xlink:href="#DejaVuSans-31"/>
       <use x="385.986328" xlink:href="#DejaVuSans-38"/>
      </g>
     </g>
    </g>
    <g id="xtick_7">
     <g id="line2d_13">
      <path clip-path="url(#p45ffa77d4b)" d="M 553.176377 304.46 
L 553.176377 10.7 
" style="fill:none;stroke:#b0b0b0;stroke-linecap:square;stroke-width:0.8;"/>
     </g>
     <g id="line2d_14">
      <g>
       <use style="stroke:#000000;stroke-width:0.8;" x="553.176377" xlink:href="#m5e8cb6683d" y="304.46"/>
      </g>
     </g>
     <g id="text_7">
      <!-- 05-26 20 -->
      <g transform="translate(513.199219 340.520909)rotate(-30)scale(0.1 -0.1)">
       <use xlink:href="#DejaVuSans-30"/>
       <use x="63.623047" xlink:href="#DejaVuSans-35"/>
       <use x="127.246094" xlink:href="#DejaVuSans-2d"/>
       <use x="163.330078" xlink:href="#DejaVuSans-32"/>
       <use x="226.953125" xlink:href="#DejaVuSans-36"/>
       <use x="290.576172" xlink:href="#DejaVuSans-20"/>
       <use x="322.363281" xlink:href="#DejaVuSans-32"/>
       <use x="385.986328" xlink:href="#DejaVuSans-30"/>
      </g>
     </g>
    </g>
    <g id="text_8">
     <!-- Time -->
     <defs>
      <path d="M -0.296875 72.90625 
L 61.375 72.90625 
L 61.375 64.59375 
L 35.5 64.59375 
L 35.5 0 
L 25.59375 0 
L 25.59375 64.59375 
L -0.296875 64.59375 
z
" id="DejaVuSans-54"/>
      <path d="M 9.421875 54.6875 
L 18.40625 54.6875 
L 18.40625 0 
L 9.421875 0 
z
M 9.421875 75.984375 
L 18.40625 75.984375 
L 18.40625 64.59375 
L 9.421875 64.59375 
z
" id="DejaVuSans-69"/>
      <path d="M 52 44.1875 
Q 55.375 50.25 60.0625 53.125 
Q 64.75 56 71.09375 56 
Q 79.640625 56 84.28125 50.015625 
Q 88.921875 44.046875 88.921875 33.015625 
L 88.921875 0 
L 79.890625 0 
L 79.890625 32.71875 
Q 79.890625 40.578125 77.09375 44.375 
Q 74.3125 48.1875 68.609375 48.1875 
Q 61.625 48.1875 57.5625 43.546875 
Q 53.515625 38.921875 53.515625 30.90625 
L 53.515625 0 
L 44.484375 0 
L 44.484375 32.71875 
Q 44.484375 40.625 41.703125 44.40625 
Q 38.921875 48.1875 33.109375 48.1875 
Q 26.21875 48.1875 22.15625 43.53125 
Q 18.109375 38.875 18.109375 30.90625 
L 18.109375 0 
L 9.078125 0 
L 9.078125 54.6875 
L 18.109375 54.6875 
L 18.109375 46.1875 
Q 21.1875 51.21875 25.484375 53.609375 
Q 29.78125 56 35.6875 56 
Q 41.65625 56 45.828125 52.96875 
Q 50 49.953125 52 44.1875 
z
" id="DejaVuSans-6d"/>
      <path d="M 56.203125 29.59375 
L 56.203125 25.203125 
L 14.890625 25.203125 
Q 15.484375 15.921875 20.484375 11.0625 
Q 25.484375 6.203125 34.421875 6.203125 
Q 39.59375 6.203125 44.453125 7.46875 
Q 49.3125 8.734375 54.109375 11.28125 
L 54.109375 2.78125 
Q 49.265625 0.734375 44.1875 -0.34375 
Q 39.109375 -1.421875 33.890625 -1.421875 
Q 20.796875 -1.421875 13.15625 6.1875 
Q 5.515625 13.8125 5.515625 26.8125 
Q 5.515625 40.234375 12.765625 48.109375 
Q 20.015625 56 32.328125 56 
Q 43.359375 56 49.78125 48.890625 
Q 56.203125 41.796875 56.203125 29.59375 
z
M 47.21875 32.234375 
Q 47.125 39.59375 43.09375 43.984375 
Q 39.0625 48.390625 32.421875 48.390625 
Q 24.90625 48.390625 20.390625 44.140625 
Q 15.875 39.890625 15.1875 32.171875 
z
" id="DejaVuSans-65"/>
     </defs>
     <g transform="translate(289.688877 353.920408)scale(0.1 -0.1)">
      <use xlink:href="#DejaVuSans-54"/>
      <use x="61.037109" xlink:href="#DejaVuSans-69"/>
      <use x="88.820312" xlink:href="#DejaVuSans-6d"/>
      <use x="186.232422" xlink:href="#DejaVuSans-65"/>
     </g>
    </g>
   </g>
   <g id="matplotlib.axis_2">
    <g id="ytick_1">
     <g id="line2d_15">
      <path clip-path="url(#p45ffa77d4b)" d="M 50.976377 272.130269 
L 553.176377 272.130269 
" style="fill:none;stroke:#b0b0b0;stroke-linecap:square;stroke-width:0.8;"/>
     </g>
     <g id="line2d_16">
      <defs>
       <path d="M 0 0 
L -3.5 0 
" id="maae8b56cfa" style="stroke:#000000;stroke-width:0.8;"/>
      </defs>
      <g>
       <use style="stroke:#000000;stroke-width:0.8;" x="50.976377" xlink:href="#maae8b56cfa" y="272.130269"/>
      </g>
     </g>
     <g id="text_9">
      <!-- 22 -->
      <g transform="translate(31.251377 275.929488)scale(0.1 -0.1)">
       <use xlink:href="#DejaVuSans-32"/>
       <use x="63.623047" xlink:href="#DejaVuSans-32"/>
      </g>
     </g>
    </g>
    <g id="ytick_2">
     <g id="line2d_17">
      <path clip-path="url(#p45ffa77d4b)" d="M 50.976377 230.722588 
L 553.176377 230.722588 
" style="fill:none;stroke:#b0b0b0;stroke-linecap:square;stroke-width:0.8;"/>
     </g>
     <g id="line2d_18">
      <g>
       <use style="stroke:#000000;stroke-width:0.8;" x="50.976377" xlink:href="#maae8b56cfa" y="230.722588"/>
      </g>
     </g>
     <g id="text_10">
      <!-- 24 -->
      <g transform="translate(31.251377 234.521806)scale(0.1 -0.1)">
       <use xlink:href="#DejaVuSans-32"/>
       <use x="63.623047" xlink:href="#DejaVuSans-34"/>
      </g>
     </g>
    </g>
    <g id="ytick_3">
     <g id="line2d_19">
      <path clip-path="url(#p45ffa77d4b)" d="M 50.976377 189.314907 
L 553.176377 189.314907 
" style="fill:none;stroke:#b0b0b0;stroke-linecap:square;stroke-width:0.8;"/>
     </g>
     <g id="line2d_20">
      <g>
       <use style="stroke:#000000;stroke-width:0.8;" x="50.976377" xlink:href="#maae8b56cfa" y="189.314907"/>
      </g>
     </g>
     <g id="text_11">
      <!-- 26 -->
      <g transform="translate(31.251377 193.114125)scale(0.1 -0.1)">
       <use xlink:href="#DejaVuSans-32"/>
       <use x="63.623047" xlink:href="#DejaVuSans-36"/>
      </g>
     </g>
    </g>
    <g id="ytick_4">
     <g id="line2d_21">
      <path clip-path="url(#p45ffa77d4b)" d="M 50.976377 147.907226 
L 553.176377 147.907226 
" style="fill:none;stroke:#b0b0b0;stroke-linecap:square;stroke-width:0.8;"/>
     </g>
     <g id="line2d_22">
      <g>
       <use style="stroke:#000000;stroke-width:0.8;" x="50.976377" xlink:href="#maae8b56cfa" y="147.907226"/>
      </g>
     </g>
     <g id="text_12">
      <!-- 28 -->
      <g transform="translate(31.251377 151.706444)scale(0.1 -0.1)">
       <use xlink:href="#DejaVuSans-32"/>
       <use x="63.623047" xlink:href="#DejaVuSans-38"/>
      </g>
     </g>
    </g>
    <g id="ytick_5">
     <g id="line2d_23">
      <path clip-path="url(#p45ffa77d4b)" d="M 50.976377 106.499545 
L 553.176377 106.499545 
" style="fill:none;stroke:#b0b0b0;stroke-linecap:square;stroke-width:0.8;"/>
     </g>
     <g id="line2d_24">
      <g>
       <use style="stroke:#000000;stroke-width:0.8;" x="50.976377" xlink:href="#maae8b56cfa" y="106.499545"/>
      </g>
     </g>
     <g id="text_13">
      <!-- 30 -->
      <defs>
       <path d="M 40.578125 39.3125 
Q 47.65625 37.796875 51.625 33 
Q 55.609375 28.21875 55.609375 21.1875 
Q 55.609375 10.40625 48.1875 4.484375 
Q 40.765625 -1.421875 27.09375 -1.421875 
Q 22.515625 -1.421875 17.65625 -0.515625 
Q 12.796875 0.390625 7.625 2.203125 
L 7.625 11.71875 
Q 11.71875 9.328125 16.59375 8.109375 
Q 21.484375 6.890625 26.8125 6.890625 
Q 36.078125 6.890625 40.9375 10.546875 
Q 45.796875 14.203125 45.796875 21.1875 
Q 45.796875 27.640625 41.28125 31.265625 
Q 36.765625 34.90625 28.71875 34.90625 
L 20.21875 34.90625 
L 20.21875 43.015625 
L 29.109375 43.015625 
Q 36.375 43.015625 40.234375 45.921875 
Q 44.09375 48.828125 44.09375 54.296875 
Q 44.09375 59.90625 40.109375 62.90625 
Q 36.140625 65.921875 28.71875 65.921875 
Q 24.65625 65.921875 20.015625 65.03125 
Q 15.375 64.15625 9.8125 62.3125 
L 9.8125 71.09375 
Q 15.4375 72.65625 20.34375 73.4375 
Q 25.25 74.21875 29.59375 74.21875 
Q 40.828125 74.21875 47.359375 69.109375 
Q 53.90625 64.015625 53.90625 55.328125 
Q 53.90625 49.265625 50.4375 45.09375 
Q 46.96875 40.921875 40.578125 39.3125 
z
" id="DejaVuSans-33"/>
      </defs>
      <g transform="translate(31.251377 110.298763)scale(0.1 -0.1)">
       <use xlink:href="#DejaVuSans-33"/>
       <use x="63.623047" xlink:href="#DejaVuSans-30"/>
      </g>
     </g>
    </g>
    <g id="ytick_6">
     <g id="line2d_25">
      <path clip-path="url(#p45ffa77d4b)" d="M 50.976377 65.091864 
L 553.176377 65.091864 
" style="fill:none;stroke:#b0b0b0;stroke-linecap:square;stroke-width:0.8;"/>
     </g>
     <g id="line2d_26">
      <g>
       <use style="stroke:#000000;stroke-width:0.8;" x="50.976377" xlink:href="#maae8b56cfa" y="65.091864"/>
      </g>
     </g>
     <g id="text_14">
      <!-- 32 -->
      <g transform="translate(31.251377 68.891082)scale(0.1 -0.1)">
       <use xlink:href="#DejaVuSans-33"/>
       <use x="63.623047" xlink:href="#DejaVuSans-32"/>
      </g>
     </g>
    </g>
    <g id="ytick_7">
     <g id="line2d_27">
      <path clip-path="url(#p45ffa77d4b)" d="M 50.976377 23.684182 
L 553.176377 23.684182 
" style="fill:none;stroke:#b0b0b0;stroke-linecap:square;stroke-width:0.8;"/>
     </g>
     <g id="line2d_28">
      <g>
       <use style="stroke:#000000;stroke-width:0.8;" x="50.976377" xlink:href="#maae8b56cfa" y="23.684182"/>
      </g>
     </g>
     <g id="text_15">
      <!-- 34 -->
      <g transform="translate(31.251377 27.483401)scale(0.1 -0.1)">
       <use xlink:href="#DejaVuSans-33"/>
       <use x="63.623047" xlink:href="#DejaVuSans-34"/>
      </g>
     </g>
    </g>
   </g>
   <g id="line2d_29">
    <path clip-path="url(#p45ffa77d4b)" d="M 51.193837 291.017176 
L 51.783907 291.107273 
L 52.373976 290.346602 
L 52.964046 290.297384 
L 53.554115 289.430703 
L 54.144185 289.376017 
L 54.734255 289.149825 
L 55.324324 288.679992 
L 55.914394 288.491555 
L 58.274672 287.018748 
L 58.864742 286.624561 
L 59.454811 286.668789 
L 60.634951 285.652267 
L 61.22502 285.458223 
L 61.81509 285.418821 
L 62.405159 284.346669 
L 62.995229 284.49138 
L 63.585299 284.886956 
L 64.175368 283.615073 
L 65.355507 283.678052 
L 67.715786 281.982541 
L 68.305856 281.837217 
L 68.895925 281.411423 
L 69.485995 281.403632 
L 70.076064 280.810205 
L 70.666134 281.066215 
L 71.256204 280.138693 
L 71.846273 280.25888 
L 73.026412 279.613683 
L 73.616482 279.526405 
L 74.206552 279.12395 
L 74.796621 278.493207 
L 75.386691 277.63172 
L 75.97676 278.082943 
L 76.56683 277.313774 
L 77.1569 276.852458 
L 77.746969 277.04532 
L 78.337039 276.668169 
L 78.927109 275.788108 
L 79.517178 276.146404 
L 80.107248 275.580887 
L 80.697317 275.666155 
L 81.287387 274.664443 
L 81.877456 275.705808 
L 82.467526 274.417205 
L 83.057596 274.426605 
L 83.647665 273.447439 
L 84.237735 273.624501 
L 84.827805 273.019693 
L 85.417874 272.783841 
L 86.007944 272.41662 
L 86.598013 272.563056 
L 88.958292 270.969141 
L 89.548361 270.925601 
L 90.138431 270.637003 
L 90.728501 269.719147 
L 91.31857 270.237956 
L 91.90864 270.022571 
L 92.498709 269.144546 
L 93.088779 268.939915 
L 94.268918 268.251123 
L 94.858988 268.342594 
L 95.449057 267.256661 
L 96.039127 267.451298 
L 96.629197 266.903424 
L 97.219266 266.914128 
L 98.399405 266.235221 
L 98.989475 266.056783 
L 99.579545 266.051986 
L 100.169614 265.360009 
L 100.759684 265.412546 
L 101.349753 264.790535 
L 103.119962 264.176844 
L 103.710032 263.257351 
L 104.300102 263.174353 
L 104.890171 262.684808 
L 105.480241 262.864969 
L 106.07031 262.499399 
L 106.66038 262.499548 
L 107.25045 261.648947 
L 107.840519 261.498323 
L 108.430589 261.521507 
L 109.020658 260.910089 
L 109.610728 260.753206 
L 110.200798 261.105068 
L 110.790867 259.988027 
L 111.380937 260.139587 
L 113.151146 258.666618 
L 113.741215 258.586493 
L 114.331285 257.947666 
L 114.921354 257.585703 
L 115.511424 257.912715 
L 116.101494 257.107969 
L 116.691563 257.088121 
L 117.281633 256.718307 
L 117.871703 256.583837 
L 118.461772 256.06375 
L 119.051842 255.73918 
L 120.231981 255.458635 
L 120.82205 255.010389 
L 121.41212 254.345462 
L 122.00219 254.568195 
L 122.592259 253.943141 
L 123.182329 254.028908 
L 123.772399 253.534799 
L 124.362468 252.877797 
L 124.952538 252.846689 
L 125.542607 252.698734 
L 126.722747 251.245519 
L 127.312816 251.364306 
L 127.902886 251.112645 
L 128.492956 250.296911 
L 129.083025 250.505255 
L 129.673095 250.160833 
L 130.263164 249.968892 
L 130.853234 249.321411 
L 131.443303 248.87631 
L 132.033373 249.031174 
L 132.623443 248.433692 
L 133.213512 248.206313 
L 133.803582 248.108989 
L 134.393652 247.562851 
L 134.983721 247.8862 
L 135.573791 247.142589 
L 136.16386 246.870649 
L 136.75393 246.09294 
L 137.344 246.445732 
L 137.934069 245.539739 
L 138.524139 245.417491 
L 139.114208 245.151566 
L 139.704278 245.049073 
L 140.294348 244.771129 
L 140.884417 243.957558 
L 141.474487 243.941842 
L 142.064556 243.33983 
L 142.654626 243.338797 
L 143.244696 242.774041 
L 143.834765 242.851289 
L 144.424835 242.241622 
L 145.014904 241.796745 
L 145.604974 241.179767 
L 146.195044 241.404745 
L 146.785113 240.703882 
L 147.375183 240.273432 
L 148.555322 240.057645 
L 149.145392 239.460526 
L 149.735461 239.595861 
L 150.325531 238.766633 
L 150.915601 238.846467 
L 151.50567 238.356196 
L 152.09574 238.029127 
L 153.275879 237.166417 
L 153.865949 237.436764 
L 154.456018 236.350066 
L 155.046088 236.396914 
L 155.636157 236.132912 
L 156.226227 235.66135 
L 156.816297 234.973527 
L 157.996436 235.158375 
L 158.586505 234.141422 
L 159.176575 234.252926 
L 159.766645 233.961048 
L 160.356714 233.325177 
L 160.946784 233.776892 
L 161.536853 232.883929 
L 162.126923 232.369266 
L 162.716993 232.047106 
L 163.307062 231.957697 
L 163.897132 231.480945 
L 164.487201 231.450464 
L 165.077271 230.620493 
L 165.667341 230.395478 
L 166.25741 230.434485 
L 166.84748 230.248146 
L 167.43755 229.840679 
L 168.617689 228.69335 
L 169.207758 228.725493 
L 170.977967 227.390583 
L 171.568037 227.626235 
L 172.158106 227.089682 
L 172.748176 225.978301 
L 173.338246 226.26926 
L 175.108454 225.252836 
L 175.698524 225.2144 
L 176.288594 224.449094 
L 176.878663 224.250712 
L 177.468733 224.253373 
L 178.058802 223.958606 
L 179.238942 223.104017 
L 179.829011 222.878571 
L 180.419081 222.125103 
L 181.59922 222.086207 
L 182.18929 221.175771 
L 182.779359 221.148816 
L 183.369429 220.998666 
L 183.959499 220.364507 
L 184.549568 220.013063 
L 185.139638 220.232298 
L 185.729707 219.23256 
L 186.319777 219.124294 
L 187.499916 218.094576 
L 188.089986 217.637009 
L 188.680055 217.552229 
L 189.270125 217.253044 
L 189.860195 217.087997 
L 190.450264 216.584981 
L 191.040334 216.862515 
L 191.630403 215.50924 
L 192.810543 215.423219 
L 193.400612 214.841107 
L 193.990682 214.625296 
L 194.580751 214.055939 
L 195.170821 214.022233 
L 195.760891 213.844251 
L 196.94103 213.15258 
L 197.531099 213.051734 
L 198.121169 212.15943 
L 198.711239 212.03335 
L 199.301308 212.220247 
L 199.891378 211.3637 
L 200.481448 210.754207 
L 201.071517 210.787465 
L 202.841726 209.509997 
L 203.431795 209.815578 
L 204.021865 209.005249 
L 204.611935 208.973249 
L 205.202004 208.37339 
L 205.792074 208.175172 
L 206.382144 207.519512 
L 206.972213 207.582284 
L 207.562283 207.313745 
L 208.742422 206.296733 
L 209.332492 206.593538 
L 209.922561 205.438027 
L 210.512631 205.610649 
L 211.1027 204.872493 
L 211.69277 204.90192 
L 212.28284 203.875996 
L 212.872909 203.967139 
L 214.053048 203.399074 
L 214.643118 202.736456 
L 215.233188 202.675281 
L 216.413327 202.062561 
L 217.003397 201.227118 
L 217.593466 201.551663 
L 218.183536 201.114475 
L 218.773605 200.956591 
L 219.953745 199.870317 
L 220.543814 200.027526 
L 221.133884 199.678248 
L 221.723953 198.599564 
L 222.314023 198.918185 
L 222.904093 198.381926 
L 223.494162 198.284681 
L 225.264371 196.754599 
L 227.03458 195.590742 
L 227.624649 196.01907 
L 228.214719 195.213766 
L 228.804789 194.813424 
L 229.394858 194.712117 
L 229.984928 194.02559 
L 230.574997 194.186829 
L 232.345206 193.060767 
L 232.935276 192.884142 
L 233.525345 192.152607 
L 234.115415 192.178984 
L 234.705485 191.696606 
L 235.295554 191.407626 
L 235.885624 190.987095 
L 236.475693 191.079784 
L 237.655833 189.958603 
L 238.245902 190.037605 
L 238.835972 189.535802 
L 239.426042 188.740173 
L 240.016111 188.863073 
L 240.606181 188.351288 
L 241.19625 188.640231 
L 241.78632 188.255378 
L 242.37639 187.659532 
L 242.966459 187.463772 
L 243.556529 187.098821 
L 244.736668 186.058449 
L 245.326738 186.21965 
L 245.916807 185.64121 
L 246.506877 185.270245 
L 248.277086 184.900059 
L 248.867155 184.284563 
L 249.457225 184.233231 
L 250.047294 183.941541 
L 250.637364 183.449573 
L 251.227434 183.338042 
L 251.817503 182.646679 
L 252.407573 182.546318 
L 252.997643 182.305933 
L 253.587712 181.825912 
L 254.177782 181.78529 
L 255.357921 181.003043 
L 255.947991 181.093894 
L 256.53806 180.259784 
L 257.12813 180.150699 
L 257.718199 180.168815 
L 258.308269 179.736104 
L 258.898339 178.878818 
L 260.078478 178.505422 
L 260.668547 177.735341 
L 261.258617 177.745173 
L 261.848687 177.879949 
L 262.438756 177.427889 
L 263.028826 177.229593 
L 263.618896 176.221749 
L 264.208965 176.502177 
L 264.799035 176.495896 
L 265.979174 175.504275 
L 266.569243 175.28953 
L 267.749383 174.332545 
L 268.339452 173.957026 
L 268.929522 174.271505 
L 270.109661 172.952618 
L 270.699731 173.196904 
L 271.2898 172.699964 
L 271.87987 172.461593 
L 272.46994 172.711492 
L 273.650079 171.480067 
L 274.240148 171.124367 
L 274.830218 170.600691 
L 275.420288 171.306782 
L 276.600427 169.845262 
L 277.190496 169.715388 
L 278.960705 168.754877 
L 280.140844 167.708616 
L 280.730914 168.062017 
L 281.320984 167.505946 
L 281.911053 167.484804 
L 282.501123 166.50526 
L 283.091192 166.299607 
L 283.681262 166.289874 
L 284.271332 166.003646 
L 285.451471 164.948998 
L 286.63161 164.830213 
L 288.401819 163.273581 
L 290.172028 162.875846 
L 290.762097 162.364013 
L 291.352167 162.098251 
L 291.942237 161.506866 
L 292.532306 161.4667 
L 293.122376 161.293539 
L 293.712445 160.965445 
L 294.302515 160.361352 
L 294.892585 160.083925 
L 295.482654 159.57306 
L 296.072724 159.483789 
L 296.662794 159.524495 
L 297.252863 158.72998 
L 297.842933 158.478343 
L 298.433002 157.821985 
L 299.023072 157.668051 
L 299.613141 157.373619 
L 300.203211 157.364568 
L 300.793281 156.562144 
L 301.38335 156.32602 
L 301.97342 155.950043 
L 302.56349 155.835823 
L 303.153559 154.907519 
L 303.743629 155.311411 
L 304.333698 155.167292 
L 304.923768 154.52299 
L 305.513838 154.638328 
L 306.103907 154.192966 
L 306.693977 154.310342 
L 307.284046 153.559612 
L 307.874116 153.447092 
L 308.464186 153.002503 
L 309.054255 153.056242 
L 310.234394 151.693663 
L 310.824464 151.251282 
L 311.414534 151.190223 
L 312.594673 149.866214 
L 313.184742 150.058267 
L 314.364882 149.762689 
L 314.954951 149.460296 
L 315.545021 148.266578 
L 316.13509 148.336989 
L 316.72516 147.872544 
L 317.31523 148.319955 
L 317.905299 147.426008 
L 318.495369 146.802891 
L 319.085438 146.491143 
L 319.675508 146.428104 
L 320.265578 146.225303 
L 320.855647 145.663829 
L 321.445717 145.312691 
L 322.035787 145.21076 
L 322.625856 145.494683 
L 323.805995 143.870598 
L 325.576204 143.293126 
L 326.756343 142.628418 
L 327.346413 142.355976 
L 327.936483 141.593973 
L 329.706692 140.912316 
L 330.296761 140.360788 
L 330.886831 140.269304 
L 331.4769 139.703598 
L 332.06697 139.627366 
L 333.837179 138.08547 
L 334.427248 138.152499 
L 335.017318 137.863412 
L 335.607388 137.171305 
L 336.787527 136.76607 
L 337.377596 136.723579 
L 338.557736 135.180987 
L 339.147805 135.582463 
L 340.327944 134.373651 
L 340.918014 134.252721 
L 341.508084 133.95688 
L 342.098153 133.843084 
L 343.278292 133.124545 
L 343.868362 132.532667 
L 344.458432 132.526034 
L 345.638571 131.95157 
L 346.81871 130.609281 
L 347.40878 130.813605 
L 348.588919 129.728423 
L 349.769058 129.540634 
L 350.359128 129.252576 
L 350.949197 128.356633 
L 351.539267 128.105508 
L 352.129336 128.014794 
L 352.719406 127.657744 
L 353.309476 126.354001 
L 353.899545 126.725011 
L 355.079684 126.556892 
L 355.669754 125.575493 
L 356.259824 125.665435 
L 356.849893 125.404836 
L 357.439963 125.676643 
L 358.620102 123.677651 
L 359.210172 124.500253 
L 359.800241 123.696109 
L 360.980381 122.898085 
L 361.57045 122.723283 
L 362.750589 121.754887 
L 363.340659 121.564988 
L 363.930729 121.695213 
L 364.520798 120.975244 
L 365.110868 121.222763 
L 366.881077 119.54244 
L 367.471146 119.043862 
L 368.061216 119.125521 
L 368.651286 119.062362 
L 369.241355 118.526126 
L 369.831425 118.535866 
L 370.421494 117.933727 
L 371.011564 117.106297 
L 371.601633 116.968449 
L 372.191703 116.44236 
L 372.781773 116.24906 
L 373.371842 115.754413 
L 373.961912 115.899699 
L 374.551982 115.739448 
L 375.142051 115.187028 
L 375.732121 114.464528 
L 376.32219 114.230347 
L 376.91226 114.295922 
L 377.50233 113.832915 
L 378.092399 113.636851 
L 378.682469 113.023903 
L 379.272538 112.835971 
L 379.862608 112.174971 
L 380.452678 112.107436 
L 381.042747 112.278117 
L 381.632817 111.53758 
L 382.812956 111.238749 
L 383.403026 110.603435 
L 383.993095 110.557287 
L 384.583165 109.654265 
L 385.173234 109.182972 
L 385.763304 109.361018 
L 386.353374 108.852221 
L 386.943443 109.991709 
L 387.533513 108.110053 
L 388.713652 108.006545 
L 389.303722 107.413598 
L 390.483861 107.222103 
L 391.073931 106.185818 
L 391.664 106.024177 
L 392.25407 105.406206 
L 392.844139 105.289119 
L 393.434209 105.295577 
L 394.024279 104.702088 
L 395.204418 104.658916 
L 395.794487 104.010539 
L 396.384557 103.806107 
L 396.974627 103.197805 
L 397.564696 103.152398 
L 398.154766 102.224807 
L 398.744835 101.767902 
L 399.334905 102.405824 
L 399.924975 101.470695 
L 400.515044 101.083042 
L 401.105114 101.600508 
L 401.695184 101.572583 
L 402.285253 101.38255 
L 402.875323 100.699159 
L 404.645532 102.073243 
L 405.235601 101.630083 
L 405.825671 100.943426 
L 406.41574 100.725869 
L 408.185949 99.538964 
L 408.776019 99.756956 
L 409.366088 99.116233 
L 409.956158 98.647059 
L 410.546228 98.761449 
L 411.136297 98.462039 
L 411.726367 97.677025 
L 412.316436 97.231369 
L 412.906506 97.357241 
L 413.496576 96.995302 
L 414.086645 96.808918 
L 414.676715 95.766601 
L 415.266784 95.963787 
L 415.856854 95.479502 
L 416.446924 95.326041 
L 417.036993 94.926557 
L 417.627063 94.871319 
L 418.807202 93.85459 
L 419.397272 94.04421 
L 419.987341 93.128055 
L 420.577411 93.15243 
L 421.16748 92.38575 
L 421.75755 92.397013 
L 422.34762 92.017484 
L 422.937689 91.84443 
L 423.527759 91.818676 
L 424.117829 90.913294 
L 424.707898 90.609086 
L 425.297968 90.636821 
L 425.888037 90.348572 
L 426.478107 89.856626 
L 427.068177 89.611732 
L 427.658246 89.172424 
L 428.248316 88.458059 
L 428.838385 88.121895 
L 429.428455 88.036936 
L 430.018525 87.572463 
L 430.608594 86.737964 
L 431.198664 87.021855 
L 431.788733 86.335183 
L 432.378803 86.087085 
L 432.968873 86.119128 
L 433.558942 85.856495 
L 434.149012 85.134562 
L 434.739082 85.223417 
L 435.329151 84.600274 
L 435.919221 84.302909 
L 436.50929 83.619236 
L 437.09936 83.922232 
L 437.68943 83.414588 
L 438.279499 83.299843 
L 438.869569 82.455258 
L 439.459638 82.440383 
L 441.229847 80.913514 
L 442.409986 80.920933 
L 443.590126 79.728801 
L 444.180195 79.619977 
L 444.770265 79.353607 
L 445.360334 78.940227 
L 445.950404 78.772863 
L 446.540474 78.385087 
L 447.130543 79.598961 
L 447.720613 77.788758 
L 448.310682 77.87549 
L 448.900752 77.232704 
L 450.080891 76.715401 
L 450.670961 76.165452 
L 451.26103 76.314811 
L 451.8511 75.645763 
L 452.44117 75.533462 
L 454.801448 74.50588 
L 455.981587 73.99408 
L 456.571657 73.174938 
L 457.161727 73.180293 
L 457.751796 72.724976 
L 458.341866 72.747441 
L 458.931935 72.251996 
L 459.522005 72.086346 
L 460.112074 71.444975 
L 460.702144 71.427229 
L 462.472353 70.488485 
L 463.062423 69.9941 
L 463.652492 70.246668 
L 464.242562 69.262778 
L 464.832631 69.124822 
L 465.422701 68.802371 
L 466.012771 68.685123 
L 466.60284 68.285854 
L 467.19291 68.368887 
L 467.782979 67.77184 
L 468.373049 67.401803 
L 469.553188 66.82803 
L 470.143258 66.116602 
L 470.733328 65.998239 
L 471.323397 65.681489 
L 471.913467 65.582278 
L 473.093606 64.877954 
L 473.683676 64.809926 
L 474.273745 64.302055 
L 474.863815 64.180952 
L 475.453884 63.737407 
L 476.634024 63.24867 
L 477.224093 63.337922 
L 477.814163 63.00419 
L 479.584372 61.653985 
L 480.174441 61.586884 
L 481.35458 60.978841 
L 481.94465 60.123265 
L 482.53472 61.159513 
L 483.124789 59.925405 
L 483.714859 59.925454 
L 484.304928 59.060835 
L 484.894998 58.505941 
L 485.485068 59.135253 
L 486.075137 58.321266 
L 486.665207 58.061821 
L 487.255276 58.818608 
L 488.435416 56.604986 
L 489.025485 56.268581 
L 489.615555 56.504918 
L 490.205625 56.259059 
L 490.795694 55.746683 
L 491.385764 54.904861 
L 494.926181 53.422389 
L 495.516251 52.933225 
L 496.106321 52.904417 
L 496.69639 52.146051 
L 497.876529 51.659469 
L 499.646738 50.806583 
L 500.236808 50.684238 
L 501.416947 49.830163 
L 502.007017 49.50441 
L 502.597086 49.559458 
L 503.187156 49.08819 
L 503.777225 48.346253 
L 504.957365 47.977488 
L 505.547434 47.055062 
L 506.137504 47.557753 
L 506.727574 46.554862 
L 507.317643 46.49393 
L 507.907713 45.798504 
L 508.497782 45.500598 
L 509.087852 44.979012 
L 509.677922 45.295281 
L 510.858061 44.130578 
L 512.0382 43.505166 
L 512.62827 42.949008 
L 513.218339 42.554372 
L 513.808409 42.435278 
L 514.398478 42.103822 
L 514.988548 42.187472 
L 515.578618 41.809501 
L 516.168687 40.828524 
L 516.758757 41.066057 
L 517.938896 40.156712 
L 518.528966 40.073686 
L 519.119035 39.672357 
L 519.709105 40.491196 
L 520.299174 39.12722 
L 521.479314 38.093303 
L 522.069383 38.125921 
L 522.659453 37.749403 
L 524.429662 37.271811 
L 525.019731 37.633562 
L 525.609801 37.730821 
L 526.19987 37.055995 
L 526.78994 37.487578 
L 528.560149 36.634794 
L 530.330358 36.508586 
L 530.920427 35.981322 
L 532.100567 35.326526 
L 532.690636 35.18016 
L 533.280706 34.689437 
L 534.460845 34.466975 
L 535.640984 33.114715 
L 536.231054 33.37266 
L 537.411193 32.393224 
L 538.001263 32.339406 
L 538.591332 31.558542 
L 539.181402 31.173382 
L 539.771472 31.122029 
L 540.361541 30.843551 
L 540.951611 30.26244 
L 542.13175 29.632103 
L 542.72182 29.340364 
L 543.311889 29.429799 
L 544.492028 28.264089 
L 545.082098 28.011344 
L 545.672168 27.897884 
L 546.262237 27.306523 
L 546.852307 27.218886 
L 547.442376 26.423813 
L 548.032446 26.651151 
L 548.622516 25.727265 
L 549.212585 25.923591 
L 549.802655 25.480247 
L 550.392724 24.830768 
L 550.982794 24.921286 
L 551.572864 24.289639 
L 552.162933 24.295791 
L 552.753003 24.052727 
L 552.753003 24.052727 
" style="fill:none;stroke:#1f77b4;stroke-linecap:square;stroke-width:1.5;"/>
   </g>
   <g id="patch_3">
    <path d="M 50.976377 304.46 
L 50.976377 10.7 
" style="fill:none;stroke:#000000;stroke-linecap:square;stroke-linejoin:miter;stroke-width:0.8;"/>
   </g>
   <g id="patch_4">
    <path d="M 553.176377 304.46 
L 553.176377 10.7 
" style="fill:none;stroke:#000000;stroke-linecap:square;stroke-linejoin:miter;stroke-width:0.8;"/>
   </g>
   <g id="patch_5">
    <path d="M 50.976377 304.46 
L 553.176377 304.46 
" style="fill:none;stroke:#000000;stroke-linecap:square;stroke-linejoin:miter;stroke-width:0.8;"/>
   </g>
   <g id="patch_6">
    <path d="M 50.976377 10.7 
L 553.176377 10.7 
" style="fill:none;stroke:#000000;stroke-linecap:square;stroke-linejoin:miter;stroke-width:0.8;"/>
   </g>
   <g id="legend_1">
    <g id="patch_7">
     <path d="M 57.976377 33.378125 
L 106.734189 33.378125 
Q 108.734189 33.378125 108.734189 31.378125 
L 108.734189 17.7 
Q 108.734189 15.7 106.734189 15.7 
L 57.976377 15.7 
Q 55.976377 15.7 55.976377 17.7 
L 55.976377 31.378125 
Q 55.976377 33.378125 57.976377 33.378125 
z
" style="fill:#ffffff;opacity:0.8;stroke:#cccccc;stroke-linejoin:miter;"/>
    </g>
    <g id="line2d_30">
     <path d="M 59.976377 23.798437 
L 79.976377 23.798437 
" style="fill:none;stroke:#1f77b4;stroke-linecap:square;stroke-width:1.5;"/>
    </g>
    <g id="line2d_31"/>
    <g id="text_16">
     <!-- TID -->
     <defs>
      <path d="M 9.8125 72.90625 
L 19.671875 72.90625 
L 19.671875 0 
L 9.8125 0 
z
" id="DejaVuSans-49"/>
      <path d="M 19.671875 64.796875 
L 19.671875 8.109375 
L 31.59375 8.109375 
Q 46.6875 8.109375 53.6875 14.9375 
Q 60.6875 21.78125 60.6875 36.53125 
Q 60.6875 51.171875 53.6875 57.984375 
Q 46.6875 64.796875 31.59375 64.796875 
z
M 9.8125 72.90625 
L 30.078125 72.90625 
Q 51.265625 72.90625 61.171875 64.09375 
Q 71.09375 55.28125 71.09375 36.53125 
Q 71.09375 17.671875 61.125 8.828125 
Q 51.171875 0 30.078125 0 
L 9.8125 0 
z
" id="DejaVuSans-44"/>
     </defs>
     <g transform="translate(87.976377 27.298437)scale(0.1 -0.1)">
      <use xlink:href="#DejaVuSans-54"/>
      <use x="61.083984" xlink:href="#DejaVuSans-49"/>
      <use x="90.576172" xlink:href="#DejaVuSans-44"/>
     </g>
    </g>
   </g>
  </g>
 </g>
 <defs>
  <clipPath id="p45ffa77d4b">
   <rect height="293.76" width="502.2" x="50.976377" y="10.7"/>
  </clipPath>
 </defs>
</svg>
