<?xml version="1.0" encoding="utf-8" standalone="no"?>
<!DOCTYPE svg PUBLIC "-//W3C//DTD SVG 1.1//EN"
  "http://www.w3.org/Graphics/SVG/1.1/DTD/svg11.dtd">
<!-- Created with matplotlib (http://matplotlib.org/) -->
<svg height="363.200096pt" version="1.1" viewBox="0 0 563.876377 363.200096" width="563.876377pt" xmlns="http://www.w3.org/2000/svg" xmlns:xlink="http://www.w3.org/1999/xlink">
 <defs>
  <style type="text/css">
*{stroke-linecap:butt;stroke-linejoin:round;}
  </style>
 </defs>
 <g id="figure_1">
  <g id="patch_1">
   <path d="M -0 363.200096 
L 563.876377 363.200096 
L 563.876377 0 
L -0 0 
z
" style="fill:#ffffff;"/>
  </g>
  <g id="axes_1">
   <g id="patch_2">
    <path d="M 50.976377 304.46 
L 553.176377 304.46 
L 553.176377 10.7 
L 50.976377 10.7 
z
" style="fill:#ffffff;"/>
   </g>
   <g id="matplotlib.axis_1">
    <g id="xtick_1">
     <g id="line2d_1">
      <path clip-path="url(#p06dd0fa5db)" d="M 50.976377 304.46 
L 50.976377 10.7 
" style="fill:none;stroke:#b0b0b0;stroke-linecap:square;stroke-width:0.8;"/>
     </g>
     <g id="line2d_2">
      <defs>
       <path d="M 0 0 
L 0 3.5 
" id="mb9202ed617" style="stroke:#000000;stroke-width:0.8;"/>
      </defs>
      <g>
       <use style="stroke:#000000;stroke-width:0.8;" x="50.976377" xlink:href="#mb9202ed617" y="304.46"/>
      </g>
     </g>
     <g id="text_1">
      <!-- 05-25 20 -->
      <defs>
       <path d="M 31.78125 66.40625 
Q 24.171875 66.40625 20.328125 58.90625 
Q 16.5 51.421875 16.5 36.375 
Q 16.5 21.390625 20.328125 13.890625 
Q 24.171875 6.390625 31.78125 6.390625 
Q 39.453125 6.390625 43.28125 13.890625 
Q 47.125 21.390625 47.125 36.375 
Q 47.125 51.421875 43.28125 58.90625 
Q 39.453125 66.40625 31.78125 66.40625 
z
M 31.78125 74.21875 
Q 44.046875 74.21875 50.515625 64.515625 
Q 56.984375 54.828125 56.984375 36.375 
Q 56.984375 17.96875 50.515625 8.265625 
Q 44.046875 -1.421875 31.78125 -1.421875 
Q 19.53125 -1.421875 13.0625 8.265625 
Q 6.59375 17.96875 6.59375 36.375 
Q 6.59375 54.828125 13.0625 64.515625 
Q 19.53125 74.21875 31.78125 74.21875 
z
" id="DejaVuSans-30"/>
       <path d="M 10.796875 72.90625 
L 49.515625 72.90625 
L 49.515625 64.59375 
L 19.828125 64.59375 
L 19.828125 46.734375 
Q 21.96875 47.46875 24.109375 47.828125 
Q 26.265625 48.1875 28.421875 48.1875 
Q 40.625 48.1875 47.75 41.5 
Q 54.890625 34.8125 54.890625 23.390625 
Q 54.890625 11.625 47.5625 5.09375 
Q 40.234375 -1.421875 26.90625 -1.421875 
Q 22.3125 -1.421875 17.546875 -0.640625 
Q 12.796875 0.140625 7.71875 1.703125 
L 7.71875 11.625 
Q 12.109375 9.234375 16.796875 8.0625 
Q 21.484375 6.890625 26.703125 6.890625 
Q 35.15625 6.890625 40.078125 11.328125 
Q 45.015625 15.765625 45.015625 23.390625 
Q 45.015625 31 40.078125 35.4375 
Q 35.15625 39.890625 26.703125 39.890625 
Q 22.75 39.890625 18.8125 39.015625 
Q 14.890625 38.140625 10.796875 36.28125 
z
" id="DejaVuSans-35"/>
       <path d="M 4.890625 31.390625 
L 31.203125 31.390625 
L 31.203125 23.390625 
L 4.890625 23.390625 
z
" id="DejaVuSans-2d"/>
       <path d="M 19.1875 8.296875 
L 53.609375 8.296875 
L 53.609375 0 
L 7.328125 0 
L 7.328125 8.296875 
Q 12.9375 14.109375 22.625 23.890625 
Q 32.328125 33.6875 34.8125 36.53125 
Q 39.546875 41.84375 41.421875 45.53125 
Q 43.3125 49.21875 43.3125 52.78125 
Q 43.3125 58.59375 39.234375 62.25 
Q 35.15625 65.921875 28.609375 65.921875 
Q 23.96875 65.921875 18.8125 64.3125 
Q 13.671875 62.703125 7.8125 59.421875 
L 7.8125 69.390625 
Q 13.765625 71.78125 18.9375 73 
Q 24.125 74.21875 28.421875 74.21875 
Q 39.75 74.21875 46.484375 68.546875 
Q 53.21875 62.890625 53.21875 53.421875 
Q 53.21875 48.921875 51.53125 44.890625 
Q 49.859375 40.875 45.40625 35.40625 
Q 44.1875 33.984375 37.640625 27.21875 
Q 31.109375 20.453125 19.1875 8.296875 
z
" id="DejaVuSans-32"/>
       <path id="DejaVuSans-20"/>
      </defs>
      <g transform="translate(10.999219 340.520909)rotate(-30)scale(0.1 -0.1)">
       <use xlink:href="#DejaVuSans-30"/>
       <use x="63.623047" xlink:href="#DejaVuSans-35"/>
       <use x="127.246094" xlink:href="#DejaVuSans-2d"/>
       <use x="163.330078" xlink:href="#DejaVuSans-32"/>
       <use x="226.953125" xlink:href="#DejaVuSans-35"/>
       <use x="290.576172" xlink:href="#DejaVuSans-20"/>
       <use x="322.363281" xlink:href="#DejaVuSans-32"/>
       <use x="385.986328" xlink:href="#DejaVuSans-30"/>
      </g>
     </g>
    </g>
    <g id="xtick_2">
     <g id="line2d_3">
      <path clip-path="url(#p06dd0fa5db)" d="M 134.676376 304.46 
L 134.676376 10.7 
" style="fill:none;stroke:#b0b0b0;stroke-linecap:square;stroke-width:0.8;"/>
     </g>
     <g id="line2d_4">
      <g>
       <use style="stroke:#000000;stroke-width:0.8;" x="134.676376" xlink:href="#mb9202ed617" y="304.46"/>
      </g>
     </g>
     <g id="text_2">
      <!-- 05-25 22 -->
      <g transform="translate(94.699219 340.520909)rotate(-30)scale(0.1 -0.1)">
       <use xlink:href="#DejaVuSans-30"/>
       <use x="63.623047" xlink:href="#DejaVuSans-35"/>
       <use x="127.246094" xlink:href="#DejaVuSans-2d"/>
       <use x="163.330078" xlink:href="#DejaVuSans-32"/>
       <use x="226.953125" xlink:href="#DejaVuSans-35"/>
       <use x="290.576172" xlink:href="#DejaVuSans-20"/>
       <use x="322.363281" xlink:href="#DejaVuSans-32"/>
       <use x="385.986328" xlink:href="#DejaVuSans-32"/>
      </g>
     </g>
    </g>
    <g id="xtick_3">
     <g id="line2d_5">
      <path clip-path="url(#p06dd0fa5db)" d="M 218.376377 304.46 
L 218.376377 10.7 
" style="fill:none;stroke:#b0b0b0;stroke-linecap:square;stroke-width:0.8;"/>
     </g>
     <g id="line2d_6">
      <g>
       <use style="stroke:#000000;stroke-width:0.8;" x="218.376377" xlink:href="#mb9202ed617" y="304.46"/>
      </g>
     </g>
     <g id="text_3">
      <!-- 05-26 00 -->
      <defs>
       <path d="M 33.015625 40.375 
Q 26.375 40.375 22.484375 35.828125 
Q 18.609375 31.296875 18.609375 23.390625 
Q 18.609375 15.53125 22.484375 10.953125 
Q 26.375 6.390625 33.015625 6.390625 
Q 39.65625 6.390625 43.53125 10.953125 
Q 47.40625 15.53125 47.40625 23.390625 
Q 47.40625 31.296875 43.53125 35.828125 
Q 39.65625 40.375 33.015625 40.375 
z
M 52.59375 71.296875 
L 52.59375 62.3125 
Q 48.875 64.0625 45.09375 64.984375 
Q 41.3125 65.921875 37.59375 65.921875 
Q 27.828125 65.921875 22.671875 59.328125 
Q 17.53125 52.734375 16.796875 39.40625 
Q 19.671875 43.65625 24.015625 45.921875 
Q 28.375 48.1875 33.59375 48.1875 
Q 44.578125 48.1875 50.953125 41.515625 
Q 57.328125 34.859375 57.328125 23.390625 
Q 57.328125 12.15625 50.6875 5.359375 
Q 44.046875 -1.421875 33.015625 -1.421875 
Q 20.359375 -1.421875 13.671875 8.265625 
Q 6.984375 17.96875 6.984375 36.375 
Q 6.984375 53.65625 15.1875 63.9375 
Q 23.390625 74.21875 37.203125 74.21875 
Q 40.921875 74.21875 44.703125 73.484375 
Q 48.484375 72.75 52.59375 71.296875 
z
" id="DejaVuSans-36"/>
      </defs>
      <g transform="translate(178.399219 340.520909)rotate(-30)scale(0.1 -0.1)">
       <use xlink:href="#DejaVuSans-30"/>
       <use x="63.623047" xlink:href="#DejaVuSans-35"/>
       <use x="127.246094" xlink:href="#DejaVuSans-2d"/>
       <use x="163.330078" xlink:href="#DejaVuSans-32"/>
       <use x="226.953125" xlink:href="#DejaVuSans-36"/>
       <use x="290.576172" xlink:href="#DejaVuSans-20"/>
       <use x="322.363281" xlink:href="#DejaVuSans-30"/>
       <use x="385.986328" xlink:href="#DejaVuSans-30"/>
      </g>
     </g>
    </g>
    <g id="xtick_4">
     <g id="line2d_7">
      <path clip-path="url(#p06dd0fa5db)" d="M 302.076377 304.46 
L 302.076377 10.7 
" style="fill:none;stroke:#b0b0b0;stroke-linecap:square;stroke-width:0.8;"/>
     </g>
     <g id="line2d_8">
      <g>
       <use style="stroke:#000000;stroke-width:0.8;" x="302.076377" xlink:href="#mb9202ed617" y="304.46"/>
      </g>
     </g>
     <g id="text_4">
      <!-- 05-26 02 -->
      <g transform="translate(262.099219 340.520909)rotate(-30)scale(0.1 -0.1)">
       <use xlink:href="#DejaVuSans-30"/>
       <use x="63.623047" xlink:href="#DejaVuSans-35"/>
       <use x="127.246094" xlink:href="#DejaVuSans-2d"/>
       <use x="163.330078" xlink:href="#DejaVuSans-32"/>
       <use x="226.953125" xlink:href="#DejaVuSans-36"/>
       <use x="290.576172" xlink:href="#DejaVuSans-20"/>
       <use x="322.363281" xlink:href="#DejaVuSans-30"/>
       <use x="385.986328" xlink:href="#DejaVuSans-32"/>
      </g>
     </g>
    </g>
    <g id="xtick_5">
     <g id="line2d_9">
      <path clip-path="url(#p06dd0fa5db)" d="M 385.776376 304.46 
L 385.776376 10.7 
" style="fill:none;stroke:#b0b0b0;stroke-linecap:square;stroke-width:0.8;"/>
     </g>
     <g id="line2d_10">
      <g>
       <use style="stroke:#000000;stroke-width:0.8;" x="385.776376" xlink:href="#mb9202ed617" y="304.46"/>
      </g>
     </g>
     <g id="text_5">
      <!-- 05-26 04 -->
      <defs>
       <path d="M 37.796875 64.3125 
L 12.890625 25.390625 
L 37.796875 25.390625 
z
M 35.203125 72.90625 
L 47.609375 72.90625 
L 47.609375 25.390625 
L 58.015625 25.390625 
L 58.015625 17.1875 
L 47.609375 17.1875 
L 47.609375 0 
L 37.796875 0 
L 37.796875 17.1875 
L 4.890625 17.1875 
L 4.890625 26.703125 
z
" id="DejaVuSans-34"/>
      </defs>
      <g transform="translate(345.799219 340.520909)rotate(-30)scale(0.1 -0.1)">
       <use xlink:href="#DejaVuSans-30"/>
       <use x="63.623047" xlink:href="#DejaVuSans-35"/>
       <use x="127.246094" xlink:href="#DejaVuSans-2d"/>
       <use x="163.330078" xlink:href="#DejaVuSans-32"/>
       <use x="226.953125" xlink:href="#DejaVuSans-36"/>
       <use x="290.576172" xlink:href="#DejaVuSans-20"/>
       <use x="322.363281" xlink:href="#DejaVuSans-30"/>
       <use x="385.986328" xlink:href="#DejaVuSans-34"/>
      </g>
     </g>
    </g>
    <g id="xtick_6">
     <g id="line2d_11">
      <path clip-path="url(#p06dd0fa5db)" d="M 469.476377 304.46 
L 469.476377 10.7 
" style="fill:none;stroke:#b0b0b0;stroke-linecap:square;stroke-width:0.8;"/>
     </g>
     <g id="line2d_12">
      <g>
       <use style="stroke:#000000;stroke-width:0.8;" x="469.476377" xlink:href="#mb9202ed617" y="304.46"/>
      </g>
     </g>
     <g id="text_6">
      <!-- 05-26 06 -->
      <g transform="translate(429.499219 340.520909)rotate(-30)scale(0.1 -0.1)">
       <use xlink:href="#DejaVuSans-30"/>
       <use x="63.623047" xlink:href="#DejaVuSans-35"/>
       <use x="127.246094" xlink:href="#DejaVuSans-2d"/>
       <use x="163.330078" xlink:href="#DejaVuSans-32"/>
       <use x="226.953125" xlink:href="#DejaVuSans-36"/>
       <use x="290.576172" xlink:href="#DejaVuSans-20"/>
       <use x="322.363281" xlink:href="#DejaVuSans-30"/>
       <use x="385.986328" xlink:href="#DejaVuSans-36"/>
      </g>
     </g>
    </g>
    <g id="xtick_7">
     <g id="line2d_13">
      <path clip-path="url(#p06dd0fa5db)" d="M 553.176376 304.46 
L 553.176376 10.7 
" style="fill:none;stroke:#b0b0b0;stroke-linecap:square;stroke-width:0.8;"/>
     </g>
     <g id="line2d_14">
      <g>
       <use style="stroke:#000000;stroke-width:0.8;" x="553.176376" xlink:href="#mb9202ed617" y="304.46"/>
      </g>
     </g>
     <g id="text_7">
      <!-- 05-26 08 -->
      <defs>
       <path d="M 31.78125 34.625 
Q 24.75 34.625 20.71875 30.859375 
Q 16.703125 27.09375 16.703125 20.515625 
Q 16.703125 13.921875 20.71875 10.15625 
Q 24.75 6.390625 31.78125 6.390625 
Q 38.8125 6.390625 42.859375 10.171875 
Q 46.921875 13.96875 46.921875 20.515625 
Q 46.921875 27.09375 42.890625 30.859375 
Q 38.875 34.625 31.78125 34.625 
z
M 21.921875 38.8125 
Q 15.578125 40.375 12.03125 44.71875 
Q 8.5 49.078125 8.5 55.328125 
Q 8.5 64.0625 14.71875 69.140625 
Q 20.953125 74.21875 31.78125 74.21875 
Q 42.671875 74.21875 48.875 69.140625 
Q 55.078125 64.0625 55.078125 55.328125 
Q 55.078125 49.078125 51.53125 44.71875 
Q 48 40.375 41.703125 38.8125 
Q 48.828125 37.15625 52.796875 32.3125 
Q 56.78125 27.484375 56.78125 20.515625 
Q 56.78125 9.90625 50.3125 4.234375 
Q 43.84375 -1.421875 31.78125 -1.421875 
Q 19.734375 -1.421875 13.25 4.234375 
Q 6.78125 9.90625 6.78125 20.515625 
Q 6.78125 27.484375 10.78125 32.3125 
Q 14.796875 37.15625 21.921875 38.8125 
z
M 18.3125 54.390625 
Q 18.3125 48.734375 21.84375 45.5625 
Q 25.390625 42.390625 31.78125 42.390625 
Q 38.140625 42.390625 41.71875 45.5625 
Q 45.3125 48.734375 45.3125 54.390625 
Q 45.3125 60.0625 41.71875 63.234375 
Q 38.140625 66.40625 31.78125 66.40625 
Q 25.390625 66.40625 21.84375 63.234375 
Q 18.3125 60.0625 18.3125 54.390625 
z
" id="DejaVuSans-38"/>
      </defs>
      <g transform="translate(513.199219 340.520909)rotate(-30)scale(0.1 -0.1)">
       <use xlink:href="#DejaVuSans-30"/>
       <use x="63.623047" xlink:href="#DejaVuSans-35"/>
       <use x="127.246094" xlink:href="#DejaVuSans-2d"/>
       <use x="163.330078" xlink:href="#DejaVuSans-32"/>
       <use x="226.953125" xlink:href="#DejaVuSans-36"/>
       <use x="290.576172" xlink:href="#DejaVuSans-20"/>
       <use x="322.363281" xlink:href="#DejaVuSans-30"/>
       <use x="385.986328" xlink:href="#DejaVuSans-38"/>
      </g>
     </g>
    </g>
    <g id="text_8">
     <!-- Time -->
     <defs>
      <path d="M -0.296875 72.90625 
L 61.375 72.90625 
L 61.375 64.59375 
L 35.5 64.59375 
L 35.5 0 
L 25.59375 0 
L 25.59375 64.59375 
L -0.296875 64.59375 
z
" id="DejaVuSans-54"/>
      <path d="M 9.421875 54.6875 
L 18.40625 54.6875 
L 18.40625 0 
L 9.421875 0 
z
M 9.421875 75.984375 
L 18.40625 75.984375 
L 18.40625 64.59375 
L 9.421875 64.59375 
z
" id="DejaVuSans-69"/>
      <path d="M 52 44.1875 
Q 55.375 50.25 60.0625 53.125 
Q 64.75 56 71.09375 56 
Q 79.640625 56 84.28125 50.015625 
Q 88.921875 44.046875 88.921875 33.015625 
L 88.921875 0 
L 79.890625 0 
L 79.890625 32.71875 
Q 79.890625 40.578125 77.09375 44.375 
Q 74.3125 48.1875 68.609375 48.1875 
Q 61.625 48.1875 57.5625 43.546875 
Q 53.515625 38.921875 53.515625 30.90625 
L 53.515625 0 
L 44.484375 0 
L 44.484375 32.71875 
Q 44.484375 40.625 41.703125 44.40625 
Q 38.921875 48.1875 33.109375 48.1875 
Q 26.21875 48.1875 22.15625 43.53125 
Q 18.109375 38.875 18.109375 30.90625 
L 18.109375 0 
L 9.078125 0 
L 9.078125 54.6875 
L 18.109375 54.6875 
L 18.109375 46.1875 
Q 21.1875 51.21875 25.484375 53.609375 
Q 29.78125 56 35.6875 56 
Q 41.65625 56 45.828125 52.96875 
Q 50 49.953125 52 44.1875 
z
" id="DejaVuSans-6d"/>
      <path d="M 56.203125 29.59375 
L 56.203125 25.203125 
L 14.890625 25.203125 
Q 15.484375 15.921875 20.484375 11.0625 
Q 25.484375 6.203125 34.421875 6.203125 
Q 39.59375 6.203125 44.453125 7.46875 
Q 49.3125 8.734375 54.109375 11.28125 
L 54.109375 2.78125 
Q 49.265625 0.734375 44.1875 -0.34375 
Q 39.109375 -1.421875 33.890625 -1.421875 
Q 20.796875 -1.421875 13.15625 6.1875 
Q 5.515625 13.8125 5.515625 26.8125 
Q 5.515625 40.234375 12.765625 48.109375 
Q 20.015625 56 32.328125 56 
Q 43.359375 56 49.78125 48.890625 
Q 56.203125 41.796875 56.203125 29.59375 
z
M 47.21875 32.234375 
Q 47.125 39.59375 43.09375 43.984375 
Q 39.0625 48.390625 32.421875 48.390625 
Q 24.90625 48.390625 20.390625 44.140625 
Q 15.875 39.890625 15.1875 32.171875 
z
" id="DejaVuSans-65"/>
     </defs>
     <g transform="translate(289.688877 353.920408)scale(0.1 -0.1)">
      <use xlink:href="#DejaVuSans-54"/>
      <use x="61.037109" xlink:href="#DejaVuSans-69"/>
      <use x="88.820312" xlink:href="#DejaVuSans-6d"/>
      <use x="186.232422" xlink:href="#DejaVuSans-65"/>
     </g>
    </g>
   </g>
   <g id="matplotlib.axis_2">
    <g id="ytick_1">
     <g id="line2d_15">
      <path clip-path="url(#p06dd0fa5db)" d="M 50.976377 284.195596 
L 553.176377 284.195596 
" style="fill:none;stroke:#b0b0b0;stroke-linecap:square;stroke-width:0.8;"/>
     </g>
     <g id="line2d_16">
      <defs>
       <path d="M 0 0 
L -3.5 0 
" id="m64d6dad73e" style="stroke:#000000;stroke-width:0.8;"/>
      </defs>
      <g>
       <use style="stroke:#000000;stroke-width:0.8;" x="50.976377" xlink:href="#m64d6dad73e" y="284.195596"/>
      </g>
     </g>
     <g id="text_9">
      <!-- 8 -->
      <g transform="translate(37.613877 287.994815)scale(0.1 -0.1)">
       <use xlink:href="#DejaVuSans-38"/>
      </g>
     </g>
    </g>
    <g id="ytick_2">
     <g id="line2d_17">
      <path clip-path="url(#p06dd0fa5db)" d="M 50.976377 244.380599 
L 553.176377 244.380599 
" style="fill:none;stroke:#b0b0b0;stroke-linecap:square;stroke-width:0.8;"/>
     </g>
     <g id="line2d_18">
      <g>
       <use style="stroke:#000000;stroke-width:0.8;" x="50.976377" xlink:href="#m64d6dad73e" y="244.380599"/>
      </g>
     </g>
     <g id="text_10">
      <!-- 10 -->
      <defs>
       <path d="M 12.40625 8.296875 
L 28.515625 8.296875 
L 28.515625 63.921875 
L 10.984375 60.40625 
L 10.984375 69.390625 
L 28.421875 72.90625 
L 38.28125 72.90625 
L 38.28125 8.296875 
L 54.390625 8.296875 
L 54.390625 0 
L 12.40625 0 
z
" id="DejaVuSans-31"/>
      </defs>
      <g transform="translate(31.251377 248.179818)scale(0.1 -0.1)">
       <use xlink:href="#DejaVuSans-31"/>
       <use x="63.623047" xlink:href="#DejaVuSans-30"/>
      </g>
     </g>
    </g>
    <g id="ytick_3">
     <g id="line2d_19">
      <path clip-path="url(#p06dd0fa5db)" d="M 50.976377 204.565603 
L 553.176377 204.565603 
" style="fill:none;stroke:#b0b0b0;stroke-linecap:square;stroke-width:0.8;"/>
     </g>
     <g id="line2d_20">
      <g>
       <use style="stroke:#000000;stroke-width:0.8;" x="50.976377" xlink:href="#m64d6dad73e" y="204.565603"/>
      </g>
     </g>
     <g id="text_11">
      <!-- 12 -->
      <g transform="translate(31.251377 208.364821)scale(0.1 -0.1)">
       <use xlink:href="#DejaVuSans-31"/>
       <use x="63.623047" xlink:href="#DejaVuSans-32"/>
      </g>
     </g>
    </g>
    <g id="ytick_4">
     <g id="line2d_21">
      <path clip-path="url(#p06dd0fa5db)" d="M 50.976377 164.750606 
L 553.176377 164.750606 
" style="fill:none;stroke:#b0b0b0;stroke-linecap:square;stroke-width:0.8;"/>
     </g>
     <g id="line2d_22">
      <g>
       <use style="stroke:#000000;stroke-width:0.8;" x="50.976377" xlink:href="#m64d6dad73e" y="164.750606"/>
      </g>
     </g>
     <g id="text_12">
      <!-- 14 -->
      <g transform="translate(31.251377 168.549824)scale(0.1 -0.1)">
       <use xlink:href="#DejaVuSans-31"/>
       <use x="63.623047" xlink:href="#DejaVuSans-34"/>
      </g>
     </g>
    </g>
    <g id="ytick_5">
     <g id="line2d_23">
      <path clip-path="url(#p06dd0fa5db)" d="M 50.976377 124.935609 
L 553.176377 124.935609 
" style="fill:none;stroke:#b0b0b0;stroke-linecap:square;stroke-width:0.8;"/>
     </g>
     <g id="line2d_24">
      <g>
       <use style="stroke:#000000;stroke-width:0.8;" x="50.976377" xlink:href="#m64d6dad73e" y="124.935609"/>
      </g>
     </g>
     <g id="text_13">
      <!-- 16 -->
      <g transform="translate(31.251377 128.734828)scale(0.1 -0.1)">
       <use xlink:href="#DejaVuSans-31"/>
       <use x="63.623047" xlink:href="#DejaVuSans-36"/>
      </g>
     </g>
    </g>
    <g id="ytick_6">
     <g id="line2d_25">
      <path clip-path="url(#p06dd0fa5db)" d="M 50.976377 85.120612 
L 553.176377 85.120612 
" style="fill:none;stroke:#b0b0b0;stroke-linecap:square;stroke-width:0.8;"/>
     </g>
     <g id="line2d_26">
      <g>
       <use style="stroke:#000000;stroke-width:0.8;" x="50.976377" xlink:href="#m64d6dad73e" y="85.120612"/>
      </g>
     </g>
     <g id="text_14">
      <!-- 18 -->
      <g transform="translate(31.251377 88.919831)scale(0.1 -0.1)">
       <use xlink:href="#DejaVuSans-31"/>
       <use x="63.623047" xlink:href="#DejaVuSans-38"/>
      </g>
     </g>
    </g>
    <g id="ytick_7">
     <g id="line2d_27">
      <path clip-path="url(#p06dd0fa5db)" d="M 50.976377 45.305615 
L 553.176377 45.305615 
" style="fill:none;stroke:#b0b0b0;stroke-linecap:square;stroke-width:0.8;"/>
     </g>
     <g id="line2d_28">
      <g>
       <use style="stroke:#000000;stroke-width:0.8;" x="50.976377" xlink:href="#m64d6dad73e" y="45.305615"/>
      </g>
     </g>
     <g id="text_15">
      <!-- 20 -->
      <g transform="translate(31.251377 49.104834)scale(0.1 -0.1)">
       <use xlink:href="#DejaVuSans-32"/>
       <use x="63.623047" xlink:href="#DejaVuSans-30"/>
      </g>
     </g>
    </g>
   </g>
   <g id="line2d_29">
    <path clip-path="url(#p06dd0fa5db)" d="M 51.244601 291.107273 
L 51.834671 291.064711 
L 52.424741 290.126893 
L 53.01481 290.498264 
L 53.60488 289.749435 
L 54.194949 290.034957 
L 54.785019 289.539701 
L 55.375089 289.522245 
L 55.965158 288.77444 
L 56.555228 289.018073 
L 57.145297 288.355703 
L 58.325437 287.829333 
L 58.915506 287.293098 
L 59.505576 287.478008 
L 60.685715 286.850512 
L 61.275785 286.868782 
L 61.865854 286.385578 
L 62.455924 286.050302 
L 63.045993 285.560338 
L 63.636063 285.471178 
L 64.226133 284.785906 
L 64.816202 285.44433 
L 65.406272 284.480067 
L 65.996342 284.09413 
L 66.586411 283.883212 
L 68.35662 282.789696 
L 68.946689 282.967317 
L 69.536759 282.459725 
L 70.126829 282.491067 
L 70.716898 281.798151 
L 71.306968 280.882092 
L 71.897038 281.429754 
L 73.077177 280.790552 
L 73.667246 280.875698 
L 74.257316 279.947984 
L 75.437455 279.738305 
L 76.027525 279.121859 
L 76.617594 279.044595 
L 77.207664 278.655335 
L 77.797734 278.680341 
L 78.977873 277.618621 
L 79.567943 277.933575 
L 80.158012 277.105983 
L 80.748082 276.836079 
L 81.928221 275.979653 
L 82.518291 275.804547 
L 83.10836 275.278247 
L 84.288499 275.226032 
L 84.878569 274.711782 
L 85.468639 274.492018 
L 86.058708 273.874666 
L 87.238847 273.21501 
L 87.828917 273.429465 
L 88.418987 272.802305 
L 89.009056 272.537398 
L 89.599126 272.09411 
L 90.189196 271.99246 
L 90.779265 271.362198 
L 91.369335 271.449061 
L 93.139543 270.543449 
L 93.729613 270.195081 
L 94.319683 269.589533 
L 94.909752 269.354116 
L 95.499822 268.874784 
L 96.089892 268.650881 
L 96.679961 268.759239 
L 97.270031 268.291507 
L 97.8601 267.545617 
L 98.45017 267.975376 
L 99.630309 267.36166 
L 100.220379 266.746073 
L 100.810448 267.034241 
L 101.400518 266.205464 
L 102.580657 265.75925 
L 103.170727 265.2836 
L 103.760796 265.210304 
L 104.350866 264.819326 
L 104.940936 264.750565 
L 105.531005 264.474376 
L 106.121075 263.964573 
L 106.711144 263.716639 
L 107.301214 263.17056 
L 107.891284 263.119845 
L 108.481353 262.669721 
L 109.071423 262.364474 
L 109.661492 262.367862 
L 110.841632 261.202176 
L 111.431701 261.241959 
L 112.021771 260.623415 
L 113.79198 259.82671 
L 114.382049 259.158191 
L 114.972119 259.609404 
L 115.562189 259.244061 
L 116.152258 258.312894 
L 116.742328 258.308802 
L 117.332397 258.16127 
L 117.922467 257.596449 
L 119.102606 256.909701 
L 119.692676 257.144448 
L 120.872815 255.87024 
L 121.462885 255.449363 
L 122.052954 255.698877 
L 122.643024 254.753389 
L 124.413233 254.145747 
L 125.003302 253.684532 
L 126.183441 253.143457 
L 126.773511 252.723317 
L 127.95365 252.484073 
L 128.54372 251.695389 
L 129.13379 251.259446 
L 129.723859 251.517893 
L 130.903998 250.592032 
L 132.084137 249.94112 
L 132.674207 249.981028 
L 134.444416 248.713541 
L 135.034486 248.18589 
L 135.624555 248.078458 
L 137.984834 246.793553 
L 138.574903 246.025124 
L 139.164973 246.150391 
L 140.935182 245.400617 
L 141.525251 244.861914 
L 142.70539 244.153914 
L 143.29546 244.24027 
L 143.88553 244.003583 
L 145.065669 242.857577 
L 145.655738 242.830546 
L 146.245808 242.615049 
L 146.835878 242.139045 
L 147.425947 241.816988 
L 148.016017 241.294201 
L 149.196156 240.481999 
L 149.786226 240.391525 
L 150.376295 240.150386 
L 150.966365 240.109311 
L 151.556435 239.111228 
L 152.736574 238.919528 
L 153.326643 238.446709 
L 153.916713 237.690603 
L 154.506783 238.178173 
L 155.096852 237.396044 
L 155.686922 238.435823 
L 156.276991 236.798948 
L 156.867061 236.960197 
L 157.457131 236.443304 
L 158.0472 236.253882 
L 158.63727 235.658802 
L 159.227339 235.357871 
L 159.817409 235.24724 
L 160.407479 234.950573 
L 160.997548 234.248423 
L 161.587618 234.537142 
L 162.177688 233.761523 
L 163.947896 232.877414 
L 164.537966 232.488083 
L 165.718105 231.921187 
L 166.308175 231.593911 
L 166.898244 230.905069 
L 169.848592 229.862611 
L 170.438662 229.415453 
L 171.028732 228.710983 
L 171.618801 228.258991 
L 172.208871 228.360635 
L 173.38901 227.816814 
L 173.97908 227.168003 
L 174.569149 226.770527 
L 175.159219 226.874006 
L 177.519497 225.473041 
L 178.109567 225.08981 
L 178.699636 225.304758 
L 179.289706 224.506212 
L 179.879776 224.46113 
L 180.469845 223.844374 
L 181.059915 223.955464 
L 181.649984 223.507398 
L 182.240054 223.472333 
L 182.830124 222.232916 
L 183.420193 221.827868 
L 184.600332 221.320738 
L 186.370541 220.504013 
L 186.960611 219.884413 
L 188.14075 219.365207 
L 189.320889 218.596362 
L 189.910959 218.46469 
L 191.091098 217.537423 
L 191.681168 217.556423 
L 192.271237 217.385551 
L 192.861307 216.251146 
L 193.451377 216.251691 
L 194.041446 215.869543 
L 194.631516 216.070051 
L 195.221585 215.799548 
L 195.811655 215.058511 
L 196.991794 214.192624 
L 197.581864 214.009229 
L 198.171933 213.477594 
L 198.762003 213.642309 
L 199.352073 213.034989 
L 199.942142 213.408537 
L 201.122282 211.720015 
L 201.712351 212.163156 
L 202.302421 211.398648 
L 202.89249 211.266826 
L 203.48256 210.989735 
L 204.662699 210.857389 
L 205.252769 210.002836 
L 205.842838 209.866686 
L 206.432908 209.287549 
L 207.022978 209.331826 
L 207.613047 208.873155 
L 208.203117 208.590302 
L 208.793186 208.572437 
L 209.383256 207.664765 
L 209.973326 207.340054 
L 210.563395 207.384211 
L 211.153465 206.827578 
L 211.743534 206.533681 
L 212.333604 206.621795 
L 214.693882 205.123467 
L 215.283952 204.963589 
L 215.874022 204.086596 
L 216.464091 204.48757 
L 217.64423 203.875168 
L 218.82437 202.560326 
L 219.414439 202.635935 
L 221.184648 201.438923 
L 221.774718 201.284854 
L 222.364787 200.996989 
L 224.134996 199.758893 
L 225.315135 199.428724 
L 225.905205 199.117136 
L 226.495275 198.364043 
L 227.085344 197.945348 
L 227.675414 197.287101 
L 228.265483 197.650911 
L 228.855553 197.021202 
L 229.445623 197.190455 
L 230.035692 197.001241 
L 230.625762 196.577219 
L 231.215832 196.443674 
L 231.805901 195.793811 
L 233.57611 194.825935 
L 234.756249 194.625401 
L 235.346319 193.978697 
L 235.936388 193.499776 
L 236.526458 193.682534 
L 237.116528 192.72998 
L 237.706597 192.845942 
L 238.296667 192.598678 
L 238.886736 192.217662 
L 239.476806 191.689096 
L 240.066876 191.900239 
L 240.656945 191.528555 
L 241.247015 191.534878 
L 241.837084 190.645451 
L 242.427154 190.945433 
L 243.017224 189.982892 
L 245.377502 188.818741 
L 245.967572 188.723891 
L 246.557641 188.252342 
L 247.147711 188.001315 
L 248.32785 187.178773 
L 248.91792 187.405906 
L 249.507989 186.613543 
L 250.098059 186.078864 
L 250.688129 186.238094 
L 251.278198 185.355348 
L 251.868268 185.696902 
L 252.458337 185.051207 
L 253.048407 185.019999 
L 253.638476 184.594739 
L 254.228546 184.348474 
L 255.408685 183.274614 
L 255.998755 183.240513 
L 256.588825 182.874452 
L 257.178894 183.158226 
L 257.768964 182.353932 
L 258.359033 182.187059 
L 258.949103 181.442034 
L 259.539173 181.275924 
L 260.129242 180.76307 
L 260.719312 180.657543 
L 261.309381 180.345597 
L 261.899451 179.850001 
L 262.489521 179.893337 
L 263.07959 179.004778 
L 263.66966 178.972544 
L 264.25973 178.466375 
L 264.849799 178.326836 
L 265.439869 178.461542 
L 266.029938 178.855186 
L 266.620008 177.580247 
L 267.210078 176.865758 
L 267.800147 176.58305 
L 268.390217 176.169432 
L 268.980286 176.0557 
L 269.570356 175.601077 
L 270.160426 175.360064 
L 270.750495 174.701287 
L 271.930634 174.59587 
L 273.110774 173.888244 
L 273.700843 173.925285 
L 274.290913 173.154184 
L 274.880982 173.123957 
L 275.471052 172.555213 
L 276.061122 172.418572 
L 276.651191 171.887601 
L 277.241261 171.628554 
L 277.83133 171.100366 
L 279.01147 170.563373 
L 279.601539 170.034036 
L 280.191609 169.74504 
L 281.371748 168.996502 
L 282.551887 168.607325 
L 283.141957 168.592184 
L 283.732027 167.752783 
L 284.322096 167.910877 
L 284.912166 167.265222 
L 285.502235 167.140596 
L 286.092305 166.464986 
L 286.682374 166.687367 
L 287.272444 165.823163 
L 287.862514 165.520773 
L 288.452583 165.05362 
L 289.042653 164.925834 
L 289.632723 164.554743 
L 290.222792 163.974733 
L 290.812862 164.252609 
L 291.402931 163.536548 
L 291.993001 163.815768 
L 292.583071 162.990397 
L 293.17314 163.187912 
L 293.76321 162.199772 
L 294.353279 162.441577 
L 294.943349 161.806012 
L 295.533419 161.523331 
L 296.123488 160.871789 
L 296.713558 160.674581 
L 297.303627 160.673273 
L 299.073836 159.498406 
L 299.663906 159.497072 
L 300.253976 158.74505 
L 300.844045 158.542753 
L 301.434115 158.114088 
L 302.024184 158.01159 
L 302.614254 157.373248 
L 303.204324 157.670199 
L 303.794393 156.917405 
L 304.974532 156.574041 
L 306.154672 155.908648 
L 306.744741 156.093608 
L 307.334811 155.564371 
L 308.51495 154.770903 
L 309.10502 154.304877 
L 309.695089 154.142834 
L 310.285159 153.389471 
L 310.875228 153.389415 
L 312.055368 152.499008 
L 312.645437 152.779071 
L 313.235507 152.134089 
L 315.005716 150.929945 
L 315.595785 150.812219 
L 316.185855 150.504311 
L 316.775924 150.010675 
L 317.365994 149.806076 
L 317.956064 149.312379 
L 318.546133 149.447877 
L 319.726272 148.209153 
L 320.316342 148.074121 
L 321.496481 147.458301 
L 322.086551 146.865526 
L 322.676621 146.506453 
L 323.26669 146.595301 
L 324.446829 145.338215 
L 325.036899 145.387499 
L 325.626969 145.107268 
L 326.217038 144.120652 
L 326.807108 144.920342 
L 327.397177 144.288583 
L 327.987247 144.022747 
L 329.167386 142.904061 
L 329.757456 143.042418 
L 331.527665 142.089543 
L 332.707804 141.65875 
L 333.297873 141.28752 
L 333.887943 140.631189 
L 334.478013 140.432598 
L 335.068082 139.745127 
L 335.658152 140.038916 
L 336.248222 139.182676 
L 336.838291 138.850481 
L 337.428361 139.127516 
L 338.01843 138.468291 
L 338.6085 138.060341 
L 339.19857 137.914956 
L 339.788639 137.314302 
L 340.378709 137.054393 
L 340.968778 136.632715 
L 341.558848 136.532841 
L 342.148918 136.049264 
L 343.329057 135.588763 
L 343.919126 135.402608 
L 344.509196 134.493271 
L 345.099266 134.629503 
L 345.689335 133.967324 
L 347.459544 133.600309 
L 348.049614 133.121853 
L 348.639683 133.006257 
L 349.229753 132.512066 
L 349.819822 132.630525 
L 350.409892 132.214885 
L 350.999962 131.500959 
L 351.590031 131.200174 
L 352.180101 131.0732 
L 352.77017 131.084217 
L 353.36024 130.31551 
L 353.95031 130.481355 
L 354.540379 129.78474 
L 355.130449 129.726928 
L 355.720519 129.273507 
L 356.900658 128.599323 
L 357.490727 128.682843 
L 358.080797 128.400532 
L 358.670866 127.813997 
L 359.260936 127.613779 
L 359.851006 127.176755 
L 360.441075 127.070591 
L 361.031145 126.431913 
L 361.621215 126.965737 
L 362.211284 126.150459 
L 363.981493 125.060205 
L 364.571563 124.79927 
L 365.161632 124.716976 
L 365.751702 124.499421 
L 366.341771 123.984143 
L 366.931841 124.004369 
L 367.521911 123.794074 
L 368.11198 123.231516 
L 368.70205 122.863665 
L 369.29212 123.112259 
L 371.062328 122.652339 
L 371.652398 122.609275 
L 372.832537 122.160952 
L 373.422607 121.738972 
L 374.012676 121.890823 
L 374.602746 121.179561 
L 375.192816 121.015263 
L 375.782885 119.976095 
L 376.372955 120.001197 
L 376.963024 119.602014 
L 377.553094 118.981422 
L 378.143164 119.23211 
L 378.733233 118.765318 
L 379.323303 118.501929 
L 379.913373 118.375585 
L 380.503442 117.826512 
L 382.273651 116.949294 
L 382.86372 116.069093 
L 383.45379 116.100149 
L 384.04386 115.975917 
L 385.223999 115.060386 
L 385.814069 115.031009 
L 386.404138 114.863948 
L 386.994208 114.232358 
L 388.764417 113.278014 
L 389.354486 113.347214 
L 389.944556 112.983137 
L 390.534625 112.13739 
L 391.714765 111.50092 
L 392.304834 111.182774 
L 393.484973 110.775676 
L 394.075043 110.481739 
L 394.665113 109.860294 
L 395.255182 109.58304 
L 395.845252 109.487243 
L 396.435321 108.959434 
L 397.025391 108.946618 
L 397.615461 108.495135 
L 398.20553 107.583803 
L 398.7956 108.435813 
L 399.385669 107.531923 
L 399.975739 107.551708 
L 400.565809 106.997908 
L 401.155878 106.992979 
L 401.745948 106.627129 
L 402.336017 105.972531 
L 402.926087 105.600365 
L 403.516157 105.443922 
L 404.696296 104.424621 
L 405.876435 104.130861 
L 408.826783 102.321573 
L 409.416853 102.24344 
L 410.596992 101.752874 
L 411.187062 101.188192 
L 412.367201 100.537391 
L 413.54734 99.673083 
L 414.13741 99.901652 
L 414.727479 99.517057 
L 415.317549 98.828075 
L 415.907618 98.460643 
L 417.087758 98.066514 
L 418.857967 96.866173 
L 419.448036 96.428782 
L 420.038106 96.73877 
L 420.628175 95.9742 
L 421.218245 95.739226 
L 422.988454 94.644065 
L 423.578523 94.527823 
L 424.168593 93.547426 
L 424.758663 93.548177 
L 425.348732 93.200753 
L 425.938802 93.2621 
L 427.118941 92.424312 
L 427.709011 92.221434 
L 428.29908 91.877559 
L 428.88915 91.688208 
L 429.479219 91.053778 
L 430.069289 91.294576 
L 430.659359 90.500473 
L 431.249428 90.260862 
L 431.839498 89.614776 
L 432.429567 89.705345 
L 433.019637 88.953798 
L 434.199776 88.487188 
L 435.379915 87.54546 
L 437.150124 86.986721 
L 438.330263 86.372834 
L 438.920333 85.412014 
L 439.510403 85.286739 
L 440.100472 85.469626 
L 440.690542 85.244522 
L 441.280612 84.297264 
L 441.870681 84.333394 
L 442.460751 83.995219 
L 443.05082 83.43097 
L 443.64089 83.524873 
L 444.23096 82.969041 
L 444.821029 82.761317 
L 445.411099 82.369024 
L 446.001168 81.670483 
L 446.591238 81.459186 
L 447.771377 80.812944 
L 448.361447 80.068246 
L 448.951516 80.976613 
L 449.541586 79.993509 
L 450.721725 78.904517 
L 451.311795 78.490213 
L 451.901865 78.220732 
L 452.491934 78.306819 
L 453.082004 77.485564 
L 453.672073 77.781835 
L 454.852212 76.90035 
L 455.442282 76.943992 
L 456.032352 76.118844 
L 457.212491 75.300533 
L 458.39263 74.761893 
L 458.9827 74.316373 
L 459.572769 74.321036 
L 460.162839 74.039407 
L 460.752909 73.457058 
L 461.342978 73.388131 
L 461.933048 72.887865 
L 462.523117 72.163137 
L 463.113187 72.56292 
L 463.703257 72.161548 
L 464.883396 71.546867 
L 465.473465 70.781561 
L 466.063535 70.680128 
L 466.653605 70.03719 
L 467.243674 69.876294 
L 467.833744 69.598494 
L 469.013883 68.718218 
L 470.784092 68.203131 
L 471.374161 68.466137 
L 471.964231 67.629118 
L 472.554301 67.136242 
L 473.14437 67.00331 
L 474.32451 65.997058 
L 474.914579 65.666773 
L 475.504649 65.89127 
L 476.094718 65.247358 
L 476.684788 65.145957 
L 477.864927 63.846212 
L 478.454997 63.488378 
L 479.045066 63.645561 
L 480.225206 62.760559 
L 480.815275 62.678123 
L 481.995414 62.154086 
L 482.585484 61.602482 
L 483.175554 61.537073 
L 483.765623 61.354749 
L 484.355693 60.493854 
L 484.945763 60.174244 
L 486.715971 59.678864 
L 487.306041 59.109713 
L 487.89611 59.370036 
L 488.48618 58.903284 
L 489.07625 58.117711 
L 489.666319 58.210307 
L 490.256389 57.302997 
L 490.846459 56.999305 
L 491.436528 56.972754 
L 493.796806 55.580505 
L 494.976946 55.048977 
L 495.567015 54.917992 
L 496.157085 54.619664 
L 496.747155 54.581025 
L 497.337224 53.971649 
L 497.927294 53.569008 
L 498.517363 53.377269 
L 499.107433 52.760461 
L 499.697503 52.880779 
L 500.877642 51.985978 
L 502.057781 51.212608 
L 502.647851 50.759544 
L 503.23792 50.497043 
L 503.82799 50.608068 
L 504.418059 49.859072 
L 505.008129 49.665598 
L 505.598199 49.320897 
L 506.188268 49.183858 
L 507.368408 48.037423 
L 507.958477 48.268553 
L 509.138616 47.944617 
L 509.728686 47.163956 
L 510.908825 46.895173 
L 511.498895 46.260916 
L 512.679034 45.947367 
L 513.269104 44.789971 
L 513.859173 45.042703 
L 514.449243 44.402359 
L 515.039312 44.420263 
L 515.629382 44.048861 
L 516.219452 43.978 
L 516.809521 43.179698 
L 517.399591 43.426945 
L 518.57973 42.277281 
L 519.1698 42.461927 
L 519.759869 41.74407 
L 520.349939 41.673775 
L 520.940009 41.20488 
L 522.120148 41.028574 
L 522.710217 40.666083 
L 523.300287 39.760886 
L 523.890357 39.313751 
L 525.070496 38.914443 
L 525.660565 38.409212 
L 526.250635 38.744577 
L 526.840705 38.516132 
L 527.430774 37.733115 
L 528.020844 37.333228 
L 528.610913 37.686469 
L 529.200983 36.427533 
L 529.791053 36.61571 
L 530.971192 35.759932 
L 531.561261 35.647202 
L 532.151331 35.067822 
L 532.741401 35.020039 
L 533.33147 34.517765 
L 535.101679 33.669242 
L 535.691749 33.845241 
L 536.281818 33.233965 
L 536.871888 33.133727 
L 537.461957 32.365589 
L 538.052027 32.485181 
L 538.642097 31.772158 
L 539.232166 31.887377 
L 539.822236 31.16546 
L 540.412306 30.982582 
L 541.002375 30.408064 
L 541.592445 30.313852 
L 542.182514 30.592589 
L 543.362653 29.270833 
L 543.952723 28.900781 
L 544.542793 28.827712 
L 545.132862 28.424736 
L 545.722932 28.444066 
L 546.313002 28.154258 
L 548.08321 26.43206 
L 548.67328 26.081671 
L 549.26335 26.045084 
L 552.803767 24.052727 
L 552.803767 24.052727 
" style="fill:none;stroke:#1f77b4;stroke-linecap:square;stroke-width:1.5;"/>
   </g>
   <g id="patch_3">
    <path d="M 50.976377 304.46 
L 50.976377 10.7 
" style="fill:none;stroke:#000000;stroke-linecap:square;stroke-linejoin:miter;stroke-width:0.8;"/>
   </g>
   <g id="patch_4">
    <path d="M 553.176377 304.46 
L 553.176377 10.7 
" style="fill:none;stroke:#000000;stroke-linecap:square;stroke-linejoin:miter;stroke-width:0.8;"/>
   </g>
   <g id="patch_5">
    <path d="M 50.976377 304.46 
L 553.176376 304.46 
" style="fill:none;stroke:#000000;stroke-linecap:square;stroke-linejoin:miter;stroke-width:0.8;"/>
   </g>
   <g id="patch_6">
    <path d="M 50.976377 10.7 
L 553.176376 10.7 
" style="fill:none;stroke:#000000;stroke-linecap:square;stroke-linejoin:miter;stroke-width:0.8;"/>
   </g>
   <g id="legend_1">
    <g id="patch_7">
     <path d="M 57.976377 33.378125 
L 106.734189 33.378125 
Q 108.734189 33.378125 108.734189 31.378125 
L 108.734189 17.7 
Q 108.734189 15.7 106.734189 15.7 
L 57.976377 15.7 
Q 55.976377 15.7 55.976377 17.7 
L 55.976377 31.378125 
Q 55.976377 33.378125 57.976377 33.378125 
z
" style="fill:#ffffff;opacity:0.8;stroke:#cccccc;stroke-linejoin:miter;"/>
    </g>
    <g id="line2d_30">
     <path d="M 59.976377 23.798437 
L 79.976377 23.798437 
" style="fill:none;stroke:#1f77b4;stroke-linecap:square;stroke-width:1.5;"/>
    </g>
    <g id="line2d_31"/>
    <g id="text_16">
     <!-- TID -->
     <defs>
      <path d="M 9.8125 72.90625 
L 19.671875 72.90625 
L 19.671875 0 
L 9.8125 0 
z
" id="DejaVuSans-49"/>
      <path d="M 19.671875 64.796875 
L 19.671875 8.109375 
L 31.59375 8.109375 
Q 46.6875 8.109375 53.6875 14.9375 
Q 60.6875 21.78125 60.6875 36.53125 
Q 60.6875 51.171875 53.6875 57.984375 
Q 46.6875 64.796875 31.59375 64.796875 
z
M 9.8125 72.90625 
L 30.078125 72.90625 
Q 51.265625 72.90625 61.171875 64.09375 
Q 71.09375 55.28125 71.09375 36.53125 
Q 71.09375 17.671875 61.125 8.828125 
Q 51.171875 0 30.078125 0 
L 9.8125 0 
z
" id="DejaVuSans-44"/>
     </defs>
     <g transform="translate(87.976377 27.298437)scale(0.1 -0.1)">
      <use xlink:href="#DejaVuSans-54"/>
      <use x="61.083984" xlink:href="#DejaVuSans-49"/>
      <use x="90.576172" xlink:href="#DejaVuSans-44"/>
     </g>
    </g>
   </g>
  </g>
 </g>
 <defs>
  <clipPath id="p06dd0fa5db">
   <rect height="293.76" width="502.2" x="50.976377" y="10.7"/>
  </clipPath>
 </defs>
</svg>
