<?xml version="1.0" encoding="utf-8" standalone="no"?>
<!DOCTYPE svg PUBLIC "-//W3C//DTD SVG 1.1//EN"
  "http://www.w3.org/Graphics/SVG/1.1/DTD/svg11.dtd">
<!-- Created with matplotlib (http://matplotlib.org/) -->
<svg height="363.200096pt" version="1.1" viewBox="0 0 563.876377 363.200096" width="563.876377pt" xmlns="http://www.w3.org/2000/svg" xmlns:xlink="http://www.w3.org/1999/xlink">
 <defs>
  <style type="text/css">
*{stroke-linecap:butt;stroke-linejoin:round;}
  </style>
 </defs>
 <g id="figure_1">
  <g id="patch_1">
   <path d="M -0 363.200096 
L 563.876377 363.200096 
L 563.876377 0 
L -0 0 
z
" style="fill:#ffffff;"/>
  </g>
  <g id="axes_1">
   <g id="patch_2">
    <path d="M 50.976377 304.46 
L 553.176377 304.46 
L 553.176377 10.7 
L 50.976377 10.7 
z
" style="fill:#ffffff;"/>
   </g>
   <g id="matplotlib.axis_1">
    <g id="xtick_1">
     <g id="line2d_1">
      <path clip-path="url(#p8e68c49082)" d="M 50.976377 304.46 
L 50.976377 10.7 
" style="fill:none;stroke:#b0b0b0;stroke-linecap:square;stroke-width:0.8;"/>
     </g>
     <g id="line2d_2">
      <defs>
       <path d="M 0 0 
L 0 3.5 
" id="m30da482497" style="stroke:#000000;stroke-width:0.8;"/>
      </defs>
      <g>
       <use style="stroke:#000000;stroke-width:0.8;" x="50.976377" xlink:href="#m30da482497" y="304.46"/>
      </g>
     </g>
     <g id="text_1">
      <!-- 05-27 20 -->
      <defs>
       <path d="M 31.78125 66.40625 
Q 24.171875 66.40625 20.328125 58.90625 
Q 16.5 51.421875 16.5 36.375 
Q 16.5 21.390625 20.328125 13.890625 
Q 24.171875 6.390625 31.78125 6.390625 
Q 39.453125 6.390625 43.28125 13.890625 
Q 47.125 21.390625 47.125 36.375 
Q 47.125 51.421875 43.28125 58.90625 
Q 39.453125 66.40625 31.78125 66.40625 
z
M 31.78125 74.21875 
Q 44.046875 74.21875 50.515625 64.515625 
Q 56.984375 54.828125 56.984375 36.375 
Q 56.984375 17.96875 50.515625 8.265625 
Q 44.046875 -1.421875 31.78125 -1.421875 
Q 19.53125 -1.421875 13.0625 8.265625 
Q 6.59375 17.96875 6.59375 36.375 
Q 6.59375 54.828125 13.0625 64.515625 
Q 19.53125 74.21875 31.78125 74.21875 
z
" id="DejaVuSans-30"/>
       <path d="M 10.796875 72.90625 
L 49.515625 72.90625 
L 49.515625 64.59375 
L 19.828125 64.59375 
L 19.828125 46.734375 
Q 21.96875 47.46875 24.109375 47.828125 
Q 26.265625 48.1875 28.421875 48.1875 
Q 40.625 48.1875 47.75 41.5 
Q 54.890625 34.8125 54.890625 23.390625 
Q 54.890625 11.625 47.5625 5.09375 
Q 40.234375 -1.421875 26.90625 -1.421875 
Q 22.3125 -1.421875 17.546875 -0.640625 
Q 12.796875 0.140625 7.71875 1.703125 
L 7.71875 11.625 
Q 12.109375 9.234375 16.796875 8.0625 
Q 21.484375 6.890625 26.703125 6.890625 
Q 35.15625 6.890625 40.078125 11.328125 
Q 45.015625 15.765625 45.015625 23.390625 
Q 45.015625 31 40.078125 35.4375 
Q 35.15625 39.890625 26.703125 39.890625 
Q 22.75 39.890625 18.8125 39.015625 
Q 14.890625 38.140625 10.796875 36.28125 
z
" id="DejaVuSans-35"/>
       <path d="M 4.890625 31.390625 
L 31.203125 31.390625 
L 31.203125 23.390625 
L 4.890625 23.390625 
z
" id="DejaVuSans-2d"/>
       <path d="M 19.1875 8.296875 
L 53.609375 8.296875 
L 53.609375 0 
L 7.328125 0 
L 7.328125 8.296875 
Q 12.9375 14.109375 22.625 23.890625 
Q 32.328125 33.6875 34.8125 36.53125 
Q 39.546875 41.84375 41.421875 45.53125 
Q 43.3125 49.21875 43.3125 52.78125 
Q 43.3125 58.59375 39.234375 62.25 
Q 35.15625 65.921875 28.609375 65.921875 
Q 23.96875 65.921875 18.8125 64.3125 
Q 13.671875 62.703125 7.8125 59.421875 
L 7.8125 69.390625 
Q 13.765625 71.78125 18.9375 73 
Q 24.125 74.21875 28.421875 74.21875 
Q 39.75 74.21875 46.484375 68.546875 
Q 53.21875 62.890625 53.21875 53.421875 
Q 53.21875 48.921875 51.53125 44.890625 
Q 49.859375 40.875 45.40625 35.40625 
Q 44.1875 33.984375 37.640625 27.21875 
Q 31.109375 20.453125 19.1875 8.296875 
z
" id="DejaVuSans-32"/>
       <path d="M 8.203125 72.90625 
L 55.078125 72.90625 
L 55.078125 68.703125 
L 28.609375 0 
L 18.3125 0 
L 43.21875 64.59375 
L 8.203125 64.59375 
z
" id="DejaVuSans-37"/>
       <path id="DejaVuSans-20"/>
      </defs>
      <g transform="translate(10.999219 340.520909)rotate(-30)scale(0.1 -0.1)">
       <use xlink:href="#DejaVuSans-30"/>
       <use x="63.623047" xlink:href="#DejaVuSans-35"/>
       <use x="127.246094" xlink:href="#DejaVuSans-2d"/>
       <use x="163.330078" xlink:href="#DejaVuSans-32"/>
       <use x="226.953125" xlink:href="#DejaVuSans-37"/>
       <use x="290.576172" xlink:href="#DejaVuSans-20"/>
       <use x="322.363281" xlink:href="#DejaVuSans-32"/>
       <use x="385.986328" xlink:href="#DejaVuSans-30"/>
      </g>
     </g>
    </g>
    <g id="xtick_2">
     <g id="line2d_3">
      <path clip-path="url(#p8e68c49082)" d="M 134.676376 304.46 
L 134.676376 10.7 
" style="fill:none;stroke:#b0b0b0;stroke-linecap:square;stroke-width:0.8;"/>
     </g>
     <g id="line2d_4">
      <g>
       <use style="stroke:#000000;stroke-width:0.8;" x="134.676376" xlink:href="#m30da482497" y="304.46"/>
      </g>
     </g>
     <g id="text_2">
      <!-- 05-27 22 -->
      <g transform="translate(94.699219 340.520909)rotate(-30)scale(0.1 -0.1)">
       <use xlink:href="#DejaVuSans-30"/>
       <use x="63.623047" xlink:href="#DejaVuSans-35"/>
       <use x="127.246094" xlink:href="#DejaVuSans-2d"/>
       <use x="163.330078" xlink:href="#DejaVuSans-32"/>
       <use x="226.953125" xlink:href="#DejaVuSans-37"/>
       <use x="290.576172" xlink:href="#DejaVuSans-20"/>
       <use x="322.363281" xlink:href="#DejaVuSans-32"/>
       <use x="385.986328" xlink:href="#DejaVuSans-32"/>
      </g>
     </g>
    </g>
    <g id="xtick_3">
     <g id="line2d_5">
      <path clip-path="url(#p8e68c49082)" d="M 218.376377 304.46 
L 218.376377 10.7 
" style="fill:none;stroke:#b0b0b0;stroke-linecap:square;stroke-width:0.8;"/>
     </g>
     <g id="line2d_6">
      <g>
       <use style="stroke:#000000;stroke-width:0.8;" x="218.376377" xlink:href="#m30da482497" y="304.46"/>
      </g>
     </g>
     <g id="text_3">
      <!-- 05-28 00 -->
      <defs>
       <path d="M 31.78125 34.625 
Q 24.75 34.625 20.71875 30.859375 
Q 16.703125 27.09375 16.703125 20.515625 
Q 16.703125 13.921875 20.71875 10.15625 
Q 24.75 6.390625 31.78125 6.390625 
Q 38.8125 6.390625 42.859375 10.171875 
Q 46.921875 13.96875 46.921875 20.515625 
Q 46.921875 27.09375 42.890625 30.859375 
Q 38.875 34.625 31.78125 34.625 
z
M 21.921875 38.8125 
Q 15.578125 40.375 12.03125 44.71875 
Q 8.5 49.078125 8.5 55.328125 
Q 8.5 64.0625 14.71875 69.140625 
Q 20.953125 74.21875 31.78125 74.21875 
Q 42.671875 74.21875 48.875 69.140625 
Q 55.078125 64.0625 55.078125 55.328125 
Q 55.078125 49.078125 51.53125 44.71875 
Q 48 40.375 41.703125 38.8125 
Q 48.828125 37.15625 52.796875 32.3125 
Q 56.78125 27.484375 56.78125 20.515625 
Q 56.78125 9.90625 50.3125 4.234375 
Q 43.84375 -1.421875 31.78125 -1.421875 
Q 19.734375 -1.421875 13.25 4.234375 
Q 6.78125 9.90625 6.78125 20.515625 
Q 6.78125 27.484375 10.78125 32.3125 
Q 14.796875 37.15625 21.921875 38.8125 
z
M 18.3125 54.390625 
Q 18.3125 48.734375 21.84375 45.5625 
Q 25.390625 42.390625 31.78125 42.390625 
Q 38.140625 42.390625 41.71875 45.5625 
Q 45.3125 48.734375 45.3125 54.390625 
Q 45.3125 60.0625 41.71875 63.234375 
Q 38.140625 66.40625 31.78125 66.40625 
Q 25.390625 66.40625 21.84375 63.234375 
Q 18.3125 60.0625 18.3125 54.390625 
z
" id="DejaVuSans-38"/>
      </defs>
      <g transform="translate(178.399219 340.520909)rotate(-30)scale(0.1 -0.1)">
       <use xlink:href="#DejaVuSans-30"/>
       <use x="63.623047" xlink:href="#DejaVuSans-35"/>
       <use x="127.246094" xlink:href="#DejaVuSans-2d"/>
       <use x="163.330078" xlink:href="#DejaVuSans-32"/>
       <use x="226.953125" xlink:href="#DejaVuSans-38"/>
       <use x="290.576172" xlink:href="#DejaVuSans-20"/>
       <use x="322.363281" xlink:href="#DejaVuSans-30"/>
       <use x="385.986328" xlink:href="#DejaVuSans-30"/>
      </g>
     </g>
    </g>
    <g id="xtick_4">
     <g id="line2d_7">
      <path clip-path="url(#p8e68c49082)" d="M 302.076377 304.46 
L 302.076377 10.7 
" style="fill:none;stroke:#b0b0b0;stroke-linecap:square;stroke-width:0.8;"/>
     </g>
     <g id="line2d_8">
      <g>
       <use style="stroke:#000000;stroke-width:0.8;" x="302.076377" xlink:href="#m30da482497" y="304.46"/>
      </g>
     </g>
     <g id="text_4">
      <!-- 05-28 02 -->
      <g transform="translate(262.099219 340.520909)rotate(-30)scale(0.1 -0.1)">
       <use xlink:href="#DejaVuSans-30"/>
       <use x="63.623047" xlink:href="#DejaVuSans-35"/>
       <use x="127.246094" xlink:href="#DejaVuSans-2d"/>
       <use x="163.330078" xlink:href="#DejaVuSans-32"/>
       <use x="226.953125" xlink:href="#DejaVuSans-38"/>
       <use x="290.576172" xlink:href="#DejaVuSans-20"/>
       <use x="322.363281" xlink:href="#DejaVuSans-30"/>
       <use x="385.986328" xlink:href="#DejaVuSans-32"/>
      </g>
     </g>
    </g>
    <g id="xtick_5">
     <g id="line2d_9">
      <path clip-path="url(#p8e68c49082)" d="M 385.776376 304.46 
L 385.776376 10.7 
" style="fill:none;stroke:#b0b0b0;stroke-linecap:square;stroke-width:0.8;"/>
     </g>
     <g id="line2d_10">
      <g>
       <use style="stroke:#000000;stroke-width:0.8;" x="385.776376" xlink:href="#m30da482497" y="304.46"/>
      </g>
     </g>
     <g id="text_5">
      <!-- 05-28 04 -->
      <defs>
       <path d="M 37.796875 64.3125 
L 12.890625 25.390625 
L 37.796875 25.390625 
z
M 35.203125 72.90625 
L 47.609375 72.90625 
L 47.609375 25.390625 
L 58.015625 25.390625 
L 58.015625 17.1875 
L 47.609375 17.1875 
L 47.609375 0 
L 37.796875 0 
L 37.796875 17.1875 
L 4.890625 17.1875 
L 4.890625 26.703125 
z
" id="DejaVuSans-34"/>
      </defs>
      <g transform="translate(345.799219 340.520909)rotate(-30)scale(0.1 -0.1)">
       <use xlink:href="#DejaVuSans-30"/>
       <use x="63.623047" xlink:href="#DejaVuSans-35"/>
       <use x="127.246094" xlink:href="#DejaVuSans-2d"/>
       <use x="163.330078" xlink:href="#DejaVuSans-32"/>
       <use x="226.953125" xlink:href="#DejaVuSans-38"/>
       <use x="290.576172" xlink:href="#DejaVuSans-20"/>
       <use x="322.363281" xlink:href="#DejaVuSans-30"/>
       <use x="385.986328" xlink:href="#DejaVuSans-34"/>
      </g>
     </g>
    </g>
    <g id="xtick_6">
     <g id="line2d_11">
      <path clip-path="url(#p8e68c49082)" d="M 469.476377 304.46 
L 469.476377 10.7 
" style="fill:none;stroke:#b0b0b0;stroke-linecap:square;stroke-width:0.8;"/>
     </g>
     <g id="line2d_12">
      <g>
       <use style="stroke:#000000;stroke-width:0.8;" x="469.476377" xlink:href="#m30da482497" y="304.46"/>
      </g>
     </g>
     <g id="text_6">
      <!-- 05-28 06 -->
      <defs>
       <path d="M 33.015625 40.375 
Q 26.375 40.375 22.484375 35.828125 
Q 18.609375 31.296875 18.609375 23.390625 
Q 18.609375 15.53125 22.484375 10.953125 
Q 26.375 6.390625 33.015625 6.390625 
Q 39.65625 6.390625 43.53125 10.953125 
Q 47.40625 15.53125 47.40625 23.390625 
Q 47.40625 31.296875 43.53125 35.828125 
Q 39.65625 40.375 33.015625 40.375 
z
M 52.59375 71.296875 
L 52.59375 62.3125 
Q 48.875 64.0625 45.09375 64.984375 
Q 41.3125 65.921875 37.59375 65.921875 
Q 27.828125 65.921875 22.671875 59.328125 
Q 17.53125 52.734375 16.796875 39.40625 
Q 19.671875 43.65625 24.015625 45.921875 
Q 28.375 48.1875 33.59375 48.1875 
Q 44.578125 48.1875 50.953125 41.515625 
Q 57.328125 34.859375 57.328125 23.390625 
Q 57.328125 12.15625 50.6875 5.359375 
Q 44.046875 -1.421875 33.015625 -1.421875 
Q 20.359375 -1.421875 13.671875 8.265625 
Q 6.984375 17.96875 6.984375 36.375 
Q 6.984375 53.65625 15.1875 63.9375 
Q 23.390625 74.21875 37.203125 74.21875 
Q 40.921875 74.21875 44.703125 73.484375 
Q 48.484375 72.75 52.59375 71.296875 
z
" id="DejaVuSans-36"/>
      </defs>
      <g transform="translate(429.499219 340.520909)rotate(-30)scale(0.1 -0.1)">
       <use xlink:href="#DejaVuSans-30"/>
       <use x="63.623047" xlink:href="#DejaVuSans-35"/>
       <use x="127.246094" xlink:href="#DejaVuSans-2d"/>
       <use x="163.330078" xlink:href="#DejaVuSans-32"/>
       <use x="226.953125" xlink:href="#DejaVuSans-38"/>
       <use x="290.576172" xlink:href="#DejaVuSans-20"/>
       <use x="322.363281" xlink:href="#DejaVuSans-30"/>
       <use x="385.986328" xlink:href="#DejaVuSans-36"/>
      </g>
     </g>
    </g>
    <g id="xtick_7">
     <g id="line2d_13">
      <path clip-path="url(#p8e68c49082)" d="M 553.176377 304.46 
L 553.176377 10.7 
" style="fill:none;stroke:#b0b0b0;stroke-linecap:square;stroke-width:0.8;"/>
     </g>
     <g id="line2d_14">
      <g>
       <use style="stroke:#000000;stroke-width:0.8;" x="553.176377" xlink:href="#m30da482497" y="304.46"/>
      </g>
     </g>
     <g id="text_7">
      <!-- 05-28 08 -->
      <g transform="translate(513.199219 340.520909)rotate(-30)scale(0.1 -0.1)">
       <use xlink:href="#DejaVuSans-30"/>
       <use x="63.623047" xlink:href="#DejaVuSans-35"/>
       <use x="127.246094" xlink:href="#DejaVuSans-2d"/>
       <use x="163.330078" xlink:href="#DejaVuSans-32"/>
       <use x="226.953125" xlink:href="#DejaVuSans-38"/>
       <use x="290.576172" xlink:href="#DejaVuSans-20"/>
       <use x="322.363281" xlink:href="#DejaVuSans-30"/>
       <use x="385.986328" xlink:href="#DejaVuSans-38"/>
      </g>
     </g>
    </g>
    <g id="text_8">
     <!-- Time -->
     <defs>
      <path d="M -0.296875 72.90625 
L 61.375 72.90625 
L 61.375 64.59375 
L 35.5 64.59375 
L 35.5 0 
L 25.59375 0 
L 25.59375 64.59375 
L -0.296875 64.59375 
z
" id="DejaVuSans-54"/>
      <path d="M 9.421875 54.6875 
L 18.40625 54.6875 
L 18.40625 0 
L 9.421875 0 
z
M 9.421875 75.984375 
L 18.40625 75.984375 
L 18.40625 64.59375 
L 9.421875 64.59375 
z
" id="DejaVuSans-69"/>
      <path d="M 52 44.1875 
Q 55.375 50.25 60.0625 53.125 
Q 64.75 56 71.09375 56 
Q 79.640625 56 84.28125 50.015625 
Q 88.921875 44.046875 88.921875 33.015625 
L 88.921875 0 
L 79.890625 0 
L 79.890625 32.71875 
Q 79.890625 40.578125 77.09375 44.375 
Q 74.3125 48.1875 68.609375 48.1875 
Q 61.625 48.1875 57.5625 43.546875 
Q 53.515625 38.921875 53.515625 30.90625 
L 53.515625 0 
L 44.484375 0 
L 44.484375 32.71875 
Q 44.484375 40.625 41.703125 44.40625 
Q 38.921875 48.1875 33.109375 48.1875 
Q 26.21875 48.1875 22.15625 43.53125 
Q 18.109375 38.875 18.109375 30.90625 
L 18.109375 0 
L 9.078125 0 
L 9.078125 54.6875 
L 18.109375 54.6875 
L 18.109375 46.1875 
Q 21.1875 51.21875 25.484375 53.609375 
Q 29.78125 56 35.6875 56 
Q 41.65625 56 45.828125 52.96875 
Q 50 49.953125 52 44.1875 
z
" id="DejaVuSans-6d"/>
      <path d="M 56.203125 29.59375 
L 56.203125 25.203125 
L 14.890625 25.203125 
Q 15.484375 15.921875 20.484375 11.0625 
Q 25.484375 6.203125 34.421875 6.203125 
Q 39.59375 6.203125 44.453125 7.46875 
Q 49.3125 8.734375 54.109375 11.28125 
L 54.109375 2.78125 
Q 49.265625 0.734375 44.1875 -0.34375 
Q 39.109375 -1.421875 33.890625 -1.421875 
Q 20.796875 -1.421875 13.15625 6.1875 
Q 5.515625 13.8125 5.515625 26.8125 
Q 5.515625 40.234375 12.765625 48.109375 
Q 20.015625 56 32.328125 56 
Q 43.359375 56 49.78125 48.890625 
Q 56.203125 41.796875 56.203125 29.59375 
z
M 47.21875 32.234375 
Q 47.125 39.59375 43.09375 43.984375 
Q 39.0625 48.390625 32.421875 48.390625 
Q 24.90625 48.390625 20.390625 44.140625 
Q 15.875 39.890625 15.1875 32.171875 
z
" id="DejaVuSans-65"/>
     </defs>
     <g transform="translate(289.688877 353.920408)scale(0.1 -0.1)">
      <use xlink:href="#DejaVuSans-54"/>
      <use x="61.037109" xlink:href="#DejaVuSans-69"/>
      <use x="88.820312" xlink:href="#DejaVuSans-6d"/>
      <use x="186.232422" xlink:href="#DejaVuSans-65"/>
     </g>
    </g>
   </g>
   <g id="matplotlib.axis_2">
    <g id="ytick_1">
     <g id="line2d_15">
      <path clip-path="url(#p8e68c49082)" d="M 50.976377 301.401918 
L 553.176377 301.401918 
" style="fill:none;stroke:#b0b0b0;stroke-linecap:square;stroke-width:0.8;"/>
     </g>
     <g id="line2d_16">
      <defs>
       <path d="M 0 0 
L -3.5 0 
" id="mf2c7710611" style="stroke:#000000;stroke-width:0.8;"/>
      </defs>
      <g>
       <use style="stroke:#000000;stroke-width:0.8;" x="50.976377" xlink:href="#mf2c7710611" y="301.401918"/>
      </g>
     </g>
     <g id="text_9">
      <!-- 58 -->
      <g transform="translate(31.251377 305.201137)scale(0.1 -0.1)">
       <use xlink:href="#DejaVuSans-35"/>
       <use x="63.623047" xlink:href="#DejaVuSans-38"/>
      </g>
     </g>
    </g>
    <g id="ytick_2">
     <g id="line2d_17">
      <path clip-path="url(#p8e68c49082)" d="M 50.976377 260.641102 
L 553.176377 260.641102 
" style="fill:none;stroke:#b0b0b0;stroke-linecap:square;stroke-width:0.8;"/>
     </g>
     <g id="line2d_18">
      <g>
       <use style="stroke:#000000;stroke-width:0.8;" x="50.976377" xlink:href="#mf2c7710611" y="260.641102"/>
      </g>
     </g>
     <g id="text_10">
      <!-- 60 -->
      <g transform="translate(31.251377 264.440321)scale(0.1 -0.1)">
       <use xlink:href="#DejaVuSans-36"/>
       <use x="63.623047" xlink:href="#DejaVuSans-30"/>
      </g>
     </g>
    </g>
    <g id="ytick_3">
     <g id="line2d_19">
      <path clip-path="url(#p8e68c49082)" d="M 50.976377 219.880286 
L 553.176377 219.880286 
" style="fill:none;stroke:#b0b0b0;stroke-linecap:square;stroke-width:0.8;"/>
     </g>
     <g id="line2d_20">
      <g>
       <use style="stroke:#000000;stroke-width:0.8;" x="50.976377" xlink:href="#mf2c7710611" y="219.880286"/>
      </g>
     </g>
     <g id="text_11">
      <!-- 62 -->
      <g transform="translate(31.251377 223.679505)scale(0.1 -0.1)">
       <use xlink:href="#DejaVuSans-36"/>
       <use x="63.623047" xlink:href="#DejaVuSans-32"/>
      </g>
     </g>
    </g>
    <g id="ytick_4">
     <g id="line2d_21">
      <path clip-path="url(#p8e68c49082)" d="M 50.976377 179.11947 
L 553.176377 179.11947 
" style="fill:none;stroke:#b0b0b0;stroke-linecap:square;stroke-width:0.8;"/>
     </g>
     <g id="line2d_22">
      <g>
       <use style="stroke:#000000;stroke-width:0.8;" x="50.976377" xlink:href="#mf2c7710611" y="179.11947"/>
      </g>
     </g>
     <g id="text_12">
      <!-- 64 -->
      <g transform="translate(31.251377 182.918689)scale(0.1 -0.1)">
       <use xlink:href="#DejaVuSans-36"/>
       <use x="63.623047" xlink:href="#DejaVuSans-34"/>
      </g>
     </g>
    </g>
    <g id="ytick_5">
     <g id="line2d_23">
      <path clip-path="url(#p8e68c49082)" d="M 50.976377 138.358654 
L 553.176377 138.358654 
" style="fill:none;stroke:#b0b0b0;stroke-linecap:square;stroke-width:0.8;"/>
     </g>
     <g id="line2d_24">
      <g>
       <use style="stroke:#000000;stroke-width:0.8;" x="50.976377" xlink:href="#mf2c7710611" y="138.358654"/>
      </g>
     </g>
     <g id="text_13">
      <!-- 66 -->
      <g transform="translate(31.251377 142.157873)scale(0.1 -0.1)">
       <use xlink:href="#DejaVuSans-36"/>
       <use x="63.623047" xlink:href="#DejaVuSans-36"/>
      </g>
     </g>
    </g>
    <g id="ytick_6">
     <g id="line2d_25">
      <path clip-path="url(#p8e68c49082)" d="M 50.976377 97.597838 
L 553.176377 97.597838 
" style="fill:none;stroke:#b0b0b0;stroke-linecap:square;stroke-width:0.8;"/>
     </g>
     <g id="line2d_26">
      <g>
       <use style="stroke:#000000;stroke-width:0.8;" x="50.976377" xlink:href="#mf2c7710611" y="97.597838"/>
      </g>
     </g>
     <g id="text_14">
      <!-- 68 -->
      <g transform="translate(31.251377 101.397057)scale(0.1 -0.1)">
       <use xlink:href="#DejaVuSans-36"/>
       <use x="63.623047" xlink:href="#DejaVuSans-38"/>
      </g>
     </g>
    </g>
    <g id="ytick_7">
     <g id="line2d_27">
      <path clip-path="url(#p8e68c49082)" d="M 50.976377 56.837022 
L 553.176377 56.837022 
" style="fill:none;stroke:#b0b0b0;stroke-linecap:square;stroke-width:0.8;"/>
     </g>
     <g id="line2d_28">
      <g>
       <use style="stroke:#000000;stroke-width:0.8;" x="50.976377" xlink:href="#mf2c7710611" y="56.837022"/>
      </g>
     </g>
     <g id="text_15">
      <!-- 70 -->
      <g transform="translate(31.251377 60.636241)scale(0.1 -0.1)">
       <use xlink:href="#DejaVuSans-37"/>
       <use x="63.623047" xlink:href="#DejaVuSans-30"/>
      </g>
     </g>
    </g>
    <g id="ytick_8">
     <g id="line2d_29">
      <path clip-path="url(#p8e68c49082)" d="M 50.976377 16.076206 
L 553.176377 16.076206 
" style="fill:none;stroke:#b0b0b0;stroke-linecap:square;stroke-width:0.8;"/>
     </g>
     <g id="line2d_30">
      <g>
       <use style="stroke:#000000;stroke-width:0.8;" x="50.976377" xlink:href="#mf2c7710611" y="16.076206"/>
      </g>
     </g>
     <g id="text_16">
      <!-- 72 -->
      <g transform="translate(31.251377 19.875425)scale(0.1 -0.1)">
       <use xlink:href="#DejaVuSans-37"/>
       <use x="63.623047" xlink:href="#DejaVuSans-32"/>
      </g>
     </g>
    </g>
   </g>
   <g id="line2d_31">
    <path clip-path="url(#p8e68c49082)" d="M 51.041543 291.107273 
L 51.631613 290.677734 
L 52.221683 290.480913 
L 52.811752 289.77577 
L 53.401822 289.443109 
L 53.991892 289.260451 
L 54.581961 288.614576 
L 55.172031 288.561867 
L 55.7621 287.868707 
L 56.35217 288.076534 
L 57.532309 286.662857 
L 58.122379 286.302657 
L 59.302518 286.559319 
L 59.892588 286.260058 
L 60.482657 285.633473 
L 61.072727 285.513085 
L 61.662796 285.255117 
L 62.252866 285.497996 
L 64.023075 283.63431 
L 65.203214 283.81755 
L 65.793284 283.207102 
L 66.383353 283.026611 
L 67.563492 282.037123 
L 68.743632 282.091364 
L 69.333701 281.577344 
L 69.923771 280.767686 
L 71.10391 280.428394 
L 71.69398 280.694263 
L 72.874119 279.250292 
L 73.464189 279.297994 
L 74.054258 279.159939 
L 74.644328 279.153814 
L 75.234397 278.662364 
L 75.824467 277.765833 
L 77.594676 277.536202 
L 78.184745 276.856749 
L 79.364885 276.686374 
L 80.545024 275.844726 
L 81.135093 275.967486 
L 81.725163 275.640387 
L 82.905302 274.692888 
L 83.495372 274.587291 
L 84.085441 273.733726 
L 84.675511 273.637866 
L 85.265581 273.360154 
L 85.85565 273.230983 
L 88.215929 271.953811 
L 88.805998 271.809551 
L 89.396068 271.399891 
L 89.986138 271.546688 
L 90.576207 271.319993 
L 91.166277 270.863748 
L 91.756346 270.819189 
L 92.346416 270.611102 
L 92.936486 269.973818 
L 93.526555 269.54018 
L 94.116625 269.848903 
L 95.296764 268.574824 
L 95.886834 268.136177 
L 96.476903 268.455559 
L 97.657043 267.398814 
L 98.247112 268.084963 
L 98.837182 267.197639 
L 99.427251 267.171647 
L 100.60739 266.138202 
L 101.19746 265.808517 
L 101.78753 265.869832 
L 105.327947 263.995686 
L 105.918017 263.058783 
L 106.508087 262.661479 
L 107.098156 263.136718 
L 107.688226 262.351744 
L 108.278295 261.858313 
L 108.868365 262.161107 
L 109.458435 261.956454 
L 110.048504 261.159282 
L 110.638574 261.344084 
L 111.228643 260.962172 
L 111.818713 261.270303 
L 112.408783 260.700329 
L 112.998852 259.723764 
L 113.588922 259.589043 
L 114.178991 259.080864 
L 114.769061 259.209276 
L 115.359131 258.457834 
L 115.9492 258.635382 
L 117.129339 257.789617 
L 117.719409 257.694555 
L 118.309479 257.880372 
L 118.899548 257.359452 
L 119.489618 257.314646 
L 120.669757 256.730827 
L 121.259827 256.045046 
L 121.849896 255.79068 
L 122.439966 256.023293 
L 123.030035 255.55403 
L 123.620105 255.341273 
L 124.210175 254.568128 
L 124.800244 254.255141 
L 125.390314 254.077518 
L 125.980384 253.736978 
L 126.570453 254.08824 
L 127.160523 253.293087 
L 127.750592 253.583744 
L 128.930732 252.372434 
L 129.520801 252.458531 
L 130.110871 252.078303 
L 130.70094 251.488555 
L 131.29101 252.064699 
L 131.88108 251.117624 
L 133.061219 250.176873 
L 133.651289 250.511642 
L 134.241358 249.873156 
L 134.831428 250.379694 
L 135.421497 249.018485 
L 136.011567 249.49086 
L 136.601637 248.713885 
L 137.191706 248.315919 
L 138.371845 248.465621 
L 138.961915 247.687185 
L 139.551985 247.886845 
L 140.142054 247.026972 
L 140.732124 247.0027 
L 141.322193 246.604407 
L 142.502333 246.376181 
L 143.682472 245.277446 
L 144.272541 245.181975 
L 144.862611 244.926071 
L 146.04275 244.031435 
L 146.63282 244.76352 
L 147.222889 243.872024 
L 147.812959 244.322268 
L 148.403029 242.975143 
L 149.583168 243.141951 
L 150.173237 242.23416 
L 150.763307 242.279722 
L 151.943446 241.294876 
L 152.533516 241.200641 
L 154.303725 240.535006 
L 154.893794 239.882264 
L 156.073933 239.753259 
L 156.664003 239.184491 
L 157.254073 240.055938 
L 157.844142 238.70916 
L 158.434212 238.681211 
L 160.79449 237.576244 
L 161.38456 236.72612 
L 161.97463 236.350063 
L 162.564699 236.665276 
L 163.744838 236.057646 
L 164.334908 235.27855 
L 164.924978 234.687695 
L 165.515047 235.170891 
L 166.695186 234.571689 
L 167.285256 233.895985 
L 167.875326 233.922946 
L 169.055465 233.605577 
L 170.235604 232.829581 
L 170.825674 232.678746 
L 171.415743 232.082656 
L 172.595883 231.904382 
L 173.185952 231.375082 
L 173.776022 231.862938 
L 174.366091 230.933126 
L 174.956161 230.996375 
L 175.546231 230.120557 
L 176.1363 230.366821 
L 176.72637 230.180813 
L 177.316439 229.472241 
L 177.906509 229.098563 
L 178.496579 228.941154 
L 179.086648 228.621506 
L 179.676718 228.811254 
L 180.266787 227.896907 
L 180.856857 227.937676 
L 181.446927 227.661964 
L 182.036996 226.956025 
L 183.217135 226.484675 
L 184.397275 225.406439 
L 184.987344 225.685709 
L 185.577414 225.267511 
L 186.167484 224.338487 
L 186.757553 224.707271 
L 187.347623 223.868032 
L 188.527762 224.191598 
L 189.117831 223.442512 
L 189.707901 223.153512 
L 190.297971 222.726561 
L 190.88804 223.11516 
L 191.47811 222.079758 
L 192.06818 221.560766 
L 192.658249 222.057677 
L 193.248319 221.75506 
L 194.428458 220.489535 
L 195.018528 220.051544 
L 195.608597 220.145642 
L 196.198667 220.052646 
L 196.788736 219.773659 
L 197.378806 218.925177 
L 197.968876 218.666126 
L 198.558945 218.951621 
L 199.149015 218.41544 
L 200.329154 217.920427 
L 201.509293 217.2457 
L 202.099363 217.647971 
L 202.689433 216.738925 
L 203.869572 215.379689 
L 205.049711 215.436146 
L 206.22985 214.474556 
L 206.81992 214.665941 
L 207.409989 214.327086 
L 208.000059 214.333076 
L 208.590129 214.027671 
L 209.180198 212.993338 
L 209.770268 213.164374 
L 210.360337 212.794624 
L 210.950407 212.841422 
L 211.540477 211.933266 
L 212.130546 211.873266 
L 212.720616 211.585637 
L 213.310685 210.891209 
L 213.900755 211.189198 
L 214.490825 210.824922 
L 215.080894 210.146402 
L 215.670964 209.935833 
L 216.851103 209.268049 
L 217.441173 209.107358 
L 218.031242 208.579453 
L 218.621312 208.533622 
L 219.211381 207.887273 
L 219.801451 207.558198 
L 220.391521 207.748179 
L 220.98159 207.0564 
L 221.57166 206.960891 
L 222.751799 206.234254 
L 223.341869 205.649503 
L 223.931938 205.352089 
L 224.522008 205.241432 
L 225.112078 204.353369 
L 225.702147 204.27296 
L 226.292217 204.047832 
L 226.882286 203.242487 
L 227.472356 203.10152 
L 228.062425 202.435157 
L 228.652495 202.668684 
L 230.422704 201.911512 
L 231.012774 201.203096 
L 231.602843 201.055017 
L 232.782982 200.329889 
L 233.963122 199.819409 
L 234.553191 198.613162 
L 235.143261 198.785043 
L 235.73333 198.243118 
L 236.3234 197.947593 
L 236.91347 196.974208 
L 237.503539 197.192822 
L 238.093609 196.988839 
L 239.273748 195.450387 
L 239.863818 195.549709 
L 240.453887 195.936225 
L 241.634027 194.327897 
L 242.224096 194.12902 
L 242.814166 193.701684 
L 243.404235 193.936526 
L 244.584375 192.285692 
L 245.174444 192.132568 
L 245.764514 191.826584 
L 246.354583 191.333606 
L 246.944653 191.261106 
L 247.534723 190.148808 
L 248.124792 190.703995 
L 249.895001 189.694211 
L 251.07514 188.712222 
L 251.66521 188.414643 
L 252.255279 187.736384 
L 252.845349 187.776599 
L 253.435419 187.0591 
L 254.025488 187.214062 
L 255.205627 185.949917 
L 255.795697 186.54297 
L 257.565906 185.092406 
L 258.746045 184.613281 
L 259.336115 183.806825 
L 261.106323 182.889757 
L 261.696393 182.334464 
L 262.286463 182.26603 
L 263.466602 182.016894 
L 264.056672 181.106971 
L 264.646741 180.971255 
L 265.236811 179.951689 
L 265.82688 180.439341 
L 267.00702 179.740756 
L 267.597089 178.774652 
L 268.777228 178.907493 
L 269.957368 177.68025 
L 270.547437 177.528479 
L 271.137507 176.785146 
L 271.727576 177.413143 
L 272.317646 176.561939 
L 272.907716 176.453279 
L 273.497785 175.724397 
L 274.087855 175.595333 
L 274.677925 175.681199 
L 275.267994 175.393066 
L 275.858064 174.611286 
L 276.448133 174.573674 
L 277.038203 174.105891 
L 278.808412 173.319365 
L 279.398481 172.81348 
L 279.988551 172.606147 
L 281.75876 171.400986 
L 282.34883 171.633404 
L 282.938899 170.958918 
L 283.528969 170.858698 
L 284.709108 169.635121 
L 285.299177 169.587518 
L 285.889247 169.184721 
L 286.479317 169.088711 
L 287.069386 168.452436 
L 287.659456 168.725256 
L 288.249526 168.222117 
L 288.839595 169.488473 
L 289.429665 167.393251 
L 291.199874 166.746523 
L 293.560152 165.194489 
L 294.150222 165.13778 
L 294.740291 164.351782 
L 295.330361 164.338501 
L 297.10057 163.398962 
L 297.690639 162.700104 
L 298.280709 162.545593 
L 298.870778 162.118913 
L 299.460848 161.895843 
L 300.640987 161.154443 
L 301.231057 160.597675 
L 301.821126 160.733127 
L 302.411196 159.968118 
L 303.001266 159.765806 
L 303.591335 159.378455 
L 304.181405 160.092555 
L 304.771474 158.513053 
L 305.361544 158.390918 
L 305.951614 157.781586 
L 306.541683 157.903506 
L 307.131753 157.554603 
L 307.721823 157.071615 
L 308.901962 157.224342 
L 309.492031 155.867334 
L 310.082101 155.561181 
L 310.672171 155.553872 
L 311.26224 155.028858 
L 311.85231 154.940351 
L 313.032449 153.842767 
L 313.622519 154.035027 
L 314.802658 153.149247 
L 315.392727 152.303595 
L 315.982797 152.555704 
L 316.572867 151.900292 
L 317.162936 152.092466 
L 317.753006 151.115795 
L 318.343075 150.746377 
L 318.933145 150.769955 
L 319.523215 150.620485 
L 320.113284 149.867426 
L 321.883493 148.963762 
L 322.473563 149.075798 
L 323.653702 147.503356 
L 324.243772 147.904448 
L 325.423911 146.853574 
L 326.01398 146.181784 
L 326.60405 146.452955 
L 327.784189 146.075459 
L 328.374259 145.065397 
L 328.964328 144.84297 
L 329.554398 144.862884 
L 330.144468 144.513087 
L 330.734537 143.980809 
L 331.324607 143.962686 
L 331.914676 143.336657 
L 332.504746 142.970129 
L 333.094816 142.796773 
L 333.684885 142.415219 
L 334.274955 141.748504 
L 335.455094 140.729075 
L 336.635233 140.957518 
L 337.225303 139.868482 
L 337.815372 139.874611 
L 338.405442 138.77847 
L 338.995512 138.805577 
L 339.585581 138.567531 
L 340.175651 137.990787 
L 340.76572 137.968285 
L 341.35579 137.6976 
L 341.94586 137.302559 
L 342.535929 137.513312 
L 343.125999 136.011157 
L 343.716069 136.116609 
L 344.896208 135.381079 
L 345.486277 134.274081 
L 346.076347 133.788117 
L 346.666417 133.787059 
L 348.436625 132.810784 
L 349.026695 132.699275 
L 349.616765 132.127248 
L 350.206834 131.715147 
L 350.796904 131.585574 
L 351.386973 131.214673 
L 351.977043 130.51097 
L 352.567113 130.154445 
L 353.157182 130.203285 
L 354.337322 129.516979 
L 354.927391 129.353151 
L 355.517461 129.048228 
L 356.10753 128.993822 
L 356.6976 128.118212 
L 357.287669 127.870039 
L 357.877739 127.756681 
L 358.467809 126.973453 
L 359.057878 126.883957 
L 359.647948 126.548994 
L 360.238018 126.396359 
L 362.598296 125.18824 
L 363.778435 124.988597 
L 364.368505 123.772936 
L 364.958574 123.975647 
L 365.548644 123.670188 
L 366.728783 122.590832 
L 368.498992 121.929739 
L 369.089062 121.398377 
L 369.679131 121.300435 
L 370.269201 120.890849 
L 370.85927 120.719154 
L 371.44934 119.872036 
L 372.03941 119.874369 
L 372.629479 119.538219 
L 373.219549 119.674411 
L 374.399688 118.983974 
L 374.989758 119.326142 
L 375.579827 118.208275 
L 376.169897 117.887441 
L 376.759966 117.769423 
L 377.350036 117.187449 
L 377.940106 117.291745 
L 379.120245 116.643379 
L 380.300384 115.648997 
L 380.890454 115.318789 
L 381.480523 115.394075 
L 382.070593 114.74222 
L 382.660663 114.591416 
L 383.250732 113.987588 
L 383.840802 114.285523 
L 384.430871 113.504944 
L 385.020941 113.39322 
L 385.611011 113.156831 
L 386.20108 112.721099 
L 386.79115 112.804474 
L 387.38122 111.982753 
L 387.971289 111.807578 
L 388.561359 111.410845 
L 389.151428 111.509692 
L 389.741498 110.74455 
L 390.921637 110.733525 
L 391.511707 109.843971 
L 392.101776 109.842528 
L 393.281916 108.878508 
L 393.871985 109.217114 
L 394.462055 108.589358 
L 395.052124 108.730589 
L 395.642194 108.017976 
L 396.232264 107.84444 
L 397.412403 107.251979 
L 398.002472 107.366017 
L 398.592542 106.888319 
L 399.182612 106.253025 
L 399.772681 105.965359 
L 400.362751 106.057117 
L 401.54289 104.693605 
L 402.723029 104.535934 
L 403.313099 104.316106 
L 403.903168 103.440162 
L 404.493238 103.68115 
L 406.263447 102.679419 
L 406.853516 102.507447 
L 407.443586 102.091095 
L 408.033656 101.832206 
L 408.623725 101.74762 
L 409.803864 100.868 
L 410.393934 100.968117 
L 410.984004 100.154994 
L 411.574073 100.132449 
L 412.164143 99.433783 
L 413.344282 98.680321 
L 414.524421 98.658306 
L 415.114491 98.042327 
L 416.29463 97.577108 
L 416.8847 98.057041 
L 417.474769 96.847012 
L 418.064839 96.742095 
L 419.244978 96.141502 
L 419.835048 96.339927 
L 421.015187 95.663106 
L 421.605257 95.500087 
L 422.195326 94.717324 
L 422.785396 94.684506 
L 423.375466 94.471653 
L 423.965535 94.07792 
L 424.555605 93.22552 
L 425.145674 93.25211 
L 425.735744 93.42354 
L 426.325814 92.670503 
L 426.915883 92.151736 
L 427.505953 92.584555 
L 428.096022 91.974019 
L 429.866231 90.88434 
L 430.456301 91.073415 
L 431.04637 90.068154 
L 431.63644 89.977546 
L 432.22651 90.004299 
L 432.816579 89.776698 
L 433.406649 88.86063 
L 433.996718 89.360258 
L 435.176858 88.357583 
L 436.947067 87.215094 
L 437.537136 87.925044 
L 438.127206 86.777625 
L 438.717275 86.953352 
L 439.307345 85.670749 
L 440.487484 85.687412 
L 441.667623 85.152691 
L 442.257693 84.998812 
L 442.847763 84.70731 
L 443.437832 84.048903 
L 444.027902 83.939055 
L 444.617971 83.195034 
L 445.208041 82.914786 
L 445.79811 82.971385 
L 446.38818 82.156361 
L 446.97825 82.381304 
L 447.568319 81.337534 
L 448.158389 81.575491 
L 448.748459 81.316627 
L 449.338528 80.132916 
L 450.518667 80.733354 
L 451.108737 79.906575 
L 451.698807 79.356022 
L 452.288876 79.676784 
L 452.878946 79.059835 
L 453.469015 78.695991 
L 454.059085 78.774058 
L 455.239224 77.417149 
L 455.829294 77.530114 
L 456.419363 76.983626 
L 457.009433 76.196462 
L 457.599503 76.455657 
L 458.189572 75.995468 
L 458.779642 75.999143 
L 459.369712 75.391324 
L 459.959781 75.491361 
L 460.549851 75.185043 
L 461.13992 74.268082 
L 461.72999 74.329168 
L 462.32006 73.897805 
L 462.910129 73.719645 
L 463.500199 73.092843 
L 464.090268 72.781333 
L 464.680338 73.190718 
L 465.270408 72.073006 
L 467.040616 71.758224 
L 467.630686 70.905087 
L 468.220756 70.926675 
L 468.810825 70.561281 
L 469.400895 69.953971 
L 471.171104 69.455918 
L 471.761173 68.751316 
L 472.351243 68.985355 
L 472.941312 67.673518 
L 473.531382 68.181494 
L 474.121452 67.614361 
L 474.711521 67.434238 
L 475.301591 66.588674 
L 476.48173 66.558385 
L 477.0718 65.89414 
L 477.661869 65.775421 
L 478.251939 65.254473 
L 478.842008 65.361875 
L 479.432078 65.126285 
L 480.022148 64.714957 
L 480.612217 64.648644 
L 481.202287 63.958714 
L 481.792357 63.785755 
L 482.382426 63.004303 
L 482.972496 63.091168 
L 483.562565 62.992651 
L 484.152635 62.103477 
L 484.742705 62.662111 
L 485.922844 61.297979 
L 486.512913 61.37628 
L 487.693053 60.992738 
L 488.283122 60.491301 
L 488.873192 60.281542 
L 489.463261 59.58102 
L 490.053331 59.660406 
L 491.82354 58.298574 
L 493.593749 57.348972 
L 494.183818 56.69121 
L 494.773888 56.842864 
L 495.363958 56.012339 
L 495.954027 55.474276 
L 496.544097 55.632055 
L 497.134166 54.997638 
L 497.724236 54.692616 
L 498.314306 54.895889 
L 498.904375 54.091361 
L 500.084514 53.13279 
L 500.674584 52.968289 
L 501.264654 52.490808 
L 501.854723 52.485674 
L 502.444793 52.042063 
L 503.034862 52.177893 
L 503.624932 51.69326 
L 504.215002 50.884747 
L 504.805071 50.681074 
L 505.395141 49.943248 
L 505.98521 49.969489 
L 508.345489 48.539017 
L 508.935559 48.415153 
L 509.525628 48.0558 
L 510.115698 47.231155 
L 510.705767 46.93308 
L 511.295837 46.981837 
L 511.885906 46.66363 
L 512.475976 46.010776 
L 514.246185 45.330037 
L 514.836255 44.518778 
L 515.426324 44.761765 
L 516.016394 44.647126 
L 516.606463 43.882501 
L 517.196533 43.543367 
L 517.786602 43.787593 
L 518.376672 42.434553 
L 518.966742 42.601062 
L 519.556811 42.188493 
L 520.146881 42.384978 
L 520.736951 41.397658 
L 521.32702 41.060453 
L 521.91709 40.903016 
L 523.097229 40.126265 
L 523.687299 39.351793 
L 524.277368 39.399592 
L 524.867438 39.249807 
L 525.457507 38.917137 
L 527.227716 38.556041 
L 527.817786 37.475183 
L 528.407856 37.554767 
L 529.587995 37.034495 
L 530.768134 36.653331 
L 531.358204 35.399602 
L 531.948273 35.446406 
L 533.128412 35.228022 
L 533.718482 34.558171 
L 534.308552 34.45311 
L 534.898621 33.698401 
L 535.488691 33.315164 
L 536.07876 33.41881 
L 536.66883 33.159377 
L 537.2589 32.564835 
L 538.439039 31.90725 
L 539.029108 31.721995 
L 539.619178 30.933593 
L 540.209248 31.155264 
L 540.799317 31.025975 
L 541.389387 30.780165 
L 541.979457 29.760682 
L 542.569526 29.817918 
L 543.159596 29.118775 
L 544.339735 28.52237 
L 544.929804 28.551602 
L 545.519874 27.297597 
L 546.109944 27.686082 
L 546.700013 27.162974 
L 547.290083 26.914534 
L 549.060292 25.544767 
L 550.240431 25.286922 
L 550.8305 25.329409 
L 551.42057 24.637518 
L 552.01064 24.254441 
L 552.600709 24.052727 
L 552.600709 24.052727 
" style="fill:none;stroke:#1f77b4;stroke-linecap:square;stroke-width:1.5;"/>
   </g>
   <g id="patch_3">
    <path d="M 50.976377 304.46 
L 50.976377 10.7 
" style="fill:none;stroke:#000000;stroke-linecap:square;stroke-linejoin:miter;stroke-width:0.8;"/>
   </g>
   <g id="patch_4">
    <path d="M 553.176377 304.46 
L 553.176377 10.7 
" style="fill:none;stroke:#000000;stroke-linecap:square;stroke-linejoin:miter;stroke-width:0.8;"/>
   </g>
   <g id="patch_5">
    <path d="M 50.976377 304.46 
L 553.176377 304.46 
" style="fill:none;stroke:#000000;stroke-linecap:square;stroke-linejoin:miter;stroke-width:0.8;"/>
   </g>
   <g id="patch_6">
    <path d="M 50.976377 10.7 
L 553.176377 10.7 
" style="fill:none;stroke:#000000;stroke-linecap:square;stroke-linejoin:miter;stroke-width:0.8;"/>
   </g>
   <g id="legend_1">
    <g id="patch_7">
     <path d="M 57.976377 33.378125 
L 106.734189 33.378125 
Q 108.734189 33.378125 108.734189 31.378125 
L 108.734189 17.7 
Q 108.734189 15.7 106.734189 15.7 
L 57.976377 15.7 
Q 55.976377 15.7 55.976377 17.7 
L 55.976377 31.378125 
Q 55.976377 33.378125 57.976377 33.378125 
z
" style="fill:#ffffff;opacity:0.8;stroke:#cccccc;stroke-linejoin:miter;"/>
    </g>
    <g id="line2d_32">
     <path d="M 59.976377 23.798437 
L 79.976377 23.798437 
" style="fill:none;stroke:#1f77b4;stroke-linecap:square;stroke-width:1.5;"/>
    </g>
    <g id="line2d_33"/>
    <g id="text_17">
     <!-- TID -->
     <defs>
      <path d="M 9.8125 72.90625 
L 19.671875 72.90625 
L 19.671875 0 
L 9.8125 0 
z
" id="DejaVuSans-49"/>
      <path d="M 19.671875 64.796875 
L 19.671875 8.109375 
L 31.59375 8.109375 
Q 46.6875 8.109375 53.6875 14.9375 
Q 60.6875 21.78125 60.6875 36.53125 
Q 60.6875 51.171875 53.6875 57.984375 
Q 46.6875 64.796875 31.59375 64.796875 
z
M 9.8125 72.90625 
L 30.078125 72.90625 
Q 51.265625 72.90625 61.171875 64.09375 
Q 71.09375 55.28125 71.09375 36.53125 
Q 71.09375 17.671875 61.125 8.828125 
Q 51.171875 0 30.078125 0 
L 9.8125 0 
z
" id="DejaVuSans-44"/>
     </defs>
     <g transform="translate(87.976377 27.298437)scale(0.1 -0.1)">
      <use xlink:href="#DejaVuSans-54"/>
      <use x="61.083984" xlink:href="#DejaVuSans-49"/>
      <use x="90.576172" xlink:href="#DejaVuSans-44"/>
     </g>
    </g>
   </g>
  </g>
 </g>
 <defs>
  <clipPath id="p8e68c49082">
   <rect height="293.76" width="502.2" x="50.976377" y="10.7"/>
  </clipPath>
 </defs>
</svg>
