<?xml version="1.0" encoding="utf-8" standalone="no"?>
<!DOCTYPE svg PUBLIC "-//W3C//DTD SVG 1.1//EN"
  "http://www.w3.org/Graphics/SVG/1.1/DTD/svg11.dtd">
<!-- Created with matplotlib (http://matplotlib.org/) -->
<svg height="363.200096pt" version="1.1" viewBox="0 0 563.876377 363.200096" width="563.876377pt" xmlns="http://www.w3.org/2000/svg" xmlns:xlink="http://www.w3.org/1999/xlink">
 <defs>
  <style type="text/css">
*{stroke-linecap:butt;stroke-linejoin:round;}
  </style>
 </defs>
 <g id="figure_1">
  <g id="patch_1">
   <path d="M -0 363.200096 
L 563.876377 363.200096 
L 563.876377 0 
L -0 0 
z
" style="fill:#ffffff;"/>
  </g>
  <g id="axes_1">
   <g id="patch_2">
    <path d="M 50.976377 304.46 
L 553.176377 304.46 
L 553.176377 10.7 
L 50.976377 10.7 
z
" style="fill:#ffffff;"/>
   </g>
   <g id="matplotlib.axis_1">
    <g id="xtick_1">
     <g id="line2d_1">
      <path clip-path="url(#p5ae87ca083)" d="M 50.976377 304.46 
L 50.976377 10.7 
" style="fill:none;stroke:#b0b0b0;stroke-linecap:square;stroke-width:0.8;"/>
     </g>
     <g id="line2d_2">
      <defs>
       <path d="M 0 0 
L 0 3.5 
" id="mae2399476f" style="stroke:#000000;stroke-width:0.8;"/>
      </defs>
      <g>
       <use style="stroke:#000000;stroke-width:0.8;" x="50.976377" xlink:href="#mae2399476f" y="304.46"/>
      </g>
     </g>
     <g id="text_1">
      <!-- 05-26 20 -->
      <defs>
       <path d="M 31.78125 66.40625 
Q 24.171875 66.40625 20.328125 58.90625 
Q 16.5 51.421875 16.5 36.375 
Q 16.5 21.390625 20.328125 13.890625 
Q 24.171875 6.390625 31.78125 6.390625 
Q 39.453125 6.390625 43.28125 13.890625 
Q 47.125 21.390625 47.125 36.375 
Q 47.125 51.421875 43.28125 58.90625 
Q 39.453125 66.40625 31.78125 66.40625 
z
M 31.78125 74.21875 
Q 44.046875 74.21875 50.515625 64.515625 
Q 56.984375 54.828125 56.984375 36.375 
Q 56.984375 17.96875 50.515625 8.265625 
Q 44.046875 -1.421875 31.78125 -1.421875 
Q 19.53125 -1.421875 13.0625 8.265625 
Q 6.59375 17.96875 6.59375 36.375 
Q 6.59375 54.828125 13.0625 64.515625 
Q 19.53125 74.21875 31.78125 74.21875 
z
" id="DejaVuSans-30"/>
       <path d="M 10.796875 72.90625 
L 49.515625 72.90625 
L 49.515625 64.59375 
L 19.828125 64.59375 
L 19.828125 46.734375 
Q 21.96875 47.46875 24.109375 47.828125 
Q 26.265625 48.1875 28.421875 48.1875 
Q 40.625 48.1875 47.75 41.5 
Q 54.890625 34.8125 54.890625 23.390625 
Q 54.890625 11.625 47.5625 5.09375 
Q 40.234375 -1.421875 26.90625 -1.421875 
Q 22.3125 -1.421875 17.546875 -0.640625 
Q 12.796875 0.140625 7.71875 1.703125 
L 7.71875 11.625 
Q 12.109375 9.234375 16.796875 8.0625 
Q 21.484375 6.890625 26.703125 6.890625 
Q 35.15625 6.890625 40.078125 11.328125 
Q 45.015625 15.765625 45.015625 23.390625 
Q 45.015625 31 40.078125 35.4375 
Q 35.15625 39.890625 26.703125 39.890625 
Q 22.75 39.890625 18.8125 39.015625 
Q 14.890625 38.140625 10.796875 36.28125 
z
" id="DejaVuSans-35"/>
       <path d="M 4.890625 31.390625 
L 31.203125 31.390625 
L 31.203125 23.390625 
L 4.890625 23.390625 
z
" id="DejaVuSans-2d"/>
       <path d="M 19.1875 8.296875 
L 53.609375 8.296875 
L 53.609375 0 
L 7.328125 0 
L 7.328125 8.296875 
Q 12.9375 14.109375 22.625 23.890625 
Q 32.328125 33.6875 34.8125 36.53125 
Q 39.546875 41.84375 41.421875 45.53125 
Q 43.3125 49.21875 43.3125 52.78125 
Q 43.3125 58.59375 39.234375 62.25 
Q 35.15625 65.921875 28.609375 65.921875 
Q 23.96875 65.921875 18.8125 64.3125 
Q 13.671875 62.703125 7.8125 59.421875 
L 7.8125 69.390625 
Q 13.765625 71.78125 18.9375 73 
Q 24.125 74.21875 28.421875 74.21875 
Q 39.75 74.21875 46.484375 68.546875 
Q 53.21875 62.890625 53.21875 53.421875 
Q 53.21875 48.921875 51.53125 44.890625 
Q 49.859375 40.875 45.40625 35.40625 
Q 44.1875 33.984375 37.640625 27.21875 
Q 31.109375 20.453125 19.1875 8.296875 
z
" id="DejaVuSans-32"/>
       <path d="M 33.015625 40.375 
Q 26.375 40.375 22.484375 35.828125 
Q 18.609375 31.296875 18.609375 23.390625 
Q 18.609375 15.53125 22.484375 10.953125 
Q 26.375 6.390625 33.015625 6.390625 
Q 39.65625 6.390625 43.53125 10.953125 
Q 47.40625 15.53125 47.40625 23.390625 
Q 47.40625 31.296875 43.53125 35.828125 
Q 39.65625 40.375 33.015625 40.375 
z
M 52.59375 71.296875 
L 52.59375 62.3125 
Q 48.875 64.0625 45.09375 64.984375 
Q 41.3125 65.921875 37.59375 65.921875 
Q 27.828125 65.921875 22.671875 59.328125 
Q 17.53125 52.734375 16.796875 39.40625 
Q 19.671875 43.65625 24.015625 45.921875 
Q 28.375 48.1875 33.59375 48.1875 
Q 44.578125 48.1875 50.953125 41.515625 
Q 57.328125 34.859375 57.328125 23.390625 
Q 57.328125 12.15625 50.6875 5.359375 
Q 44.046875 -1.421875 33.015625 -1.421875 
Q 20.359375 -1.421875 13.671875 8.265625 
Q 6.984375 17.96875 6.984375 36.375 
Q 6.984375 53.65625 15.1875 63.9375 
Q 23.390625 74.21875 37.203125 74.21875 
Q 40.921875 74.21875 44.703125 73.484375 
Q 48.484375 72.75 52.59375 71.296875 
z
" id="DejaVuSans-36"/>
       <path id="DejaVuSans-20"/>
      </defs>
      <g transform="translate(10.999219 340.520909)rotate(-30)scale(0.1 -0.1)">
       <use xlink:href="#DejaVuSans-30"/>
       <use x="63.623047" xlink:href="#DejaVuSans-35"/>
       <use x="127.246094" xlink:href="#DejaVuSans-2d"/>
       <use x="163.330078" xlink:href="#DejaVuSans-32"/>
       <use x="226.953125" xlink:href="#DejaVuSans-36"/>
       <use x="290.576172" xlink:href="#DejaVuSans-20"/>
       <use x="322.363281" xlink:href="#DejaVuSans-32"/>
       <use x="385.986328" xlink:href="#DejaVuSans-30"/>
      </g>
     </g>
    </g>
    <g id="xtick_2">
     <g id="line2d_3">
      <path clip-path="url(#p5ae87ca083)" d="M 134.676376 304.46 
L 134.676376 10.7 
" style="fill:none;stroke:#b0b0b0;stroke-linecap:square;stroke-width:0.8;"/>
     </g>
     <g id="line2d_4">
      <g>
       <use style="stroke:#000000;stroke-width:0.8;" x="134.676376" xlink:href="#mae2399476f" y="304.46"/>
      </g>
     </g>
     <g id="text_2">
      <!-- 05-26 22 -->
      <g transform="translate(94.699219 340.520909)rotate(-30)scale(0.1 -0.1)">
       <use xlink:href="#DejaVuSans-30"/>
       <use x="63.623047" xlink:href="#DejaVuSans-35"/>
       <use x="127.246094" xlink:href="#DejaVuSans-2d"/>
       <use x="163.330078" xlink:href="#DejaVuSans-32"/>
       <use x="226.953125" xlink:href="#DejaVuSans-36"/>
       <use x="290.576172" xlink:href="#DejaVuSans-20"/>
       <use x="322.363281" xlink:href="#DejaVuSans-32"/>
       <use x="385.986328" xlink:href="#DejaVuSans-32"/>
      </g>
     </g>
    </g>
    <g id="xtick_3">
     <g id="line2d_5">
      <path clip-path="url(#p5ae87ca083)" d="M 218.376377 304.46 
L 218.376377 10.7 
" style="fill:none;stroke:#b0b0b0;stroke-linecap:square;stroke-width:0.8;"/>
     </g>
     <g id="line2d_6">
      <g>
       <use style="stroke:#000000;stroke-width:0.8;" x="218.376377" xlink:href="#mae2399476f" y="304.46"/>
      </g>
     </g>
     <g id="text_3">
      <!-- 05-27 00 -->
      <defs>
       <path d="M 8.203125 72.90625 
L 55.078125 72.90625 
L 55.078125 68.703125 
L 28.609375 0 
L 18.3125 0 
L 43.21875 64.59375 
L 8.203125 64.59375 
z
" id="DejaVuSans-37"/>
      </defs>
      <g transform="translate(178.399219 340.520909)rotate(-30)scale(0.1 -0.1)">
       <use xlink:href="#DejaVuSans-30"/>
       <use x="63.623047" xlink:href="#DejaVuSans-35"/>
       <use x="127.246094" xlink:href="#DejaVuSans-2d"/>
       <use x="163.330078" xlink:href="#DejaVuSans-32"/>
       <use x="226.953125" xlink:href="#DejaVuSans-37"/>
       <use x="290.576172" xlink:href="#DejaVuSans-20"/>
       <use x="322.363281" xlink:href="#DejaVuSans-30"/>
       <use x="385.986328" xlink:href="#DejaVuSans-30"/>
      </g>
     </g>
    </g>
    <g id="xtick_4">
     <g id="line2d_7">
      <path clip-path="url(#p5ae87ca083)" d="M 302.076377 304.46 
L 302.076377 10.7 
" style="fill:none;stroke:#b0b0b0;stroke-linecap:square;stroke-width:0.8;"/>
     </g>
     <g id="line2d_8">
      <g>
       <use style="stroke:#000000;stroke-width:0.8;" x="302.076377" xlink:href="#mae2399476f" y="304.46"/>
      </g>
     </g>
     <g id="text_4">
      <!-- 05-27 02 -->
      <g transform="translate(262.099219 340.520909)rotate(-30)scale(0.1 -0.1)">
       <use xlink:href="#DejaVuSans-30"/>
       <use x="63.623047" xlink:href="#DejaVuSans-35"/>
       <use x="127.246094" xlink:href="#DejaVuSans-2d"/>
       <use x="163.330078" xlink:href="#DejaVuSans-32"/>
       <use x="226.953125" xlink:href="#DejaVuSans-37"/>
       <use x="290.576172" xlink:href="#DejaVuSans-20"/>
       <use x="322.363281" xlink:href="#DejaVuSans-30"/>
       <use x="385.986328" xlink:href="#DejaVuSans-32"/>
      </g>
     </g>
    </g>
    <g id="xtick_5">
     <g id="line2d_9">
      <path clip-path="url(#p5ae87ca083)" d="M 385.776376 304.46 
L 385.776376 10.7 
" style="fill:none;stroke:#b0b0b0;stroke-linecap:square;stroke-width:0.8;"/>
     </g>
     <g id="line2d_10">
      <g>
       <use style="stroke:#000000;stroke-width:0.8;" x="385.776376" xlink:href="#mae2399476f" y="304.46"/>
      </g>
     </g>
     <g id="text_5">
      <!-- 05-27 04 -->
      <defs>
       <path d="M 37.796875 64.3125 
L 12.890625 25.390625 
L 37.796875 25.390625 
z
M 35.203125 72.90625 
L 47.609375 72.90625 
L 47.609375 25.390625 
L 58.015625 25.390625 
L 58.015625 17.1875 
L 47.609375 17.1875 
L 47.609375 0 
L 37.796875 0 
L 37.796875 17.1875 
L 4.890625 17.1875 
L 4.890625 26.703125 
z
" id="DejaVuSans-34"/>
      </defs>
      <g transform="translate(345.799219 340.520909)rotate(-30)scale(0.1 -0.1)">
       <use xlink:href="#DejaVuSans-30"/>
       <use x="63.623047" xlink:href="#DejaVuSans-35"/>
       <use x="127.246094" xlink:href="#DejaVuSans-2d"/>
       <use x="163.330078" xlink:href="#DejaVuSans-32"/>
       <use x="226.953125" xlink:href="#DejaVuSans-37"/>
       <use x="290.576172" xlink:href="#DejaVuSans-20"/>
       <use x="322.363281" xlink:href="#DejaVuSans-30"/>
       <use x="385.986328" xlink:href="#DejaVuSans-34"/>
      </g>
     </g>
    </g>
    <g id="xtick_6">
     <g id="line2d_11">
      <path clip-path="url(#p5ae87ca083)" d="M 469.476377 304.46 
L 469.476377 10.7 
" style="fill:none;stroke:#b0b0b0;stroke-linecap:square;stroke-width:0.8;"/>
     </g>
     <g id="line2d_12">
      <g>
       <use style="stroke:#000000;stroke-width:0.8;" x="469.476377" xlink:href="#mae2399476f" y="304.46"/>
      </g>
     </g>
     <g id="text_6">
      <!-- 05-27 06 -->
      <g transform="translate(429.499219 340.520909)rotate(-30)scale(0.1 -0.1)">
       <use xlink:href="#DejaVuSans-30"/>
       <use x="63.623047" xlink:href="#DejaVuSans-35"/>
       <use x="127.246094" xlink:href="#DejaVuSans-2d"/>
       <use x="163.330078" xlink:href="#DejaVuSans-32"/>
       <use x="226.953125" xlink:href="#DejaVuSans-37"/>
       <use x="290.576172" xlink:href="#DejaVuSans-20"/>
       <use x="322.363281" xlink:href="#DejaVuSans-30"/>
       <use x="385.986328" xlink:href="#DejaVuSans-36"/>
      </g>
     </g>
    </g>
    <g id="xtick_7">
     <g id="line2d_13">
      <path clip-path="url(#p5ae87ca083)" d="M 553.176377 304.46 
L 553.176377 10.7 
" style="fill:none;stroke:#b0b0b0;stroke-linecap:square;stroke-width:0.8;"/>
     </g>
     <g id="line2d_14">
      <g>
       <use style="stroke:#000000;stroke-width:0.8;" x="553.176377" xlink:href="#mae2399476f" y="304.46"/>
      </g>
     </g>
     <g id="text_7">
      <!-- 05-27 08 -->
      <defs>
       <path d="M 31.78125 34.625 
Q 24.75 34.625 20.71875 30.859375 
Q 16.703125 27.09375 16.703125 20.515625 
Q 16.703125 13.921875 20.71875 10.15625 
Q 24.75 6.390625 31.78125 6.390625 
Q 38.8125 6.390625 42.859375 10.171875 
Q 46.921875 13.96875 46.921875 20.515625 
Q 46.921875 27.09375 42.890625 30.859375 
Q 38.875 34.625 31.78125 34.625 
z
M 21.921875 38.8125 
Q 15.578125 40.375 12.03125 44.71875 
Q 8.5 49.078125 8.5 55.328125 
Q 8.5 64.0625 14.71875 69.140625 
Q 20.953125 74.21875 31.78125 74.21875 
Q 42.671875 74.21875 48.875 69.140625 
Q 55.078125 64.0625 55.078125 55.328125 
Q 55.078125 49.078125 51.53125 44.71875 
Q 48 40.375 41.703125 38.8125 
Q 48.828125 37.15625 52.796875 32.3125 
Q 56.78125 27.484375 56.78125 20.515625 
Q 56.78125 9.90625 50.3125 4.234375 
Q 43.84375 -1.421875 31.78125 -1.421875 
Q 19.734375 -1.421875 13.25 4.234375 
Q 6.78125 9.90625 6.78125 20.515625 
Q 6.78125 27.484375 10.78125 32.3125 
Q 14.796875 37.15625 21.921875 38.8125 
z
M 18.3125 54.390625 
Q 18.3125 48.734375 21.84375 45.5625 
Q 25.390625 42.390625 31.78125 42.390625 
Q 38.140625 42.390625 41.71875 45.5625 
Q 45.3125 48.734375 45.3125 54.390625 
Q 45.3125 60.0625 41.71875 63.234375 
Q 38.140625 66.40625 31.78125 66.40625 
Q 25.390625 66.40625 21.84375 63.234375 
Q 18.3125 60.0625 18.3125 54.390625 
z
" id="DejaVuSans-38"/>
      </defs>
      <g transform="translate(513.199219 340.520909)rotate(-30)scale(0.1 -0.1)">
       <use xlink:href="#DejaVuSans-30"/>
       <use x="63.623047" xlink:href="#DejaVuSans-35"/>
       <use x="127.246094" xlink:href="#DejaVuSans-2d"/>
       <use x="163.330078" xlink:href="#DejaVuSans-32"/>
       <use x="226.953125" xlink:href="#DejaVuSans-37"/>
       <use x="290.576172" xlink:href="#DejaVuSans-20"/>
       <use x="322.363281" xlink:href="#DejaVuSans-30"/>
       <use x="385.986328" xlink:href="#DejaVuSans-38"/>
      </g>
     </g>
    </g>
    <g id="text_8">
     <!-- Time -->
     <defs>
      <path d="M -0.296875 72.90625 
L 61.375 72.90625 
L 61.375 64.59375 
L 35.5 64.59375 
L 35.5 0 
L 25.59375 0 
L 25.59375 64.59375 
L -0.296875 64.59375 
z
" id="DejaVuSans-54"/>
      <path d="M 9.421875 54.6875 
L 18.40625 54.6875 
L 18.40625 0 
L 9.421875 0 
z
M 9.421875 75.984375 
L 18.40625 75.984375 
L 18.40625 64.59375 
L 9.421875 64.59375 
z
" id="DejaVuSans-69"/>
      <path d="M 52 44.1875 
Q 55.375 50.25 60.0625 53.125 
Q 64.75 56 71.09375 56 
Q 79.640625 56 84.28125 50.015625 
Q 88.921875 44.046875 88.921875 33.015625 
L 88.921875 0 
L 79.890625 0 
L 79.890625 32.71875 
Q 79.890625 40.578125 77.09375 44.375 
Q 74.3125 48.1875 68.609375 48.1875 
Q 61.625 48.1875 57.5625 43.546875 
Q 53.515625 38.921875 53.515625 30.90625 
L 53.515625 0 
L 44.484375 0 
L 44.484375 32.71875 
Q 44.484375 40.625 41.703125 44.40625 
Q 38.921875 48.1875 33.109375 48.1875 
Q 26.21875 48.1875 22.15625 43.53125 
Q 18.109375 38.875 18.109375 30.90625 
L 18.109375 0 
L 9.078125 0 
L 9.078125 54.6875 
L 18.109375 54.6875 
L 18.109375 46.1875 
Q 21.1875 51.21875 25.484375 53.609375 
Q 29.78125 56 35.6875 56 
Q 41.65625 56 45.828125 52.96875 
Q 50 49.953125 52 44.1875 
z
" id="DejaVuSans-6d"/>
      <path d="M 56.203125 29.59375 
L 56.203125 25.203125 
L 14.890625 25.203125 
Q 15.484375 15.921875 20.484375 11.0625 
Q 25.484375 6.203125 34.421875 6.203125 
Q 39.59375 6.203125 44.453125 7.46875 
Q 49.3125 8.734375 54.109375 11.28125 
L 54.109375 2.78125 
Q 49.265625 0.734375 44.1875 -0.34375 
Q 39.109375 -1.421875 33.890625 -1.421875 
Q 20.796875 -1.421875 13.15625 6.1875 
Q 5.515625 13.8125 5.515625 26.8125 
Q 5.515625 40.234375 12.765625 48.109375 
Q 20.015625 56 32.328125 56 
Q 43.359375 56 49.78125 48.890625 
Q 56.203125 41.796875 56.203125 29.59375 
z
M 47.21875 32.234375 
Q 47.125 39.59375 43.09375 43.984375 
Q 39.0625 48.390625 32.421875 48.390625 
Q 24.90625 48.390625 20.390625 44.140625 
Q 15.875 39.890625 15.1875 32.171875 
z
" id="DejaVuSans-65"/>
     </defs>
     <g transform="translate(289.688877 353.920408)scale(0.1 -0.1)">
      <use xlink:href="#DejaVuSans-54"/>
      <use x="61.037109" xlink:href="#DejaVuSans-69"/>
      <use x="88.820312" xlink:href="#DejaVuSans-6d"/>
      <use x="186.232422" xlink:href="#DejaVuSans-65"/>
     </g>
    </g>
   </g>
   <g id="matplotlib.axis_2">
    <g id="ytick_1">
     <g id="line2d_15">
      <path clip-path="url(#p5ae87ca083)" d="M 50.976377 291.075395 
L 553.176377 291.075395 
" style="fill:none;stroke:#b0b0b0;stroke-linecap:square;stroke-width:0.8;"/>
     </g>
     <g id="line2d_16">
      <defs>
       <path d="M 0 0 
L -3.5 0 
" id="me222656cb8" style="stroke:#000000;stroke-width:0.8;"/>
      </defs>
      <g>
       <use style="stroke:#000000;stroke-width:0.8;" x="50.976377" xlink:href="#me222656cb8" y="291.075395"/>
      </g>
     </g>
     <g id="text_9">
      <!-- 34 -->
      <defs>
       <path d="M 40.578125 39.3125 
Q 47.65625 37.796875 51.625 33 
Q 55.609375 28.21875 55.609375 21.1875 
Q 55.609375 10.40625 48.1875 4.484375 
Q 40.765625 -1.421875 27.09375 -1.421875 
Q 22.515625 -1.421875 17.65625 -0.515625 
Q 12.796875 0.390625 7.625 2.203125 
L 7.625 11.71875 
Q 11.71875 9.328125 16.59375 8.109375 
Q 21.484375 6.890625 26.8125 6.890625 
Q 36.078125 6.890625 40.9375 10.546875 
Q 45.796875 14.203125 45.796875 21.1875 
Q 45.796875 27.640625 41.28125 31.265625 
Q 36.765625 34.90625 28.71875 34.90625 
L 20.21875 34.90625 
L 20.21875 43.015625 
L 29.109375 43.015625 
Q 36.375 43.015625 40.234375 45.921875 
Q 44.09375 48.828125 44.09375 54.296875 
Q 44.09375 59.90625 40.109375 62.90625 
Q 36.140625 65.921875 28.71875 65.921875 
Q 24.65625 65.921875 20.015625 65.03125 
Q 15.375 64.15625 9.8125 62.3125 
L 9.8125 71.09375 
Q 15.4375 72.65625 20.34375 73.4375 
Q 25.25 74.21875 29.59375 74.21875 
Q 40.828125 74.21875 47.359375 69.109375 
Q 53.90625 64.015625 53.90625 55.328125 
Q 53.90625 49.265625 50.4375 45.09375 
Q 46.96875 40.921875 40.578125 39.3125 
z
" id="DejaVuSans-33"/>
      </defs>
      <g transform="translate(31.251377 294.874614)scale(0.1 -0.1)">
       <use xlink:href="#DejaVuSans-33"/>
       <use x="63.623047" xlink:href="#DejaVuSans-34"/>
      </g>
     </g>
    </g>
    <g id="ytick_2">
     <g id="line2d_17">
      <path clip-path="url(#p5ae87ca083)" d="M 50.976377 243.454487 
L 553.176377 243.454487 
" style="fill:none;stroke:#b0b0b0;stroke-linecap:square;stroke-width:0.8;"/>
     </g>
     <g id="line2d_18">
      <g>
       <use style="stroke:#000000;stroke-width:0.8;" x="50.976377" xlink:href="#me222656cb8" y="243.454487"/>
      </g>
     </g>
     <g id="text_10">
      <!-- 36 -->
      <g transform="translate(31.251377 247.253705)scale(0.1 -0.1)">
       <use xlink:href="#DejaVuSans-33"/>
       <use x="63.623047" xlink:href="#DejaVuSans-36"/>
      </g>
     </g>
    </g>
    <g id="ytick_3">
     <g id="line2d_19">
      <path clip-path="url(#p5ae87ca083)" d="M 50.976377 195.833578 
L 553.176377 195.833578 
" style="fill:none;stroke:#b0b0b0;stroke-linecap:square;stroke-width:0.8;"/>
     </g>
     <g id="line2d_20">
      <g>
       <use style="stroke:#000000;stroke-width:0.8;" x="50.976377" xlink:href="#me222656cb8" y="195.833578"/>
      </g>
     </g>
     <g id="text_11">
      <!-- 38 -->
      <g transform="translate(31.251377 199.632797)scale(0.1 -0.1)">
       <use xlink:href="#DejaVuSans-33"/>
       <use x="63.623047" xlink:href="#DejaVuSans-38"/>
      </g>
     </g>
    </g>
    <g id="ytick_4">
     <g id="line2d_21">
      <path clip-path="url(#p5ae87ca083)" d="M 50.976377 148.212669 
L 553.176377 148.212669 
" style="fill:none;stroke:#b0b0b0;stroke-linecap:square;stroke-width:0.8;"/>
     </g>
     <g id="line2d_22">
      <g>
       <use style="stroke:#000000;stroke-width:0.8;" x="50.976377" xlink:href="#me222656cb8" y="148.212669"/>
      </g>
     </g>
     <g id="text_12">
      <!-- 40 -->
      <g transform="translate(31.251377 152.011888)scale(0.1 -0.1)">
       <use xlink:href="#DejaVuSans-34"/>
       <use x="63.623047" xlink:href="#DejaVuSans-30"/>
      </g>
     </g>
    </g>
    <g id="ytick_5">
     <g id="line2d_23">
      <path clip-path="url(#p5ae87ca083)" d="M 50.976377 100.59176 
L 553.176377 100.59176 
" style="fill:none;stroke:#b0b0b0;stroke-linecap:square;stroke-width:0.8;"/>
     </g>
     <g id="line2d_24">
      <g>
       <use style="stroke:#000000;stroke-width:0.8;" x="50.976377" xlink:href="#me222656cb8" y="100.59176"/>
      </g>
     </g>
     <g id="text_13">
      <!-- 42 -->
      <g transform="translate(31.251377 104.390979)scale(0.1 -0.1)">
       <use xlink:href="#DejaVuSans-34"/>
       <use x="63.623047" xlink:href="#DejaVuSans-32"/>
      </g>
     </g>
    </g>
    <g id="ytick_6">
     <g id="line2d_25">
      <path clip-path="url(#p5ae87ca083)" d="M 50.976377 52.970852 
L 553.176377 52.970852 
" style="fill:none;stroke:#b0b0b0;stroke-linecap:square;stroke-width:0.8;"/>
     </g>
     <g id="line2d_26">
      <g>
       <use style="stroke:#000000;stroke-width:0.8;" x="50.976377" xlink:href="#me222656cb8" y="52.970852"/>
      </g>
     </g>
     <g id="text_14">
      <!-- 44 -->
      <g transform="translate(31.251377 56.77007)scale(0.1 -0.1)">
       <use xlink:href="#DejaVuSans-34"/>
       <use x="63.623047" xlink:href="#DejaVuSans-34"/>
      </g>
     </g>
    </g>
   </g>
   <g id="line2d_27">
    <path clip-path="url(#p5ae87ca083)" d="M 51.143072 291.107273 
L 51.733142 290.377113 
L 52.323212 289.924939 
L 52.913281 289.125363 
L 53.503351 289.185347 
L 54.093421 288.900402 
L 54.68349 288.760594 
L 55.27356 288.427728 
L 56.453699 286.838214 
L 57.043769 286.996797 
L 57.633838 286.581832 
L 58.223908 286.021995 
L 58.813977 285.845713 
L 59.404047 285.343689 
L 59.994117 284.666966 
L 60.584186 284.183542 
L 61.174256 284.278635 
L 61.764325 283.410879 
L 62.354395 283.384097 
L 62.944465 283.238237 
L 64.124604 282.294709 
L 64.714673 282.419043 
L 65.304743 280.868852 
L 65.894813 281.263011 
L 66.484882 280.597505 
L 67.074952 280.460884 
L 67.665021 280.673833 
L 68.255091 279.7193 
L 68.845161 279.659273 
L 69.43523 278.781907 
L 70.0253 278.115439 
L 70.615369 278.455193 
L 71.205439 278.207124 
L 71.795509 277.35681 
L 72.385578 277.048039 
L 72.975648 276.435532 
L 73.565717 276.171883 
L 74.155787 275.163565 
L 74.745857 275.300429 
L 75.335926 274.50022 
L 76.516066 274.266839 
L 77.106135 274.597581 
L 77.696205 272.729347 
L 78.286274 272.624009 
L 78.876344 272.671068 
L 80.056483 271.40095 
L 80.646553 271.372438 
L 81.236622 270.804348 
L 81.826692 270.90531 
L 82.416762 270.606762 
L 83.006831 269.594749 
L 83.596901 269.493795 
L 84.18697 269.14448 
L 84.77704 269.125012 
L 85.957179 267.728852 
L 86.547249 267.756616 
L 87.727388 266.947132 
L 88.317458 266.449654 
L 88.907527 265.193559 
L 89.497597 265.091127 
L 90.087667 265.693429 
L 90.677736 264.454728 
L 91.267806 264.188603 
L 91.857875 264.296065 
L 92.447945 263.723335 
L 93.038015 262.840801 
L 93.628084 262.5203 
L 94.218154 262.38405 
L 94.808223 261.798786 
L 95.988363 260.934197 
L 96.578432 260.787631 
L 97.168502 259.756185 
L 98.348641 259.463332 
L 98.938711 258.888242 
L 99.52878 258.857783 
L 100.11885 258.465025 
L 100.708919 257.793321 
L 101.298989 257.470671 
L 101.889059 257.307499 
L 102.479128 257.303359 
L 103.069198 256.391232 
L 103.659267 255.751772 
L 104.249337 255.644307 
L 105.429476 254.850941 
L 106.019546 254.400256 
L 106.609615 253.582922 
L 107.199685 253.247263 
L 107.789755 253.567921 
L 108.379824 252.675206 
L 108.969894 253.181558 
L 109.559964 251.677896 
L 110.150033 251.103961 
L 110.740103 251.138596 
L 111.330172 251.01441 
L 111.920242 250.406049 
L 112.510311 250.259269 
L 113.100381 249.95024 
L 114.28052 249.947123 
L 114.87059 249.0009 
L 115.46066 248.388424 
L 116.050729 248.118035 
L 116.640799 247.495006 
L 117.230868 247.736843 
L 117.820938 247.262873 
L 118.411008 246.643332 
L 119.001077 245.746723 
L 119.591147 245.960229 
L 120.181216 244.905149 
L 120.771286 245.464136 
L 121.361356 244.470339 
L 121.951425 243.958648 
L 122.541495 244.177151 
L 123.131564 243.269996 
L 123.721634 243.221074 
L 124.311704 242.834209 
L 125.491843 242.617587 
L 126.081913 241.703033 
L 126.671982 241.643641 
L 127.262052 240.422427 
L 127.852121 240.424311 
L 128.442191 240.290621 
L 129.62233 239.330784 
L 130.2124 239.363417 
L 130.802469 238.759832 
L 131.392539 238.322445 
L 131.982609 237.245461 
L 132.572678 237.555962 
L 133.162748 236.941233 
L 133.752817 236.785725 
L 134.932957 236.118288 
L 136.113096 235.031939 
L 137.293235 234.921585 
L 137.883305 233.93685 
L 138.473374 233.476152 
L 139.063444 233.529288 
L 139.653513 233.098255 
L 140.243583 232.454251 
L 141.423722 232.027672 
L 142.013792 232.228362 
L 142.603862 231.925371 
L 143.193931 231.266397 
L 144.96414 230.577138 
L 145.554209 229.919047 
L 146.144279 230.009665 
L 146.734349 229.307291 
L 147.324418 228.840395 
L 147.914488 229.076992 
L 148.504558 228.700172 
L 149.094627 228.13443 
L 149.684697 227.080129 
L 150.274766 226.736794 
L 150.864836 226.754706 
L 152.044975 225.801696 
L 152.635045 225.580359 
L 153.225114 225.683323 
L 153.815184 224.697995 
L 154.405254 224.377987 
L 154.995323 223.520561 
L 155.585393 223.628697 
L 156.175462 222.780942 
L 156.765532 222.733846 
L 157.945671 221.709869 
L 158.535741 221.994459 
L 159.12581 221.434139 
L 160.30595 220.795107 
L 160.896019 219.784043 
L 162.076159 219.645188 
L 162.666228 219.419722 
L 163.256298 218.647164 
L 164.436437 217.966402 
L 165.026507 217.773717 
L 165.616576 217.030407 
L 166.206646 216.860438 
L 166.796715 216.14315 
L 167.386785 215.989227 
L 167.976855 215.072445 
L 168.566924 215.36467 
L 169.156994 216.125309 
L 169.747063 214.742154 
L 170.337133 214.234234 
L 172.107342 213.334522 
L 172.697411 212.018276 
L 173.287481 212.866692 
L 173.877551 212.057396 
L 174.46762 212.13611 
L 175.05769 211.305943 
L 175.647759 211.168569 
L 176.237829 211.515642 
L 176.827899 210.3273 
L 177.417968 209.74289 
L 178.008038 209.471356 
L 178.598107 208.981899 
L 179.188177 208.775761 
L 179.778247 208.027386 
L 180.368316 208.317221 
L 181.548456 207.175272 
L 182.138525 207.304448 
L 182.728595 206.305771 
L 183.318664 206.112263 
L 183.908734 205.472544 
L 184.498803 205.05331 
L 185.088873 204.417076 
L 185.678943 204.778168 
L 186.269012 204.58421 
L 186.859082 203.773796 
L 187.449152 203.265393 
L 188.039221 203.32114 
L 188.629291 203.051092 
L 189.21936 202.433106 
L 189.80943 202.234153 
L 190.3995 202.353841 
L 190.989569 201.261526 
L 191.579639 201.278655 
L 192.759778 200.371295 
L 193.349848 200.511227 
L 193.939917 199.479399 
L 194.529987 199.151741 
L 195.120057 199.02504 
L 195.710126 198.768387 
L 196.300196 198.073193 
L 196.890265 197.555069 
L 197.480335 197.614464 
L 198.070405 196.781008 
L 198.660474 196.513742 
L 199.250544 196.601373 
L 199.840613 196.33569 
L 200.430683 195.557846 
L 202.200892 193.956656 
L 202.790961 193.92528 
L 203.381031 193.412062 
L 203.971101 193.221356 
L 205.74131 191.505426 
L 206.331379 191.573506 
L 206.921449 190.840525 
L 207.511518 191.223172 
L 208.101588 190.334763 
L 208.691657 190.151384 
L 209.281727 189.445737 
L 209.871797 189.427941 
L 210.461866 189.152657 
L 212.232075 187.522034 
L 212.822145 187.379271 
L 213.412214 186.332765 
L 214.592354 186.041654 
L 215.772493 185.278575 
L 216.362562 184.322562 
L 216.952632 184.838934 
L 218.132771 183.580649 
L 218.722841 184.052831 
L 219.90298 182.756966 
L 222.263258 181.926758 
L 222.853328 181.060003 
L 223.443398 180.975489 
L 224.033467 180.048037 
L 224.623537 179.706342 
L 225.213606 179.598432 
L 226.393746 178.495214 
L 226.983815 178.696173 
L 227.573885 178.485618 
L 228.163954 177.439648 
L 228.754024 176.835004 
L 229.344094 176.581566 
L 229.934163 176.132874 
L 230.524233 176.445743 
L 231.114303 175.381041 
L 231.704372 175.262359 
L 233.474581 173.653091 
L 234.064651 174.021805 
L 234.65472 173.552932 
L 235.24479 173.488806 
L 236.424929 171.925659 
L 237.014999 171.477131 
L 237.605068 171.773658 
L 238.785208 171.076334 
L 239.375277 170.34705 
L 240.555416 169.521647 
L 241.145486 168.956316 
L 241.735555 168.898608 
L 242.325625 168.309108 
L 242.915695 168.309573 
L 244.095834 167.325983 
L 244.685904 167.279375 
L 245.275973 166.669595 
L 245.866043 166.41565 
L 246.456112 165.446659 
L 247.046182 165.496031 
L 248.226321 164.399401 
L 249.40646 163.868038 
L 249.99653 163.799246 
L 250.5866 162.75436 
L 251.766739 161.941318 
L 252.356808 161.400985 
L 252.946878 162.104241 
L 253.536948 160.851614 
L 254.127017 160.764781 
L 254.717087 160.484522 
L 255.307156 159.65899 
L 255.897226 159.186355 
L 256.487296 159.151503 
L 257.077365 158.890029 
L 257.667435 158.166016 
L 258.847574 157.37654 
L 259.437644 157.607522 
L 260.027713 156.932206 
L 260.617783 156.612107 
L 261.207852 156.534058 
L 262.387992 155.148174 
L 262.978061 154.811378 
L 263.568131 154.785943 
L 264.74827 153.970875 
L 265.33834 154.210545 
L 265.928409 153.029702 
L 266.518479 152.66379 
L 267.108549 152.721342 
L 267.698618 152.326657 
L 268.878757 151.181752 
L 270.648966 150.432589 
L 271.239036 149.596708 
L 271.829105 149.815348 
L 272.419175 149.544409 
L 273.009245 149.025775 
L 273.599314 148.799396 
L 274.189384 148.327967 
L 274.779453 147.552557 
L 275.369523 147.46877 
L 275.959593 146.924343 
L 276.549662 147.34938 
L 277.139732 147.025594 
L 277.729802 145.847115 
L 279.50001 144.915775 
L 280.09008 144.69904 
L 280.680149 144.198133 
L 281.860289 143.51544 
L 283.040428 142.636483 
L 283.630498 141.575224 
L 284.220567 141.425013 
L 284.810637 141.639652 
L 285.400706 140.941436 
L 286.580846 140.033405 
L 287.170915 139.964084 
L 287.760985 139.155827 
L 288.351054 139.019788 
L 288.941124 138.177586 
L 289.531194 137.939891 
L 290.121263 137.537586 
L 290.711333 137.465004 
L 291.301402 136.5835 
L 291.891472 136.376191 
L 293.661681 135.325179 
L 294.25175 134.77516 
L 294.84182 134.69456 
L 295.43189 134.396161 
L 296.021959 133.931036 
L 296.612029 133.809318 
L 297.792168 132.674059 
L 298.382238 132.65418 
L 298.972307 132.108544 
L 300.152447 131.773272 
L 300.742516 130.795856 
L 301.922655 130.332939 
L 302.512725 129.623177 
L 303.692864 129.05243 
L 304.282934 129.01644 
L 305.463073 127.800845 
L 306.053143 127.920858 
L 306.643212 127.261755 
L 307.233282 126.788718 
L 307.823351 126.638587 
L 309.003491 126.004064 
L 309.59356 125.143058 
L 310.18363 124.88052 
L 310.7737 124.908334 
L 311.363769 123.824438 
L 311.953839 123.535327 
L 312.543908 122.902486 
L 313.133978 122.679396 
L 313.724047 123.563633 
L 314.314117 122.084332 
L 314.904187 121.592371 
L 315.494256 121.29926 
L 316.084326 121.311404 
L 317.264465 120.532743 
L 318.444604 119.015758 
L 319.034674 119.3348 
L 319.624744 118.571978 
L 320.214813 118.477465 
L 321.394952 117.559997 
L 321.985022 117.38454 
L 322.575092 117.028504 
L 323.165161 116.426062 
L 323.755231 116.18719 
L 324.3453 115.365509 
L 324.93537 114.091989 
L 325.52544 114.399257 
L 326.115509 114.076897 
L 326.705579 113.950679 
L 327.885718 112.619624 
L 328.475788 112.531751 
L 329.065857 112.878716 
L 329.655927 111.789508 
L 330.245996 111.955882 
L 331.426136 110.625653 
L 332.606275 110.502849 
L 333.786414 109.070527 
L 334.966553 108.454613 
L 335.556623 108.448385 
L 336.146693 107.341994 
L 336.736762 107.474457 
L 337.326832 107.128939 
L 338.506971 105.910055 
L 339.097041 105.80292 
L 339.68711 105.361836 
L 340.27718 105.394393 
L 340.867249 104.406458 
L 342.637458 103.446 
L 343.227528 103.305629 
L 344.407667 102.028034 
L 344.997737 102.525695 
L 345.587806 101.520335 
L 346.177876 100.760924 
L 346.767946 100.939034 
L 347.358015 100.924607 
L 347.948085 100.173192 
L 348.538154 100.165536 
L 349.128224 99.994611 
L 349.718294 98.900426 
L 350.308363 98.89222 
L 351.488502 97.578961 
L 352.078572 97.682427 
L 353.258711 96.939331 
L 353.848781 95.829698 
L 354.43885 96.131372 
L 355.61899 94.900722 
L 356.209059 94.594415 
L 356.799129 94.851313 
L 357.389198 94.061506 
L 357.979268 94.302289 
L 358.569338 93.291785 
L 359.159407 93.459496 
L 360.339547 92.525041 
L 360.929616 92.121979 
L 361.519686 91.976089 
L 362.109755 91.41203 
L 362.699825 91.477209 
L 363.289894 90.60956 
L 363.879964 90.78651 
L 364.470034 90.287168 
L 365.060103 89.962105 
L 365.650173 89.119753 
L 366.240243 89.143341 
L 367.420382 88.642785 
L 368.600521 87.864657 
L 369.190591 87.716337 
L 369.78066 86.950184 
L 370.37073 86.978526 
L 371.550869 86.443795 
L 372.731008 85.303157 
L 373.321078 85.293511 
L 373.911147 84.944558 
L 374.501217 84.979066 
L 375.091287 83.999411 
L 375.681356 83.509566 
L 376.271426 83.586173 
L 376.861495 82.516318 
L 377.451565 82.543383 
L 378.041635 82.300981 
L 378.631704 81.753746 
L 379.221774 81.689883 
L 379.811844 80.779708 
L 380.401913 80.373575 
L 380.991983 79.718103 
L 381.582052 80.021565 
L 382.172122 79.208593 
L 382.762192 79.101982 
L 383.352261 78.533587 
L 383.942331 77.672327 
L 384.5324 77.646944 
L 385.12247 77.45614 
L 385.71254 77.797568 
L 386.302609 76.358444 
L 386.892679 76.140445 
L 387.482748 75.687944 
L 388.072818 75.704412 
L 388.662888 75.463501 
L 389.252957 75.581674 
L 389.843027 75.215932 
L 391.613236 75.593811 
L 392.203305 74.96555 
L 392.793375 74.865128 
L 393.383444 75.325885 
L 393.973514 74.842832 
L 394.563584 75.028135 
L 395.153653 74.874085 
L 395.743723 74.45149 
L 396.333792 74.629617 
L 396.923862 73.034052 
L 397.513932 73.308277 
L 398.104001 73.751607 
L 398.694071 73.110617 
L 399.284141 73.215235 
L 399.87421 73.532461 
L 400.46428 73.374547 
L 401.054349 73.626206 
L 401.644419 73.219993 
L 402.234488 73.048749 
L 403.414628 73.299972 
L 404.004697 73.402599 
L 404.594767 73.254013 
L 405.184837 73.60949 
L 406.364976 73.156356 
L 407.545115 73.258211 
L 408.135185 72.884888 
L 408.725254 73.803339 
L 409.315324 72.285385 
L 409.905393 72.713609 
L 410.495463 72.91694 
L 411.085533 71.958977 
L 411.675602 72.106868 
L 412.265672 71.118539 
L 412.855742 71.309838 
L 413.445811 70.849961 
L 414.035881 70.923397 
L 414.62595 71.50995 
L 415.21602 71.642565 
L 415.80609 71.656295 
L 416.396159 71.478612 
L 416.986229 71.58185 
L 418.166368 70.436879 
L 418.756438 70.389959 
L 419.346507 69.843121 
L 419.936577 70.682913 
L 421.116716 69.792901 
L 421.706786 70.043607 
L 422.296855 70.070949 
L 423.476994 70.362621 
L 424.657134 70.20454 
L 425.247203 69.653454 
L 426.427342 70.324478 
L 427.017412 70.218145 
L 427.607482 70.229073 
L 428.197551 70.660108 
L 428.787621 69.78492 
L 429.37769 69.425158 
L 430.55783 68.142238 
L 431.147899 68.132239 
L 432.328039 67.497584 
L 432.918108 66.994739 
L 433.508178 66.661589 
L 434.098247 66.625592 
L 434.688317 65.643981 
L 435.868456 65.915371 
L 436.458526 65.68453 
L 437.048595 65.814087 
L 437.638665 65.81159 
L 438.228735 65.582467 
L 438.818804 65.110894 
L 439.408874 65.685677 
L 440.589013 65.464294 
L 441.179083 65.096556 
L 441.769152 65.672735 
L 442.359222 65.179038 
L 442.949291 64.852586 
L 443.539361 64.106952 
L 444.129431 63.889042 
L 445.30957 63.149667 
L 445.899639 62.439759 
L 446.489709 62.159951 
L 447.079779 62.367523 
L 447.669848 61.793298 
L 448.259918 61.04733 
L 450.030127 59.938967 
L 450.620196 59.200904 
L 451.210266 59.254431 
L 452.390405 58.471317 
L 452.980475 59.160726 
L 453.570544 59.560157 
L 454.160614 58.420141 
L 454.750684 58.039612 
L 455.340753 58.144597 
L 455.930823 57.491524 
L 456.520893 57.661578 
L 457.110962 56.669383 
L 457.701032 56.654406 
L 458.291101 56.153316 
L 458.881171 56.11802 
L 459.47124 55.919524 
L 460.06131 56.043877 
L 460.65138 55.955734 
L 461.241449 55.494767 
L 461.831519 55.906284 
L 462.421589 55.301419 
L 463.011658 55.053494 
L 463.601728 55.126951 
L 464.781867 53.901787 
L 465.371937 53.286441 
L 465.962006 53.165437 
L 466.552076 53.166471 
L 467.142145 52.872619 
L 467.732215 53.034185 
L 468.912354 53.059911 
L 469.502424 52.463887 
L 470.092493 52.403361 
L 470.682563 52.557708 
L 471.272633 52.182464 
L 471.862702 52.293263 
L 472.452772 51.904905 
L 473.042841 51.301948 
L 473.632911 51.060611 
L 474.222981 51.220041 
L 474.81305 51.02547 
L 475.40312 51.127979 
L 475.993189 50.90108 
L 476.583259 51.228723 
L 477.173329 50.673841 
L 478.353468 50.772407 
L 479.533607 50.116969 
L 480.123677 50.080333 
L 480.713746 49.403858 
L 481.303816 48.462263 
L 482.483955 47.939641 
L 483.074025 48.230067 
L 484.254164 47.033431 
L 484.844234 46.707758 
L 486.024373 46.89535 
L 486.614442 46.767255 
L 487.204512 46.928684 
L 487.794582 45.46374 
L 488.384651 46.052893 
L 488.974721 46.425049 
L 489.56479 45.81227 
L 490.15486 46.298127 
L 491.334999 45.736325 
L 491.925069 46.130074 
L 492.515138 45.885373 
L 493.105208 45.449968 
L 493.695278 45.2817 
L 494.285347 45.233387 
L 494.875417 45.04866 
L 495.465487 44.491307 
L 496.055556 44.314228 
L 496.645626 43.463616 
L 497.235695 43.882183 
L 497.825765 43.444707 
L 498.415834 43.486739 
L 499.005904 43.686221 
L 499.595974 43.538446 
L 500.186043 43.74944 
L 500.776113 43.832713 
L 501.956252 43.124783 
L 502.546322 43.133631 
L 503.136391 42.651408 
L 503.726461 41.882333 
L 504.316531 42.078728 
L 504.9066 41.880597 
L 506.086739 42.388008 
L 507.266879 41.911952 
L 507.856948 42.323413 
L 508.447018 41.969063 
L 509.627157 41.738311 
L 510.217227 41.662643 
L 510.807296 41.344804 
L 511.397366 41.486906 
L 511.987435 41.224699 
L 512.577505 40.730572 
L 513.167575 40.60305 
L 513.757644 40.05076 
L 514.347714 39.716134 
L 514.937783 39.866657 
L 515.527853 40.594971 
L 516.117923 39.815249 
L 516.707992 38.497381 
L 519.068271 37.806593 
L 519.65834 37.253482 
L 520.24841 37.47989 
L 520.83848 37.44512 
L 521.428549 36.790804 
L 522.018619 36.470136 
L 523.198758 35.375082 
L 523.788828 34.499738 
L 524.378897 34.481209 
L 524.968967 34.605175 
L 526.149106 33.537533 
L 526.739176 34.048635 
L 527.329245 34.154249 
L 527.919315 33.780704 
L 528.509385 33.630588 
L 529.099454 33.834534 
L 529.689524 33.587768 
L 530.279593 33.098963 
L 530.869663 33.464873 
L 532.049802 33.019816 
L 532.639872 33.678207 
L 533.229941 33.346517 
L 533.820011 33.352336 
L 534.410081 33.226206 
L 535.00015 33.254962 
L 535.59022 33.4745 
L 536.180289 33.128711 
L 536.770359 33.537657 
L 537.360429 32.421569 
L 537.950498 32.530502 
L 538.540568 32.351645 
L 539.130637 31.577542 
L 539.720707 31.815726 
L 540.900846 29.91125 
L 541.490916 30.577694 
L 542.671055 30.697627 
L 543.261125 30.173208 
L 543.851194 29.446158 
L 544.441264 29.113444 
L 545.031333 29.709046 
L 545.621403 28.59402 
L 546.211473 28.415101 
L 546.801542 28.437989 
L 547.391612 27.809857 
L 547.981681 28.110133 
L 548.571751 27.035163 
L 549.161821 26.430346 
L 549.75189 25.531451 
L 550.34196 25.702782 
L 550.932029 25.271996 
L 551.522099 24.562997 
L 552.702238 24.052727 
L 552.702238 24.052727 
" style="fill:none;stroke:#1f77b4;stroke-linecap:square;stroke-width:1.5;"/>
   </g>
   <g id="patch_3">
    <path d="M 50.976377 304.46 
L 50.976377 10.7 
" style="fill:none;stroke:#000000;stroke-linecap:square;stroke-linejoin:miter;stroke-width:0.8;"/>
   </g>
   <g id="patch_4">
    <path d="M 553.176377 304.46 
L 553.176377 10.7 
" style="fill:none;stroke:#000000;stroke-linecap:square;stroke-linejoin:miter;stroke-width:0.8;"/>
   </g>
   <g id="patch_5">
    <path d="M 50.976377 304.46 
L 553.176377 304.46 
" style="fill:none;stroke:#000000;stroke-linecap:square;stroke-linejoin:miter;stroke-width:0.8;"/>
   </g>
   <g id="patch_6">
    <path d="M 50.976377 10.7 
L 553.176377 10.7 
" style="fill:none;stroke:#000000;stroke-linecap:square;stroke-linejoin:miter;stroke-width:0.8;"/>
   </g>
   <g id="legend_1">
    <g id="patch_7">
     <path d="M 57.976377 33.378125 
L 106.734189 33.378125 
Q 108.734189 33.378125 108.734189 31.378125 
L 108.734189 17.7 
Q 108.734189 15.7 106.734189 15.7 
L 57.976377 15.7 
Q 55.976377 15.7 55.976377 17.7 
L 55.976377 31.378125 
Q 55.976377 33.378125 57.976377 33.378125 
z
" style="fill:#ffffff;opacity:0.8;stroke:#cccccc;stroke-linejoin:miter;"/>
    </g>
    <g id="line2d_28">
     <path d="M 59.976377 23.798437 
L 79.976377 23.798437 
" style="fill:none;stroke:#1f77b4;stroke-linecap:square;stroke-width:1.5;"/>
    </g>
    <g id="line2d_29"/>
    <g id="text_15">
     <!-- TID -->
     <defs>
      <path d="M 9.8125 72.90625 
L 19.671875 72.90625 
L 19.671875 0 
L 9.8125 0 
z
" id="DejaVuSans-49"/>
      <path d="M 19.671875 64.796875 
L 19.671875 8.109375 
L 31.59375 8.109375 
Q 46.6875 8.109375 53.6875 14.9375 
Q 60.6875 21.78125 60.6875 36.53125 
Q 60.6875 51.171875 53.6875 57.984375 
Q 46.6875 64.796875 31.59375 64.796875 
z
M 9.8125 72.90625 
L 30.078125 72.90625 
Q 51.265625 72.90625 61.171875 64.09375 
Q 71.09375 55.28125 71.09375 36.53125 
Q 71.09375 17.671875 61.125 8.828125 
Q 51.171875 0 30.078125 0 
L 9.8125 0 
z
" id="DejaVuSans-44"/>
     </defs>
     <g transform="translate(87.976377 27.298437)scale(0.1 -0.1)">
      <use xlink:href="#DejaVuSans-54"/>
      <use x="61.083984" xlink:href="#DejaVuSans-49"/>
      <use x="90.576172" xlink:href="#DejaVuSans-44"/>
     </g>
    </g>
   </g>
  </g>
 </g>
 <defs>
  <clipPath id="p5ae87ca083">
   <rect height="293.76" width="502.2" x="50.976377" y="10.7"/>
  </clipPath>
 </defs>
</svg>
